ply
format ascii 1.0
comment Created by Blender 2.79 (sub 0) - www.blender.org, source file: 'untitled.blend'
element vertex 141
property float x
property float y
property float z
property uchar red
property uchar green
property uchar blue
element face 160
property list uchar uint vertex_indices
end_header
-0.240634 0.243710 0.143960 255 188 0
-0.240634 0.121855 -0.143960 242 193 0
-0.240634 0.121855 0.143960 255 188 0
0.301559 0.000000 -0.190181 255 188 0
0.003076 0.298483 -0.190181 242 193 0
0.246786 0.243710 -0.143960 242 193 0
0.246786 0.243710 -0.143960 255 188 0
0.301559 0.000000 0.190181 255 188 0
0.301559 0.000000 -0.190181 246 192 0
0.246786 -0.243710 0.143960 254 187 2
0.003076 -0.298483 0.190181 255 188 0
0.246786 -0.243710 -0.143960 188 94 19
0.003076 -0.298483 0.190181 188 94 19
0.003076 -0.298483 -0.190181 188 94 19
-0.240634 0.243710 -0.143960 255 245 0
0.003076 0.298483 0.190181 255 245 0
0.003076 0.298483 -0.190181 255 245 0
0.246786 0.243710 0.143960 255 245 0
0.246786 0.243710 -0.143960 255 245 0
-0.240634 -0.243710 0.143960 188 94 19
-0.240634 -0.243710 -0.143960 188 94 19
0.003076 0.298483 0.190181 255 188 0
0.246786 0.243710 0.143960 255 188 0
0.246786 -0.243710 0.143960 251 184 6
0.246786 -0.243710 -0.143960 255 188 0
0.003076 -0.298483 -0.190181 255 188 0
-0.240634 0.121855 -0.143960 255 188 0
-0.240634 -0.121855 -0.143960 255 188 0
-0.240634 -0.121855 0.143960 188 94 19
-0.240634 0.121855 -0.143960 255 245 0
-0.520912 0.104000 0.122866 255 245 0
-0.240634 0.121855 0.143960 255 245 0
-0.520912 0.104000 -0.122866 255 245 0
-0.614589 0.104000 0.122866 255 245 0
-0.520912 0.104000 -0.122866 242 193 0
-0.520912 -0.104000 0.122866 255 188 0
-0.240634 -0.121855 0.143960 255 188 0
-0.520912 -0.104000 -0.122866 188 94 19
-0.240634 -0.121855 -0.143960 188 94 19
-0.614589 -0.104000 0.122866 123 61 13
-0.655352 -0.104000 -0.122866 123 61 13
-0.614589 -0.104000 -0.122866 123 61 13
-0.520912 -0.104000 -0.122866 255 188 0
-0.614589 0.104000 -0.122866 242 193 0
-0.614589 -0.283148 0.122866 123 61 13
-0.614589 -0.104000 0.122866 125 63 13
-0.520912 0.104000 0.122866 255 188 0
-0.614589 -0.104000 0.122866 255 188 0
-0.655352 0.104000 -0.122866 255 245 0
-0.766986 0.104000 0.122866 255 245 0
-0.655352 0.104000 0.122866 255 245 0
-0.614589 0.104000 0.122866 255 188 0
-0.655352 -0.104000 0.122866 255 188 0
-0.614589 0.104000 -0.122866 255 245 0
-0.614589 -0.104000 -0.122866 255 188 0
-0.655352 0.104000 -0.122866 242 193 0
-0.766986 0.104000 0.122866 252 189 0
-0.766986 -0.104000 -0.122866 255 188 0
-0.766986 -0.104000 0.122866 255 188 0
-0.655352 -0.104000 -0.122866 255 188 0
-0.766986 0.104000 -0.122866 242 193 0
-0.614589 -0.283148 -0.122866 255 188 0
-0.655352 0.104000 0.122866 255 188 0
-0.520912 -0.283148 0.122866 188 94 19
-0.614589 -0.283148 -0.122866 188 94 19
-0.520912 -0.283148 -0.122866 188 94 19
-0.655352 -0.283148 0.122866 188 94 19
-0.766986 -0.283148 -0.122866 188 94 19
-0.655352 -0.283148 -0.122866 188 94 19
-0.766986 -0.283148 -0.122866 255 188 0
-0.766986 -0.283148 0.122866 255 188 0
-0.520912 -0.283148 0.122866 255 188 0
-0.520912 -0.283148 -0.122866 250 183 7
-0.655352 -0.283148 0.122866 255 188 0
-0.655352 -0.104000 0.122866 123 61 13
-0.655352 -0.283148 -0.122866 123 61 13
-0.240634 0.243710 -0.143960 242 193 0
0.246786 -0.243710 0.143960 188 94 19
-0.240634 0.243710 0.143960 255 245 0
-0.240634 -0.243710 0.143960 255 188 0
-0.240634 -0.243710 -0.143960 255 188 0
-0.520912 -0.104000 0.122866 188 94 19
-0.614589 -0.283148 -0.122866 123 61 13
-0.766986 0.104000 -0.122866 255 245 0
-0.520912 -0.283148 -0.122866 255 188 0
-0.766986 0.104000 0.122866 254 189 0
-0.614589 -0.283148 0.122866 188 94 19
-0.766986 -0.283148 0.122866 188 94 19
-0.655352 -0.283148 -0.122866 255 188 0
-0.614589 -0.283148 0.122866 255 188 0
-0.655352 -0.283148 0.122866 123 61 13
-0.270201 0.265817 0.166657 0 0 0
-0.259699 0.133892 0.180969 0 0 0
-0.259699 0.133892 -0.180969 0 0 0
0.333752 0.000000 -0.219191 0 0 0
0.274039 0.270962 -0.163776 0 0 0
0.001791 0.330050 -0.219844 0 0 0
0.333752 -0.000000 0.219191 0 0 0
0.274039 -0.270962 0.163776 0 0 0
0.001791 -0.330050 0.219844 0 0 0
0.274039 -0.270962 -0.163776 0 0 0
0.001791 -0.330050 -0.219844 0 0 0
-0.270201 0.265817 -0.166657 0 0 0
0.001791 0.330050 0.219844 0 0 0
0.274039 0.270962 0.163776 0 0 0
-0.270201 -0.265817 -0.166657 0 0 0
-0.270201 -0.265817 0.166657 0 0 0
-0.259699 -0.133892 -0.180969 0 0 0
-0.259699 -0.133892 0.180969 0 0 0
-0.270201 -0.265817 0.166657 2 2 1
-0.523081 0.134666 0.153410 0 0 0
-0.523081 0.134666 -0.153410 0 0 0
-0.614589 0.134643 0.153510 0 0 0
-0.509762 -0.117631 0.162463 0 0 0
-0.509762 -0.117631 -0.162463 0 0 0
-0.627656 -0.117066 0.162065 0 0 0
-0.627656 -0.117066 -0.162065 0 0 0
-0.642286 -0.117066 -0.162065 0 0 0
-0.614589 0.134643 -0.153510 0 0 0
-0.627656 -0.117066 -0.162065 89 45 9
-0.639609 -0.308169 0.147886 18 8 2
-0.655352 0.134643 -0.153510 0 0 0
-0.655352 0.134643 0.153510 0 0 0
-0.792006 0.129020 0.147886 0 0 0
-0.642286 -0.117066 0.162065 0 0 0
-0.797630 -0.104000 0.153510 0 0 0
-0.797630 -0.104000 -0.153510 0 0 0
-0.792006 0.129020 -0.147886 0 0 0
-0.639609 -0.308169 -0.147886 0 0 0
-0.495892 -0.308169 0.147886 0 0 0
-0.495892 -0.308169 -0.147886 0 0 0
-0.630332 -0.308169 0.147886 0 0 0
-0.630332 -0.308169 -0.147886 0 0 0
-0.792006 -0.308169 -0.147886 0 0 0
-0.792006 -0.308169 0.147886 0 0 0
-0.627656 -0.117066 -0.162065 123 61 13
-0.639609 -0.308169 0.147886 123 61 13
-0.639609 -0.308169 -0.147886 123 61 13
-0.792006 0.129020 -0.147886 18 15 0
-0.639609 -0.308169 0.147886 0 0 0
-0.630332 -0.308169 -0.147886 27 14 3
3 0 1 2
3 3 4 5
3 6 7 8
3 9 7 10
3 11 12 13
3 14 15 16
3 16 17 18
3 13 19 20
3 10 7 21
3 7 22 21
3 21 0 2
3 8 23 24
3 25 4 3
3 25 3 24
3 26 4 27
3 28 20 19
3 29 30 31
3 32 33 30
3 27 34 26
3 2 35 36
3 28 37 38
3 39 40 41
3 42 43 34
3 41 44 45
3 46 47 35
3 48 49 50
3 51 52 47
3 53 50 33
3 54 55 43
3 56 57 58
3 59 60 55
3 42 61 54
3 62 58 52
3 63 64 65
3 66 67 68
3 59 69 57
3 57 70 58
3 47 71 35
3 35 72 42
3 58 73 52
3 74 75 40
3 0 76 1
3 6 22 7
3 11 77 12
3 14 78 15
3 16 15 17
3 13 12 19
3 36 79 10
3 10 21 2
3 2 36 10
3 8 7 23
3 25 80 27
3 26 76 4
3 25 27 4
3 28 38 20
3 29 32 30
3 32 53 33
3 27 42 34
3 2 46 35
3 28 81 37
3 39 74 40
3 42 54 43
3 41 82 44
3 46 51 47
3 48 83 49
3 51 62 52
3 53 48 50
3 54 59 55
3 56 60 57
3 59 57 60
3 42 84 61
3 62 85 58
3 63 86 64
3 66 87 67
3 59 88 69
3 57 69 70
3 47 89 71
3 35 71 72
3 58 70 73
3 74 90 75
3 91 92 93
3 94 95 96
3 95 94 97
3 98 99 97
3 100 101 99
3 102 96 103
3 96 95 104
3 101 105 106
3 99 103 97
3 97 103 104
3 103 92 91
3 94 100 98
3 101 94 96
3 101 100 94
3 93 107 96
3 108 109 105
3 93 92 110
3 111 110 112
3 107 93 111
3 92 108 113
3 108 107 114
3 115 116 117
3 114 111 118
3 119 115 120
3 110 113 115
3 121 122 123
3 112 115 124
3 118 112 122
3 116 118 121
3 123 125 126
3 117 121 127
3 114 116 128
3 122 124 125
3 129 130 128
3 131 132 133
3 117 126 133
3 126 125 134
3 115 113 129
3 113 114 130
3 125 124 131
3 124 117 132
3 91 93 102
3 95 97 104
3 100 99 98
3 102 103 91
3 96 104 103
3 101 106 99
3 108 99 106
3 99 92 103
3 92 99 108
3 94 98 97
3 101 107 105
3 93 96 102
3 101 96 107
3 108 105 107
3 93 110 111
3 111 112 118
3 107 111 114
3 92 113 110
3 108 114 113
3 115 117 124
3 114 118 116
3 135 136 137
3 110 115 112
3 121 123 127
3 112 124 122
3 118 122 121
3 116 121 117
3 123 126 138
3 117 127 126
3 114 128 130
3 122 125 123
3 129 128 139
3 131 133 134
3 117 133 132
3 126 134 133
3 115 129 139
3 113 130 129
3 125 131 134
3 124 140 131
