ply
format ascii 1.0
comment Created by Blender 2.79 (sub 0) - www.blender.org, source file: 'untitled.blend'
element vertex 831
property float x
property float y
property float z
property float s
property float t
element face 780
property list uchar uint vertex_indices
end_header
0.996366 0.457200 1.580868 0.000000 0.625000
1.263007 0.215377 1.269536 0.500000 0.328125
1.289987 0.457200 1.286437 0.500000 0.625000
-0.149752 1.778543 -1.312830 0.468750 0.718750
0.191318 1.585036 -1.420529 0.484375 0.718750
-0.166580 1.585036 -1.460356 0.484375 0.734375
-0.054813 2.262188 -0.480529 0.468750 0.718750
-0.000000 2.296147 -0.000000 0.484375 0.718750
0.052148 2.262188 -0.468627 0.484375 0.734375
-0.204565 -0.026445 -1.793359 0.718750 0.062500
0.163912 -1.910527 -1.660794 0.718750 0.062500
-0.193987 -1.910527 -1.700620 0.718750 0.062500
-0.183408 1.391530 -1.607881 0.468750 0.718750
0.205197 1.166188 -1.656200 0.484375 0.718750
-0.193987 1.166188 -1.700620 0.484375 0.734375
-0.105891 2.075508 -0.928311 0.468750 0.718750
0.026609 2.168848 -0.692517 0.484375 0.718750
0.100742 2.075508 -0.905317 0.484375 0.734375
-0.204565 0.940845 -1.793359 0.468750 0.718750
0.205092 0.699022 -1.779003 0.484375 0.718750
-0.208173 0.699022 -1.824990 0.484375 0.734375
0.164401 1.927025 -1.088052 0.484375 0.718750
-0.127821 1.927025 -1.120570 0.484375 0.734375
0.532388 1.391530 -1.528229 0.468750 0.718750
0.903474 1.166188 -1.403153 0.484375 0.718750
0.563095 1.166188 -1.616373 0.484375 0.734375
0.307374 2.075508 -0.882323 0.468750 0.718750
0.324446 2.168848 -0.612392 0.484375 0.718750
0.483567 2.075508 -0.771952 0.484375 0.734375
0.614749 0.457200 -1.764647 0.468750 0.718750
0.944654 0.699022 -1.521362 0.484375 0.718750
0.967135 0.457200 -1.543905 0.484375 0.734375
0.620208 1.927025 -0.908970 0.484375 0.718750
0.371034 1.927025 -1.065059 0.484375 0.734375
-0.211782 0.457200 -1.856622 1.000000 0.625000
-0.587098 0.215377 -1.691812 0.500000 0.328125
-0.604073 0.457200 -1.718745 0.500000 0.625000
0.434693 1.778543 -1.247794 0.468750 0.718750
0.788716 1.585036 -1.196843 0.484375 0.718750
0.483541 1.585036 -1.388011 0.484375 0.734375
0.159109 2.262188 -0.456724 0.468750 0.718750
0.250313 2.262188 -0.399592 0.484375 0.734375
0.593802 -0.026445 -1.704518 0.718750 0.062500
0.868270 -1.910527 -1.425205 0.718750 0.062500
0.563095 -1.910527 -1.616374 0.718750 0.062500
0.933042 1.778543 -0.935617 0.468750 0.718750
1.229899 1.585036 -0.736107 0.484375 0.718750
1.037890 1.585036 -1.040755 0.484375 0.734375
0.341517 2.262188 -0.342460 0.468750 0.718750
0.398900 2.262188 -0.251413 0.484375 0.734375
1.274559 -0.026445 -1.278077 0.718750 0.062500
1.400657 -1.910527 -0.907337 0.718750 0.062500
1.208649 -1.910527 -1.211984 0.718750 0.062500
1.142739 1.391530 -1.145892 0.468750 0.718750
1.422807 1.166188 -0.872194 0.484375 0.718750
1.208649 1.166188 -1.211984 0.484375 0.734375
0.611495 2.168848 -0.326132 0.484375 0.718750
0.500639 2.168848 -0.502020 0.484375 0.734375
1.319521 0.457200 -1.323162 0.468750 0.718750
1.511198 0.699022 -0.960829 0.484375 0.718750
1.541233 0.457200 -0.971386 0.484375 0.734375
0.659760 2.075508 -0.661581 0.468750 0.718750
0.953175 1.927025 -0.549856 0.484375 0.718750
0.796401 1.927025 -0.798599 0.484375 0.734375
1.702875 0.940845 -0.598497 0.468750 0.718750
1.780036 0.699022 -0.195916 0.484375 0.718750
1.732910 0.699022 -0.609053 0.484375 0.734375
0.881472 2.075508 -0.309805 0.468750 0.718750
1.097355 1.927025 -0.081836 0.484375 0.718750
1.064031 1.927025 -0.373967 0.484375 0.734375
1.857197 0.457200 0.206665 0.000000 0.625000
1.693423 0.215377 0.582434 0.500000 0.328125
1.825556 0.215377 0.203144 0.000000 0.328125
1.246591 1.778543 -0.438130 0.468750 0.718750
1.427485 1.585036 -0.129577 0.484375 0.718750
1.386673 1.585036 -0.487364 0.484375 0.734375
0.456283 2.262188 -0.160367 0.468750 0.718750
0.468480 2.262188 -0.053439 0.484375 0.734375
1.526756 1.391530 -0.536597 0.468750 0.718750
1.660335 1.166188 -0.168487 0.484375 0.718750
1.614815 1.166188 -0.567547 0.484375 0.734375
0.692441 2.168848 -0.028518 0.484375 0.718750
0.668878 2.168848 -0.235086 0.484375 0.734375
1.608380 1.391530 0.178977 0.468750 0.718750
1.569014 1.166188 0.568590 0.484375 0.718750
1.701147 1.166188 0.189300 0.484375 0.734375
0.480677 2.262188 0.053488 0.468750 0.718750
0.636241 2.168848 0.274745 0.484375 0.718750
0.704638 2.168848 0.078410 0.484375 0.734375
1.857197 0.457200 0.206665 0.468750 0.718750
1.693423 0.699022 0.582434 0.484375 0.718750
1.720402 0.457200 0.599335 0.484375 0.734375
0.928598 2.075508 0.103332 0.468750 0.718750
1.024189 1.927025 0.402393 0.484375 0.718750
1.120917 1.927025 0.124733 0.484375 0.734375
-1.274559 -0.026445 1.278075 1.000000 0.031250
-1.518752 0.215377 0.948841 0.500000 0.328125
-1.488717 -0.026445 0.938285 0.500000 0.031250
1.313237 1.778543 0.146134 0.468750 0.718750
1.342341 1.585036 0.502618 0.484375 0.718750
1.460808 1.585036 0.162555 0.484375 0.734375
0.445272 2.262188 0.155119 0.484375 0.734375
-1.319521 0.457200 1.323160 1.000000 0.625000
-0.956661 0.215377 1.513838 0.500000 0.328125
-0.967135 0.457200 1.543903 0.500000 0.625000
1.119780 1.778543 0.701454 0.468750 0.718750
0.991329 1.585036 1.035263 0.484375 0.718750
1.245612 1.585036 0.780278 0.484375 0.734375
0.409867 2.262188 0.256749 0.468750 0.718750
0.333873 2.262188 0.332953 0.484375 0.734375
1.529648 -0.026445 0.958204 0.718750 0.062500
1.196263 -1.910527 1.163638 0.718750 0.062500
1.450547 -1.910527 0.908653 0.718750 0.062500
1.371445 1.391530 0.859102 0.468750 0.718750
1.166930 1.166188 1.193052 0.484375 0.718750
1.450547 1.166188 0.908653 0.484375 0.734375
0.454025 2.168848 0.523591 0.484375 0.718750
0.600836 2.168848 0.376376 0.484375 0.734375
1.583608 0.457200 0.992006 0.468750 0.718750
1.273012 0.699022 1.259503 0.484375 0.718750
1.289987 0.457200 1.286437 0.484375 0.734375
0.791804 2.075508 0.496003 0.468750 0.718750
0.748170 1.927025 0.806922 0.484375 0.718750
0.955792 1.927025 0.598728 0.484375 0.734375
0.996366 0.457200 1.580868 0.468750 0.718750
0.600465 0.699022 1.687112 0.484375 0.718750
0.604074 0.457200 1.718744 0.484375 0.734375
0.498183 2.075508 0.790434 0.468750 0.718750
0.323967 1.927025 1.051631 0.484375 0.718750
0.601360 1.927025 0.954138 0.484375 0.734375
1.762945 0.457200 -0.619609 0.000000 0.625000
1.778430 0.215377 -0.209993 0.500000 0.328125
1.732910 0.215377 -0.609053 0.000000 0.328125
0.704537 1.778543 1.117842 0.468750 0.718750
0.443973 1.585036 1.362861 0.484375 0.718750
0.783708 1.585036 1.243457 0.484375 0.734375
0.257878 2.262188 0.409158 0.468750 0.718750
0.156346 2.262188 0.444843 0.484375 0.734375
0.962416 -0.026445 1.527001 0.718750 0.062500
0.572912 -1.910527 1.567441 0.718750 0.062500
0.912647 -1.910527 1.448036 0.718750 0.062500
0.862878 1.391530 1.369072 0.468750 0.718750
0.533722 1.166188 1.581215 0.484375 0.718750
0.912647 1.166188 1.448037 0.484375 0.734375
0.276498 2.168848 0.635481 0.484375 0.718750
0.302037 2.075508 0.859371 0.484375 0.734375
0.204565 -0.026445 1.793357 0.718750 0.062500
-0.163912 -1.910527 1.660792 0.718750 0.062500
0.193987 -1.910527 1.700618 0.718750 0.062500
0.183408 1.391530 1.607880 0.468750 0.718750
-0.205197 1.166188 1.656198 0.484375 0.718750
0.193987 1.166188 1.700618 0.484375 0.734375
0.105891 2.075508 0.928309 0.468750 0.718750
-0.026609 2.168848 0.692516 0.484375 0.718750
-0.100742 2.075508 0.905316 0.484375 0.734375
0.211781 0.457200 1.856620 0.468750 0.718750
-0.191010 0.699022 1.780568 0.484375 0.718750
-0.201484 0.457200 1.810632 0.484375 0.734375
-0.164401 1.927025 1.088051 0.484375 0.718750
0.127821 1.927025 1.120569 0.484375 0.734375
-1.583607 0.457200 -0.992007 1.000000 0.625000
-1.273011 0.215377 -1.259505 0.500000 0.328125
-1.556628 0.215377 -0.975107 1.000000 0.328125
-0.125643 1.585036 1.427836 0.484375 0.718750
-0.174490 1.391530 1.568054 0.484375 0.734375
0.054813 2.262188 0.480527 0.468750 0.718750
-0.052148 2.262188 0.468625 0.484375 0.734375
-1.857196 0.457200 -0.206666 1.000000 0.593750
-1.780035 0.215377 0.195914 0.500000 0.312500
-1.810071 0.457200 0.206471 0.500000 0.593750
-0.434693 1.778543 1.247792 0.468750 0.718750
-0.788716 1.585036 1.196841 0.484375 0.718750
-0.483541 1.585036 1.388010 0.484375 0.734375
-0.159109 2.262188 0.456723 0.468750 0.718750
-0.250313 2.262188 0.399590 0.484375 0.734375
-0.532388 1.391530 1.528227 0.468750 0.718750
-0.903474 1.166188 1.403151 0.484375 0.718750
-0.563095 1.166188 1.616372 0.484375 0.734375
-0.307375 2.075508 0.882322 0.468750 0.718750
-0.324446 2.168848 0.612390 0.484375 0.718750
-0.483567 2.075508 0.771951 0.484375 0.734375
-0.614749 0.457200 1.764645 0.468750 0.718750
-0.944654 0.699022 1.521360 0.484375 0.718750
-0.967135 0.457200 1.543903 0.484375 0.734375
-0.620208 1.927025 0.908969 0.484375 0.718750
-0.371034 1.927025 1.065057 0.484375 0.734375
-1.274559 0.940845 1.278075 0.468750 0.718750
-1.518752 0.699022 0.948841 0.484375 0.718750
-1.297040 0.699022 1.300618 0.484375 0.734375
-0.659760 2.075508 0.661580 0.468750 0.718750
-0.953175 1.927025 0.549854 0.484375 0.718750
-0.796401 1.927025 0.798598 0.484375 0.734375
0.211781 0.457200 1.856620 1.000000 0.625000
-0.191010 0.215377 1.780568 0.500000 0.328125
0.208173 0.215377 1.824988 1.000000 0.328125
-0.933042 1.778543 0.935615 0.468750 0.718750
-1.229899 1.585036 0.736106 0.484375 0.718750
-1.037890 1.585036 1.040753 0.484375 0.734375
-0.341517 2.262188 0.342458 0.468750 0.718750
-0.398900 2.262188 0.251412 0.484375 0.734375
-1.274559 -0.026445 1.278075 0.718750 0.062500
-1.400657 -1.910527 0.907335 0.718750 0.062500
-1.208649 -1.910527 1.211983 0.718750 0.062500
-1.142739 1.391530 1.145890 0.468750 0.718750
-1.422807 1.166188 0.872193 0.484375 0.718750
-1.208649 1.166188 1.211983 0.484375 0.734375
-0.611495 2.168848 0.326131 0.484375 0.718750
-0.500639 2.168848 0.502019 0.484375 0.734375
-0.456283 2.262188 0.160365 0.468750 0.718750
-0.468480 2.262188 0.053438 0.484375 0.734375
-1.702874 -0.026445 0.598495 0.718750 0.062500
-1.655627 -1.910527 0.209758 0.718750 0.062500
-1.614815 -1.910527 0.567545 0.718750 0.062500
-1.526755 1.391530 0.536596 0.468750 0.718750
-1.660335 1.166188 0.168486 0.484375 0.718750
-1.614815 1.166188 0.567545 0.484375 0.734375
-0.881473 2.075508 0.309803 0.468750 0.718750
-0.681075 2.168848 0.128157 0.484375 0.718750
-0.905035 2.075508 0.103235 0.484375 0.734375
-1.702874 0.940845 0.598495 0.468750 0.718750
-1.780035 0.699022 0.195914 0.484375 0.718750
-1.732910 0.699022 0.609051 0.484375 0.734375
-1.246590 1.778543 0.438128 0.468750 0.718750
-1.087594 1.927025 0.167397 0.484375 0.718750
-1.279913 1.778543 0.145997 0.484375 0.734375
0.600465 0.215377 1.687112 0.500000 0.328125
0.979391 0.215377 1.553935 0.000000 0.328125
-1.419996 1.585036 0.195230 0.484375 0.718750
-1.567568 1.391530 0.178809 0.484375 0.734375
0.614749 0.457200 -1.764647 1.000000 0.625000
0.205092 0.215377 -1.779003 0.500000 0.328125
0.201484 0.457200 -1.810634 0.500000 0.625000
-1.313236 1.778543 -0.146135 0.468750 0.718750
-1.342340 1.585036 -0.502620 0.484375 0.718750
-1.460808 1.585036 -0.162557 0.484375 0.734375
-0.480677 2.262188 -0.053490 0.468750 0.718750
-0.445272 2.262188 -0.155120 0.484375 0.734375
-1.793914 -0.026445 -0.199624 0.718750 0.062500
-1.582679 -1.910527 -0.529364 0.718750 0.062500
-1.701147 -1.910527 -0.189301 0.718750 0.062500
-1.608380 1.391530 -0.178978 0.468750 0.718750
-1.569014 1.166188 -0.568592 0.484375 0.718750
-1.701147 1.166188 -0.189301 0.484375 0.734375
-0.636240 2.168848 -0.274747 0.484375 0.718750
-0.704638 2.168848 -0.078412 0.484375 0.734375
-1.793914 0.940845 -0.199624 0.468750 0.718750
-1.688761 0.699022 -0.595816 0.484375 0.718750
-1.825555 0.699022 -0.203145 0.484375 0.734375
-0.928598 2.075508 -0.103334 0.468750 0.718750
-1.024189 1.927025 -0.402394 0.484375 0.718750
-1.120917 1.927025 -0.124734 0.484375 0.734375
-0.409867 2.262188 -0.256751 0.468750 0.718750
-0.454025 2.168848 -0.523593 0.484375 0.718750
-0.600836 2.168848 -0.376377 0.484375 0.734375
-1.583607 0.457200 -0.992007 0.468750 0.718750
-1.273011 0.699022 -1.259505 0.484375 0.718750
-1.289986 0.457200 -1.286439 0.484375 0.734375
-0.791804 2.075508 -0.496004 0.468750 0.718750
-0.748170 1.927025 -0.806924 0.484375 0.718750
-0.955792 1.927025 -0.598730 0.484375 0.734375
1.319521 0.457200 -1.323162 1.000000 0.625000
0.956661 0.215377 -1.513840 0.500000 0.328125
0.967135 0.457200 -1.543905 0.500000 0.625000
-1.371445 1.391530 -0.859104 0.468750 0.718750
-1.037991 1.585036 -0.988474 0.484375 0.718750
-1.117161 1.391530 -1.114089 0.484375 0.734375
-0.333873 2.262188 -0.332955 0.484375 0.734375
-1.529648 -0.026445 -0.958206 0.718750 0.062500
-1.196263 -1.910527 -1.163640 0.718750 0.062500
-1.450546 -1.910527 -0.908655 0.718750 0.062500
-1.166930 1.166188 -1.193053 0.484375 0.718750
-1.450546 1.166188 -0.908655 0.484375 0.734375
-0.257878 2.262188 -0.409159 0.468750 0.718750
-0.156346 2.262188 -0.444844 0.484375 0.734375
-0.962415 -0.026445 -1.527003 0.718750 0.062500
-0.572912 -1.910527 -1.567442 0.718750 0.062500
-0.912647 -1.910527 -1.448038 0.718750 0.062500
-0.862878 1.391530 -1.369074 0.468750 0.718750
-0.533722 1.166188 -1.581216 0.484375 0.718750
-0.912647 1.166188 -1.448038 0.484375 0.734375
-0.498183 2.075508 -0.790435 0.468750 0.718750
-0.276498 2.168848 -0.635482 0.484375 0.718750
-0.302037 2.075508 -0.859373 0.484375 0.734375
-0.996365 0.457200 -1.580870 0.468750 0.718750
-0.600465 0.699022 -1.687114 0.484375 0.718750
-0.604073 0.457200 -1.718745 0.484375 0.734375
-0.704537 1.778543 -1.117844 0.468750 0.718750
-0.405214 1.927025 -1.023077 0.484375 0.718750
-0.427144 1.778543 -1.215337 0.484375 0.734375
1.511198 0.215377 -0.960829 0.500000 0.328125
1.297040 0.215377 -1.300619 1.000000 0.328125
-0.506315 1.585036 -1.340952 0.484375 0.718750
-0.523143 1.391530 -1.488478 0.484375 0.734375
0.142471 1.778543 -1.280312 0.484375 0.718750
0.191318 1.585036 -1.420529 0.484375 0.734375
0.194618 -0.026445 -1.748938 0.718750 0.062500
0.174490 1.391530 -1.568055 0.484375 0.718750
0.205197 1.166188 -1.656200 0.484375 0.734375
-0.080352 2.168848 -0.704420 0.484375 0.718750
0.026609 2.168848 -0.692517 0.484375 0.734375
0.194618 0.940845 -1.748938 0.484375 0.718750
0.205092 0.699022 -1.779003 0.484375 0.734375
0.100742 2.075508 -0.905317 0.484375 0.718750
0.164401 1.927025 -1.088052 0.484375 0.734375
0.837563 1.391530 -1.337061 0.484375 0.718750
0.903474 1.166188 -1.403153 0.484375 0.734375
0.233241 2.168848 -0.669524 0.484375 0.718750
0.324446 2.168848 -0.612392 0.484375 0.734375
0.604276 0.699022 -1.734582 0.484375 0.718750
0.944654 0.699022 -1.521362 0.484375 0.734375
0.483567 2.075508 -0.771952 0.484375 0.718750
0.620208 1.927025 -0.908970 0.484375 0.734375
0.683868 1.778543 -1.091705 0.484375 0.718750
0.788716 1.585036 -1.196843 0.484375 0.734375
0.934181 -0.026445 -1.491297 0.718750 0.062500
1.089816 1.778543 -0.686874 0.484375 0.718750
1.229899 1.585036 -0.736107 0.484375 0.734375
1.488717 -0.026445 -0.938287 0.718750 0.062500
1.334747 1.391530 -0.841245 0.484375 0.718750
1.422807 1.166188 -0.872194 0.484375 0.734375
0.398900 2.262188 -0.251413 0.484375 0.718750
0.611495 2.168848 -0.326132 0.484375 0.734375
1.297040 0.699022 -1.300619 0.484375 0.718750
1.511198 0.699022 -0.960829 0.484375 0.734375
0.770616 2.075508 -0.485693 0.484375 0.718750
0.953175 1.927025 -0.549856 0.484375 0.734375
1.748395 0.940845 -0.199437 0.484375 0.718750
1.780036 0.699022 -0.195916 0.484375 0.734375
0.905035 2.075508 -0.103236 0.484375 0.718750
1.097355 1.927025 -0.081836 0.484375 0.734375
1.279914 1.778543 -0.145998 0.484375 0.718750
1.427485 1.585036 -0.129577 0.484375 0.734375
1.567568 1.391530 -0.178810 0.484375 0.718750
1.660335 1.166188 -0.168487 0.484375 0.734375
0.468480 2.262188 -0.053439 0.484375 0.718750
0.692441 2.168848 -0.028518 0.484375 0.734375
1.489912 1.391530 0.519040 0.484375 0.718750
1.569014 1.166188 0.568590 0.484375 0.734375
0.445272 2.262188 0.155119 0.484375 0.718750
0.636241 2.168848 0.274745 0.484375 0.734375
1.825556 0.699022 0.203144 0.484375 0.718750
1.693423 0.699022 0.582434 0.484375 0.734375
0.860201 2.075508 0.299667 0.484375 0.718750
1.024189 1.927025 0.402393 0.484375 0.734375
1.216508 1.778543 0.423794 0.484375 0.718750
1.342341 1.585036 0.502618 0.484375 0.734375
0.912158 1.778543 0.909648 0.484375 0.718750
0.991329 1.585036 1.035263 0.484375 0.734375
1.246032 -0.026445 1.242603 0.718750 0.062500
1.117161 1.391530 1.114087 0.484375 0.718750
1.166930 1.166188 1.193052 0.484375 0.734375
0.333873 2.262188 0.332953 0.484375 0.718750
0.454025 2.168848 0.523591 0.484375 0.734375
1.556628 0.699022 0.975105 0.484375 0.718750
1.273012 0.699022 1.259503 0.484375 0.734375
0.644993 2.075508 0.643218 0.484375 0.718750
0.748170 1.927025 0.806922 0.484375 0.734375
0.979391 0.699022 1.553935 0.484375 0.718750
0.600465 0.699022 1.687112 0.484375 0.734375
0.302037 2.075508 0.859371 0.484375 0.718750
0.323967 1.927025 1.051631 0.484375 0.734375
0.427145 1.778543 1.215335 0.484375 0.718750
0.443973 1.585036 1.362861 0.484375 0.734375
0.583490 -0.026445 1.660179 0.718750 0.062500
0.523143 1.391530 1.488476 0.484375 0.718750
0.533722 1.166188 1.581215 0.484375 0.734375
0.378030 2.168848 0.599796 0.484375 0.718750
0.276498 2.168848 0.635481 0.484375 0.734375
-0.194618 -0.026445 1.748937 0.718750 0.062500
-0.174490 1.391530 1.568054 0.484375 0.718750
-0.205197 1.166188 1.656198 0.484375 0.734375
0.080352 2.168848 0.704418 0.484375 0.718750
-0.026609 2.168848 0.692516 0.484375 0.734375
0.208173 0.699022 1.824988 0.484375 0.718750
-0.191010 0.699022 1.780568 0.484375 0.734375
-0.100742 2.075508 0.905316 0.484375 0.718750
-0.164401 1.927025 1.088051 0.484375 0.734375
0.166580 1.585036 1.460354 0.484375 0.718750
-0.125643 1.585036 1.427836 0.484375 0.734375
-0.683868 1.778543 1.091704 0.484375 0.718750
-0.788716 1.585036 1.196841 0.484375 0.734375
-0.837564 1.391530 1.337059 0.484375 0.718750
-0.903474 1.166188 1.403151 0.484375 0.734375
-0.233242 2.168848 0.669522 0.484375 0.718750
-0.324446 2.168848 0.612390 0.484375 0.734375
-0.604276 0.699022 1.734580 0.484375 0.718750
-0.944654 0.699022 1.521360 0.484375 0.734375
-0.483567 2.075508 0.771951 0.484375 0.718750
-0.620208 1.927025 0.908969 0.484375 0.734375
-1.488717 0.940845 0.938285 0.484375 0.718750
-1.518752 0.699022 0.948841 0.484375 0.734375
-0.770616 2.075508 0.485691 0.484375 0.718750
-0.953175 1.927025 0.549854 0.484375 0.734375
-1.089816 1.778543 0.686872 0.484375 0.718750
-1.229899 1.585036 0.736106 0.484375 0.734375
-1.488717 -0.026445 0.938285 0.718750 0.062500
-1.334747 1.391530 0.841243 0.484375 0.718750
-1.422807 1.166188 0.872193 0.484375 0.734375
-0.398900 2.262188 0.251412 0.484375 0.718750
-0.611495 2.168848 0.326131 0.484375 0.734375
-1.748394 -0.026445 0.199435 0.718750 0.062500
-1.567568 1.391530 0.178809 0.484375 0.718750
-1.660335 1.166188 0.168486 0.484375 0.734375
-0.668878 2.168848 0.235084 0.484375 0.718750
-0.681075 2.168848 0.128157 0.484375 0.734375
-1.748394 0.940845 0.199435 0.484375 0.718750
-1.780035 0.699022 0.195914 0.484375 0.734375
-1.064031 1.927025 0.373966 0.484375 0.718750
-1.087594 1.927025 0.167397 0.484375 0.734375
-1.386673 1.585036 0.487362 0.484375 0.718750
-1.419996 1.585036 0.195230 0.484375 0.734375
-1.216508 1.778543 -0.423795 0.484375 0.718750
-1.342340 1.585036 -0.502620 0.484375 0.734375
-1.661781 -0.026445 -0.578915 0.718750 0.062500
-1.489912 1.391530 -0.519041 0.484375 0.718750
-1.569014 1.166188 -0.568592 0.484375 0.734375
-0.445272 2.262188 -0.155120 0.484375 0.718750
-0.636240 2.168848 -0.274747 0.484375 0.734375
-1.661781 0.940845 -0.578915 0.484375 0.718750
-1.688761 0.699022 -0.595816 0.484375 0.734375
-0.860201 2.075508 -0.299669 0.484375 0.718750
-1.024189 1.927025 -0.402394 0.484375 0.734375
-0.333873 2.262188 -0.332955 0.484375 0.718750
-0.454025 2.168848 -0.523593 0.484375 0.734375
-1.556628 0.699022 -0.975107 0.484375 0.718750
-1.273011 0.699022 -1.259505 0.484375 0.734375
-0.644993 2.075508 -0.643220 0.484375 0.718750
-0.748170 1.927025 -0.806924 0.484375 0.734375
-1.245612 1.585036 -0.780280 0.484375 0.718750
-1.037991 1.585036 -0.988474 0.484375 0.734375
-1.246031 -0.026445 -1.242604 0.718750 0.062500
-1.117161 1.391530 -1.114089 0.484375 0.718750
-1.166930 1.166188 -1.193053 0.484375 0.734375
-0.583490 -0.026445 -1.660181 0.718750 0.062500
-0.523143 1.391530 -1.488478 0.484375 0.718750
-0.533722 1.166188 -1.581216 0.484375 0.734375
-0.378030 2.168848 -0.599797 0.484375 0.718750
-0.276498 2.168848 -0.635482 0.484375 0.734375
-0.979390 0.699022 -1.553936 0.484375 0.718750
-0.600465 0.699022 -1.687114 0.484375 0.734375
-0.601360 1.927025 -0.954139 0.484375 0.718750
-0.405214 1.927025 -1.023077 0.484375 0.734375
-0.783707 1.585036 -1.243459 0.484375 0.718750
-0.506315 1.585036 -1.340952 0.484375 0.734375
-1.583607 0.457200 -0.992007 0.000000 0.593750
-1.688761 0.215377 -0.595816 0.500000 0.312500
-1.720402 0.457200 -0.599337 0.500000 0.593750
-0.208173 0.215377 -1.824990 1.000000 0.328125
1.720402 0.457200 0.599335 0.500000 0.625000
-1.297040 0.215377 1.300618 1.000000 0.328125
1.810071 0.457200 -0.206472 0.500000 0.625000
-1.289986 0.457200 -1.286439 0.500000 0.625000
-1.825555 0.215377 -0.203145 1.000000 0.312500
-0.201484 0.457200 1.810632 0.500000 0.625000
0.604074 0.457200 1.718744 0.500000 0.625000
0.604276 0.215377 -1.734582 1.000000 0.328125
1.541233 0.457200 -0.971386 0.500000 0.625000
-1.556628 0.215377 -0.975107 0.000000 0.312500
-1.661781 -0.026445 -0.578915 0.500000 0.031250
-1.793914 -0.026445 -0.199624 1.000000 0.031250
-1.529648 -0.026445 -0.958206 0.000000 0.031250
1.702875 -0.026445 -0.598497 0.000000 0.031250
0.934181 -0.026445 -1.491297 0.500000 0.031250
0.593802 -0.026445 -1.704518 0.000000 0.031250
1.274559 -0.026445 -1.278077 1.000000 0.031250
0.194618 -0.026445 -1.748938 0.500000 0.031250
-0.204565 -0.026445 -1.793359 0.000000 0.031250
0.593802 -0.026445 -1.704518 1.000000 0.031250
0.204565 -0.026445 1.793357 1.000000 0.031250
-0.604276 0.215377 1.734580 0.000000 0.328125
-0.593802 -0.026445 1.704516 0.000000 0.031250
-0.614749 0.457200 1.764645 0.000000 0.625000
-1.748394 -0.026445 0.199435 0.500000 0.031250
-1.702874 -0.026445 0.598495 0.000000 0.031250
-0.979390 0.215377 -1.553936 0.000000 0.328125
-0.962415 -0.026445 -1.527003 0.000000 0.031250
-0.996365 0.457200 -1.580870 0.000000 0.625000
1.825556 0.215377 0.203144 1.000000 0.328125
1.793915 -0.026445 0.199623 1.000000 0.031250
1.857197 0.457200 0.206665 1.000000 0.625000
-0.934181 -0.026445 1.491295 0.500000 0.031250
-1.541233 0.457200 0.971384 0.500000 0.625000
-1.762945 0.457200 0.619607 0.000000 0.625000
1.556628 0.215377 0.975105 1.000000 0.328125
1.529648 -0.026445 0.958204 1.000000 0.031250
1.583608 0.457200 0.992006 1.000000 0.625000
-0.583490 -0.026445 -1.660181 0.500000 0.031250
-0.204565 -0.026445 -1.793359 1.000000 0.031250
1.246032 -0.026445 1.242603 0.500000 0.031250
0.962416 -0.026445 1.527001 0.000000 0.031250
-0.427144 1.778543 -1.215337 0.500000 0.734375
-0.149752 1.778543 -1.312830 0.500000 0.750000
-0.704537 1.778543 -1.117844 0.500000 0.718750
-0.302037 2.075508 -0.859373 0.500000 0.734375
-0.105891 2.075508 -0.928311 0.500000 0.750000
-0.498183 2.075508 -0.790435 0.500000 0.718750
-0.583490 0.940845 -1.660181 0.500000 0.734375
-0.204565 0.940845 -1.793359 0.500000 0.750000
-0.962415 0.940845 -1.527003 0.500000 0.718750
-0.156346 2.262188 -0.444844 0.500000 0.734375
-0.054813 2.262188 -0.480529 0.500000 0.750000
-0.257878 2.262188 -0.409159 0.500000 0.718750
-0.193987 1.166188 -1.700620 0.500000 0.734375
-0.183408 1.391530 -1.607881 0.500000 0.718750
-0.912647 1.166188 -1.448038 0.500000 0.734375
-0.962415 0.940845 -1.527003 0.500000 0.750000
-0.862878 1.391530 -1.369074 0.500000 0.718750
-0.912158 1.778543 -0.909650 0.500000 0.734375
-0.704537 1.778543 -1.117844 0.500000 0.750000
-1.119780 1.778543 -0.701455 0.500000 0.718750
-0.601360 1.927025 -0.954139 0.500000 0.734375
-1.246031 0.940845 -1.242604 0.500000 0.734375
-1.529648 0.940845 -0.958206 0.500000 0.718750
-0.378030 2.168848 -0.599797 0.500000 0.734375
-0.498183 2.075508 -0.790435 0.500000 0.750000
-0.955792 1.927025 -0.598730 0.500000 0.734375
-1.119780 1.778543 -0.701455 0.500000 0.750000
-0.791804 2.075508 -0.496004 0.500000 0.718750
-1.556628 0.699022 -0.975107 0.500000 0.734375
-1.583607 0.457200 -0.992007 0.500000 0.750000
-0.600836 2.168848 -0.376377 0.500000 0.734375
-0.791804 2.075508 -0.496004 0.500000 0.750000
-0.409867 2.262188 -0.256751 0.500000 0.718750
-1.450546 1.166188 -0.908655 0.500000 0.734375
-1.529648 0.940845 -0.958206 0.500000 0.750000
-1.371445 1.391530 -0.859104 0.500000 0.718750
-1.245612 1.585036 -0.780280 0.500000 0.734375
-1.371445 1.391530 -0.859104 0.500000 0.750000
-1.279913 1.778543 0.145997 0.500000 0.734375
-1.313236 1.778543 -0.146135 0.500000 0.750000
-1.246590 1.778543 0.438128 0.500000 0.718750
-0.905035 2.075508 0.103235 0.500000 0.734375
-0.928598 2.075508 -0.103334 0.500000 0.750000
-0.881473 2.075508 0.309803 0.500000 0.718750
-1.825555 0.699022 -0.203145 0.500000 0.734375
-1.857196 0.457200 -0.206666 0.500000 0.750000
-1.793914 0.940845 -0.199624 0.500000 0.718750
-0.468480 2.262188 0.053438 0.500000 0.734375
-0.480677 2.262188 -0.053490 0.500000 0.750000
-0.456283 2.262188 0.160365 0.500000 0.718750
-1.701147 1.166188 -0.189301 0.500000 0.734375
-1.793914 0.940845 -0.199624 0.500000 0.750000
-1.608380 1.391530 -0.178978 0.500000 0.718750
-0.668878 2.168848 0.235084 0.500000 0.734375
-0.881473 2.075508 0.309803 0.500000 0.750000
-1.614815 1.166188 0.567545 0.500000 0.734375
-1.702874 0.940845 0.598495 0.500000 0.750000
-1.526755 1.391530 0.536596 0.500000 0.718750
-1.386673 1.585036 0.487362 0.500000 0.734375
-1.526755 1.391530 0.536596 0.500000 0.750000
-1.064031 1.927025 0.373966 0.500000 0.734375
-1.246590 1.778543 0.438128 0.500000 0.750000
-1.732910 0.699022 0.609051 0.500000 0.734375
-1.762945 0.457200 0.619607 0.500000 0.750000
-1.702874 0.940845 0.598495 0.500000 0.718750
-0.796401 1.927025 0.798598 0.500000 0.734375
-0.933042 1.778543 0.935615 0.500000 0.750000
-0.659760 2.075508 0.661580 0.500000 0.718750
-0.934181 0.940845 1.491295 0.500000 0.734375
-1.274559 0.940845 1.278075 0.500000 0.750000
-0.593802 0.940845 1.704516 0.500000 0.718750
-0.250313 2.262188 0.399590 0.500000 0.734375
-0.341517 2.262188 0.342458 0.500000 0.750000
-0.159109 2.262188 0.456723 0.500000 0.718750
-1.208649 1.166188 1.211983 0.500000 0.734375
-1.142739 1.391530 1.145890 0.500000 0.718750
-0.903474 -1.910527 1.403151 0.718750 0.062500
-0.934181 -0.026445 1.491295 0.718750 0.062500
-0.563095 -1.910527 1.616372 0.718750 0.062500
-0.593802 -0.026445 1.704516 0.718750 0.062500
-1.037890 1.585036 1.040753 0.500000 0.734375
-1.142739 1.391530 1.145890 0.500000 0.750000
-0.933042 1.778543 0.935615 0.500000 0.718750
-0.142471 1.778543 1.280310 0.500000 0.734375
-0.434693 1.778543 1.247792 0.500000 0.750000
0.149752 1.778543 1.312828 0.500000 0.718750
-0.371034 1.927025 1.065057 0.500000 0.734375
-0.307375 2.075508 0.882322 0.500000 0.718750
-0.194618 0.940845 1.748937 0.500000 0.734375
-0.593802 0.940845 1.704516 0.500000 0.750000
0.204565 0.940845 1.793357 0.500000 0.718750
-0.052148 2.262188 0.468625 0.500000 0.734375
-0.159109 2.262188 0.456723 0.500000 0.750000
0.054813 2.262188 0.480527 0.500000 0.718750
-0.563095 1.166188 1.616372 0.500000 0.734375
-0.532388 1.391530 1.528227 0.500000 0.718750
0.156346 2.262188 0.444843 0.500000 0.734375
0.054813 2.262188 0.480527 0.500000 0.750000
0.257878 2.262188 0.409158 0.500000 0.718750
0.193987 1.166188 1.700618 0.500000 0.734375
0.204565 0.940845 1.793357 0.500000 0.750000
0.183408 1.391530 1.607880 0.500000 0.718750
0.166580 1.585036 1.460354 0.500000 0.734375
0.183408 1.391530 1.607880 0.500000 0.750000
0.127821 1.927025 1.120569 0.500000 0.734375
0.149752 1.778543 1.312828 0.500000 0.750000
0.105891 2.075508 0.928309 0.500000 0.718750
0.583490 0.940845 1.660179 0.500000 0.734375
0.962416 0.940845 1.527001 0.500000 0.718750
0.601360 1.927025 0.954138 0.500000 0.734375
0.704537 1.778543 1.117842 0.500000 0.750000
0.498183 2.075508 0.790434 0.500000 0.718750
1.246032 0.940845 1.242603 0.500000 0.734375
0.962416 0.940845 1.527001 0.500000 0.750000
1.529648 0.940845 0.958204 0.500000 0.718750
0.378030 2.168848 0.599796 0.500000 0.734375
0.498183 2.075508 0.790434 0.500000 0.750000
0.912647 1.166188 1.448037 0.500000 0.734375
0.862878 1.391530 1.369072 0.500000 0.718750
0.783708 1.585036 1.243457 0.500000 0.734375
0.862878 1.391530 1.369072 0.500000 0.750000
0.704537 1.778543 1.117842 0.500000 0.718750
1.569014 -1.910527 0.568590 0.718750 0.062500
1.661781 -0.026445 0.578913 0.718750 0.062500
1.701147 -1.910527 0.189300 0.718750 0.062500
1.793915 -0.026445 0.199623 0.718750 0.062500
1.245612 1.585036 0.780278 0.500000 0.734375
1.371445 1.391530 0.859102 0.500000 0.750000
1.119780 1.778543 0.701454 0.500000 0.718750
0.955792 1.927025 0.598728 0.500000 0.734375
1.119780 1.778543 0.701454 0.500000 0.750000
0.791804 2.075508 0.496003 0.500000 0.718750
1.661781 0.940845 0.578913 0.500000 0.734375
1.529648 0.940845 0.958204 0.500000 0.750000
1.793915 0.940845 0.199623 0.500000 0.718750
0.600836 2.168848 0.376376 0.500000 0.734375
0.791804 2.075508 0.496003 0.500000 0.750000
0.409867 2.262188 0.256749 0.500000 0.718750
1.450547 1.166188 0.908653 0.500000 0.734375
1.371445 1.391530 0.859102 0.500000 0.718750
0.704638 2.168848 0.078410 0.500000 0.734375
0.928598 2.075508 0.103332 0.500000 0.750000
0.480677 2.262188 0.053488 0.500000 0.718750
1.701147 1.166188 0.189300 0.500000 0.734375
1.793915 0.940845 0.199623 0.500000 0.750000
1.608380 1.391530 0.178977 0.500000 0.718750
1.660335 -1.910527 -0.168487 0.718750 0.062500
1.748395 -0.026445 -0.199437 0.718750 0.062500
1.614815 -1.910527 -0.567547 0.718750 0.062500
1.702875 -0.026445 -0.598497 0.718750 0.062500
1.460808 1.585036 0.162555 0.500000 0.734375
1.608380 1.391530 0.178977 0.500000 0.750000
1.313237 1.778543 0.146134 0.500000 0.718750
1.120917 1.927025 0.124733 0.500000 0.734375
1.313237 1.778543 0.146134 0.500000 0.750000
0.928598 2.075508 0.103332 0.500000 0.718750
1.825556 0.699022 0.203144 0.500000 0.734375
1.857197 0.457200 0.206665 0.500000 0.750000
1.064031 1.927025 -0.373967 0.500000 0.734375
1.246591 1.778543 -0.438130 0.500000 0.750000
0.881472 2.075508 -0.309805 0.500000 0.718750
1.488717 0.940845 -0.938287 0.500000 0.734375
1.702875 0.940845 -0.598497 0.500000 0.750000
1.274559 0.940845 -1.278077 0.500000 0.718750
0.668878 2.168848 -0.235086 0.500000 0.734375
0.881472 2.075508 -0.309805 0.500000 0.750000
0.456283 2.262188 -0.160367 0.500000 0.718750
1.614815 1.166188 -0.567547 0.500000 0.734375
1.526756 1.391530 -0.536597 0.500000 0.718750
1.386673 1.585036 -0.487364 0.500000 0.734375
1.526756 1.391530 -0.536597 0.500000 0.750000
1.246591 1.778543 -0.438130 0.500000 0.718750
1.037890 1.585036 -1.040755 0.500000 0.734375
1.142739 1.391530 -1.145892 0.500000 0.750000
0.933042 1.778543 -0.935617 0.500000 0.718750
0.796401 1.927025 -0.798599 0.500000 0.734375
0.933042 1.778543 -0.935617 0.500000 0.750000
0.659760 2.075508 -0.661581 0.500000 0.718750
0.934181 0.940845 -1.491297 0.500000 0.734375
1.274559 0.940845 -1.278077 0.500000 0.750000
0.593802 0.940845 -1.704518 0.500000 0.718750
0.250313 2.262188 -0.399592 0.500000 0.734375
0.341517 2.262188 -0.342460 0.500000 0.750000
0.159109 2.262188 -0.456724 0.500000 0.718750
1.208649 1.166188 -1.211984 0.500000 0.734375
1.142739 1.391530 -1.145892 0.500000 0.718750
0.371034 1.927025 -1.065059 0.500000 0.734375
0.434693 1.778543 -1.247794 0.500000 0.750000
0.307374 2.075508 -0.882323 0.500000 0.718750
0.604276 0.699022 -1.734582 0.500000 0.734375
0.614749 0.457200 -1.764647 0.500000 0.750000
0.052148 2.262188 -0.468627 0.500000 0.734375
0.159109 2.262188 -0.456724 0.500000 0.750000
-0.054813 2.262188 -0.480529 0.500000 0.718750
0.563095 1.166188 -1.616373 0.500000 0.734375
0.593802 0.940845 -1.704518 0.500000 0.750000
0.532388 1.391530 -1.528229 0.500000 0.718750
0.483541 1.585036 -1.388011 0.500000 0.734375
0.532388 1.391530 -1.528229 0.500000 0.750000
0.434693 1.778543 -1.247794 0.500000 0.718750
-0.166580 1.585036 -1.460356 0.500000 0.734375
-0.183408 1.391530 -1.607881 0.500000 0.750000
-0.149752 1.778543 -1.312830 0.500000 0.718750
1.488717 -0.026445 -0.938287 0.500000 0.031250
-0.127821 1.927025 -1.120570 0.500000 0.734375
-0.105891 2.075508 -0.928311 0.500000 0.718750
-0.208173 0.699022 -1.824990 0.500000 0.734375
-0.211782 0.457200 -1.856622 0.500000 0.750000
-0.204565 0.940845 -1.793359 0.500000 0.718750
-0.080352 2.168848 -0.704420 0.500000 0.734375
-0.000000 2.296147 -0.000000 0.500000 0.734375
-0.257878 2.262188 -0.409159 0.500000 0.750000
-0.783707 1.585036 -1.243459 0.500000 0.734375
-0.862878 1.391530 -1.369074 0.500000 0.750000
0.604276 0.215377 -1.734582 0.000000 0.328125
0.614749 0.457200 -1.764647 0.000000 0.625000
-0.979390 0.699022 -1.553936 0.500000 0.734375
-0.996365 0.457200 -1.580870 0.500000 0.750000
-0.644993 2.075508 -0.643220 0.500000 0.734375
-1.216508 1.778543 -0.423795 0.500000 0.734375
-1.720402 0.457200 -0.599337 0.500000 0.734375
-1.583607 0.457200 -0.992007 0.500000 0.718750
-0.860201 2.075508 -0.299669 0.500000 0.734375
-1.661781 0.940845 -0.578915 0.500000 0.734375
-0.409867 2.262188 -0.256751 0.500000 0.750000
-1.489912 1.391530 -0.519041 0.500000 0.734375
-1.608380 1.391530 -0.178978 0.500000 0.750000
-0.208173 0.215377 -1.824990 0.000000 0.328125
-0.211782 0.457200 -1.856622 0.000000 0.625000
-1.460808 1.585036 -0.162557 0.500000 0.734375
-1.313236 1.778543 -0.146135 0.500000 0.718750
0.583490 -0.026445 1.660179 0.500000 0.031250
-1.120917 1.927025 -0.124734 0.500000 0.734375
-0.928598 2.075508 -0.103334 0.500000 0.718750
-1.810071 0.457200 0.206471 0.500000 0.734375
-1.857196 0.457200 -0.206666 0.500000 0.718750
-0.704638 2.168848 -0.078412 0.500000 0.734375
-0.480677 2.262188 -0.053490 0.500000 0.718750
-1.748394 0.940845 0.199435 0.500000 0.734375
-0.770616 2.075508 0.485691 0.500000 0.734375
-0.659760 2.075508 0.661580 0.500000 0.750000
-1.488717 0.940845 0.938285 0.500000 0.734375
-0.456283 2.262188 0.160365 0.500000 0.750000
-1.334747 1.391530 0.841243 0.500000 0.734375
-0.194618 -0.026445 1.748937 0.500000 0.031250
-1.089816 1.778543 0.686872 0.500000 0.734375
-1.541233 0.457200 0.971384 0.500000 0.734375
-1.319521 0.457200 1.323160 0.500000 0.750000
-1.762945 0.457200 0.619607 0.500000 0.718750
-0.683868 1.778543 1.091704 0.500000 0.734375
-1.297040 0.699022 1.300618 0.500000 0.734375
-1.274559 0.940845 1.278075 0.500000 0.718750
-0.500639 2.168848 0.502019 0.500000 0.734375
-0.341517 2.262188 0.342458 0.500000 0.718750
-0.837564 1.391530 1.337059 0.500000 0.734375
-0.532388 1.391530 1.528227 0.500000 0.750000
-1.732910 0.215377 0.609051 0.000000 0.312500
-1.762945 0.457200 0.619607 0.000000 0.593750
-0.483541 1.585036 1.388010 0.500000 0.734375
-0.434693 1.778543 1.247792 0.500000 0.718750
-1.246031 -0.026445 -1.242604 0.500000 0.031250
-1.529648 -0.026445 -0.958206 1.000000 0.031250
-0.604276 0.699022 1.734580 0.500000 0.734375
-0.614749 0.457200 1.764645 0.500000 0.750000
-0.233242 2.168848 0.669522 0.500000 0.734375
-0.307375 2.075508 0.882322 0.500000 0.750000
0.080352 2.168848 0.704418 0.500000 0.734375
0.105891 2.075508 0.928309 0.500000 0.750000
0.523143 1.391530 1.488476 0.500000 0.734375
1.748395 -0.026445 -0.199437 0.500000 0.031250
0.427145 1.778543 1.215335 0.500000 0.734375
0.208173 0.699022 1.824988 0.500000 0.734375
0.211781 0.457200 1.856620 0.500000 0.750000
0.912158 1.778543 0.909648 0.500000 0.734375
0.979391 0.699022 1.553935 0.500000 0.734375
0.996366 0.457200 1.580868 0.500000 0.750000
0.644993 2.075508 0.643218 0.500000 0.734375
0.257878 2.262188 0.409158 0.500000 0.750000
1.117161 1.391530 1.114087 0.500000 0.734375
0.409867 2.262188 0.256749 0.500000 0.750000
1.489912 1.391530 0.519040 0.500000 0.734375
-1.732910 0.215377 0.609051 0.000000 0.328125
1.216508 1.778543 0.423794 0.500000 0.734375
1.556628 0.699022 0.975105 0.500000 0.734375
1.583608 0.457200 0.992006 0.500000 0.750000
0.860201 2.075508 0.299667 0.500000 0.734375
0.905035 2.075508 -0.103236 0.500000 0.734375
1.748395 0.940845 -0.199437 0.500000 0.734375
0.480677 2.262188 0.053488 0.500000 0.750000
1.567568 1.391530 -0.178810 0.500000 0.734375
1.661781 -0.026445 0.578913 0.500000 0.031250
1.793915 -0.026445 0.199623 0.000000 0.031250
1.279914 1.778543 -0.145998 0.500000 0.734375
1.810071 0.457200 -0.206472 0.500000 0.734375
1.762945 0.457200 -0.619609 0.500000 0.750000
1.857197 0.457200 0.206665 0.500000 0.718750
1.089816 1.778543 -0.686874 0.500000 0.734375
1.732910 0.699022 -0.609053 0.500000 0.734375
1.702875 0.940845 -0.598497 0.500000 0.718750
0.770616 2.075508 -0.485693 0.500000 0.734375
0.659760 2.075508 -0.661581 0.500000 0.750000
0.456283 2.262188 -0.160367 0.500000 0.750000
1.334747 1.391530 -0.841245 0.500000 0.734375
0.837563 1.391530 -1.337061 0.500000 0.734375
0.683868 1.778543 -1.091705 0.500000 0.734375
1.297040 0.699022 -1.300619 0.500000 0.734375
1.319521 0.457200 -1.323162 0.500000 0.750000
0.500639 2.168848 -0.502020 0.500000 0.734375
0.341517 2.262188 -0.342460 0.500000 0.718750
0.142471 1.778543 -1.280312 0.500000 0.734375
0.201484 0.457200 -1.810634 0.500000 0.734375
0.614749 0.457200 -1.764647 0.500000 0.718750
0.233241 2.168848 -0.669524 0.500000 0.734375
0.307374 2.075508 -0.882323 0.500000 0.750000
0.194618 0.940845 -1.748938 0.500000 0.734375
0.174490 1.391530 -1.568055 0.500000 0.734375
0.918143 0.188138 1.180660 0.187500 0.843750
0.890420 0.192506 1.187467 0.187500 0.843750
0.910744 0.324436 1.167071 0.187500 0.843750
0.949387 0.192506 1.166694 0.187500 0.843750
1.029416 0.263481 1.130923 0.187500 0.843750
1.034708 0.290204 1.122972 0.187500 0.843750
0.973779 0.446345 1.155791 0.187500 0.843750
0.940974 0.456365 1.164870 0.187500 0.843750
0.998906 0.423063 1.138414 0.187500 0.843750
1.023970 0.396093 1.133357 0.187500 0.843750
0.918143 0.460734 1.180660 0.187500 0.843750
0.886899 0.456365 1.194625 0.187500 0.843750
0.852739 0.440378 1.209894 0.187500 0.843750
0.824410 0.414054 1.222557 0.187500 0.843750
0.806870 0.385391 1.230397 0.187500 0.843750
1.033291 0.362108 1.123044 0.187500 0.843750
1.042550 0.324436 1.125052 0.187500 0.843750
0.796687 0.358667 1.229364 0.187500 0.843750
0.793736 0.324436 1.236267 0.187500 0.843750
0.797612 0.286764 1.228389 0.187500 0.843750
0.812317 0.252779 1.227962 0.187500 0.843750
1.011876 0.234817 1.138763 0.187500 0.843750
0.983547 0.208493 1.151425 0.187500 0.843750
0.862507 0.202527 1.205528 0.187500 0.843750
0.831997 0.225809 1.213019 0.187500 0.843750
3 0 1 2
3 3 4 5
3 6 7 8
3 9 10 11
3 12 13 14
3 15 16 17
3 18 19 20
3 15 21 22
3 23 24 25
3 26 27 28
3 29 30 31
3 26 32 33
3 34 35 36
3 37 38 39
3 40 7 41
3 42 43 44
3 45 46 47
3 48 7 49
3 50 51 52
3 53 54 55
3 48 56 57
3 58 59 60
3 61 62 63
3 64 65 66
3 67 68 69
3 70 71 72
3 73 74 75
3 76 7 77
3 78 79 80
3 76 81 82
3 83 84 85
3 86 87 88
3 89 90 91
3 92 93 94
3 95 96 97
3 98 99 100
3 86 7 101
3 102 103 104
3 105 106 107
3 108 7 109
3 110 111 112
3 113 114 115
3 108 116 117
3 118 119 120
3 121 122 123
3 124 125 126
3 127 128 129
3 130 131 132
3 133 134 135
3 136 7 137
3 138 139 140
3 141 142 143
3 127 144 145
3 146 147 148
3 149 150 151
3 152 153 154
3 155 156 157
3 152 158 159
3 160 161 162
3 149 163 164
3 165 7 166
3 167 168 169
3 170 171 172
3 173 7 174
3 175 176 177
3 178 179 180
3 181 182 183
3 178 184 185
3 186 187 188
3 189 190 191
3 192 193 194
3 195 196 197
3 198 7 199
3 200 201 202
3 203 204 205
3 198 206 207
3 208 7 209
3 210 211 212
3 213 214 215
3 216 217 218
3 219 220 221
3 222 223 224
3 0 225 226
3 213 227 228
3 229 230 231
3 232 233 234
3 235 7 236
3 237 238 239
3 240 241 242
3 235 243 244
3 245 246 247
3 248 249 250
3 251 252 253
3 254 255 256
3 257 258 259
3 260 261 262
3 263 264 265
3 251 7 266
3 267 268 269
3 263 270 271
3 272 7 273
3 274 275 276
3 277 278 279
3 280 281 282
3 283 284 285
3 286 287 288
3 260 289 290
3 277 291 292
3 3 293 294
3 9 295 10
3 12 296 297
3 15 298 299
3 18 300 301
3 15 302 303
3 23 304 305
3 26 306 307
3 29 308 309
3 26 310 311
3 37 312 313
3 42 314 43
3 45 315 316
3 50 317 51
3 53 318 319
3 48 320 321
3 58 322 323
3 61 324 325
3 64 326 327
3 67 328 329
3 73 330 331
3 78 332 333
3 76 334 335
3 83 336 337
3 86 338 339
3 89 340 341
3 92 342 343
3 98 344 345
3 105 346 347
3 110 348 111
3 113 349 350
3 108 351 352
3 118 353 354
3 121 355 356
3 124 357 358
3 127 359 360
3 133 361 362
3 138 363 139
3 141 364 365
3 127 366 367
3 146 368 147
3 149 369 370
3 152 371 372
3 155 373 374
3 152 375 376
3 149 377 378
3 170 379 380
3 175 381 382
3 178 383 384
3 181 385 386
3 178 387 388
3 186 389 390
3 189 391 392
3 195 393 394
3 200 395 201
3 203 396 397
3 198 398 399
3 210 400 211
3 213 401 402
3 216 403 404
3 219 405 406
3 222 407 408
3 213 409 410
3 232 411 412
3 237 413 238
3 240 414 415
3 235 416 417
3 245 418 419
3 248 420 421
3 251 422 423
3 254 424 425
3 257 426 427
3 263 428 429
3 267 430 268
3 263 431 432
3 274 433 275
3 277 434 435
3 280 436 437
3 283 438 439
3 286 440 441
3 277 442 443
3 444 445 446
3 0 226 1
3 34 447 35
3 70 448 71
3 95 449 96
3 102 449 103
3 130 450 131
3 160 451 161
3 167 452 168
3 192 453 193
3 0 454 225
3 229 455 230
3 260 290 261
3 260 456 289
3 444 457 445
3 445 458 459
3 445 457 458
3 457 460 458
3 289 132 461
3 289 456 132
3 456 130 132
3 261 462 463
3 261 290 462
3 290 464 462
3 230 465 466
3 230 455 465
3 455 467 465
3 225 194 468
3 225 454 194
3 454 192 194
3 193 469 470
3 193 453 469
3 453 471 469
3 168 472 473
3 168 452 472
3 452 459 472
3 161 474 475
3 161 451 474
3 451 476 474
3 131 477 478
3 131 450 477
3 450 479 477
3 103 480 470
3 103 449 480
3 449 95 480
3 96 481 482
3 96 449 481
3 449 102 481
3 71 483 484
3 71 448 483
3 448 485 483
3 35 486 475
3 35 447 486
3 447 487 486
3 1 488 484
3 1 226 488
3 226 489 488
3 446 452 167
3 446 445 452
3 445 459 452
3 443 490 491
3 443 442 490
3 442 492 490
3 441 493 494
3 441 440 493
3 440 495 493
3 439 496 497
3 439 438 496
3 438 498 496
3 437 499 500
3 437 436 499
3 436 501 499
3 435 502 497
3 435 434 502
3 434 503 502
3 275 433 11
3 433 9 11
3 432 504 505
3 432 431 504
3 431 506 504
3 268 430 276
3 430 274 276
3 429 507 508
3 429 428 507
3 428 509 507
3 427 510 508
3 427 426 510
3 426 495 510
3 425 511 505
3 425 424 511
3 424 512 511
3 423 513 514
3 423 422 513
3 422 501 513
3 421 515 516
3 421 420 515
3 420 517 515
3 419 518 519
3 419 418 518
3 418 512 518
3 417 520 521
3 417 416 520
3 416 522 520
3 415 523 524
3 415 414 523
3 414 525 523
3 238 413 269
3 413 267 269
3 412 526 527
3 412 411 526
3 411 509 526
3 410 528 529
3 410 409 528
3 409 530 528
3 408 531 532
3 408 407 531
3 407 533 531
3 406 534 535
3 406 405 534
3 405 536 534
3 404 537 538
3 404 403 537
3 403 539 537
3 402 540 541
3 402 401 540
3 401 542 540
3 211 400 239
3 400 237 239
3 399 543 544
3 399 398 543
3 398 539 543
3 397 545 546
3 397 396 545
3 396 547 545
3 201 395 212
3 395 210 212
3 394 548 549
3 394 393 548
3 393 530 548
3 392 550 551
3 392 391 550
3 391 533 550
3 390 552 553
3 390 389 552
3 389 554 552
3 388 555 556
3 388 387 555
3 387 557 555
3 386 558 559
3 386 385 558
3 385 560 558
3 384 561 562
3 384 383 561
3 383 563 561
3 382 564 559
3 382 381 564
3 381 565 564
3 566 567 200
3 566 568 567
3 568 569 567
3 380 570 571
3 380 379 570
3 379 572 570
3 378 573 574
3 378 377 573
3 377 575 573
3 376 576 574
3 376 375 576
3 375 577 576
3 374 578 579
3 374 373 578
3 373 580 578
3 372 581 582
3 372 371 581
3 371 583 581
3 370 584 579
3 370 369 584
3 369 585 584
3 147 368 568
3 368 569 568
3 367 586 587
3 367 366 586
3 366 588 586
3 365 589 590
3 365 364 589
3 364 591 589
3 139 363 148
3 363 146 148
3 362 592 593
3 362 361 592
3 361 575 592
3 360 594 595
3 360 359 594
3 359 596 594
3 358 597 590
3 358 357 597
3 357 598 597
3 356 599 600
3 356 355 599
3 355 601 599
3 354 602 603
3 354 353 602
3 353 604 602
3 352 605 606
3 352 351 605
3 351 588 605
3 350 607 603
3 350 349 607
3 349 608 607
3 111 348 140
3 348 138 140
3 347 609 610
3 347 346 609
3 346 611 609
3 612 613 110
3 612 614 613
3 614 615 613
3 345 616 617
3 345 344 616
3 344 618 616
3 343 619 620
3 343 342 619
3 342 621 619
3 341 622 623
3 341 340 622
3 340 624 622
3 339 625 626
3 339 338 625
3 338 627 625
3 337 628 623
3 337 336 628
3 336 629 628
3 335 630 631
3 335 334 630
3 334 632 630
3 333 633 634
3 333 332 633
3 332 635 633
3 636 637 615
3 636 638 637
3 638 639 637
3 331 640 641
3 331 330 640
3 330 642 640
3 329 643 644
3 329 328 643
3 328 645 643
3 327 646 647
3 327 326 646
3 326 624 646
3 325 648 649
3 325 324 648
3 324 650 648
3 323 651 652
3 323 322 651
3 322 653 651
3 321 654 655
3 321 320 654
3 320 656 654
3 319 657 652
3 319 318 657
3 318 658 657
3 51 317 638
3 317 639 638
3 316 659 660
3 316 315 659
3 315 661 659
3 43 314 52
3 314 50 52
3 313 662 663
3 313 312 662
3 312 664 662
3 311 665 666
3 311 310 665
3 310 667 665
3 309 668 669
3 309 308 668
3 308 670 668
3 307 671 672
3 307 306 671
3 306 673 671
3 305 674 669
3 305 304 674
3 304 675 674
3 303 676 677
3 303 302 676
3 302 678 676
3 301 679 680
3 301 300 679
3 300 670 679
3 299 681 682
3 299 298 681
3 298 683 681
3 297 684 685
3 297 296 684
3 296 686 684
3 10 295 44
3 295 42 44
3 294 687 688
3 294 293 687
3 293 689 687
3 292 690 691
3 292 291 690
3 291 692 690
3 290 693 464
3 290 289 693
3 289 461 693
3 288 694 491
3 288 287 694
3 287 695 694
3 285 696 697
3 285 284 696
3 284 698 696
3 282 699 494
3 282 281 699
3 281 683 699
3 279 496 505
3 279 278 496
3 278 698 496
3 273 700 500
3 271 511 524
3 271 270 511
3 270 498 511
3 266 700 701
3 265 702 703
3 265 264 702
3 264 492 702
3 262 704 705
3 262 261 704
3 261 463 704
3 259 507 516
3 259 258 507
3 258 492 507
3 256 706 707
3 256 255 706
3 255 498 706
3 253 708 521
3 253 252 708
3 252 495 708
3 250 709 529
3 250 249 709
3 249 509 709
3 247 710 535
3 247 246 710
3 246 711 710
3 244 712 532
3 244 243 712
3 243 517 712
3 242 713 541
3 242 241 713
3 241 512 713
3 236 700 714
3 234 715 716
3 234 233 715
3 233 525 715
3 231 717 718
3 231 230 717
3 230 466 717
3 228 719 716
3 228 227 719
3 227 720 719
3 226 721 489
3 226 225 721
3 225 468 721
3 224 722 529
3 224 223 722
3 223 723 722
3 221 724 553
3 221 220 724
3 220 725 724
3 218 726 532
3 218 217 726
3 217 727 726
3 215 728 546
3 215 214 728
3 214 536 728
3 209 700 538
3 207 729 730
3 207 206 729
3 206 533 729
3 205 731 559
3 205 204 731
3 204 554 731
3 199 700 732
3 197 733 571
3 197 196 733
3 196 547 733
3 194 734 468
3 194 193 734
3 193 470 734
3 191 735 556
3 191 190 735
3 190 530 735
3 188 736 737
3 188 187 736
3 187 738 736
3 185 739 574
3 185 184 739
3 184 572 739
3 183 740 737
3 183 182 740
3 182 741 740
3 180 742 730
3 180 179 742
3 179 743 742
3 177 558 579
3 177 176 558
3 176 741 558
3 566 200 202
3 174 700 562
3 172 744 745
3 172 171 744
3 171 565 744
3 169 746 747
3 169 168 746
3 168 473 746
3 166 700 582
3 164 748 745
3 164 163 748
3 163 749 748
3 162 750 751
3 162 161 750
3 161 475 750
3 159 573 595
3 159 158 573
3 158 749 573
3 157 752 753
3 157 156 752
3 156 560 752
3 154 754 755
3 154 153 754
3 153 563 754
3 151 578 590
3 151 150 578
3 150 560 578
3 145 756 757
3 145 144 756
3 144 583 756
3 143 597 603
3 143 142 597
3 142 580 597
3 137 700 587
3 135 758 610
3 135 134 758
3 134 591 758
3 132 759 461
3 132 131 759
3 131 478 759
3 129 760 600
3 129 128 760
3 128 575 760
3 126 761 762
3 126 125 761
3 125 580 761
3 123 763 620
3 123 122 763
3 122 611 763
3 120 764 765
3 120 119 764
3 119 598 764
3 117 766 626
3 117 116 766
3 116 601 766
3 115 602 623
3 115 114 602
3 114 598 602
3 109 700 767
3 107 768 617
3 107 106 768
3 106 608 768
3 104 469 471
3 104 103 469
3 103 470 469
3 612 110 112
3 101 700 769
3 100 770 641
3 100 99 770
3 99 629 770
3 97 771 473
3 97 96 771
3 96 482 771
3 94 772 644
3 94 93 772
3 93 618 772
3 91 773 774
3 91 90 773
3 90 604 773
3 88 775 631
3 88 87 775
3 87 621 775
3 85 622 634
3 85 84 622
3 84 604 622
3 82 776 655
3 82 81 776
3 81 645 776
3 80 777 652
3 80 79 777
3 79 624 777
3 636 615 614
3 77 700 778
3 75 779 660
3 75 74 779
3 74 635 779
3 72 780 781
3 72 71 780
3 71 484 780
3 69 782 649
3 69 68 782
3 68 642 782
3 66 783 784
3 66 65 783
3 65 785 783
3 63 786 666
3 63 62 786
3 62 661 786
3 60 787 784
3 60 59 787
3 59 788 787
3 57 789 790
3 57 56 789
3 56 650 789
3 55 651 669
3 55 54 651
3 54 788 651
3 49 700 791
3 47 792 663
3 47 46 792
3 46 658 792
3 41 700 672
3 39 793 688
3 39 38 793
3 38 675 793
3 36 474 476
3 36 35 474
3 35 475 474
3 33 794 677
3 33 32 794
3 32 664 794
3 31 795 796
3 31 30 795
3 30 653 795
3 28 797 790
3 28 27 797
3 27 798 797
3 25 668 685
3 25 24 668
3 24 653 668
3 22 799 491
3 22 21 799
3 21 689 799
3 20 800 697
3 20 19 800
3 19 801 800
3 17 802 803
3 17 16 802
3 16 673 802
3 14 804 497
3 14 13 804
3 13 670 804
3 8 700 682
3 5 805 691
3 5 4 805
3 4 686 805
3 2 483 485
3 2 1 483
3 1 484 483
3 806 807 808
3 806 808 809
3 810 808 811
3 812 808 813
3 812 814 808
3 815 808 814
3 813 808 816
3 808 817 816
3 808 818 817
3 808 819 818
3 808 820 819
3 821 808 815
3 811 808 822
3 822 808 821
3 823 820 808
3 808 824 823
3 808 825 824
3 808 826 825
3 827 808 810
3 828 808 827
3 809 808 828
3 807 829 808
3 830 826 808
3 808 829 830
