ply
format ascii 1.0
comment Created by Blender 2.79 (sub 0) - www.blender.org, source file: 'Animations_Test.blend'
element vertex 324
property float x
property float y
property float z
property float nx
property float ny
property float nz
property float s
property float t
element face 162
property list uchar uint vertex_indices
end_header
-3.888889 0.000000 5.000000 -0.000000 1.000000 0.000000 1.000000 0.000000
-5.000000 0.000000 3.888889 -0.000000 1.000000 0.000000 0.000000 1.000000
-5.000000 0.000000 5.000000 -0.000000 1.000000 0.000000 0.000000 0.000000
-2.777778 0.000000 5.000000 -0.000000 1.000000 0.000000 1.000000 0.000000
-3.888889 0.000000 3.888889 -0.000000 1.000000 0.000000 0.000000 1.000000
-3.888889 0.000000 5.000000 -0.000000 1.000000 0.000000 0.000000 0.000000
-1.666667 0.000000 5.000000 -0.000000 1.000000 0.000000 1.000000 0.000000
-2.777778 0.000000 3.888889 -0.000000 1.000000 0.000000 0.000000 1.000000
-2.777778 0.000000 5.000000 -0.000000 1.000000 0.000000 0.000000 0.000000
-0.555556 0.000000 5.000000 -0.000000 1.000000 0.000000 1.000000 0.000000
-1.666667 0.000000 3.888889 -0.000000 1.000000 0.000000 0.000000 1.000000
-1.666667 0.000000 5.000000 -0.000000 1.000000 0.000000 0.000000 0.000000
0.555556 0.000000 5.000000 -0.000000 1.000000 0.000000 1.000000 0.000000
-0.555556 0.000000 3.888889 -0.000000 1.000000 0.000000 0.000000 1.000000
-0.555556 0.000000 5.000000 -0.000000 1.000000 0.000000 0.000000 0.000000
1.666667 0.000000 5.000000 -0.000000 1.000000 0.000000 1.000000 0.000000
0.555556 0.000000 3.888889 -0.000000 1.000000 0.000000 0.000000 1.000000
0.555556 0.000000 5.000000 -0.000000 1.000000 0.000000 0.000000 0.000000
2.777778 0.000000 5.000000 -0.000000 1.000000 0.000000 1.000000 0.000000
1.666667 0.000000 3.888889 -0.000000 1.000000 0.000000 0.000000 1.000000
1.666667 0.000000 5.000000 -0.000000 1.000000 0.000000 0.000000 0.000000
3.888889 0.000000 5.000000 -0.000000 1.000000 0.000000 1.000000 0.000000
2.777778 0.000000 3.888889 -0.000000 1.000000 0.000000 0.000000 1.000000
2.777778 0.000000 5.000000 -0.000000 1.000000 0.000000 0.000000 0.000000
5.000000 0.000000 5.000000 -0.000000 1.000000 0.000000 1.000000 0.000000
3.888889 0.000000 3.888889 -0.000000 1.000000 0.000000 0.000000 1.000000
3.888889 0.000000 5.000000 -0.000000 1.000000 0.000000 0.000000 0.000000
-3.888889 0.000000 3.888889 -0.000000 1.000000 0.000000 1.000000 0.000000
-5.000000 0.000000 2.777778 -0.000000 1.000000 0.000000 0.000000 1.000000
-5.000000 0.000000 3.888889 -0.000000 1.000000 0.000000 0.000000 0.000000
-2.777778 0.000000 3.888889 -0.000000 1.000000 0.000000 1.000000 0.000000
-3.888889 0.000000 2.777778 -0.000000 1.000000 0.000000 0.000000 1.000000
-3.888889 0.000000 3.888889 -0.000000 1.000000 0.000000 0.000000 0.000000
-1.666667 0.000000 3.888889 -0.000000 1.000000 0.000000 1.000000 0.000000
-2.777778 0.000000 2.777778 -0.000000 1.000000 0.000000 0.000000 1.000000
-2.777778 0.000000 3.888889 -0.000000 1.000000 0.000000 0.000000 0.000000
-0.555556 0.000000 3.888889 -0.000000 1.000000 0.000000 1.000000 0.000000
-1.666667 0.000000 2.777778 -0.000000 1.000000 0.000000 0.000000 1.000000
-1.666667 0.000000 3.888889 -0.000000 1.000000 0.000000 0.000000 0.000000
0.555556 0.000000 3.888889 -0.000000 1.000000 0.000000 1.000000 0.000000
-0.555556 0.000000 2.777778 -0.000000 1.000000 0.000000 0.000000 1.000000
-0.555556 0.000000 3.888889 -0.000000 1.000000 0.000000 0.000000 0.000000
1.666667 0.000000 3.888889 -0.000000 1.000000 0.000000 1.000000 0.000000
0.555556 0.000000 2.777778 -0.000000 1.000000 0.000000 0.000000 1.000000
0.555556 0.000000 3.888889 -0.000000 1.000000 0.000000 0.000000 0.000000
2.777778 0.000000 3.888889 -0.000000 1.000000 0.000000 1.000000 0.000000
1.666667 0.000000 2.777778 -0.000000 1.000000 0.000000 0.000000 1.000000
1.666667 0.000000 3.888889 -0.000000 1.000000 0.000000 0.000000 0.000000
3.888889 0.000000 3.888889 -0.000000 1.000000 0.000000 1.000000 0.000000
2.777778 0.000000 2.777778 -0.000000 1.000000 0.000000 0.000000 1.000000
2.777778 0.000000 3.888889 -0.000000 1.000000 0.000000 0.000000 0.000000
5.000000 0.000000 3.888889 -0.000000 1.000000 0.000000 1.000000 0.000000
3.888889 0.000000 2.777778 -0.000000 1.000000 0.000000 0.000000 1.000000
3.888889 0.000000 3.888889 -0.000000 1.000000 0.000000 0.000000 0.000000
-3.888889 0.000000 2.777778 -0.000000 1.000000 0.000000 1.000000 0.000000
-5.000000 0.000000 1.666667 -0.000000 1.000000 0.000000 0.000000 1.000000
-5.000000 0.000000 2.777778 -0.000000 1.000000 0.000000 0.000000 0.000000
-2.777778 0.000000 2.777778 -0.000000 1.000000 0.000000 1.000000 0.000000
-3.888889 0.000000 1.666667 -0.000000 1.000000 0.000000 0.000000 1.000000
-3.888889 0.000000 2.777778 -0.000000 1.000000 0.000000 0.000000 0.000000
-1.666667 0.000000 2.777778 -0.000000 1.000000 0.000000 1.000000 0.000000
-2.777778 0.000000 1.666667 -0.000000 1.000000 0.000000 0.000000 1.000000
-2.777778 0.000000 2.777778 -0.000000 1.000000 0.000000 0.000000 0.000000
-0.555556 0.000000 2.777778 -0.000000 1.000000 0.000000 1.000000 0.000000
-1.666667 0.000000 1.666667 -0.000000 1.000000 0.000000 0.000000 1.000000
-1.666667 0.000000 2.777778 -0.000000 1.000000 0.000000 0.000000 0.000000
0.555556 0.000000 2.777778 -0.000000 1.000000 0.000000 1.000000 0.000000
-0.555556 0.000000 1.666667 -0.000000 1.000000 0.000000 0.000000 1.000000
-0.555556 0.000000 2.777778 -0.000000 1.000000 0.000000 0.000000 0.000000
1.666667 0.000000 2.777778 -0.000000 1.000000 0.000000 1.000000 0.000000
0.555556 0.000000 1.666667 -0.000000 1.000000 0.000000 0.000000 1.000000
0.555556 0.000000 2.777778 -0.000000 1.000000 0.000000 0.000000 0.000000
2.777778 0.000000 2.777778 -0.000000 1.000000 0.000000 1.000000 0.000000
1.666667 0.000000 1.666667 -0.000000 1.000000 0.000000 0.000000 1.000000
1.666667 0.000000 2.777778 -0.000000 1.000000 0.000000 0.000000 0.000000
3.888889 0.000000 2.777778 -0.000000 1.000000 0.000000 1.000000 0.000000
2.777778 0.000000 1.666667 -0.000000 1.000000 0.000000 0.000000 1.000000
2.777778 0.000000 2.777778 -0.000000 1.000000 0.000000 0.000000 0.000000
5.000000 0.000000 2.777778 -0.000000 1.000000 0.000000 1.000000 0.000000
3.888889 0.000000 1.666667 -0.000000 1.000000 0.000000 0.000000 1.000000
3.888889 0.000000 2.777778 -0.000000 1.000000 0.000000 0.000000 0.000000
-3.888889 0.000000 1.666667 -0.000000 1.000000 0.000000 1.000000 0.000000
-5.000000 0.000000 0.555556 -0.000000 1.000000 0.000000 0.000000 1.000000
-5.000000 0.000000 1.666667 -0.000000 1.000000 0.000000 0.000000 0.000000
-2.777778 0.000000 1.666667 -0.000000 1.000000 0.000000 1.000000 0.000000
-3.888889 0.000000 0.555556 -0.000000 1.000000 0.000000 0.000000 1.000000
-3.888889 0.000000 1.666667 -0.000000 1.000000 0.000000 0.000000 0.000000
-1.666667 0.000000 1.666667 -0.000000 1.000000 0.000000 1.000000 0.000000
-2.777778 0.000000 0.555556 -0.000000 1.000000 0.000000 0.000000 1.000000
-2.777778 0.000000 1.666667 -0.000000 1.000000 0.000000 0.000000 0.000000
-0.555556 0.000000 1.666667 -0.000000 1.000000 0.000000 1.000000 0.000000
-1.666667 0.000000 0.555556 -0.000000 1.000000 0.000000 0.000000 1.000000
-1.666667 0.000000 1.666667 -0.000000 1.000000 0.000000 0.000000 0.000000
0.555556 0.000000 1.666667 -0.000000 1.000000 0.000000 1.000000 0.000000
-0.555556 0.000000 0.555556 -0.000000 1.000000 0.000000 0.000000 1.000000
-0.555556 0.000000 1.666667 -0.000000 1.000000 0.000000 0.000000 0.000000
1.666667 0.000000 1.666667 -0.000000 1.000000 0.000000 1.000000 0.000000
0.555556 0.000000 0.555556 -0.000000 1.000000 0.000000 0.000000 1.000000
0.555556 0.000000 1.666667 -0.000000 1.000000 0.000000 0.000000 0.000000
2.777778 0.000000 1.666667 -0.000000 1.000000 0.000000 1.000000 0.000000
1.666667 0.000000 0.555556 -0.000000 1.000000 0.000000 0.000000 1.000000
1.666667 0.000000 1.666667 -0.000000 1.000000 0.000000 0.000000 0.000000
3.888889 0.000000 1.666667 -0.000000 1.000000 0.000000 1.000000 0.000000
2.777778 0.000000 0.555556 -0.000000 1.000000 0.000000 0.000000 1.000000
2.777778 0.000000 1.666667 -0.000000 1.000000 0.000000 0.000000 0.000000
5.000000 0.000000 1.666667 -0.000000 1.000000 0.000000 1.000000 0.000000
3.888889 0.000000 0.555556 -0.000000 1.000000 0.000000 0.000000 1.000000
3.888889 0.000000 1.666667 -0.000000 1.000000 0.000000 0.000000 0.000000
-3.888889 0.000000 0.555556 -0.000000 1.000000 0.000000 1.000000 0.000000
-5.000000 0.000000 -0.555556 -0.000000 1.000000 0.000000 0.000000 1.000000
-5.000000 0.000000 0.555556 -0.000000 1.000000 0.000000 0.000000 0.000000
-2.777778 0.000000 0.555556 -0.000000 1.000000 0.000000 1.000000 0.000000
-3.888889 0.000000 -0.555556 -0.000000 1.000000 0.000000 0.000000 1.000000
-3.888889 0.000000 0.555556 -0.000000 1.000000 0.000000 0.000000 0.000000
-1.666667 0.000000 0.555556 -0.000000 1.000000 0.000000 1.000000 0.000000
-2.777778 0.000000 -0.555556 -0.000000 1.000000 0.000000 0.000000 1.000000
-2.777778 0.000000 0.555556 -0.000000 1.000000 0.000000 0.000000 0.000000
-0.555556 0.000000 0.555556 -0.000000 1.000000 0.000000 1.000000 0.000000
-1.666667 0.000000 -0.555556 -0.000000 1.000000 0.000000 0.000000 1.000000
-1.666667 0.000000 0.555556 -0.000000 1.000000 0.000000 0.000000 0.000000
0.555556 0.000000 0.555556 -0.000000 1.000000 0.000000 1.000000 0.000000
-0.555556 0.000000 -0.555556 -0.000000 1.000000 0.000000 0.000000 1.000000
-0.555556 0.000000 0.555556 -0.000000 1.000000 0.000000 0.000000 0.000000
1.666667 0.000000 0.555556 -0.000000 1.000000 0.000000 1.000000 0.000000
0.555556 0.000000 -0.555556 -0.000000 1.000000 0.000000 0.000000 1.000000
0.555556 0.000000 0.555556 -0.000000 1.000000 0.000000 0.000000 0.000000
2.777778 0.000000 0.555556 -0.000000 1.000000 0.000000 1.000000 0.000000
1.666667 0.000000 -0.555556 -0.000000 1.000000 0.000000 0.000000 1.000000
1.666667 0.000000 0.555556 -0.000000 1.000000 0.000000 0.000000 0.000000
3.888889 0.000000 0.555556 -0.000000 1.000000 0.000000 1.000000 0.000000
2.777778 0.000000 -0.555556 -0.000000 1.000000 0.000000 0.000000 1.000000
2.777778 0.000000 0.555556 -0.000000 1.000000 0.000000 0.000000 0.000000
5.000000 0.000000 0.555556 -0.000000 1.000000 0.000000 1.000000 0.000000
3.888889 0.000000 -0.555556 -0.000000 1.000000 0.000000 0.000000 1.000000
3.888889 0.000000 0.555556 -0.000000 1.000000 0.000000 0.000000 0.000000
-3.888889 0.000000 -0.555556 -0.000000 1.000000 0.000000 1.000000 0.000000
-5.000000 0.000000 -1.666667 -0.000000 1.000000 0.000000 0.000000 1.000000
-5.000000 0.000000 -0.555556 -0.000000 1.000000 0.000000 0.000000 0.000000
-2.777778 0.000000 -0.555556 -0.000000 1.000000 0.000000 1.000000 0.000000
-3.888889 0.000000 -1.666667 -0.000000 1.000000 0.000000 0.000000 1.000000
-3.888889 0.000000 -0.555556 -0.000000 1.000000 0.000000 0.000000 0.000000
-1.666667 0.000000 -0.555556 -0.000000 1.000000 0.000000 1.000000 0.000000
-2.777778 0.000000 -1.666667 -0.000000 1.000000 0.000000 0.000000 1.000000
-2.777778 0.000000 -0.555556 -0.000000 1.000000 0.000000 0.000000 0.000000
-0.555556 0.000000 -0.555556 -0.000000 1.000000 0.000000 1.000000 0.000000
-1.666667 0.000000 -1.666667 -0.000000 1.000000 0.000000 0.000000 1.000000
-1.666667 0.000000 -0.555556 -0.000000 1.000000 0.000000 0.000000 0.000000
0.555556 0.000000 -0.555556 -0.000000 1.000000 0.000000 1.000000 0.000000
-0.555556 0.000000 -1.666667 -0.000000 1.000000 0.000000 0.000000 1.000000
-0.555556 0.000000 -0.555556 -0.000000 1.000000 0.000000 0.000000 0.000000
1.666667 0.000000 -0.555556 -0.000000 1.000000 0.000000 1.000000 0.000000
0.555556 0.000000 -1.666667 -0.000000 1.000000 0.000000 0.000000 1.000000
0.555556 0.000000 -0.555556 -0.000000 1.000000 0.000000 0.000000 0.000000
2.777778 0.000000 -0.555556 -0.000000 1.000000 0.000000 1.000000 0.000000
1.666667 0.000000 -1.666667 -0.000000 1.000000 0.000000 0.000000 1.000000
1.666667 0.000000 -0.555556 -0.000000 1.000000 0.000000 0.000000 0.000000
3.888889 0.000000 -0.555556 -0.000000 1.000000 0.000000 1.000000 0.000000
2.777778 0.000000 -1.666667 -0.000000 1.000000 0.000000 0.000000 1.000000
2.777778 0.000000 -0.555556 -0.000000 1.000000 0.000000 0.000000 0.000000
5.000000 0.000000 -0.555556 -0.000000 1.000000 0.000000 1.000000 0.000000
3.888889 0.000000 -1.666667 -0.000000 1.000000 0.000000 0.000000 1.000000
3.888889 0.000000 -0.555556 -0.000000 1.000000 0.000000 0.000000 0.000000
-3.888889 0.000000 -1.666667 -0.000000 1.000000 0.000000 1.000000 0.000000
-5.000000 0.000000 -2.777778 -0.000000 1.000000 0.000000 0.000000 1.000000
-5.000000 0.000000 -1.666667 -0.000000 1.000000 0.000000 0.000000 0.000000
-2.777778 0.000000 -1.666667 -0.000000 1.000000 0.000000 1.000000 0.000000
-3.888889 0.000000 -2.777778 -0.000000 1.000000 0.000000 0.000000 1.000000
-3.888889 0.000000 -1.666667 -0.000000 1.000000 0.000000 0.000000 0.000000
-1.666667 0.000000 -1.666667 -0.000000 1.000000 0.000000 1.000000 0.000000
-2.777778 0.000000 -2.777778 -0.000000 1.000000 0.000000 0.000000 1.000000
-2.777778 0.000000 -1.666667 -0.000000 1.000000 0.000000 0.000000 0.000000
-0.555556 0.000000 -1.666667 -0.000000 1.000000 0.000000 1.000000 0.000000
-1.666667 0.000000 -2.777778 -0.000000 1.000000 0.000000 0.000000 1.000000
-1.666667 0.000000 -1.666667 -0.000000 1.000000 0.000000 0.000000 0.000000
0.555556 0.000000 -1.666667 -0.000000 1.000000 0.000000 1.000000 0.000000
-0.555556 0.000000 -2.777778 -0.000000 1.000000 0.000000 0.000000 1.000000
-0.555556 0.000000 -1.666667 -0.000000 1.000000 0.000000 0.000000 0.000000
1.666667 0.000000 -1.666667 -0.000000 1.000000 0.000000 1.000000 0.000000
0.555556 0.000000 -2.777778 -0.000000 1.000000 0.000000 0.000000 1.000000
0.555556 0.000000 -1.666667 -0.000000 1.000000 0.000000 0.000000 0.000000
2.777778 0.000000 -1.666667 -0.000000 1.000000 0.000000 1.000000 0.000000
1.666667 0.000000 -2.777778 -0.000000 1.000000 0.000000 0.000000 1.000000
1.666667 0.000000 -1.666667 -0.000000 1.000000 0.000000 0.000000 0.000000
3.888889 0.000000 -1.666667 -0.000000 1.000000 0.000000 1.000000 0.000000
2.777778 0.000000 -2.777778 -0.000000 1.000000 0.000000 0.000000 1.000000
2.777778 0.000000 -1.666667 -0.000000 1.000000 0.000000 0.000000 0.000000
5.000000 0.000000 -1.666667 -0.000000 1.000000 0.000000 1.000000 0.000000
3.888889 0.000000 -2.777778 -0.000000 1.000000 0.000000 0.000000 1.000000
3.888889 0.000000 -1.666667 -0.000000 1.000000 0.000000 0.000000 0.000000
-3.888889 0.000000 -2.777778 -0.000000 1.000000 0.000000 1.000000 0.000000
-5.000000 0.000000 -3.888889 -0.000000 1.000000 0.000000 0.000000 1.000000
-5.000000 0.000000 -2.777778 -0.000000 1.000000 0.000000 0.000000 0.000000
-2.777778 0.000000 -2.777778 -0.000000 1.000000 0.000000 1.000000 0.000000
-3.888889 0.000000 -3.888889 -0.000000 1.000000 0.000000 0.000000 1.000000
-3.888889 0.000000 -2.777778 -0.000000 1.000000 0.000000 0.000000 0.000000
-1.666667 0.000000 -2.777778 -0.000000 1.000000 0.000000 1.000000 0.000000
-2.777778 0.000000 -3.888889 -0.000000 1.000000 0.000000 0.000000 1.000000
-2.777778 0.000000 -2.777778 -0.000000 1.000000 0.000000 0.000000 0.000000
-0.555556 0.000000 -2.777778 -0.000000 1.000000 0.000000 1.000000 0.000000
-1.666667 0.000000 -3.888889 -0.000000 1.000000 0.000000 0.000000 1.000000
-1.666667 0.000000 -2.777778 -0.000000 1.000000 0.000000 0.000000 0.000000
0.555556 0.000000 -2.777778 -0.000000 1.000000 0.000000 1.000000 0.000000
-0.555556 0.000000 -3.888889 -0.000000 1.000000 0.000000 0.000000 1.000000
-0.555556 0.000000 -2.777778 -0.000000 1.000000 0.000000 0.000000 0.000000
1.666667 0.000000 -2.777778 -0.000000 1.000000 0.000000 1.000000 0.000000
0.555556 0.000000 -3.888889 -0.000000 1.000000 0.000000 0.000000 1.000000
0.555556 0.000000 -2.777778 -0.000000 1.000000 0.000000 0.000000 0.000000
2.777778 0.000000 -2.777778 -0.000000 1.000000 0.000000 1.000000 0.000000
1.666667 0.000000 -3.888889 -0.000000 1.000000 0.000000 0.000000 1.000000
1.666667 0.000000 -2.777778 -0.000000 1.000000 0.000000 0.000000 0.000000
3.888889 0.000000 -2.777778 -0.000000 1.000000 0.000000 1.000000 0.000000
2.777778 0.000000 -3.888889 -0.000000 1.000000 0.000000 0.000000 1.000000
2.777778 0.000000 -2.777778 -0.000000 1.000000 0.000000 0.000000 0.000000
5.000000 0.000000 -2.777778 -0.000000 1.000000 0.000000 1.000000 0.000000
3.888889 0.000000 -3.888889 -0.000000 1.000000 0.000000 0.000000 1.000000
3.888889 0.000000 -2.777778 -0.000000 1.000000 0.000000 0.000000 0.000000
-3.888889 0.000000 -3.888889 -0.000000 1.000000 0.000000 1.000000 0.000000
-5.000000 0.000000 -5.000000 -0.000000 1.000000 0.000000 0.000000 1.000000
-5.000000 0.000000 -3.888889 -0.000000 1.000000 0.000000 0.000000 0.000000
-2.777778 0.000000 -3.888889 -0.000000 1.000000 0.000000 1.000000 0.000000
-3.888889 0.000000 -5.000000 -0.000000 1.000000 0.000000 0.000000 1.000000
-3.888889 0.000000 -3.888889 -0.000000 1.000000 0.000000 0.000000 0.000000
-1.666667 0.000000 -3.888889 -0.000000 1.000000 0.000000 1.000000 0.000000
-2.777778 0.000000 -5.000000 -0.000000 1.000000 0.000000 0.000000 1.000000
-2.777778 0.000000 -3.888889 -0.000000 1.000000 0.000000 0.000000 0.000000
-0.555556 0.000000 -3.888889 -0.000000 1.000000 0.000000 1.000000 0.000000
-1.666667 0.000000 -5.000000 -0.000000 1.000000 0.000000 0.000000 1.000000
-1.666667 0.000000 -3.888889 -0.000000 1.000000 0.000000 0.000000 0.000000
0.555556 0.000000 -3.888889 -0.000000 1.000000 0.000000 1.000000 0.000000
-0.555556 0.000000 -5.000000 -0.000000 1.000000 0.000000 0.000000 1.000000
-0.555556 0.000000 -3.888889 -0.000000 1.000000 0.000000 0.000000 0.000000
1.666667 0.000000 -3.888889 -0.000000 1.000000 0.000000 1.000000 0.000000
0.555556 0.000000 -5.000000 -0.000000 1.000000 0.000000 0.000000 1.000000
0.555556 0.000000 -3.888889 -0.000000 1.000000 0.000000 0.000000 0.000000
2.777778 0.000000 -3.888889 -0.000000 1.000000 0.000000 1.000000 0.000000
1.666667 0.000000 -5.000000 -0.000000 1.000000 0.000000 0.000000 1.000000
1.666667 0.000000 -3.888889 -0.000000 1.000000 0.000000 0.000000 0.000000
3.888889 0.000000 -3.888889 -0.000000 1.000000 0.000000 1.000000 0.000000
2.777778 0.000000 -5.000000 -0.000000 1.000000 0.000000 0.000000 1.000000
2.777778 0.000000 -3.888889 -0.000000 1.000000 0.000000 0.000000 0.000000
5.000000 0.000000 -3.888889 -0.000000 1.000000 0.000000 1.000000 0.000000
3.888889 0.000000 -5.000000 -0.000000 1.000000 0.000000 0.000000 1.000000
3.888889 0.000000 -3.888889 -0.000000 1.000000 0.000000 0.000000 0.000000
-3.888889 0.000000 3.888889 0.000000 1.000000 0.000000 1.000000 1.000000
-2.777778 0.000000 3.888889 0.000000 1.000000 0.000000 1.000000 1.000000
-1.666667 0.000000 3.888889 0.000000 1.000000 0.000000 1.000000 1.000000
-0.555556 0.000000 3.888889 0.000000 1.000000 0.000000 1.000000 1.000000
0.555556 0.000000 3.888889 0.000000 1.000000 0.000000 1.000000 1.000000
1.666667 0.000000 3.888889 0.000000 1.000000 0.000000 1.000000 1.000000
2.777778 0.000000 3.888889 0.000000 1.000000 0.000000 1.000000 1.000000
3.888889 0.000000 3.888889 0.000000 1.000000 0.000000 1.000000 1.000000
5.000000 0.000000 3.888889 0.000000 1.000000 0.000000 1.000000 1.000000
-3.888889 0.000000 2.777778 0.000000 1.000000 0.000000 1.000000 1.000000
-2.777778 0.000000 2.777778 0.000000 1.000000 0.000000 1.000000 1.000000
-1.666667 0.000000 2.777778 0.000000 1.000000 0.000000 1.000000 1.000000
-0.555556 0.000000 2.777778 0.000000 1.000000 0.000000 1.000000 1.000000
0.555556 0.000000 2.777778 0.000000 1.000000 0.000000 1.000000 1.000000
1.666667 0.000000 2.777778 0.000000 1.000000 0.000000 1.000000 1.000000
2.777778 0.000000 2.777778 0.000000 1.000000 0.000000 1.000000 1.000000
3.888889 0.000000 2.777778 0.000000 1.000000 0.000000 1.000000 1.000000
5.000000 0.000000 2.777778 0.000000 1.000000 0.000000 1.000000 1.000000
-3.888889 0.000000 1.666667 0.000000 1.000000 0.000000 1.000000 1.000000
-2.777778 0.000000 1.666667 0.000000 1.000000 0.000000 1.000000 1.000000
-1.666667 0.000000 1.666667 0.000000 1.000000 0.000000 1.000000 1.000000
-0.555556 0.000000 1.666667 0.000000 1.000000 0.000000 1.000000 1.000000
0.555556 0.000000 1.666667 0.000000 1.000000 0.000000 1.000000 1.000000
1.666667 0.000000 1.666667 0.000000 1.000000 0.000000 1.000000 1.000000
2.777778 0.000000 1.666667 0.000000 1.000000 0.000000 1.000000 1.000000
3.888889 0.000000 1.666667 0.000000 1.000000 0.000000 1.000000 1.000000
5.000000 0.000000 1.666667 0.000000 1.000000 0.000000 1.000000 1.000000
-3.888889 0.000000 0.555556 0.000000 1.000000 0.000000 1.000000 1.000000
-2.777778 0.000000 0.555556 0.000000 1.000000 0.000000 1.000000 1.000000
-1.666667 0.000000 0.555556 0.000000 1.000000 0.000000 1.000000 1.000000
-0.555556 0.000000 0.555556 0.000000 1.000000 0.000000 1.000000 1.000000
0.555556 0.000000 0.555556 0.000000 1.000000 0.000000 1.000000 1.000000
1.666667 0.000000 0.555556 0.000000 1.000000 0.000000 1.000000 1.000000
2.777778 0.000000 0.555556 0.000000 1.000000 0.000000 1.000000 1.000000
3.888889 0.000000 0.555556 0.000000 1.000000 0.000000 1.000000 1.000000
5.000000 0.000000 0.555556 0.000000 1.000000 0.000000 1.000000 1.000000
-3.888889 0.000000 -0.555556 0.000000 1.000000 0.000000 1.000000 1.000000
-2.777778 0.000000 -0.555556 0.000000 1.000000 0.000000 1.000000 1.000000
-1.666667 0.000000 -0.555556 0.000000 1.000000 0.000000 1.000000 1.000000
-0.555556 0.000000 -0.555556 0.000000 1.000000 0.000000 1.000000 1.000000
0.555556 0.000000 -0.555556 0.000000 1.000000 0.000000 1.000000 1.000000
1.666667 0.000000 -0.555556 0.000000 1.000000 0.000000 1.000000 1.000000
2.777778 0.000000 -0.555556 0.000000 1.000000 0.000000 1.000000 1.000000
3.888889 0.000000 -0.555556 0.000000 1.000000 0.000000 1.000000 1.000000
5.000000 0.000000 -0.555556 0.000000 1.000000 0.000000 1.000000 1.000000
-3.888889 0.000000 -1.666667 0.000000 1.000000 0.000000 1.000000 1.000000
-2.777778 0.000000 -1.666667 0.000000 1.000000 0.000000 1.000000 1.000000
-1.666667 0.000000 -1.666667 0.000000 1.000000 0.000000 1.000000 1.000000
-0.555556 0.000000 -1.666667 0.000000 1.000000 0.000000 1.000000 1.000000
0.555556 0.000000 -1.666667 0.000000 1.000000 0.000000 1.000000 1.000000
1.666667 0.000000 -1.666667 0.000000 1.000000 0.000000 1.000000 1.000000
2.777778 0.000000 -1.666667 0.000000 1.000000 0.000000 1.000000 1.000000
3.888889 0.000000 -1.666667 0.000000 1.000000 0.000000 1.000000 1.000000
5.000000 0.000000 -1.666667 0.000000 1.000000 0.000000 1.000000 1.000000
-3.888889 0.000000 -2.777778 0.000000 1.000000 0.000000 1.000000 1.000000
-2.777778 0.000000 -2.777778 0.000000 1.000000 0.000000 1.000000 1.000000
-1.666667 0.000000 -2.777778 0.000000 1.000000 0.000000 1.000000 1.000000
-0.555556 0.000000 -2.777778 0.000000 1.000000 0.000000 1.000000 1.000000
0.555556 0.000000 -2.777778 0.000000 1.000000 0.000000 1.000000 1.000000
1.666667 0.000000 -2.777778 0.000000 1.000000 0.000000 1.000000 1.000000
2.777778 0.000000 -2.777778 0.000000 1.000000 0.000000 1.000000 1.000000
3.888889 0.000000 -2.777778 0.000000 1.000000 0.000000 1.000000 1.000000
5.000000 0.000000 -2.777778 0.000000 1.000000 0.000000 1.000000 1.000000
-3.888889 0.000000 -3.888889 0.000000 1.000000 0.000000 1.000000 1.000000
-2.777778 0.000000 -3.888889 0.000000 1.000000 0.000000 1.000000 1.000000
-1.666667 0.000000 -3.888889 0.000000 1.000000 0.000000 1.000000 1.000000
-0.555556 0.000000 -3.888889 0.000000 1.000000 0.000000 1.000000 1.000000
0.555556 0.000000 -3.888889 0.000000 1.000000 0.000000 1.000000 1.000000
1.666667 0.000000 -3.888889 0.000000 1.000000 0.000000 1.000000 1.000000
2.777778 0.000000 -3.888889 0.000000 1.000000 0.000000 1.000000 1.000000
3.888889 0.000000 -3.888889 0.000000 1.000000 0.000000 1.000000 1.000000
5.000000 0.000000 -3.888889 0.000000 1.000000 0.000000 1.000000 1.000000
-3.888889 0.000000 -5.000000 0.000000 1.000000 0.000000 1.000000 1.000000
-2.777778 0.000000 -5.000000 0.000000 1.000000 0.000000 1.000000 1.000000
-1.666667 0.000000 -5.000000 0.000000 1.000000 0.000000 1.000000 1.000000
-0.555556 0.000000 -5.000000 0.000000 1.000000 0.000000 1.000000 1.000000
0.555556 0.000000 -5.000000 0.000000 1.000000 0.000000 1.000000 1.000000
1.666667 0.000000 -5.000000 0.000000 1.000000 0.000000 1.000000 1.000000
2.777778 0.000000 -5.000000 0.000000 1.000000 0.000000 1.000000 1.000000
3.888889 0.000000 -5.000000 0.000000 1.000000 0.000000 1.000000 1.000000
5.000000 0.000000 -5.000000 0.000000 1.000000 0.000000 1.000000 1.000000
3 0 1 2
3 3 4 5
3 6 7 8
3 9 10 11
3 12 13 14
3 15 16 17
3 18 19 20
3 21 22 23
3 24 25 26
3 27 28 29
3 30 31 32
3 33 34 35
3 36 37 38
3 39 40 41
3 42 43 44
3 45 46 47
3 48 49 50
3 51 52 53
3 54 55 56
3 57 58 59
3 60 61 62
3 63 64 65
3 66 67 68
3 69 70 71
3 72 73 74
3 75 76 77
3 78 79 80
3 81 82 83
3 84 85 86
3 87 88 89
3 90 91 92
3 93 94 95
3 96 97 98
3 99 100 101
3 102 103 104
3 105 106 107
3 108 109 110
3 111 112 113
3 114 115 116
3 117 118 119
3 120 121 122
3 123 124 125
3 126 127 128
3 129 130 131
3 132 133 134
3 135 136 137
3 138 139 140
3 141 142 143
3 144 145 146
3 147 148 149
3 150 151 152
3 153 154 155
3 156 157 158
3 159 160 161
3 162 163 164
3 165 166 167
3 168 169 170
3 171 172 173
3 174 175 176
3 177 178 179
3 180 181 182
3 183 184 185
3 186 187 188
3 189 190 191
3 192 193 194
3 195 196 197
3 198 199 200
3 201 202 203
3 204 205 206
3 207 208 209
3 210 211 212
3 213 214 215
3 216 217 218
3 219 220 221
3 222 223 224
3 225 226 227
3 228 229 230
3 231 232 233
3 234 235 236
3 237 238 239
3 240 241 242
3 0 243 1
3 3 244 4
3 6 245 7
3 9 246 10
3 12 247 13
3 15 248 16
3 18 249 19
3 21 250 22
3 24 251 25
3 27 252 28
3 30 253 31
3 33 254 34
3 36 255 37
3 39 256 40
3 42 257 43
3 45 258 46
3 48 259 49
3 51 260 52
3 54 261 55
3 57 262 58
3 60 263 61
3 63 264 64
3 66 265 67
3 69 266 70
3 72 267 73
3 75 268 76
3 78 269 79
3 81 270 82
3 84 271 85
3 87 272 88
3 90 273 91
3 93 274 94
3 96 275 97
3 99 276 100
3 102 277 103
3 105 278 106
3 108 279 109
3 111 280 112
3 114 281 115
3 117 282 118
3 120 283 121
3 123 284 124
3 126 285 127
3 129 286 130
3 132 287 133
3 135 288 136
3 138 289 139
3 141 290 142
3 144 291 145
3 147 292 148
3 150 293 151
3 153 294 154
3 156 295 157
3 159 296 160
3 162 297 163
3 165 298 166
3 168 299 169
3 171 300 172
3 174 301 175
3 177 302 178
3 180 303 181
3 183 304 184
3 186 305 187
3 189 306 190
3 192 307 193
3 195 308 196
3 198 309 199
3 201 310 202
3 204 311 205
3 207 312 208
3 210 313 211
3 213 314 214
3 216 315 217
3 219 316 220
3 222 317 223
3 225 318 226
3 228 319 229
3 231 320 232
3 234 321 235
3 237 322 238
3 240 323 241
