ply
format ascii 1.0
comment Created by Blender 2.79 (sub 0) - www.blender.org, source file: 'untitled.blend'
element vertex 10
property float x
property float y
property float z
property float nx
property float ny
property float nz
property float s
property float t
property uchar red
property uchar green
property uchar blue
element face 4
property list uchar uint vertex_indices
end_header
4.625966 3.367640 0.191040 0.820526 0.037939 -0.570349 1.000000 1.000000 145 126 98
5.837230 3.670819 1.953778 0.820526 0.037939 -0.570349 0.000000 1.000000 145 123 103
6.077024 1.533604 2.156590 0.820526 0.037939 -0.570349 0.000000 0.000000 188 143 130
4.625966 3.367640 0.191040 0.820526 0.037938 -0.570349 1.000000 1.000000 145 126 98
6.077024 1.533604 2.156590 0.820526 0.037938 -0.570349 0.000000 0.000000 188 143 130
4.865759 1.230424 0.393853 0.820526 0.037938 -0.570349 1.000000 0.000000 145 116 109
-8.037281 -1.093818 -0.901808 -0.314577 -0.022208 -0.948972 1.000000 1.000000 145 126 98
-5.727733 -0.266976 -1.686756 -0.314577 -0.022208 -0.948972 0.000000 1.000000 145 123 103
-4.925649 -2.705598 -1.895572 -0.314577 -0.022208 -0.948972 0.000000 0.000000 188 143 130
-7.235197 -3.532444 -1.110624 -0.314577 -0.022208 -0.948972 1.000000 0.000000 145 116 109
3 0 1 2
3 3 4 5
3 6 7 8
3 6 8 9
