ply
format ascii 1.0
comment Created by Blender 2.79 (sub 0) - www.blender.org, source file: 'untitled.blend'
element vertex 554
property float x
property float y
property float z
property float s
property float t
element face 1008
property list uchar uint vertex_indices
end_header
-0.451475 -0.543062 0.544036 0.857143 0.146515
-0.636718 -0.485910 0.487775 0.821429 0.201265
-0.554260 -0.547717 0.424605 0.821428 0.142056
0.753184 -0.285357 -0.576997 0.321429 0.341976
0.864751 -0.278996 -0.395873 0.285714 0.345491
0.809957 -0.399987 -0.370789 0.285714 0.273059
-0.017269 0.408188 0.886060 0.964286 0.731474
-0.195358 0.480856 0.785075 0.928571 0.793893
-0.215106 0.399987 0.864433 0.928571 0.726941
0.062879 0.670461 0.302552 1.000000 0.975528
0.031858 0.690007 0.153288 1.000000 0.994253
-0.005886 0.671706 0.302022 0.964286 0.976721
0.239801 -0.671706 -0.183706 0.321429 0.023278
0.142356 -0.690006 -0.065169 0.285715 0.005747
0.099983 -0.690006 -0.120482 0.357143 0.005747
-0.019229 0.144389 0.986640 0.964286 0.580117
-0.229658 0.278996 0.922912 0.928571 0.654508
-0.238441 0.140915 0.958209 0.928571 0.578197
-0.008671 0.641516 0.444918 0.964286 0.947800
-0.074620 0.670460 0.299872 0.928571 0.975528
-0.109614 0.639058 0.440498 0.928571 0.945446
0.607351 -0.278996 -0.731870 0.357143 0.345491
0.630579 -0.140915 -0.759861 0.357143 0.421803
0.783376 -0.144389 -0.600126 0.321429 0.419883
0.516643 -0.480856 -0.622566 0.357143 0.206107
0.568867 -0.399987 -0.685496 0.357143 0.273059
0.703517 -0.408188 -0.538948 0.321429 0.268526
-0.013605 0.547717 0.698074 0.964286 0.857944
-0.141936 0.596325 0.570391 0.928571 0.904509
-0.170716 0.543062 0.686048 0.928571 0.853485
0.280975 -0.670460 -0.128627 0.285714 0.024472
0.412739 -0.639058 -0.188947 0.285714 0.054554
0.435693 -0.641516 -0.090550 0.250000 0.052200
-0.400006 0.408188 0.790819 0.892857 0.731474
-0.516643 0.480856 0.622566 0.857143 0.793893
-0.568867 0.399987 0.685496 0.857143 0.726941
-0.037806 0.690006 0.151930 0.928571 0.994253
-0.136346 0.671706 0.269559 0.892857 0.976721
0.566162 -0.600025 -0.117665 0.250000 0.091946
0.587674 -0.596325 0.011453 0.214286 0.095491
0.453846 -0.639058 0.008845 0.214286 0.054554
-0.445413 0.144389 0.880589 0.892857 0.580117
-0.607351 0.278996 0.731870 0.857143 0.654508
-0.630579 0.140915 0.759861 0.857143 0.578197
-0.200856 0.641516 0.397095 0.892857 0.947800
-0.197340 0.670461 0.237799 0.857143 0.975528
-0.289884 0.639058 0.349315 0.857143 0.945445
0.642814 -0.543062 -0.294272 0.285714 0.146515
0.735601 -0.480856 -0.336749 0.285714 0.206107
0.785298 -0.485909 -0.163208 0.250000 0.201266
0.897824 -0.140915 -0.411013 0.285714 0.421803
0.909253 0.000578 -0.416245 0.285714 0.500000
0.979078 0.000578 -0.203481 0.250000 0.500000
-0.315142 0.547717 0.623041 0.892857 0.857944
-0.375364 0.596325 0.452320 0.857143 0.904509
-0.451475 0.543062 0.544036 0.857143 0.853485
-0.642814 -0.543062 0.294272 0.785714 0.146515
-0.554260 0.547717 0.424605 0.821428 0.857944
-0.534445 0.596325 0.244662 0.785714 0.904508
-0.642814 0.543062 0.294272 0.785714 0.853485
-0.516643 -0.480856 0.622566 0.857143 0.206107
-0.703517 -0.408188 0.538947 0.821429 0.268526
0.295760 -0.671706 -0.061468 0.250000 0.023279
0.308958 -0.670460 0.006021 0.214286 0.024472
0.156534 -0.690006 0.003050 0.214286 0.005747
-0.703517 0.408188 0.538947 0.821429 0.731474
-0.735601 0.480856 0.336749 0.785714 0.793893
-0.809957 0.399987 0.370788 0.785714 0.726941
-0.099983 0.690006 0.120481 0.857143 0.994253
-0.239801 0.671706 0.183706 0.821428 0.976721
0.293140 -0.671706 0.072945 0.178571 0.023278
0.139709 -0.690006 0.070666 0.142857 0.005747
-0.783376 0.144389 0.600126 0.821429 0.580117
-0.864751 0.278996 0.395872 0.785714 0.654508
-0.897824 0.140915 0.411013 0.785714 0.578197
-0.353258 0.641516 0.270622 0.821428 0.947800
-0.280975 0.670461 0.128627 0.785714 0.975528
-0.412739 0.639058 0.188947 0.785714 0.945446
0.950876 -0.278996 0.018532 0.214286 0.345491
0.987243 -0.140915 0.019241 0.214286 0.421803
0.957624 -0.144389 0.238295 0.178571 0.419883
0.000000 -0.696006 -0.000001 0.483816 -0.000000
0.920717 -0.285357 0.229111 0.178571 0.341976
0.848669 -0.278996 0.429267 0.142857 0.345491
0.794894 -0.399987 0.402067 0.142857 0.273059
0.561147 -0.600026 0.139636 0.178571 0.091946
0.524506 -0.596325 0.265301 0.142857 0.095491
0.405063 -0.639058 0.204885 0.142857 0.054554
-0.683599 0.547717 0.142072 0.750000 0.857943
-0.587674 0.596325 -0.011454 0.714286 0.904509
-0.706835 0.543062 -0.013776 0.714286 0.853485
-0.568867 -0.399987 0.685496 0.857143 0.273059
-0.753184 -0.285357 0.576997 0.821429 0.341976
0.706835 -0.543062 0.013776 0.214286 0.146515
0.808863 -0.480856 0.015764 0.214286 0.206107
0.778345 -0.485910 0.193683 0.178571 0.201265
-0.867685 0.408187 0.180330 0.750000 0.731473
-0.808864 0.480856 -0.015765 0.714286 0.793893
-0.890625 0.399987 -0.017358 0.714286 0.726941
-0.142356 0.690006 0.065168 0.785714 0.994253
-0.295760 0.671706 0.061467 0.750000 0.976721
0.890625 -0.399987 0.017358 0.214286 0.273059
0.860002 -0.408188 0.214003 0.178571 0.268526
-0.966182 0.144389 0.200800 0.750000 0.580117
-0.950876 0.278996 -0.018533 0.714286 0.654508
-0.987243 0.140915 -0.019241 0.714286 0.578197
-0.435693 0.641516 0.090549 0.750000 0.947800
-0.308959 0.670461 -0.006022 0.714286 0.975528
-0.453846 0.639058 -0.008846 0.714286 0.945446
-0.957624 0.144389 -0.238296 0.678571 0.580117
-0.848669 0.278996 -0.429267 0.642857 0.654508
-0.881127 0.140915 -0.445685 0.642857 0.578197
-0.431834 0.641516 -0.107458 0.678571 0.947800
-0.275750 0.670461 -0.139478 0.642857 0.975528
-0.405063 0.639058 -0.204886 0.642857 0.945446
0.444991 -0.600026 0.369281 0.107143 0.091946
0.232460 -0.671706 0.192910 0.107143 0.023279
0.095212 -0.690006 0.124285 0.071429 0.005747
-0.677545 0.547717 -0.168601 0.678571 0.857944
-0.524506 0.596325 -0.265302 0.642857 0.904509
-0.630859 0.543062 -0.319096 0.642857 0.853485
-0.809957 -0.399987 0.370788 0.785714 0.273059
0.881127 -0.140915 0.445684 0.142857 0.421803
0.759397 -0.144389 0.630194 0.107143 0.419883
-0.860002 0.408188 -0.214003 0.678571 0.731474
-0.721921 0.480856 -0.365156 0.642857 0.793893
-0.794894 0.399987 -0.402067 0.642857 0.726941
-0.156534 0.690006 -0.003051 0.714285 0.994253
-0.293140 0.671706 -0.072945 0.678571 0.976721
0.769534 0.000578 0.638607 0.107143 0.500000
0.608136 0.000578 0.793832 0.071429 0.500000
0.600492 -0.140915 0.783854 0.071429 0.421803
-0.139709 0.690006 -0.070667 0.642857 0.994253
-0.232461 0.671706 -0.192910 0.607143 0.976721
0.541725 -0.399987 0.707141 0.071429 0.273059
0.578372 -0.278996 0.754979 0.071429 0.345491
0.394931 -0.285357 0.862694 0.035714 0.341976
-0.759398 0.144389 -0.630195 0.607143 0.580117
-0.578373 0.278996 -0.754980 0.571429 0.654509
-0.600492 0.140915 -0.783855 0.571429 0.578197
-0.342445 0.641516 -0.284182 0.607143 0.947800
-0.187925 0.670461 -0.245308 0.571429 0.975528
-0.276053 0.639058 -0.360346 0.571428 0.945446
0.031858 -0.690007 0.153288 0.000000 0.005747
0.357454 -0.596325 0.466603 0.071429 0.095491
0.429934 -0.543062 0.561215 0.071429 0.146515
0.290625 -0.547717 0.634846 0.035714 0.142056
-0.537294 0.547717 -0.445880 0.607143 0.857944
-0.357454 0.596325 -0.466603 0.571429 0.904509
-0.429934 0.543062 -0.561216 0.571428 0.853485
-0.607351 -0.278996 0.731870 0.857143 0.345491
-0.783376 -0.144389 0.600125 0.821429 0.419883
0.333862 -0.485910 0.729294 0.035714 0.201266
0.164620 -0.480856 0.792091 0.000000 0.206107
0.143855 -0.543062 0.692178 0.000000 0.146515
-0.681982 0.408188 -0.565951 0.607143 0.731474
-0.491993 0.480856 -0.642224 0.571429 0.793893
-0.541725 0.399987 -0.707142 0.571429 0.726941
-0.368888 0.408188 -0.805805 0.535714 0.731474
-0.164620 0.480856 -0.792092 0.500000 0.793893
-0.181260 0.399987 -0.872158 0.500000 0.726941
-0.095212 0.690006 -0.124286 0.571428 0.994253
-0.125739 0.671706 -0.274667 0.535714 0.976721
0.185230 -0.641515 0.404620 0.035714 0.052200
0.092366 -0.639058 0.444435 0.000000 0.054555
0.062879 -0.670460 0.302552 0.000000 0.024472
-0.410762 0.144389 -0.897276 0.535714 0.580117
-0.193522 0.278996 -0.931160 0.500000 0.654509
-0.200923 0.140915 -0.966773 0.500000 0.578197
-0.185230 0.641516 -0.404620 0.535714 0.947800
-0.062879 0.670461 -0.302553 0.500000 0.975528
-0.092367 0.639058 -0.444435 0.500000 0.945445
0.187925 -0.670460 0.245308 0.071429 0.024472
0.125739 -0.671706 0.274666 0.035714 0.023279
0.416245 0.000578 0.909252 0.035714 0.500000
0.203481 0.000578 0.979079 0.000000 0.500000
0.200924 -0.140915 0.966772 0.000000 0.421803
-0.290625 0.547717 -0.634847 0.535714 0.857944
-0.119603 0.596325 -0.575489 0.500000 0.904509
-0.143855 0.543062 -0.692179 0.500000 0.853485
-0.630579 -0.140915 0.759861 0.857143 0.421803
-0.793832 0.000578 0.608136 0.821429 0.500000
0.276052 -0.639058 0.360346 0.071428 0.054554
0.240698 -0.600025 0.525784 0.035714 0.091946
-0.897824 -0.140915 0.411013 0.785714 0.421803
0.681982 -0.408188 0.565951 0.107143 0.268526
0.491993 -0.480856 0.642224 0.071429 0.206107
0.017269 0.408188 -0.886060 0.464286 0.731474
0.195358 0.480856 -0.785076 0.428571 0.793893
0.215106 0.399987 -0.864433 0.428571 0.726941
-0.031858 0.690007 -0.153289 0.500000 0.994253
0.005886 0.671706 -0.302023 0.464286 0.976721
0.677545 -0.547717 0.168600 0.178571 0.142056
0.630859 -0.543062 0.319096 0.142857 0.146515
0.019229 0.144389 -0.986641 0.464286 0.580117
0.229658 0.278996 -0.922912 0.428571 0.654509
0.238441 0.140915 -0.958209 0.428571 0.578197
0.008671 0.641516 -0.444919 0.464286 0.947800
0.074620 0.670461 -0.299873 0.428571 0.975528
0.109614 0.639058 -0.440499 0.428572 0.945446
0.013605 0.547717 -0.698075 0.464286 0.857944
0.141936 0.596325 -0.570391 0.428571 0.904509
0.170716 0.543062 -0.686048 0.428571 0.853485
0.315142 0.547717 -0.623041 0.392857 0.857944
0.375363 0.596325 -0.452321 0.357143 0.904509
0.451475 0.543062 -0.544037 0.357143 0.853485
-0.197340 -0.670460 0.237799 0.857143 0.024472
-0.353258 -0.641516 0.270622 0.821428 0.052200
-0.239801 -0.671706 0.183705 0.821428 0.023278
0.400006 0.408188 -0.790820 0.392857 0.731474
0.516643 0.480856 -0.622566 0.357143 0.793893
0.568867 0.399987 -0.685497 0.357143 0.726941
0.037806 0.690006 -0.151931 0.428572 0.994253
0.136346 0.671706 -0.269559 0.392857 0.976721
0.445413 0.144389 -0.880590 0.392857 0.580117
0.607351 0.278996 -0.731870 0.357143 0.654509
0.630579 0.140915 -0.759861 0.357143 0.578197
0.200856 0.641516 -0.397096 0.392857 0.947800
0.197340 0.670460 -0.237799 0.357143 0.975528
0.289884 0.639058 -0.349316 0.357143 0.945446
0.353258 -0.641516 -0.270623 0.321429 0.052199
0.353258 0.641516 -0.270623 0.321429 0.947800
0.280975 0.670461 -0.128627 0.285714 0.975528
0.412739 0.639058 -0.188947 0.285714 0.945446
-0.290625 -0.547717 -0.634847 0.535714 0.142056
-0.143855 -0.543062 -0.692179 0.500000 0.146515
-0.119603 -0.596325 -0.575489 0.500000 0.095491
0.315141 -0.547717 -0.623041 0.392857 0.142056
0.451475 -0.543062 -0.544037 0.357143 0.146515
0.375363 -0.596325 -0.452321 0.357143 0.095491
0.554260 0.547717 -0.424606 0.321429 0.857944
0.534445 0.596325 -0.244663 0.285714 0.904509
0.642814 0.543062 -0.294272 0.285714 0.853485
-0.289884 -0.639058 0.349315 0.857143 0.054554
-0.459042 -0.600026 0.351661 0.821428 0.091946
0.008671 -0.641515 -0.444919 0.464286 0.052200
0.109614 -0.639058 -0.440499 0.428572 0.054554
0.074620 -0.670460 -0.299873 0.428571 0.024472
0.703517 0.408188 -0.538948 0.321429 0.731474
0.735601 0.480856 -0.336750 0.285714 0.793893
0.809957 0.399987 -0.370789 0.285714 0.726941
0.099983 0.690006 -0.120482 0.357143 0.994253
0.239801 0.671706 -0.183706 0.321429 0.976721
-0.062879 -0.670460 -0.302553 0.500000 0.024472
0.005886 -0.671706 -0.302023 0.464286 0.023279
-0.031858 -0.690007 -0.153289 0.500000 0.005747
0.783376 0.144389 -0.600126 0.321429 0.580117
0.864751 0.278996 -0.395873 0.285714 0.654509
0.897824 0.140915 -0.411013 0.285714 0.578197
0.966182 0.144389 -0.200801 0.250000 0.580117
0.950876 0.278996 0.018532 0.214286 0.654509
0.987243 0.140915 0.019241 0.214286 0.578197
0.435693 0.641516 -0.090550 0.250000 0.947800
0.308958 0.670460 0.006021 0.214286 0.975528
0.453846 0.639058 0.008845 0.214286 0.945446
-0.860002 -0.408188 -0.214003 0.678571 0.268526
-0.794894 -0.399987 -0.402067 0.642857 0.273059
-0.721921 -0.480856 -0.365156 0.642857 0.206107
-0.681982 -0.408188 -0.565951 0.607143 0.268526
-0.541725 -0.399987 -0.707142 0.571429 0.273059
-0.491993 -0.480856 -0.642224 0.571429 0.206107
0.683599 0.547717 -0.142072 0.250000 0.857943
0.587674 0.596325 0.011453 0.214286 0.904509
0.706835 0.543062 0.013776 0.214286 0.853485
-0.412739 -0.639058 0.188947 0.785714 0.054554
-0.342445 -0.641516 -0.284182 0.607143 0.052200
-0.276053 -0.639058 -0.360346 0.571428 0.054554
-0.187925 -0.670460 -0.245308 0.571429 0.024472
0.867685 0.408187 -0.180331 0.250000 0.731473
0.808864 0.480856 0.015764 0.214286 0.793893
0.890625 0.399987 0.017358 0.214286 0.726941
0.142356 0.690006 -0.065169 0.285715 0.994253
0.295760 0.671706 -0.061468 0.250000 0.976721
-0.275750 -0.670460 -0.139478 0.642857 0.024472
-0.232461 -0.671706 -0.192910 0.607143 0.023279
-0.139709 -0.690006 -0.070667 0.642857 0.005747
0.156534 0.690006 0.003050 0.214286 0.994253
0.293140 0.671706 0.072945 0.178571 0.976721
-0.280975 -0.670460 0.128627 0.785714 0.024472
0.957624 0.144389 0.238295 0.178571 0.580117
0.848669 0.278996 0.429267 0.142857 0.654508
0.881127 0.140915 0.445684 0.142857 0.578197
0.431834 0.641516 0.107457 0.178571 0.947800
0.275749 0.670461 0.139477 0.142857 0.975528
0.405063 0.639058 0.204885 0.142857 0.945445
-0.099983 -0.690006 0.120481 0.857143 0.005747
-0.966182 -0.144389 0.200800 0.750000 0.419883
-0.987243 -0.140915 -0.019241 0.714286 0.421803
-0.950876 -0.278996 -0.018533 0.714286 0.345491
0.677545 0.547717 0.168600 0.178571 0.857944
0.524506 0.596325 0.265301 0.142857 0.904509
0.630859 0.543062 0.319096 0.142857 0.853485
-0.534445 -0.596325 0.244662 0.785714 0.095491
-0.683599 -0.547716 0.142072 0.750000 0.142057
-0.566162 -0.600025 0.117665 0.750000 0.091946
-0.867685 -0.408187 0.180330 0.750000 0.268527
-0.890625 -0.399987 -0.017358 0.714286 0.273059
-0.808864 -0.480856 -0.015765 0.714286 0.206107
0.860002 0.408188 0.214003 0.178571 0.731474
0.721921 0.480856 0.365156 0.142857 0.793893
0.794894 0.399987 0.402067 0.142857 0.726941
-0.400006 -0.408188 0.790819 0.892857 0.268526
0.681982 0.408188 0.565951 0.107143 0.731474
0.491993 0.480856 0.642224 0.071429 0.793893
0.541725 0.399987 0.707141 0.071429 0.726941
0.139709 0.690006 0.070666 0.142857 0.994253
0.232460 0.671706 0.192910 0.107143 0.976721
-0.008671 -0.641516 0.444918 0.964286 0.052200
-0.109614 -0.639058 0.440498 0.928571 0.054554
-0.074620 -0.670460 0.299872 0.928571 0.024472
0.759397 0.144389 0.630194 0.107143 0.580117
0.578372 0.278996 0.754979 0.071429 0.654508
0.600492 0.140915 0.783854 0.071429 0.578197
0.342445 0.641516 0.284182 0.107143 0.947800
0.187925 0.670461 0.245308 0.071429 0.975528
0.276052 0.639058 0.360346 0.071428 0.945446
0.062879 -0.670460 0.302552 1.000000 0.024472
-0.005886 -0.671706 0.302022 0.964286 0.023279
0.031858 -0.690007 0.153288 1.000000 0.005747
-0.445413 -0.144389 0.880589 0.892857 0.419883
0.537294 0.547717 0.445880 0.107143 0.857944
0.357454 0.596325 0.466603 0.071429 0.904509
0.429934 0.543062 0.561215 0.071429 0.853485
-0.785299 -0.485909 0.163208 0.750000 0.201266
0.290625 0.547717 0.634846 0.035714 0.857944
0.119603 0.596325 0.575488 0.000000 0.904509
0.143855 0.543062 0.692178 0.000000 0.853485
-0.375364 -0.596325 0.452320 0.857143 0.095491
0.238441 -0.140915 -0.958209 0.428571 0.421803
0.241476 0.000578 -0.970407 0.428571 0.500000
0.451358 0.000578 -0.892344 0.392857 0.500000
0.368888 0.408188 0.805805 0.035714 0.731474
0.164620 0.480856 0.792091 0.000000 0.793893
0.181260 0.399987 0.872158 0.000000 0.726941
0.095212 0.690006 0.124285 0.071429 0.994253
0.125739 0.671706 0.274666 0.035714 0.976721
0.200856 -0.641516 -0.397096 0.392857 0.052200
0.410762 0.144389 0.897275 0.035714 0.580117
0.193522 0.278996 0.931159 0.000000 0.654508
0.200924 0.140915 0.966772 0.000000 0.578197
0.185230 0.641516 0.404620 0.035714 0.947800
0.062879 0.670461 0.302552 0.000000 0.975528
0.092367 0.639058 0.444435 0.000000 0.945445
0.261002 -0.600026 -0.516007 0.392857 0.091946
0.289884 -0.639058 -0.349316 0.357143 0.054554
0.136346 -0.671706 -0.269559 0.392857 0.023279
0.197340 -0.670460 -0.237799 0.357143 0.024472
0.193522 -0.278996 0.931159 1.000000 0.345491
-0.019229 -0.144389 0.986640 0.964286 0.419883
-0.018488 -0.285357 0.948615 0.964286 0.341976
0.018488 -0.285357 -0.948615 0.464286 0.341976
0.229658 -0.278996 -0.922912 0.428571 0.345491
0.215106 -0.399987 -0.864433 0.428571 0.273059
-0.200856 -0.641516 0.397095 0.892857 0.052200
-0.141936 -0.596325 0.570391 0.928571 0.095491
-0.315142 -0.547717 0.623041 0.892857 0.142056
-0.261002 -0.600026 0.516007 0.892857 0.091946
0.428246 -0.285357 -0.846651 0.392857 0.341976
-0.238441 -0.140915 0.958209 0.928571 0.421803
-0.229658 -0.278996 0.922912 0.928571 0.345491
0.240698 0.600025 0.525784 0.035714 0.908054
0.416245 -0.000578 0.909252 0.035714 0.500000
0.203481 -0.000578 0.979079 0.000000 0.500000
0.608136 -0.000578 0.793832 0.071429 0.500000
-0.451358 0.000578 0.892344 0.892857 0.500000
0.013605 -0.547717 -0.698075 0.464286 0.142056
-0.013605 -0.547717 0.698074 0.964286 0.142056
-0.170716 -0.543062 0.686048 0.928571 0.146515
0.031858 0.690007 0.153288 0.000000 0.994253
0.000000 0.696006 -0.000001 0.483816 1.000000
0.394931 0.285357 0.862694 0.035714 0.658024
-0.015629 -0.485910 0.801928 0.964286 0.201266
-0.193522 -0.278996 -0.931160 0.500000 0.345491
-0.200923 -0.140915 -0.966773 0.500000 0.421803
0.019229 -0.144389 -0.986641 0.464286 0.419883
-0.136346 -0.671706 0.269559 0.892857 0.023279
-0.037806 -0.690006 0.151930 0.928571 0.005747
0.459042 -0.600026 -0.351661 0.321429 0.091946
0.333862 0.485910 0.729294 0.035714 0.798734
0.195358 -0.480856 -0.785076 0.428571 0.206107
0.400006 -0.408188 -0.790820 0.392857 0.268526
-0.017269 -0.408188 0.886059 0.964286 0.268526
-0.215106 -0.399987 0.864433 0.928571 0.273059
-0.195358 -0.480856 0.785075 0.928571 0.206107
-0.185230 -0.641515 -0.404620 0.535714 0.052200
0.617228 0.485910 0.512213 0.107143 0.798734
-0.164620 -0.480856 -0.792092 0.500000 0.206107
-0.181260 -0.399987 -0.872158 0.500000 0.273059
0.017269 -0.408188 -0.886060 0.464286 0.268526
-0.444991 -0.600026 -0.369281 0.607143 0.091946
-0.357454 -0.596325 -0.466603 0.571429 0.095491
-0.435693 -0.641516 0.090549 0.750000 0.052200
-0.453846 -0.639058 -0.008846 0.714286 0.054554
-0.308959 -0.670460 -0.006022 0.714286 0.024472
0.362025 -0.485910 -0.715731 0.392857 0.201266
-0.416245 0.000578 -0.909253 0.535714 0.500000
-0.203481 0.000578 -0.979079 0.500000 0.500000
-0.864751 -0.278996 0.395872 0.785714 0.345491
0.444991 0.600026 0.369281 0.107143 0.908054
0.769534 -0.000578 0.638607 0.107143 0.500000
0.892343 -0.000578 0.451358 0.142857 0.500000
0.015629 -0.485910 -0.801929 0.464286 0.201266
0.170716 -0.543062 -0.686048 0.428571 0.146515
-0.095212 -0.690006 -0.124286 0.571428 0.005747
-0.706835 -0.543062 -0.013776 0.714286 0.146515
-0.587674 -0.596325 -0.011454 0.714286 0.095491
0.730130 0.285357 0.605906 0.107143 0.658024
0.019486 0.000578 -0.999811 0.464286 0.500000
-0.730130 -0.285357 -0.605907 0.607143 0.341976
-0.578372 -0.278996 -0.754980 0.571429 0.345491
-0.295760 -0.671706 0.061467 0.750000 0.023279
-0.142356 -0.690006 0.065168 0.785714 0.005747
0.920717 0.285357 0.229111 0.178571 0.658024
-0.561147 -0.600026 -0.139636 0.678571 0.091946
-0.524506 -0.596325 -0.265302 0.642857 0.095491
-0.405063 -0.639058 -0.204886 0.642857 0.054554
-0.537294 -0.547717 -0.445880 0.607143 0.142056
-0.429934 -0.543062 -0.561216 0.571428 0.146515
-0.240698 -0.600025 -0.525784 0.535714 0.091946
-0.092367 -0.639058 -0.444435 0.500000 0.054555
-0.735601 -0.480856 0.336749 0.785714 0.206107
0.778345 0.485910 0.193683 0.178571 0.798735
-0.368888 -0.408188 -0.805805 0.535714 0.268526
-0.293140 -0.671706 -0.072945 0.678571 0.023278
-0.156534 -0.690006 -0.003051 0.714285 0.005747
0.561147 0.600026 0.139636 0.178571 0.908054
0.970406 -0.000578 0.241476 0.178571 0.500000
0.999810 -0.000578 0.019486 0.214286 0.500000
-0.125739 -0.671706 -0.274667 0.535714 0.023279
-0.920717 -0.285357 -0.229112 0.678571 0.341976
-0.848669 -0.278996 -0.429267 0.642857 0.345491
-0.759398 -0.144389 -0.630195 0.607143 0.419883
-0.600492 -0.140915 -0.783854 0.571429 0.421803
0.928945 0.285357 -0.193062 0.250000 0.658024
0.141936 -0.596325 -0.570391 0.428571 0.095491
-0.677545 -0.547717 -0.168601 0.678571 0.142056
-0.630859 -0.543062 -0.319096 0.642857 0.146515
0.785299 0.485909 -0.163208 0.250000 0.798734
-0.928945 -0.285357 0.193062 0.750000 0.341976
0.566162 0.600025 -0.117665 0.250000 0.908054
0.979078 -0.000578 -0.203481 0.250000 0.500000
0.909253 -0.000578 -0.416245 0.285714 0.500000
0.793832 -0.000578 -0.608137 0.321429 0.500000
0.638606 -0.000578 -0.769534 0.357143 0.500000
-0.638606 0.000578 0.769534 0.857143 0.500000
0.753184 0.285357 -0.576997 0.321429 0.658024
-0.909253 0.000578 0.416245 0.785714 0.500000
0.966182 -0.144389 -0.200801 0.250000 0.419883
-0.362025 -0.485910 0.715731 0.892857 0.201266
0.636718 0.485910 -0.487775 0.321429 0.798735
0.092366 -0.639058 0.444435 1.000000 0.054555
0.683599 -0.547717 -0.142072 0.250000 0.142057
0.554260 -0.547717 -0.424606 0.321429 0.142056
0.534445 -0.596325 -0.244663 0.285714 0.095491
0.459042 0.600026 -0.351661 0.321429 0.908054
0.431834 -0.641516 0.107457 0.178571 0.052200
0.275749 -0.670460 0.139477 0.142857 0.024472
0.261002 0.600026 -0.516007 0.392857 0.908054
0.451358 -0.000578 -0.892345 0.392857 0.500000
0.241476 -0.000578 -0.970407 0.428571 0.500000
-0.241476 0.000578 0.970407 0.928571 0.500000
0.721921 -0.480856 0.365156 0.142857 0.206107
0.428246 0.285357 -0.846651 0.392857 0.658024
-0.428246 -0.285357 0.846651 0.892857 0.341976
0.362025 0.485910 -0.715731 0.392857 0.798734
-0.011268 -0.600025 0.578150 0.964286 0.091946
0.342445 -0.641516 0.284182 0.107143 0.052200
0.015629 0.485910 -0.801929 0.464286 0.798734
0.410762 -0.144389 0.897275 0.035714 0.419883
0.193522 -0.278996 0.931159 0.000000 0.345491
0.011268 0.600025 -0.578150 0.464286 0.908054
0.019486 -0.000578 -0.999811 0.464286 0.500000
-0.203481 -0.000578 -0.979079 0.500000 0.500000
0.119603 -0.596325 0.575488 0.000000 0.095491
0.018488 0.285357 -0.948615 0.464286 0.658024
-0.778345 -0.485910 -0.193684 0.678571 0.201265
0.368888 -0.408188 0.805805 0.035714 0.268526
0.181260 -0.399987 0.872158 0.000000 0.273059
-0.333862 0.485910 -0.729294 0.535714 0.798734
0.617228 -0.485910 0.512213 0.107143 0.201266
-0.240698 0.600025 -0.525785 0.535714 0.908054
-0.416245 -0.000578 -0.909253 0.535714 0.500000
-0.608137 -0.000578 -0.793833 0.571428 0.500000
-0.333862 -0.485910 -0.729294 0.535714 0.201266
-0.394931 0.285357 -0.862695 0.535714 0.658024
-0.730130 0.285357 -0.605907 0.607143 0.658024
0.730130 -0.285357 0.605906 0.107143 0.341976
0.537294 -0.547717 0.445880 0.107143 0.142056
-0.617228 0.485910 -0.512214 0.607143 0.798734
0.867685 -0.408187 -0.180331 0.250000 0.268527
-0.444991 0.600026 -0.369281 0.607143 0.908054
-0.769535 -0.000578 -0.638607 0.607143 0.500000
-0.892343 -0.000578 -0.451358 0.642857 0.500000
0.892343 0.000578 0.451358 0.142857 0.500000
-0.920717 0.285357 -0.229112 0.678571 0.658024
0.793832 0.000578 -0.608137 0.321429 0.500000
0.928945 -0.285357 -0.193062 0.250000 0.341976
-0.778345 0.485910 -0.193684 0.678571 0.798734
0.636718 -0.485910 -0.487775 0.321429 0.201265
-0.561148 0.600026 -0.139636 0.678571 0.908054
-0.970407 -0.000578 -0.241477 0.678571 0.500000
-0.999811 -0.000578 -0.019486 0.714286 0.500000
-0.566162 0.600025 0.117665 0.750000 0.908054
-0.979078 -0.000578 0.203481 0.750000 0.500000
-0.909253 -0.000578 0.416245 0.785714 0.500000
0.445413 -0.144389 -0.880590 0.392857 0.419883
-0.928945 0.285357 0.193062 0.750000 0.658024
0.970406 0.000578 0.241476 0.178571 0.500000
-0.785299 0.485909 0.163208 0.750000 0.798734
0.011268 -0.600025 -0.578150 0.464286 0.091946
-0.617228 -0.485910 -0.512214 0.607143 0.201266
-0.459042 0.600026 0.351661 0.821428 0.908054
-0.793832 -0.000578 0.608136 0.821429 0.500000
-0.638606 -0.000578 0.769534 0.857143 0.500000
-0.410762 -0.144389 -0.897276 0.535714 0.419883
-0.753184 0.285357 0.576997 0.821429 0.658024
0.999810 0.000578 0.019486 0.214286 0.500000
-0.636718 0.485910 0.487775 0.821429 0.798734
-0.881127 -0.140915 -0.445685 0.642857 0.421803
-0.769535 0.000578 -0.638607 0.607143 0.500000
-0.362025 0.485910 0.715731 0.892857 0.798734
-0.979078 0.000578 0.203481 0.750000 0.500000
-0.261002 0.600026 0.516007 0.892857 0.908054
-0.451358 -0.000578 0.892344 0.892857 0.500000
-0.241476 -0.000578 0.970407 0.928571 0.500000
-0.431834 -0.641516 -0.107458 0.678571 0.052199
-0.428246 0.285357 0.846651 0.892857 0.658024
-0.394931 -0.285357 -0.862695 0.535714 0.341976
-0.015629 0.485910 0.801928 0.964286 0.798734
0.143855 0.543062 0.692178 1.000000 0.853485
0.164620 0.480856 0.792091 1.000000 0.793893
0.119603 0.596325 0.575488 1.000000 0.904509
-0.019486 0.000578 0.999810 0.964286 0.500000
-0.011268 0.600025 0.578150 0.964286 0.908054
0.092367 0.639058 0.444435 1.000000 0.945445
-0.019486 -0.000578 0.999810 0.964286 0.500000
0.200924 0.140915 0.966772 1.000000 0.578197
0.203481 -0.000578 0.979079 1.000000 0.500000
0.193522 0.278996 0.931159 1.000000 0.654508
-0.018488 0.285357 0.948615 0.964286 0.658024
0.181260 0.399987 0.872158 1.000000 0.726941
-0.970407 0.000578 -0.241477 0.678571 0.500000
-0.957624 -0.144389 -0.238296 0.678571 0.419883
0.119603 -0.596325 0.575488 1.000000 0.095491
0.638606 0.000578 -0.769534 0.357143 0.500000
0.037806 -0.690006 -0.151931 0.428572 0.005747
0.143855 -0.543062 0.692178 1.000000 0.146515
0.181260 -0.399987 0.872158 1.000000 0.273059
-0.892343 0.000578 -0.451358 0.642857 0.500000
-0.608137 0.000578 -0.793833 0.571428 0.500000
-0.999810 0.000578 -0.019486 0.714286 0.500000
0.164620 -0.480856 0.792091 1.000000 0.206107
0.200924 -0.140915 0.966772 1.000000 0.421803
0.203481 0.000578 0.979079 1.000000 0.500000
3 0 1 2
3 3 4 5
3 6 7 8
3 9 10 11
3 12 13 14
3 15 16 17
3 18 19 20
3 21 22 23
3 24 25 26
3 27 28 29
3 30 31 32
3 33 34 35
3 19 36 37
3 38 39 40
3 41 42 43
3 44 45 46
3 47 48 49
3 50 51 52
3 53 54 55
3 1 56 2
3 57 58 59
3 60 61 1
3 62 63 64
3 65 66 67
3 45 68 69
3 70 71 64
3 72 73 74
3 75 76 77
3 78 79 80
3 13 64 81
3 82 83 84
3 85 86 87
3 88 89 90
3 91 92 61
3 93 94 95
3 96 97 98
3 76 99 100
3 94 101 102
3 103 104 105
3 106 107 108
3 109 110 111
3 112 113 114
3 87 86 115
3 116 117 71
3 118 119 120
3 92 121 61
3 83 122 123
3 124 125 126
3 107 127 128
3 129 130 131
3 113 132 133
3 134 135 136
3 137 138 139
3 140 141 142
3 117 143 81
3 144 145 146
3 147 148 149
3 150 151 92
3 152 153 154
3 155 156 157
3 158 159 160
3 141 161 162
3 163 164 165
3 166 167 168
3 169 170 171
3 172 173 117
3 174 175 176
3 177 178 179
3 180 181 151
3 182 144 183
3 181 184 151
3 185 134 186
3 187 188 189
3 170 190 191
3 192 193 86
3 194 195 196
3 197 198 199
3 80 122 83
3 123 131 135
3 200 201 202
3 32 40 63
3 203 204 205
3 206 207 208
3 23 50 4
3 209 210 211
3 198 212 213
3 26 5 48
3 214 215 216
3 217 218 219
3 220 31 30
3 221 222 223
3 224 225 226
3 227 228 229
3 230 231 232
3 233 234 207
3 235 236 237
3 238 239 240
3 218 241 242
3 243 244 245
3 246 247 248
3 249 250 251
3 252 253 254
3 255 256 257
3 258 259 260
3 261 262 263
3 234 264 207
3 265 266 267
3 268 269 270
3 222 271 272
3 273 274 275
3 253 276 277
3 207 264 278
3 279 280 281
3 282 283 284
3 206 208 285
3 286 287 288
3 289 290 291
3 292 293 294
3 295 296 297
3 298 299 300
3 301 91 60
3 302 303 304
3 283 305 306
3 307 308 309
3 310 311 312
3 313 314 315
3 316 317 318
3 319 180 150
3 320 321 322
3 56 323 293
3 324 325 326
3 327 2 234
3 328 329 330
3 331 332 333
3 314 334 335
3 237 236 336
3 337 338 339
3 340 341 342
3 343 229 344
3 345 346 14
3 347 348 349
3 350 351 352
3 353 233 206
3 354 355 356
3 357 21 25
3 348 358 359
3 360 342 325
3 315 360 321
3 314 340 315
3 361 339 362
3 312 361 363
3 311 337 312
3 364 180 319
3 226 225 365
3 366 367 354
3 335 368 341
3 335 334 368
3 334 369 368
3 370 333 338
3 304 370 311
3 303 331 304
3 371 367 366
3 372 373 374
3 309 375 376
3 356 233 353
3 344 229 377
3 352 351 357
3 378 326 332
3 322 378 303
3 321 324 322
3 379 352 380
3 381 382 383
3 267 266 384
3 385 322 303
3 291 385 299
3 290 320 291
3 386 387 388
3 389 390 266
3 391 392 393
3 394 24 228
3 395 396 373
3 151 184 397
3 398 315 321
3 284 398 290
3 283 313 284
3 399 312 363
3 281 399 400
3 280 310 281
3 401 379 402
3 403 245 81
3 293 404 405
3 306 334 314
3 306 305 334
3 305 369 334
3 406 304 311
3 300 406 280
3 299 302 300
3 407 329 328
3 408 409 259
3 278 410 411
3 412 300 280
3 270 412 250
3 269 298 270
3 257 256 258
3 413 414 415
3 416 417 390
3 418 226 419
3 61 121 420
3 275 403 81
3 421 291 299
3 263 421 269
3 262 289 263
3 415 414 389
3 278 264 391
3 422 387 386
3 266 390 418
3 423 273 275
3 393 423 424
3 425 284 290
3 254 425 262
3 253 282 254
3 426 281 400
3 251 426 427
3 250 279 251
3 428 243 245
3 429 430 256
3 431 432 409
3 277 305 283
3 277 276 305
3 276 369 305
3 297 296 255
3 323 297 404
3 374 328 351
3 272 276 253
3 272 271 276
3 271 369 276
3 433 270 250
3 240 433 247
3 239 268 240
3 392 405 413
3 150 180 151
3 365 402 434
3 274 267 403
3 435 436 414
3 411 424 81
3 437 263 269
3 232 437 239
3 231 261 232
3 294 405 392
3 60 91 61
3 380 25 24
3 274 403 275
3 438 288 296
3 388 352 379
3 439 254 262
3 223 439 231
3 222 252 223
3 440 251 427
3 248 440 441
3 247 249 248
3 442 248 441
3 216 442 443
3 215 246 216
3 292 56 293
3 364 444 180
3 346 12 14
3 242 271 222
3 242 241 271
3 241 369 271
3 445 240 247
3 211 445 215
3 210 238 211
3 181 446 184
3 383 382 301
3 447 79 78
3 410 393 424
3 384 419 243
3 448 60 0
3 449 232 239
3 205 449 210
3 204 230 205
3 92 397 121
3 316 450 307
3 451 93 39
3 410 424 411
3 367 383 448
3 452 47 453
3 454 223 231
3 219 454 204
3 218 221 219
3 354 367 355
3 317 309 376
3 455 87 456
3 457 219 204
3 199 457 201
3 198 217 199
3 458 216 443
3 196 458 459
3 195 214 196
3 358 460 364
3 307 309 317
3 102 84 461
3 213 241 218
3 213 212 241
3 212 369 241
3 462 211 215
3 189 462 195
3 188 209 189
3 463 150 91
3 2 292 234
3 456 116 71
3 356 327 233
3 336 344 346
3 317 376 318
3 464 205 210
3 202 464 188
3 201 203 202
3 465 354 308
3 293 405 294
3 466 182 172
3 467 202 188
3 179 467 159
3 178 200 179
3 286 288 438
3 220 30 12
3 131 130 174
3 318 376 81
3 435 414 413
3 468 176 469
3 470 199 201
3 171 470 178
3 170 197 171
3 471 196 459
3 168 471 472
3 167 194 168
3 381 383 371
3 384 243 428
3 183 473 164
3 191 212 198
3 191 190 212
3 190 369 212
3 474 189 195
3 160 474 167
3 159 187 160
3 353 206 375
3 235 237 244
3 172 182 163
3 349 359 382
3 63 70 64
3 255 257 475
3 227 229 343
3 468 469 136
3 145 186 152
3 431 409 408
3 476 477 153
3 80 83 82
3 478 179 159
3 149 478 156
3 148 177 149
3 452 453 377
3 136 477 476
3 479 186 145
3 265 267 274
3 455 456 70
3 136 469 477
3 480 171 178
3 142 480 148
3 141 169 142
3 481 168 472
3 139 481 482
3 138 166 139
3 422 386 483
3 466 172 116
3 186 134 476
3 162 190 170
3 162 161 190
3 161 369 190
3 484 160 167
3 157 484 138
3 156 158 157
3 485 157 138
3 126 485 110
3 125 155 126
3 183 164 163
3 84 486 185
3 116 172 117
3 451 39 38
3 173 143 117
3 479 145 487
3 488 149 156
3 120 488 125
3 119 147 120
3 131 174 468
3 85 87 455
3 71 117 81
3 489 94 49
3 193 479 487
3 456 87 466
3 490 142 148
3 114 490 119
3 113 140 114
3 491 139 482
3 111 491 492
3 110 137 111
3 185 186 479
3 87 115 466
3 122 493 129
3 133 161 141
3 133 132 161
3 132 369 161
3 129 131 123
3 47 49 451
3 95 461 193
3 128 132 113
3 128 127 132
3 127 369 132
3 494 126 110
3 98 494 104
3 97 124 98
3 461 185 479
3 495 50 23
3 39 93 192
3 145 152 146
3 115 144 182
3 496 101 489
3 497 120 125
3 90 497 97
3 89 118 90
3 93 95 192
3 498 47 452
3 40 39 85
3 144 146 183
3 5 496 489
3 101 78 82
3 499 114 119
3 108 499 89
3 107 112 108
3 500 111 492
3 105 500 501
3 104 109 105
3 502 108 89
3 77 502 58
3 76 106 77
3 503 105 501
3 74 503 504
3 73 103 74
3 38 40 32
3 328 330 505
3 64 71 81
3 100 127 107
3 100 99 127
3 99 369 127
3 506 98 104
3 67 506 73
3 66 96 67
3 50 52 447
3 401 402 365
3 62 64 13
3 79 507 80
3 461 84 185
3 344 377 220
3 508 90 97
3 59 508 66
3 58 88 59
3 25 3 26
3 419 509 235
3 496 78 101
3 78 80 82
3 346 220 12
3 70 456 71
3 407 328 374
3 436 510 416
3 4 50 447
3 343 344 336
3 387 350 388
3 453 47 451
3 511 77 58
3 46 511 54
3 45 75 46
3 512 74 504
3 43 512 513
3 42 72 43
3 351 505 357
3 395 373 514
3 31 453 38
3 69 99 76
3 69 68 99
3 68 369 99
3 515 67 73
3 35 515 42
3 34 65 35
3 402 394 227
3 408 259 258
3 52 516 79
3 236 343 336
3 79 516 507
3 386 388 401
3 517 59 66
3 55 517 34
3 54 57 55
3 483 225 224
3 49 94 93
3 518 519 431
3 520 55 34
3 29 520 7
3 28 53 29
3 389 266 265
3 184 521 286
3 498 48 47
3 417 483 224
3 430 431 408
3 12 30 13
3 522 46 54
3 20 522 28
3 19 44 20
3 523 43 513
3 17 523 524
3 16 41 17
3 266 418 384
3 413 415 525
3 14 13 81
3 37 68 45
3 37 36 68
3 36 369 68
3 526 35 42
3 8 526 16
3 7 33 8
3 259 527 422
3 294 392 391
3 25 21 3
3 528 29 7
3 529 528 530
3 531 27 529
3 438 296 295
3 532 358 348
3 351 328 505
3 429 256 255
3 448 0 355
3 346 344 220
3 533 20 28
3 534 533 531
3 9 18 534
3 535 17 524
3 536 535 537
3 538 15 536
3 404 475 435
3 359 319 463
3 236 434 343
3 11 36 19
3 11 10 36
3 10 369 36
3 539 8 16
3 540 539 538
3 530 6 540
3 287 541 542
3 543 366 465
3 330 544 22
3 296 429 255
3 377 453 31
3 367 448 355
3 121 438 295
3 6 528 7
3 288 542 429
3 15 539 16
3 18 11 19
3 405 435 413
3 228 24 498
3 27 533 28
3 415 389 265
3 33 520 34
3 260 422 483
3 41 526 42
3 44 37 45
3 267 384 428
3 495 51 50
3 53 522 54
3 57 511 58
3 373 407 374
3 65 517 66
3 434 227 343
3 72 515 73
3 75 69 76
3 357 25 380
3 5 4 496
3 31 38 32
3 63 40 455
3 88 502 89
3 24 26 498
3 96 508 97
3 4 447 496
3 103 506 104
3 106 100 107
3 109 494 110
3 112 128 113
3 122 129 123
3 486 135 134
3 118 499 119
3 39 192 85
3 124 497 125
3 82 84 102
3 182 183 163
3 137 485 138
3 140 133 141
3 123 135 486
3 193 461 479
3 147 490 148
3 135 468 136
3 155 488 156
3 158 478 159
3 380 24 394
3 166 484 167
3 169 162 170
3 514 372 527
3 135 131 468
3 177 480 178
3 26 48 498
3 391 393 410
3 187 467 188
3 355 327 356
3 194 474 195
3 197 191 198
3 348 359 349
3 487 145 144
3 200 470 201
3 489 101 94
3 203 457 204
3 450 543 465
3 209 464 210
3 382 359 463
3 214 462 215
3 217 213 218
3 359 358 319
3 221 242 222
3 234 292 264
3 237 345 545
3 230 454 231
3 91 150 92
3 238 449 239
3 180 444 181
3 246 445 247
3 249 433 250
3 252 272 253
3 475 257 436
3 267 428 403
3 261 439 262
3 264 292 294
3 268 437 269
3 393 392 525
3 510 260 417
3 279 412 280
3 282 277 283
3 428 245 403
3 542 518 430
3 289 425 290
3 273 415 265
3 298 421 299
3 483 386 225
3 302 385 303
3 373 396 407
3 310 406 311
3 313 306 314
3 225 386 401
3 355 0 327
3 320 398 321
3 324 360 325
3 349 382 381
3 331 378 332
3 546 371 366
3 337 370 338
3 340 335 341
3 358 364 319
3 345 14 545
3 547 349 381
3 417 260 483
3 2 56 292
3 308 356 353
3 402 379 394
3 509 434 236
3 360 340 342
3 315 340 360
3 314 335 340
3 361 337 339
3 312 337 361
3 311 370 337
3 382 463 301
3 419 226 509
3 244 237 545
3 370 331 333
3 304 331 370
3 303 378 331
3 450 465 307
3 244 545 245
3 387 372 350
3 378 324 326
3 322 324 378
3 321 360 324
3 385 320 322
3 291 320 385
3 290 398 320
3 390 417 224
3 518 548 519
3 525 415 273
3 434 402 227
3 432 549 395
3 527 372 387
3 398 313 315
3 284 313 398
3 283 306 313
3 399 310 312
3 281 310 399
3 280 406 310
3 243 419 235
3 259 409 527
3 256 430 408
3 406 302 304
3 300 302 406
3 299 385 302
3 245 545 81
3 436 257 510
3 519 549 432
3 412 298 300
3 270 298 412
3 269 421 298
3 414 436 416
3 287 550 541
3 521 550 287
3 421 289 291
3 263 289 421
3 262 425 289
3 430 518 431
3 184 446 521
3 514 373 372
3 409 432 514
3 423 275 424
3 296 288 429
3 425 282 284
3 254 282 425
3 253 277 282
3 426 279 281
3 251 279 426
3 250 412 279
3 260 259 422
3 404 297 475
3 541 548 518
3 405 404 435
3 233 327 234
3 208 278 411
3 433 268 270
3 240 268 433
3 239 437 268
3 288 287 542
3 208 411 285
3 1 420 56
3 437 261 263
3 232 261 437
3 231 439 261
3 397 184 286
3 0 60 1
3 505 22 21
3 424 275 81
3 121 397 438
3 56 420 323
3 439 252 254
3 223 252 439
3 222 272 252
3 440 249 251
3 248 249 440
3 247 433 249
3 442 246 248
3 216 246 442
3 215 445 246
3 206 233 207
3 375 285 376
3 371 383 367
3 445 238 240
3 211 238 445
3 210 449 238
3 285 411 81
3 546 551 371
3 532 460 358
3 449 230 232
3 205 230 449
3 204 454 230
3 327 0 2
3 552 553 532
3 30 62 13
3 420 121 295
3 308 354 356
3 375 206 285
3 454 221 223
3 219 221 454
3 218 242 221
3 309 308 353
3 547 347 349
3 366 354 465
3 457 217 219
3 199 217 457
3 198 213 217
3 458 214 216
3 196 214 458
3 195 462 214
3 376 285 81
3 301 60 448
3 61 420 1
3 462 209 211
3 189 209 462
3 188 464 209
3 543 546 366
3 151 397 92
3 295 297 323
3 464 203 205
3 202 203 464
3 201 457 203
3 347 552 348
3 542 430 429
3 146 154 473
3 467 200 202
3 179 200 467
3 178 470 200
3 525 273 423
3 447 78 496
3 173 165 143
3 551 547 381
3 416 390 389
3 224 226 418
3 470 197 199
3 171 197 470
3 170 191 197
3 471 194 196
3 168 194 471
3 167 474 194
3 319 150 463
3 388 379 401
3 365 434 509
3 474 187 189
3 160 187 474
3 159 467 187
3 207 278 208
3 505 21 357
3 23 4 3
3 336 346 345
3 172 163 173
3 134 136 476
3 478 177 179
3 149 177 478
3 148 480 177
3 32 63 62
3 186 476 152
3 86 193 487
3 258 260 510
3 192 86 85
3 487 144 115
3 480 169 171
3 142 169 480
3 141 162 169
3 481 166 168
3 139 166 481
3 138 484 166
3 374 351 350
3 146 473 183
3 163 165 173
3 484 158 160
3 157 158 484
3 156 478 158
3 485 155 157
3 126 155 485
3 125 488 155
3 174 176 468
3 94 102 95
3 40 85 455
3 488 147 149
3 120 147 488
3 119 490 147
3 152 154 146
3 63 455 70
3 84 83 486
3 102 461 95
3 86 487 115
3 456 466 116
3 490 140 142
3 114 140 490
3 113 133 140
3 491 137 139
3 111 137 491
3 110 485 137
3 476 153 152
3 83 123 486
3 101 82 102
3 486 134 185
3 30 32 62
3 22 495 23
3 494 124 126
3 98 124 494
3 97 497 124
3 95 193 192
3 21 23 3
3 228 498 452
3 497 118 120
3 90 118 497
3 89 499 118
3 507 122 80
3 229 452 377
3 507 493 122
3 115 182 466
3 48 489 49
3 453 451 38
3 499 112 114
3 108 112 499
3 107 128 112
3 500 109 111
3 105 109 500
3 104 494 109
3 502 106 108
3 77 106 502
3 76 100 106
3 503 103 105
3 74 103 503
3 73 506 103
3 52 79 447
3 379 380 394
3 225 401 365
3 506 96 98
3 67 96 506
3 66 508 96
3 3 5 26
3 226 365 509
3 243 235 244
3 508 88 90
3 59 88 508
3 58 502 88
3 377 31 220
3 372 374 350
3 48 5 489
3 49 93 451
3 237 336 345
3 352 357 380
3 350 352 388
3 273 265 274
3 22 544 495
3 330 22 505
3 390 224 418
3 432 395 514
3 511 75 77
3 46 75 511
3 45 69 75
3 512 72 74
3 43 72 512
3 42 515 72
3 394 228 227
3 409 514 527
3 256 408 258
3 515 65 67
3 35 65 515
3 34 517 65
3 509 236 235
3 257 258 510
3 414 416 389
3 517 57 59
3 55 57 517
3 54 511 57
3 520 53 55
3 29 53 520
3 28 522 53
3 519 432 431
3 420 295 323
3 229 228 452
3 418 419 384
3 297 255 475
3 392 413 525
3 522 44 46
3 20 44 522
3 19 37 44
3 523 41 43
3 17 41 523
3 16 526 41
3 527 387 422
3 393 525 423
3 264 294 391
3 526 33 35
3 8 33 526
3 7 520 33
3 510 417 416
3 278 391 410
3 397 286 438
3 528 27 29
3 529 27 528
3 531 533 27
3 323 404 293
3 551 381 371
3 545 14 81
3 475 436 435
3 309 353 375
3 463 91 301
3 533 18 20
3 534 18 533
3 9 11 18
3 535 15 17
3 536 15 535
3 538 539 15
3 541 518 542
3 383 301 448
3 465 308 307
3 539 6 8
3 540 6 539
3 530 528 6
3 521 287 286
3 316 307 317
3 552 532 348
