ply
format ascii 1.0
comment Created by Blender 2.79 (sub 0) - www.blender.org, source file: 'untitled.blend'
element vertex 102
property float x
property float y
property float z
property float nx
property float ny
property float nz
property float s
property float t
element face 96
property list uchar uint vertex_indices
end_header
0.250000 -0.500000 0.000000 0.718528 -0.695486 0.000000 0.671875 1.218750
-0.250000 -0.433013 0.250000 -0.718528 -0.602283 0.347728 0.890625 0.984375
-0.250000 -0.500000 0.000000 -0.718528 -0.695486 0.000000 0.890625 1.218750
0.250000 -0.433013 0.250000 0.718528 -0.602313 0.347728 0.671875 0.984375
-0.250000 -0.250000 0.433013 -0.718528 -0.347728 0.602283 0.890625 0.750000
0.250000 -0.250000 0.433013 0.718528 -0.347728 0.602283 0.671875 0.750000
-0.250000 0.000000 0.500000 -0.718528 0.000000 0.695486 0.890625 0.515625
0.250000 0.000000 0.500000 0.718528 0.000000 0.695486 0.671875 0.515625
-0.250000 0.250000 0.433013 -0.718528 0.347728 0.602283 0.890625 0.281250
0.250000 0.250000 0.433013 0.718528 0.347728 0.602283 0.671875 0.281250
-0.250000 0.433013 0.250000 -0.718528 0.602283 0.347728 0.890625 0.046875
0.250000 0.433013 0.250000 0.718528 0.602313 0.347728 0.671875 0.046875
-0.250000 0.500000 0.000000 -0.718528 0.695486 0.000000 0.890625 -0.187500
0.250000 0.500000 0.000000 0.718528 0.695486 0.000000 0.671875 -0.187500
-0.250000 0.433013 -0.250000 -0.718528 0.602283 -0.347728 0.890625 -0.406250
0.250000 0.433013 -0.250000 0.718528 0.602313 -0.347728 0.671875 -0.406250
-0.250000 0.250000 -0.433013 -0.718528 0.347728 -0.602283 0.890625 -0.640625
0.250000 0.250000 -0.433013 0.718528 0.347728 -0.602283 0.671875 -0.640625
-0.250000 0.000000 -0.500000 -0.718528 0.000000 -0.695486 0.890625 -0.875000
0.250000 0.000000 -0.500000 0.718528 0.000000 -0.695486 0.671875 1.906250
-0.250000 -0.250000 -0.433013 -0.718528 -0.347728 -0.602283 0.890625 1.671875
-0.250000 0.000000 -0.500000 -0.718528 0.000000 -0.695486 0.890625 1.906250
0.250000 -0.250000 -0.433013 0.718528 -0.347728 -0.602283 0.671875 0.671875
0.213209 0.000000 -0.328014 0.999939 0.000000 -0.008454 0.578125 0.703125
0.213209 -0.164007 -0.284069 0.999939 -0.004212 -0.007324 0.578125 0.671875
0.250000 -0.433013 -0.250000 0.718528 -0.602313 -0.347728 0.671875 1.437500
-0.250000 -0.433013 -0.250000 -0.718528 -0.602283 -0.347728 0.890625 1.437500
0.250000 0.433013 0.250000 0.718528 0.602313 0.347728 0.671875 0.453125
0.213209 0.164007 0.284069 0.999939 0.004212 0.007324 0.578125 0.484375
0.213209 0.284069 0.164007 0.999939 0.007324 0.004212 0.578125 0.453125
0.213209 -0.164007 0.284069 0.999939 -0.004212 0.007324 0.081744 0.505609
0.213209 -0.284069 0.164007 0.999939 -0.007324 0.004212 0.208695 0.430472
0.319814 0.000000 0.000000 0.999969 0.000000 0.000000 0.282971 0.700784
0.213209 0.000000 0.328014 0.999939 0.000000 0.008454 0.013520 0.631699
-0.250000 -0.250000 0.433013 -0.718528 -0.347728 0.602283 0.890625 0.546875
-0.213209 0.000000 0.328014 -0.999939 0.000000 0.008454 0.984375 0.515625
-0.213209 -0.164007 0.284069 -0.999939 -0.004212 0.007324 0.984375 0.546875
-0.250000 0.433013 -0.250000 -0.718528 0.602283 -0.347728 0.890625 0.390625
-0.213209 0.164007 -0.284069 -0.999939 0.004212 -0.007324 0.984375 0.359375
-0.213209 0.284069 -0.164007 -0.999939 0.007324 -0.004212 0.984375 0.390625
-0.250000 -0.500000 0.000000 -0.718528 -0.695486 0.000000 0.890625 0.609375
-0.213209 -0.284069 0.164007 -0.999939 -0.007324 0.004212 0.984375 0.578125
-0.213209 -0.328014 0.000000 -0.999939 -0.008454 0.000000 0.984375 0.609375
0.250000 -0.250000 0.433013 0.718528 -0.347728 0.602283 0.671875 0.546875
0.213209 0.000000 0.328014 0.999939 0.000000 0.008454 0.578125 0.515625
0.250000 0.433013 -0.250000 0.718528 0.602313 -0.347728 0.671875 0.390625
0.213209 0.164007 -0.284069 0.999939 0.004212 -0.007324 0.578125 0.359375
0.250000 0.250000 -0.433013 0.718528 0.347728 -0.602283 0.671875 0.359375
0.250000 -0.500000 0.000000 0.718528 -0.695486 0.000000 0.671875 0.609375
0.213209 -0.284069 0.164007 0.999939 -0.007324 0.004212 0.578125 0.578125
0.250000 -0.433013 0.250000 0.718528 -0.602313 0.347728 0.671875 0.578125
-0.250000 0.500000 0.000000 -0.718528 0.695486 0.000000 0.890625 0.421875
-0.213209 0.284069 0.164007 -0.999939 0.007324 0.004212 0.984375 0.453125
-0.250000 0.433013 0.250000 -0.718528 0.602283 0.347728 0.890625 0.453125
-0.250000 -0.433013 -0.250000 -0.718528 -0.602283 -0.347728 0.890625 0.640625
-0.213209 -0.164007 -0.284069 -0.999939 -0.004212 -0.007324 0.984375 0.671875
-0.250000 -0.250000 -0.433013 -0.718528 -0.347728 -0.602283 0.890625 0.671875
0.250000 0.500000 0.000000 0.718528 0.695486 0.000000 0.671875 0.421875
0.213209 0.328014 0.000000 0.999939 0.008454 0.000000 0.578125 0.421875
0.250000 -0.433013 -0.250000 0.718528 -0.602313 -0.347728 0.671875 0.640625
0.213209 -0.284069 -0.164007 0.999939 -0.007324 -0.004212 0.578125 0.640625
-0.250000 0.250000 0.433013 -0.718528 0.347728 0.602283 0.890625 0.484375
-0.250000 0.250000 -0.433013 -0.718528 0.347728 -0.602283 0.890625 0.359375
-0.213209 0.000000 -0.328014 -0.999939 0.000000 -0.008454 0.984375 0.328125
0.250000 0.250000 0.433013 0.718528 0.347728 0.602283 0.671875 0.484375
0.213209 0.000000 -0.328014 0.999939 0.000000 -0.008454 0.578125 0.328125
0.250000 0.000000 -0.500000 0.718528 0.000000 -0.695486 0.671875 0.328125
-0.250000 -0.433013 0.250000 -0.718528 -0.602283 0.347728 0.890625 0.578125
-0.213209 0.328014 0.000000 -0.999939 0.008454 0.000000 0.984375 0.421875
-0.213209 -0.284069 -0.164007 -0.999939 -0.007324 -0.004212 0.984375 0.640625
0.213209 -0.164007 0.284069 0.999939 -0.004212 0.007324 0.578125 0.546875
0.213209 0.284069 -0.164007 0.999939 0.007324 -0.004212 0.578125 0.390625
0.213209 -0.328014 0.000000 0.999939 -0.008454 0.000000 0.578125 0.609375
-0.213209 0.164007 0.284069 -0.999939 0.004212 0.007324 0.984375 0.484375
-0.213209 0.000000 -0.328014 -0.999939 0.000000 -0.008454 0.984375 0.703125
-0.250000 0.000000 -0.500000 -0.718528 0.000000 -0.695486 0.890625 0.703125
0.250000 0.000000 -0.500000 0.718528 0.000000 -0.695486 0.671875 -0.875000
0.250000 -0.250000 -0.433013 0.718528 -0.347728 -0.602283 0.671875 1.671875
0.250000 0.000000 -0.500000 0.718528 0.000000 -0.695486 0.671875 0.703125
-0.213209 -0.284069 -0.164007 -0.999939 -0.007324 -0.004212 0.478146 0.499558
-0.213209 -0.328014 0.000000 -0.999939 -0.008454 0.000000 0.352056 0.431333
-0.319814 0.000000 -0.000000 -0.999969 0.000000 0.000000 0.282971 0.700784
-0.213209 0.164007 0.284069 -0.999939 0.004212 0.007324 0.012658 0.775060
-0.213209 0.284069 0.164007 -0.999939 0.007324 0.004212 0.087795 0.902011
-0.213209 0.328014 0.000000 -0.999939 0.008454 0.000000 0.213885 0.970235
0.213209 -0.284069 -0.164007 0.999939 -0.007324 -0.004212 0.478146 0.499558
0.213209 -0.164007 -0.284069 0.999939 -0.004212 -0.007324 0.553283 0.626509
-0.213209 -0.164007 0.284069 -0.999939 -0.004212 0.007324 0.081744 0.505609
-0.213209 0.000000 0.328014 -0.999939 0.000000 0.008454 0.013520 0.631699
0.213209 0.164007 -0.284069 0.999939 0.004212 -0.007324 0.484197 0.895960
0.213209 0.284069 -0.164007 0.999939 0.007324 -0.004212 0.357246 0.971097
0.213209 0.328014 0.000000 0.999939 0.008454 0.000000 0.213885 0.970235
0.213209 0.284069 0.164007 0.999939 0.007324 0.004212 0.087795 0.902011
0.213209 -0.328014 0.000000 0.999939 -0.008454 0.000000 0.352056 0.431333
-0.213209 -0.164007 -0.284069 -0.999939 -0.004212 -0.007324 0.553283 0.626509
0.213209 0.000000 -0.328014 0.999939 0.000000 -0.008454 0.552422 0.769870
0.213209 0.164007 0.284069 0.999939 0.004212 0.007324 0.012658 0.775060
-0.213209 0.284069 -0.164007 -0.999939 0.007324 -0.004212 0.357246 0.971097
-0.213209 0.164007 -0.284069 -0.999939 0.004212 -0.007324 0.484197 0.895960
-0.213209 0.000000 -0.328014 -0.999939 0.000000 -0.008454 0.552422 0.769870
-0.250000 0.000000 -0.500000 -0.718528 0.000000 -0.695486 0.890625 0.328125
-0.213209 -0.284069 0.164007 -0.999939 -0.007324 0.004212 0.208695 0.430472
3 0 1 2
3 3 4 1
3 5 6 4
3 7 8 6
3 9 10 8
3 11 12 10
3 13 14 12
3 15 16 14
3 17 18 16
3 19 20 21
3 22 23 24
3 20 25 26
3 25 2 26
3 27 28 29
3 30 31 32
3 33 30 32
3 34 35 36
3 37 38 39
3 40 41 42
3 43 44 7
3 45 46 47
3 48 49 50
3 51 52 53
3 54 55 56
3 57 29 58
3 59 24 60
3 61 35 6
3 62 63 38
3 64 44 28
3 47 65 66
3 67 36 41
3 51 39 68
3 40 69 54
3 50 70 43
3 57 71 45
3 48 60 72
3 53 73 61
3 56 74 75
3 0 3 1
3 3 5 4
3 5 7 6
3 7 9 8
3 9 11 10
3 11 13 12
3 13 15 14
3 15 17 16
3 17 76 18
3 19 77 20
3 22 78 23
3 20 77 25
3 25 0 2
3 27 64 28
3 79 80 81
3 82 83 81
3 83 84 81
3 85 86 32
3 87 88 81
3 89 90 32
3 91 92 32
3 93 85 32
3 94 79 81
3 95 89 32
3 90 91 32
3 96 33 32
3 97 98 81
3 92 96 32
3 86 95 32
3 88 82 81
3 99 94 81
3 98 99 81
3 34 6 35
3 37 62 38
3 40 67 41
3 43 70 44
3 45 71 46
3 48 72 49
3 51 68 52
3 54 69 55
3 57 27 29
3 59 22 24
3 61 73 35
3 62 100 63
3 64 7 44
3 47 46 65
3 67 34 36
3 51 37 39
3 40 42 69
3 50 49 70
3 57 58 71
3 48 59 60
3 53 52 73
3 56 55 74
3 101 87 81
3 31 93 32
3 84 97 81
3 80 101 81
