ply
format ascii 1.0
comment Created by Blender 2.79 (sub 0) - www.blender.org, source file: 'untitled.blend'
element vertex 82
property float x
property float y
property float z
element face 160
property list uchar uint vertex_indices
end_header
0.000000 -0.032344 -0.056021
0.024440 -0.049554 -0.033639
0.000000 -0.049554 -0.041581
0.000000 0.011233 -0.063705
0.032929 0.032344 -0.045322
0.037445 0.011233 -0.051539
0.000000 0.060787 -0.022125
-0.000000 0.064688 -0.000000
0.013005 0.060787 -0.017899
0.013005 -0.060787 -0.017899
-0.000000 -0.060787 -0.022125
0.037445 -0.011233 -0.051539
-0.000000 -0.011233 -0.063705
0.024440 0.049554 -0.033639
0.000000 0.049554 -0.041581
0.000000 -0.064688 -0.000000
0.032929 -0.032344 -0.045322
-0.000000 0.032344 -0.056021
0.021042 -0.060787 -0.006837
0.060587 -0.011233 -0.019686
0.021042 0.060787 -0.006837
0.039546 0.049554 -0.012849
0.053280 -0.032344 -0.017312
0.053280 0.032344 -0.017312
0.039546 -0.049554 -0.012849
0.060587 0.011233 -0.019686
0.053280 -0.032344 0.017312
0.053280 0.032344 0.017312
0.039546 -0.049554 0.012849
0.060587 0.011233 0.019686
0.021042 0.060787 0.006837
0.021042 -0.060787 0.006837
0.060587 -0.011233 0.019686
0.039546 0.049554 0.012849
0.032929 0.032344 0.045322
0.037445 0.011233 0.051539
0.013005 0.060787 0.017899
0.013005 -0.060787 0.017899
0.037445 -0.011233 0.051539
0.024441 0.049554 0.033639
0.032929 -0.032344 0.045322
0.024441 -0.049554 0.033639
0.000000 0.060787 0.022125
0.000000 0.049554 0.041581
0.000000 -0.060787 0.022125
0.000000 -0.011233 0.063705
-0.000000 -0.032344 0.056021
0.000000 0.032344 0.056021
0.000000 -0.049554 0.041581
-0.000000 0.011233 0.063705
-0.024441 -0.049554 0.033639
-0.037445 0.011233 0.051539
-0.013005 0.060787 0.017899
-0.013005 -0.060787 0.017899
-0.037445 -0.011233 0.051539
-0.024441 0.049554 0.033639
-0.032929 -0.032344 0.045322
-0.032929 0.032344 0.045322
-0.060587 -0.011233 0.019686
-0.039546 0.049554 0.012849
-0.021042 -0.060787 0.006837
-0.053280 -0.032344 0.017312
-0.053280 0.032344 0.017312
-0.039546 -0.049554 0.012849
-0.060587 0.011233 0.019686
-0.021042 0.060787 0.006837
-0.053280 0.032344 -0.017312
-0.039546 -0.049554 -0.012849
-0.060587 0.011233 -0.019686
-0.021042 0.060787 -0.006837
-0.021042 -0.060787 -0.006837
-0.060587 -0.011233 -0.019686
-0.039546 0.049554 -0.012849
-0.053280 -0.032344 -0.017312
-0.013005 0.060787 -0.017899
-0.013005 -0.060787 -0.017899
-0.037445 -0.011233 -0.051539
-0.024441 0.049554 -0.033639
-0.032929 -0.032344 -0.045322
-0.032929 0.032344 -0.045322
-0.024441 -0.049554 -0.033639
-0.037445 0.011233 -0.051539
3 0 1 2
3 3 4 5
3 6 7 8
3 2 9 10
3 3 11 12
3 6 13 14
3 15 10 9
3 0 11 16
3 17 13 4
3 1 18 9
3 5 19 11
3 13 20 21
3 15 9 18
3 11 22 16
3 13 23 4
3 16 24 1
3 5 23 25
3 8 7 20
3 19 26 22
3 21 27 23
3 22 28 24
3 25 27 29
3 20 7 30
3 24 31 18
3 25 32 19
3 21 30 33
3 15 18 31
3 29 34 35
3 30 7 36
3 28 37 31
3 29 38 32
3 30 39 33
3 15 31 37
3 32 40 26
3 33 34 27
3 26 41 28
3 39 42 43
3 15 37 44
3 40 45 46
3 34 43 47
3 40 48 41
3 35 47 49
3 36 7 42
3 41 44 37
3 35 45 38
3 46 50 48
3 47 51 49
3 42 7 52
3 44 50 53
3 49 54 45
3 43 52 55
3 15 44 53
3 46 54 56
3 43 57 47
3 51 58 54
3 52 59 55
3 15 53 60
3 56 58 61
3 57 59 62
3 56 63 50
3 57 64 51
3 52 7 65
3 50 60 53
3 59 66 62
3 61 67 63
3 62 68 64
3 65 7 69
3 63 70 60
3 64 71 58
3 59 69 72
3 15 60 70
3 61 71 73
3 69 7 74
3 67 75 70
3 68 76 71
3 72 74 77
3 15 70 75
3 73 76 78
3 72 79 66
3 73 80 67
3 66 81 68
3 15 75 10
3 78 12 0
3 77 17 79
3 78 2 80
3 79 3 81
3 74 7 6
3 80 10 75
3 81 12 76
3 74 14 77
3 0 16 1
3 3 17 4
3 2 1 9
3 3 5 11
3 6 8 13
3 0 12 11
3 17 14 13
3 1 24 18
3 5 25 19
3 13 8 20
3 11 19 22
3 13 21 23
3 16 22 24
3 5 4 23
3 19 32 26
3 21 33 27
3 22 26 28
3 25 23 27
3 24 28 31
3 25 29 32
3 21 20 30
3 29 27 34
3 28 41 37
3 29 35 38
3 30 36 39
3 32 38 40
3 33 39 34
3 26 40 41
3 39 36 42
3 40 38 45
3 34 39 43
3 40 46 48
3 35 34 47
3 41 48 44
3 35 49 45
3 46 56 50
3 47 57 51
3 44 48 50
3 49 51 54
3 43 42 52
3 46 45 54
3 43 55 57
3 51 64 58
3 52 65 59
3 56 54 58
3 57 55 59
3 56 61 63
3 57 62 64
3 50 63 60
3 59 72 66
3 61 73 67
3 62 66 68
3 63 67 70
3 64 68 71
3 59 65 69
3 61 58 71
3 67 80 75
3 68 81 76
3 72 69 74
3 73 71 76
3 72 77 79
3 73 78 80
3 66 79 81
3 78 76 12
3 77 14 17
3 78 0 2
3 79 17 3
3 80 2 10
3 81 3 12
3 74 6 14
