ply
format ascii 1.0
comment Created by Blender 2.79 (sub 0) - www.blender.org, source file: 'untitled.blend'
element vertex 49
property float x
property float y
property float z
property float s
property float t
element face 72
property list uchar uint vertex_indices
end_header
-3.478676 -0.035578 0.000000 0.000000 0.500000
-2.319117 -0.062504 -1.159559 0.166667 0.666667
-3.478676 -0.032405 -1.159559 0.000000 0.666667
1.159559 -0.101709 0.000000 0.666667 0.500000
2.319117 0.005323 -1.159559 0.833333 0.666667
1.159559 -0.106935 -1.159559 0.666667 0.666667
1.159559 -0.080185 -2.319117 0.666667 0.833333
2.319117 -0.040469 -3.478676 0.833333 1.000000
1.159559 0.009387 -3.478676 0.666667 1.000000
-1.159559 0.049600 0.000000 0.333333 0.500000
0.000000 -0.095685 -1.159559 0.500000 0.666667
-1.159559 -0.080846 -1.159559 0.333333 0.666667
-1.159559 -0.104214 -2.319117 0.333333 0.833333
0.000000 -0.001531 -3.478676 0.500000 1.000000
-1.159559 -0.065353 -3.478676 0.333333 1.000000
-3.478676 -0.014777 -2.319117 0.000000 0.833333
-2.319117 -0.097401 -3.478676 0.166667 1.000000
-3.478676 -0.027856 -3.478676 0.000000 1.000000
-1.159559 -0.080185 2.319117 0.333333 0.166667
0.000000 -0.064645 1.159559 0.500000 0.333333
-1.159559 0.009387 1.159559 0.333333 0.333333
-3.478676 -0.075016 2.319117 0.000000 0.166667
-2.319117 0.009279 1.159559 0.166667 0.333333
-3.478676 -0.082895 1.159559 0.000000 0.333333
1.159559 0.045168 2.319117 0.666667 0.166667
2.319117 0.070473 1.159559 0.833333 0.333333
1.159559 -0.013968 1.159559 0.666667 0.333333
1.159559 -0.028625 3.478676 0.666667 0.000000
2.319117 0.097101 2.319117 0.833333 0.166667
-2.319117 -0.101980 3.478676 0.166667 0.000000
-2.319117 -0.052435 2.319117 0.166667 0.166667
-1.159559 -0.106935 3.478676 0.333333 0.000000
0.000000 -0.025322 2.319117 0.500000 0.166667
-2.319117 0.027088 0.000000 0.166667 0.500000
0.000000 -0.058129 0.000000 0.500000 0.500000
2.319117 -0.011090 3.478676 0.833333 0.000000
3.478676 0.067593 2.319117 1.000000 0.166667
3.478676 -0.006013 1.159559 1.000000 0.333333
3.478676 0.054229 0.000000 1.000000 0.500000
2.319117 0.014754 0.000000 0.833333 0.500000
0.000000 -0.021053 3.478676 0.500000 0.000000
-2.319117 -0.087833 -2.319117 0.166667 0.833333
0.000000 -0.079871 -2.319117 0.500000 0.833333
3.478676 -0.016317 -2.319117 1.000000 0.833333
2.319117 -0.055994 -2.319117 0.833333 0.833333
3.478676 0.124533 -1.159559 1.000000 0.666667
3.478676 -0.066303 -3.478676 1.000000 1.000000
-3.478676 -0.105622 3.478676 0.000000 0.000000
3.478676 0.004487 3.478676 1.000000 0.000000
3 0 1 2
3 3 4 5
3 6 7 8
3 9 10 11
3 12 13 14
3 15 16 17
3 18 19 20
3 21 22 23
3 24 25 26
3 27 28 24
3 29 18 30
3 31 32 18
3 30 20 22
3 22 9 33
3 20 34 9
3 23 33 0
3 35 36 28
3 28 37 25
3 25 38 39
3 32 26 19
3 19 3 34
3 26 39 3
3 40 24 32
3 41 14 16
3 11 42 12
3 1 12 41
3 33 11 1
3 4 43 44
3 39 45 4
3 44 46 7
3 42 8 13
3 5 44 6
3 10 6 42
3 34 5 10
3 2 41 15
3 47 30 21
3 0 33 1
3 3 39 4
3 6 44 7
3 9 34 10
3 12 42 13
3 15 41 16
3 18 32 19
3 21 30 22
3 24 28 25
3 27 35 28
3 29 31 18
3 31 40 32
3 30 18 20
3 22 20 9
3 20 19 34
3 23 22 33
3 35 48 36
3 28 36 37
3 25 37 38
3 32 24 26
3 19 26 3
3 26 25 39
3 40 27 24
3 41 12 14
3 11 10 42
3 1 11 12
3 33 9 11
3 4 45 43
3 39 38 45
3 44 43 46
3 42 6 8
3 5 4 44
3 10 5 6
3 34 3 5
3 2 1 41
3 47 29 30
