ply
format ascii 1.0
comment Created by Blender 2.79 (sub 0) - www.blender.org, source file: 'untitled.blend'
element vertex 360
property float x
property float y
property float z
property float nx
property float ny
property float nz
property uchar red
property uchar green
property uchar blue
element face 200
property list uchar uint vertex_indices
end_header
-0.000002 2.350000 -0.249999 -0.000000 0.000000 -1.000000 0 255 244
0.258116 1.629686 -0.249999 -0.000000 0.000000 -1.000000 0 125 255
-0.367623 2.321068 -0.249999 -0.000000 0.000000 -1.000000 0 255 244
-0.367623 2.321068 -0.249999 -0.982566 0.185916 0.000000 0 255 244
-0.509879 1.569243 0.250001 -0.982566 0.185916 0.000000 0 125 255
-0.367623 2.321068 0.250001 -0.982566 0.185916 0.000000 0 255 244
0.258116 1.629686 -0.249999 0.941384 0.337336 0.000000 0 125 255
-0.000002 2.350000 0.250001 0.941384 0.337336 0.000000 0 255 244
0.258116 1.629686 0.250001 0.941384 0.337336 0.000000 0 125 255
-0.000002 2.350000 -0.249999 -0.078459 0.996917 0.000000 0 255 244
-0.367623 2.321068 0.250001 -0.078459 0.996917 0.000000 0 255 244
-0.000002 2.350000 0.250001 -0.078459 0.996917 0.000000 0 255 244
-0.590188 1.158308 0.250000 0.281961 -0.553423 0.783685 0 0 255
0.203364 1.283995 -0.250000 -0.097140 -0.613453 -0.783685 0 0 255
0.203364 1.283995 0.250000 -0.097140 -0.613453 0.783685 0 0 255
-0.509879 1.569243 -0.249999 0.000000 0.000000 -1.000000 0 125 255
0.203364 1.283995 -0.250000 0.000000 0.000000 -1.000000 0 0 255
-0.590189 1.158309 -0.250000 -0.000000 0.000000 -1.000000 0 0 255
-0.590188 1.158308 0.250000 0.000000 -0.000001 1.000000 0 0 255
-0.509879 1.569243 0.250001 0.000000 -0.000001 1.000000 0 125 255
-0.749085 1.470160 0.250001 0.000000 -0.000001 1.000000 0 125 255
-0.509879 1.569243 -0.249999 -0.382684 0.923879 0.000001 0 125 255
-0.749085 1.470160 0.250001 -0.382684 0.923879 0.000001 0 125 255
-0.509879 1.569243 0.250001 -0.382684 0.923879 0.000001 0 125 255
-0.367623 2.321068 0.250001 0.000000 -0.000000 1.000000 0 255 244
0.258116 1.629686 0.250001 0.000000 -0.000000 1.000000 0 125 255
-0.000002 2.350000 0.250001 0.000000 -0.000000 1.000000 0 255 244
-0.509879 1.569243 0.250001 0.000000 -0.000000 1.000000 0 125 255
0.203364 1.283995 0.250000 0.000000 -0.000000 1.000000 0 0 255
1.381294 1.901191 -0.249999 -0.000000 0.000000 -1.000000 0 255 244
1.166725 1.166727 -0.249999 -0.000000 0.000000 -1.000000 0 125 255
1.066877 2.093866 -0.249999 -0.000000 0.000000 -1.000000 0 255 244
1.066877 2.093866 -0.249999 -0.685633 0.727947 0.000000 0 255 244
0.509877 1.569243 0.250001 -0.685633 0.727947 0.000000 0 125 255
1.066877 2.093866 0.250001 -0.685633 0.727947 0.000000 0 255 244
1.166725 1.166727 -0.249999 0.959877 -0.280422 0.000000 0 125 255
1.381294 1.901191 0.250001 0.959877 -0.280422 0.000000 0 255 244
1.166725 1.166727 0.250001 0.959877 -0.280422 0.000000 0 125 255
1.381294 1.901191 0.250001 0.522499 0.852640 0.000000 0 255 244
1.066877 2.093866 -0.249999 0.522499 0.852640 0.000000 0 255 244
1.066877 2.093866 0.250001 0.522499 0.852640 0.000000 0 255 244
0.919238 0.919240 -0.250000 -0.439192 -0.439192 -0.783685 0 0 255
0.919238 0.919239 0.250000 -0.439192 -0.439192 0.783685 0 0 255
0.509877 1.569244 -0.249999 0.000000 0.000000 -1.000000 0 125 255
0.919238 0.919240 -0.250000 0.000000 0.000000 -1.000000 0 0 255
0.509877 1.569243 0.250001 -0.000000 -0.000000 1.000000 0 125 255
0.509877 1.569244 -0.249999 0.233446 0.972370 0.000001 0 125 255
0.258116 1.629686 0.250001 0.233446 0.972370 0.000001 0 125 255
0.509877 1.569243 0.250001 0.233446 0.972370 0.000001 0 125 255
1.066877 2.093866 0.250001 0.000000 -0.000000 1.000000 0 255 244
1.166725 1.166727 0.250001 0.000000 -0.000000 1.000000 0 125 255
1.381294 1.901191 0.250001 0.000000 -0.000000 1.000000 0 255 244
0.509877 1.569243 0.250001 -0.000001 -0.000001 1.000000 0 125 255
0.919238 0.919239 0.250000 -0.000001 -0.000001 1.000000 0 0 255
1.166725 1.166727 0.250001 -0.000001 -0.000001 1.000000 0 125 255
2.234982 0.726191 -0.249999 -0.000000 0.000000 -1.000000 0 255 244
1.629686 0.258118 -0.249999 -0.000000 0.000000 -1.000000 0 125 255
2.093865 1.066879 -0.249999 -0.000000 0.000000 -1.000000 0 255 244
2.093865 1.066879 -0.249999 -0.126813 0.991927 0.000000 0 255 244
1.334877 0.969846 0.250001 -0.126813 0.991927 0.000000 0 125 255
2.093865 1.066879 0.250001 -0.126813 0.991927 0.000000 0 255 244
1.629686 0.258118 -0.249999 0.611729 -0.791068 -0.000000 1 108 255
2.234983 0.726191 0.250001 0.611729 -0.791068 -0.000000 0 255 244
1.629686 0.258118 0.250001 0.611729 -0.791068 -0.000000 0 125 255
2.234982 0.726191 -0.249999 0.923879 0.382684 -0.000001 0 255 244
2.093865 1.066879 0.250001 0.923879 0.382684 -0.000001 0 255 244
2.234983 0.726191 0.250001 0.923879 0.382684 -0.000001 0 255 244
1.283995 0.203366 0.250000 -0.613453 -0.097140 0.783685 0 0 255
1.283995 0.203366 -0.250000 -0.613453 -0.097140 -0.783685 0 0 255
1.334878 0.969847 -0.249999 0.000000 0.000000 -1.000000 0 125 255
1.283995 0.203366 -0.250000 0.000001 0.000000 -1.000000 0 0 255
1.334878 0.969847 -0.249999 0.000001 0.000000 -1.000000 0 125 255
1.629686 0.258118 -0.249999 0.000001 0.000000 -1.000000 0 125 255
1.283995 0.203366 -0.250000 0.000000 0.000000 -1.000000 0 0 255
0.919238 0.919239 0.250000 -0.000000 -0.000001 1.000000 0 0 255
1.334877 0.969846 0.250001 -0.000000 -0.000001 1.000000 0 125 255
1.166725 1.166727 0.250001 -0.000000 -0.000001 1.000000 0 125 255
1.334878 0.969847 -0.249999 0.760405 0.649449 0.000000 0 125 255
1.166725 1.166727 0.250001 0.760405 0.649449 0.000000 0 125 255
1.334877 0.969846 0.250001 0.760405 0.649449 0.000000 0 125 255
2.093865 1.066879 0.250001 0.000000 -0.000000 1.000000 0 255 244
1.629686 0.258118 0.250001 0.000000 -0.000000 1.000000 0 125 255
2.234983 0.726191 0.250001 0.000000 -0.000000 1.000000 0 255 244
1.334877 0.969846 0.250001 -0.000000 -0.000000 1.000000 0 125 255
1.334877 0.969846 0.250001 -0.000001 -0.000000 1.000000 0 125 255
1.283995 0.203366 0.250000 -0.000001 -0.000000 1.000000 0 0 255
1.629686 0.258118 0.250001 -0.000001 -0.000000 1.000000 0 125 255
2.234984 -0.726189 -0.249999 0.000000 0.000000 -1.000000 0 255 244
1.470162 -0.749083 -0.249999 0.000000 0.000000 -1.000000 0 125 255
2.321068 -0.367620 -0.249999 0.000000 0.000000 -1.000000 0 255 244
2.321068 -0.367620 -0.249999 0.480446 0.877024 0.000000 0 255 244
1.650000 0.000001 0.250001 0.480446 0.877024 0.000000 0 125 255
2.321068 -0.367620 0.250001 0.480446 0.877024 0.000000 0 255 244
1.470162 -0.749083 -0.249999 0.029921 -0.999552 -0.000000 0 125 255
2.234984 -0.726189 0.250001 0.029921 -0.999552 -0.000000 0 255 244
1.470161 -0.749083 0.250001 0.029921 -0.999552 -0.000000 0 123 255
2.234984 -0.726189 0.250001 0.972370 -0.233445 -0.000000 0 255 244
2.321068 -0.367620 -0.249999 0.972370 -0.233445 -0.000000 0 255 244
2.321068 -0.367620 0.250001 0.972370 -0.233445 -0.000000 0 255 244
1.158309 -0.590187 -0.250000 -0.553423 0.281961 -0.783685 0 0 255
1.158309 -0.590187 0.250000 -0.553423 0.281961 0.783685 0 0 255
1.650000 0.000001 -0.249999 0.000000 -0.000000 -1.000000 0 125 255
1.158309 -0.590187 -0.250000 0.000001 -0.000000 -1.000000 0 0 255
1.650000 0.000001 -0.249999 0.000001 -0.000000 -1.000000 0 125 255
1.470162 -0.749083 -0.249999 0.000001 -0.000000 -1.000000 0 125 255
1.158309 -0.590187 -0.250000 0.000000 -0.000000 -1.000000 0 0 255
1.650000 0.000001 0.250001 -0.000001 -0.000000 1.000000 0 125 255
1.650000 0.000001 -0.249999 0.996917 0.078460 0.000000 0 125 255
1.629686 0.258118 0.250001 0.996917 0.078460 0.000000 0 125 255
1.650000 0.000001 0.250001 0.996917 0.078460 0.000000 0 125 255
2.321068 -0.367620 0.250001 -0.000000 -0.000000 1.000000 0 255 244
1.470161 -0.749083 0.250001 -0.000000 -0.000000 1.000000 0 123 255
2.234984 -0.726189 0.250001 -0.000000 -0.000000 1.000000 0 255 244
1.650000 0.000001 0.250001 -0.000000 0.000000 1.000000 0 125 255
1.158309 -0.590187 0.250000 -0.000001 0.000000 1.000000 0 0 255
1.470161 -0.749083 0.250001 -0.000001 0.000000 1.000000 0 123 255
1.381297 -1.901190 -0.249999 0.000000 0.000000 -1.000000 0 255 244
0.749085 -1.470160 -0.249999 0.000000 0.000000 -1.000000 0 125 255
1.661702 -1.661700 -0.249999 0.000000 0.000000 -1.000000 0 255 244
1.661702 -1.661700 -0.249999 0.904191 0.427128 0.000000 0 255 244
1.334879 -0.969845 0.250001 0.904191 0.427128 0.000000 0 125 255
1.661702 -1.661700 0.250001 0.904191 0.427128 0.000000 0 255 244
0.749085 -1.470160 0.250001 -0.563316 -0.826242 -0.000000 0 125 255
1.381297 -1.901190 -0.249999 -0.563316 -0.826242 -0.000000 0 255 244
1.381297 -1.901190 0.250001 -0.563316 -0.826242 -0.000000 0 255 244
1.381297 -1.901190 -0.249999 0.649449 -0.760405 -0.000000 0 255 244
1.661702 -1.661700 0.250001 0.649449 -0.760405 -0.000000 0 255 244
1.381297 -1.901190 0.250001 0.649449 -0.760405 -0.000000 0 255 244
0.590189 -1.158308 -0.250000 -0.281961 0.553423 -0.783685 0 0 255
0.590188 -1.158308 0.250000 -0.281961 0.553423 0.783685 0 0 255
1.334879 -0.969845 -0.249999 0.000000 -0.000000 -1.000000 0 125 255
0.590189 -1.158308 -0.250000 0.000000 -0.000000 -1.000000 0 0 255
1.334879 -0.969845 0.250001 -0.000001 0.000000 1.000000 0 125 255
1.334879 -0.969845 -0.249999 0.852641 -0.522498 0.000001 0 125 255
1.470161 -0.749083 0.250001 0.852641 -0.522498 0.000001 0 123 255
1.334879 -0.969845 0.250001 0.852641 -0.522498 0.000001 0 125 255
1.661702 -1.661700 0.250001 -0.000000 -0.000000 1.000000 0 255 244
0.749085 -1.470160 0.250001 -0.000000 -0.000000 1.000000 0 125 255
1.381297 -1.901190 0.250001 -0.000000 -0.000000 1.000000 0 255 244
1.334879 -0.969845 0.250001 -0.000000 0.000000 1.000000 0 125 255
0.590188 -1.158308 0.250000 -0.000000 0.000000 1.000000 0 0 255
0.000001 -2.350000 -0.249999 0.000000 0.000000 -1.000000 0 255 244
-0.258116 -1.629686 -0.249999 0.000000 0.000000 -1.000000 0 125 255
0.367622 -2.321068 -0.249999 0.000000 0.000000 -1.000000 0 255 244
0.367622 -2.321068 -0.249999 0.982565 -0.185917 0.000000 0 255 244
0.509879 -1.569243 0.250001 0.982565 -0.185917 0.000000 0 125 255
0.367622 -2.321067 0.250001 0.982565 -0.185917 0.000000 0 255 244
-0.258116 -1.629686 0.250001 -0.941384 -0.337336 -0.000000 0 125 255
0.000001 -2.350000 -0.249999 -0.941384 -0.337336 -0.000000 0 255 244
0.000001 -2.350000 0.250001 -0.941384 -0.337336 -0.000000 0 255 244
0.000001 -2.350000 -0.249999 0.078460 -0.996917 0.000000 0 255 244
0.367622 -2.321067 0.250001 0.078460 -0.996917 0.000000 0 255 244
0.000001 -2.350000 0.250001 0.078460 -0.996917 0.000000 0 255 244
-0.203364 -1.283995 -0.250000 0.097140 0.613453 -0.783685 0 0 255
-0.203365 -1.283995 0.250000 0.097140 0.613453 0.783685 0 0 255
0.509879 -1.569243 -0.249999 -0.000000 -0.000000 -1.000000 0 125 255
-0.203364 -1.283995 -0.250000 -0.000000 -0.000001 -1.000000 0 0 255
0.509879 -1.569243 -0.249999 -0.000000 -0.000001 -1.000000 0 125 255
-0.258116 -1.629686 -0.249999 -0.000000 -0.000001 -1.000000 0 125 255
-0.203364 -1.283995 -0.250000 0.000000 -0.000000 -1.000000 0 0 255
0.590188 -1.158308 0.250000 -0.000000 0.000001 1.000000 0 0 255
0.509879 -1.569243 0.250001 -0.000000 0.000001 1.000000 0 125 255
0.749085 -1.470160 0.250001 -0.000000 0.000001 1.000000 0 125 255
0.509879 -1.569243 -0.249999 0.382685 -0.923879 -0.000000 0 125 255
0.749085 -1.470160 0.250001 0.382685 -0.923879 -0.000000 0 125 255
0.509879 -1.569243 0.250001 0.382685 -0.923879 -0.000000 0 125 255
0.367622 -2.321067 0.250001 -0.000000 0.000000 1.000000 0 255 244
-0.258116 -1.629686 0.250001 -0.000000 0.000000 1.000000 0 125 255
0.000001 -2.350000 0.250001 -0.000000 0.000000 1.000000 0 255 244
0.509879 -1.569243 0.250001 -0.000000 0.000000 1.000000 0 125 255
-0.203365 -1.283995 0.250000 -0.000000 0.000001 1.000000 0 0 255
-0.258116 -1.629686 0.250001 -0.000000 0.000001 1.000000 0 125 255
-1.381294 -1.901191 -0.249999 0.000000 -0.000000 -1.000000 0 255 244
-1.166726 -1.166727 -0.249999 0.000000 -0.000000 -1.000000 0 125 255
-1.066877 -2.093866 -0.249999 0.000000 -0.000000 -1.000000 0 255 244
-1.066877 -2.093866 -0.249999 0.685633 -0.727947 0.000000 0 255 244
-0.509877 -1.569243 0.250001 0.685633 -0.727947 0.000000 0 125 255
-1.066877 -2.093866 0.250001 0.685633 -0.727947 0.000000 0 254 244
-1.166726 -1.166727 0.250001 -0.959877 0.280422 0.000000 0 125 255
-1.381294 -1.901191 -0.249999 -0.959877 0.280422 0.000000 0 255 244
-1.381294 -1.901191 0.250001 -0.959877 0.280422 0.000000 0 255 244
-1.381294 -1.901191 0.250001 -0.522499 -0.852640 -0.000000 0 255 244
-1.066877 -2.093866 -0.249999 -0.522499 -0.852640 -0.000000 0 255 244
-1.066877 -2.093866 0.250001 -0.522499 -0.852640 -0.000000 0 254 244
-0.919238 -0.919240 -0.250000 0.439192 0.439192 -0.783685 0 0 255
-0.919239 -0.919239 0.250000 0.439192 0.439192 0.783685 0 0 255
-0.509877 -1.569244 -0.249999 -0.000000 -0.000000 -1.000000 0 125 255
-0.919238 -0.919240 -0.250000 -0.000000 -0.000000 -1.000000 0 0 255
-0.509877 -1.569243 0.250001 0.000000 0.000001 1.000000 0 125 255
-0.509877 -1.569244 -0.249999 -0.233446 -0.972370 0.000001 0 125 255
-0.258116 -1.629686 0.250001 -0.233446 -0.972370 0.000001 0 125 255
-0.509877 -1.569243 0.250001 -0.233446 -0.972370 0.000001 0 125 255
-1.066877 -2.093866 0.250001 -0.000000 0.000000 1.000000 0 254 244
-1.166726 -1.166727 0.250001 -0.000000 0.000000 1.000000 0 125 255
-1.381294 -1.901191 0.250001 -0.000000 0.000000 1.000000 0 255 244
-0.509877 -1.569243 0.250001 0.000000 0.000000 1.000000 0 125 255
-0.919239 -0.919239 0.250000 0.000000 0.000000 1.000000 0 0 255
-2.234983 -0.726191 -0.249999 -0.000000 -0.000000 -1.000000 0 255 244
-1.629686 -0.258118 -0.249999 -0.000000 -0.000000 -1.000000 0 125 255
-2.093865 -1.066879 -0.249999 -0.000000 -0.000000 -1.000000 0 255 244
-2.093865 -1.066879 -0.249999 0.126812 -0.991927 0.000000 0 255 244
-1.334877 -0.969846 0.250001 0.126812 -0.991927 0.000000 0 125 255
-2.093865 -1.066879 0.250001 0.126812 -0.991927 0.000000 0 255 244
-1.629686 -0.258118 -0.249999 -0.611729 0.791068 0.000000 0 125 255
-2.234982 -0.726191 0.250001 -0.611729 0.791068 0.000000 0 255 244
-1.629686 -0.258118 0.250001 -0.611729 0.791068 0.000000 0 125 255
-2.234982 -0.726191 0.250001 -0.923880 -0.382684 0.000001 0 255 244
-2.093865 -1.066879 -0.249999 -0.923880 -0.382684 0.000001 0 255 244
-2.093865 -1.066879 0.250001 -0.923880 -0.382684 0.000001 0 255 244
-1.283995 -0.203366 -0.249999 0.613453 0.097140 -0.783685 0 0 255
-1.283995 -0.203365 0.250000 0.613453 0.097140 0.783685 0 0 255
-1.334878 -0.969847 -0.249999 -0.000000 -0.000000 -1.000000 0 125 255
-1.283995 -0.203366 -0.249999 -0.000000 -0.000000 -1.000000 0 0 255
-0.919239 -0.919239 0.250000 0.000001 -0.000000 1.000000 0 0 255
-1.334877 -0.969846 0.250001 0.000001 -0.000000 1.000000 0 125 255
-1.166726 -1.166727 0.250001 0.000001 -0.000000 1.000000 0 125 255
-1.334877 -0.969846 0.250001 -0.760406 -0.649448 0.000001 0 125 255
-1.166726 -1.166727 -0.249999 -0.760406 -0.649448 0.000001 0 125 255
-1.166726 -1.166727 0.250001 -0.760406 -0.649448 0.000001 0 125 255
-2.093865 -1.066879 0.250001 0.000000 0.000000 1.000000 0 255 244
-1.629686 -0.258118 0.250001 0.000000 0.000000 1.000000 0 125 255
-2.234982 -0.726191 0.250001 0.000000 0.000000 1.000000 0 255 244
-1.334877 -0.969846 0.250001 0.000000 0.000000 1.000000 0 125 255
-1.283995 -0.203365 0.250000 0.000000 0.000000 1.000000 0 0 255
-2.234984 0.726189 -0.249999 -0.000000 -0.000000 -1.000000 0 255 244
-1.470162 0.749084 -0.249999 -0.000000 -0.000000 -1.000000 0 125 255
-2.321069 0.367620 -0.249999 -0.000000 -0.000000 -1.000000 0 255 244
-2.321068 0.367620 0.250001 -0.480446 -0.877024 0.000000 0 255 244
-1.650000 -0.000001 -0.249999 -0.480446 -0.877024 0.000000 0 125 255
-1.650000 -0.000001 0.250001 -0.480446 -0.877024 0.000000 0 125 255
-1.470162 0.749084 -0.249999 -0.029921 0.999552 0.000000 0 125 255
-2.234984 0.726189 0.250001 -0.029921 0.999552 0.000000 0 255 244
-1.470161 0.749083 0.250001 -0.029921 0.999552 0.000000 0 125 255
-2.234984 0.726189 0.250001 -0.972370 0.233445 0.000000 0 255 244
-2.321069 0.367620 -0.249999 -0.972370 0.233445 0.000000 0 255 244
-2.321068 0.367620 0.250001 -0.972370 0.233445 0.000000 0 255 244
-1.158309 0.590187 -0.250000 0.553423 -0.281961 -0.783685 0 0 255
-1.158309 0.590187 0.250000 0.553423 -0.281961 0.783685 0 0 255
-1.650000 -0.000001 -0.249999 -0.000000 0.000000 -1.000000 0 125 255
-1.158309 0.590187 -0.250000 -0.000000 0.000000 -1.000000 0 0 255
-1.650000 -0.000001 0.250001 0.000000 -0.000000 1.000000 0 125 255
-1.650000 -0.000001 -0.249999 -0.996917 -0.078461 0.000000 0 125 255
-1.629686 -0.258118 0.250001 -0.996917 -0.078461 0.000000 0 125 255
-1.650000 -0.000001 0.250001 -0.996917 -0.078461 0.000000 0 125 255
-2.321068 0.367620 0.250001 0.000000 0.000000 1.000000 0 255 244
-1.470161 0.749083 0.250001 0.000000 0.000000 1.000000 0 125 255
-2.234984 0.726189 0.250001 0.000000 0.000000 1.000000 0 255 244
-1.650000 -0.000001 0.250001 0.000001 -0.000000 1.000000 0 125 255
-1.158309 0.590187 0.250000 0.000001 -0.000000 1.000000 0 0 255
-1.470161 0.749083 0.250001 0.000001 -0.000000 1.000000 0 125 255
-1.381296 1.901190 -0.249999 -0.000000 -0.000000 -1.000000 0 255 244
-0.749086 1.470160 -0.249999 -0.000000 -0.000000 -1.000000 0 125 255
-1.661702 1.661700 -0.249999 -0.000000 -0.000000 -1.000000 0 255 244
-1.661702 1.661700 -0.249999 -0.904191 -0.427128 0.000000 0 255 244
-1.334879 0.969845 0.250001 -0.904191 -0.427128 0.000000 0 125 255
-1.661702 1.661700 0.250001 -0.904191 -0.427128 0.000000 0 255 244
-0.749085 1.470160 0.250001 0.563316 0.826242 0.000000 0 125 255
-1.381296 1.901190 -0.249999 0.563316 0.826242 0.000000 0 255 244
-1.381297 1.901190 0.250001 0.563316 0.826242 0.000000 0 255 244
-1.381297 1.901190 0.250001 -0.649449 0.760405 0.000000 0 255 244
-1.661702 1.661700 -0.249999 -0.649449 0.760405 0.000000 0 255 244
-1.661702 1.661700 0.250001 -0.649449 0.760405 0.000000 0 255 244
-0.590189 1.158309 -0.250000 0.281961 -0.553423 -0.783685 0 0 255
-1.334879 0.969845 -0.249999 -0.000000 0.000000 -1.000000 0 125 255
-1.334879 0.969845 0.250001 0.000001 -0.000000 1.000000 0 125 255
-1.334879 0.969845 -0.249999 -0.852641 0.522497 0.000001 0 125 255
-1.470161 0.749083 0.250001 -0.852641 0.522497 0.000001 0 125 255
-1.334879 0.969845 0.250001 -0.852641 0.522497 0.000001 0 125 255
-1.661702 1.661700 0.250001 0.000000 0.000000 1.000000 0 255 244
-0.749085 1.470160 0.250001 0.000000 0.000000 1.000000 0 125 255
-1.381297 1.901190 0.250001 0.000000 0.000000 1.000000 0 255 244
-1.334879 0.969845 0.250001 0.000000 -0.000000 1.000000 0 125 255
-0.590188 1.158308 0.250000 0.000000 -0.000000 1.000000 0 0 255
-0.509879 1.569243 -0.249999 -0.982566 0.185916 0.000000 0 125 255
-0.000002 2.350000 -0.249999 0.941384 0.337336 0.000000 0 255 244
-0.367623 2.321068 -0.249999 -0.078459 0.996917 0.000000 0 255 244
0.203364 1.283995 0.250000 0.000000 -0.000001 1.000000 0 0 255
-0.509879 1.569243 -0.249999 -0.382685 0.923879 0.000001 0 125 255
-0.749086 1.470160 -0.249999 -0.382685 0.923879 0.000001 0 125 255
-0.749085 1.470160 0.250001 -0.382685 0.923879 0.000001 0 125 255
0.509877 1.569244 -0.249999 -0.685633 0.727947 0.000000 0 125 255
1.381294 1.901191 -0.249999 0.959877 -0.280422 0.000000 0 255 244
1.381294 1.901191 -0.249999 0.522499 0.852640 -0.000000 0 255 244
0.509877 1.569243 0.250001 -0.000000 -0.000001 1.000000 0 125 255
0.509877 1.569244 -0.249999 0.233445 0.972370 0.000000 0 125 255
0.258116 1.629686 -0.249999 0.233445 0.972370 0.000000 0 125 255
0.258116 1.629686 0.250001 0.233445 0.972370 0.000000 0 125 255
1.334878 0.969847 -0.249999 -0.126813 0.991927 0.000000 0 125 255
2.234982 0.726191 -0.249999 0.611729 -0.791068 -0.000000 0 255 244
2.234982 0.726191 -0.249999 0.923880 0.382683 0.000000 0 255 244
2.093865 1.066879 -0.249999 0.923880 0.382683 0.000000 0 255 244
2.093865 1.066879 0.250001 0.923880 0.382683 0.000000 0 255 244
0.919238 0.919240 -0.250000 0.000000 0.000001 -1.000000 0 0 255
1.166725 1.166727 -0.249999 0.000000 0.000001 -1.000000 0 125 255
1.334878 0.969847 -0.249999 0.000000 0.000001 -1.000000 0 125 255
0.919238 0.919239 0.250000 -0.000001 -0.000000 1.000000 0 0 255
1.166725 1.166727 -0.249999 0.760405 0.649449 0.000000 0 125 255
1.650000 0.000001 -0.249999 0.480446 0.877024 0.000000 0 125 255
2.234984 -0.726189 -0.249999 0.029921 -0.999552 0.000000 0 255 244
2.234984 -0.726189 -0.249999 0.972370 -0.233445 0.000000 0 255 244
1.650000 0.000001 -0.249999 0.996917 0.078461 0.000000 0 125 255
1.629686 0.258118 -0.249999 0.996917 0.078461 0.000000 0 125 255
1.629686 0.258118 0.250001 0.996917 0.078461 0.000000 0 125 255
1.334879 -0.969845 -0.249999 0.904191 0.427128 0.000000 0 125 255
0.749085 -1.470160 0.250001 -0.563315 -0.826242 0.000000 0 125 255
0.749085 -1.470160 -0.249999 -0.563315 -0.826242 0.000000 0 125 255
1.381297 -1.901190 -0.249999 -0.563315 -0.826242 0.000000 0 255 244
1.661702 -1.661700 -0.249999 0.649449 -0.760405 -0.000000 0 255 244
1.334879 -0.969845 -0.249999 0.000001 0.000000 -1.000000 0 125 255
1.158309 -0.590187 0.250000 -0.000000 0.000000 1.000000 0 0 255
1.334879 -0.969845 -0.249999 0.852641 -0.522497 0.000000 0 125 255
1.470162 -0.749083 -0.249999 0.852641 -0.522497 0.000000 0 125 255
1.470161 -0.749083 0.250001 0.852641 -0.522497 0.000000 0 123 255
0.367622 -2.321068 -0.249999 0.982566 -0.185917 0.000000 0 255 244
0.509879 -1.569243 -0.249999 0.982566 -0.185917 0.000000 0 125 255
0.509879 -1.569243 0.250001 0.982566 -0.185917 0.000000 0 125 255
-0.258116 -1.629686 0.250001 -0.941385 -0.337335 -0.000001 0 125 255
-0.258116 -1.629686 -0.249999 -0.941385 -0.337335 -0.000001 0 125 255
0.000001 -2.350000 -0.249999 -0.941385 -0.337335 -0.000001 0 255 244
0.000001 -2.350000 -0.249999 0.078459 -0.996917 0.000000 0 255 244
0.367622 -2.321068 -0.249999 0.078459 -0.996917 0.000000 0 255 244
0.367622 -2.321067 0.250001 0.078459 -0.996917 0.000000 0 255 244
0.509879 -1.569243 -0.249999 0.382684 -0.923879 0.000000 0 125 255
0.749085 -1.470160 -0.249999 0.382684 -0.923879 0.000000 0 125 255
0.749085 -1.470160 0.250001 0.382684 -0.923879 0.000000 0 125 255
-0.509877 -1.569244 -0.249999 0.685633 -0.727947 0.000000 0 125 255
-1.166726 -1.166727 -0.249999 -0.959877 0.280422 0.000000 0 125 255
-1.381294 -1.901191 -0.249999 -0.522499 -0.852640 0.000000 0 255 244
-0.509877 -1.569244 -0.249999 0.000000 -0.000001 -1.000000 0 125 255
-0.919239 -0.919239 0.250000 0.000000 0.000001 1.000000 0 0 255
-0.509877 -1.569244 -0.249999 -0.233443 -0.972371 -0.000001 0 125 255
-0.258116 -1.629686 -0.249999 -0.233443 -0.972371 -0.000001 0 125 255
-0.258116 -1.629686 0.250001 -0.233443 -0.972371 -0.000001 0 125 255
-1.334878 -0.969847 -0.249999 0.126812 -0.991927 0.000000 0 125 255
-1.629686 -0.258118 -0.249999 -0.611729 0.791067 0.000000 0 125 255
-2.234983 -0.726191 -0.249999 -0.611729 0.791067 0.000000 0 255 244
-2.234982 -0.726191 0.250001 -0.611729 0.791067 0.000000 0 255 244
-2.234982 -0.726191 0.250001 -0.923880 -0.382683 0.000001 0 255 244
-2.234983 -0.726191 -0.249999 -0.923880 -0.382683 0.000001 0 255 244
-2.093865 -1.066879 -0.249999 -0.923880 -0.382683 0.000001 0 255 244
-1.283995 -0.203365 0.250000 0.000001 0.000000 1.000000 0 0 255
-1.334877 -0.969846 0.250001 -0.760406 -0.649448 0.000000 0 125 255
-1.334878 -0.969847 -0.249999 -0.760406 -0.649448 0.000000 0 125 255
-1.166726 -1.166727 -0.249999 -0.760406 -0.649448 0.000000 0 125 255
-2.321069 0.367620 -0.249999 -0.480446 -0.877024 0.000000 0 255 244
-2.234984 0.726189 -0.249999 -0.029921 0.999552 0.000000 0 255 244
-2.234984 0.726189 -0.249999 -0.972370 0.233445 0.000000 0 255 244
-1.650000 -0.000001 -0.249999 -0.996917 -0.078460 0.000001 0 125 255
-1.629686 -0.258118 -0.249999 -0.996917 -0.078460 0.000001 0 125 255
-1.629686 -0.258118 0.250001 -0.996917 -0.078460 0.000001 0 125 255
-1.661702 1.661700 -0.249999 -0.904191 -0.427128 0.000001 0 255 244
-1.334879 0.969845 -0.249999 -0.904191 -0.427128 0.000001 0 125 255
-1.334879 0.969845 0.250001 -0.904191 -0.427128 0.000001 0 125 255
-0.749086 1.470160 -0.249999 0.563316 0.826242 0.000000 0 125 255
-1.381297 1.901190 0.250001 -0.649448 0.760406 -0.000001 0 255 244
-1.381296 1.901190 -0.249999 -0.649448 0.760406 -0.000001 0 255 244
-1.661702 1.661700 -0.249999 -0.649448 0.760406 -0.000001 0 255 244
-1.158309 0.590187 0.250000 0.000000 -0.000001 1.000000 0 0 255
-1.334879 0.969845 0.250001 0.000000 -0.000001 1.000000 0 125 255
-1.470162 0.749084 -0.249999 -0.852641 0.522497 0.000001 0 125 255
3 0 1 2
3 3 4 5
3 6 7 8
3 9 10 11
3 12 13 14
3 1 15 2
3 16 15 1
3 17 15 16
3 18 19 20
3 21 22 23
3 24 25 26
3 27 25 24
3 27 28 25
3 29 30 31
3 32 33 34
3 35 36 37
3 38 39 40
3 14 41 42
3 30 43 31
3 44 43 30
3 16 43 44
3 28 45 25
3 46 47 48
3 49 50 51
3 45 50 49
3 52 53 54
3 55 56 57
3 58 59 60
3 61 62 63
3 64 65 66
3 67 41 68
3 56 69 57
3 70 71 72
3 44 69 73
3 74 75 76
3 77 78 79
3 80 81 82
3 83 81 80
3 84 85 86
3 87 88 89
3 90 91 92
3 93 94 95
3 96 97 98
3 67 99 100
3 88 101 89
3 102 103 104
3 73 101 105
3 85 106 86
3 107 108 109
3 110 111 112
3 113 111 110
3 106 114 115
3 116 117 118
3 119 120 121
3 122 123 124
3 125 126 127
3 100 128 129
3 117 130 118
3 131 130 117
3 105 130 131
3 114 132 115
3 133 134 135
3 136 137 138
3 139 137 136
3 139 140 137
3 141 142 143
3 144 145 146
3 147 148 149
3 150 151 152
3 129 153 154
3 142 155 143
3 156 157 158
3 131 155 159
3 160 161 162
3 163 164 165
3 166 167 168
3 169 167 166
3 161 170 171
3 172 173 174
3 175 176 177
3 178 179 180
3 181 182 183
3 154 184 185
3 173 186 174
3 187 186 173
3 159 186 187
3 170 188 171
3 189 190 191
3 192 193 194
3 195 193 192
3 195 196 193
3 197 198 199
3 200 201 202
3 203 204 205
3 206 207 208
3 185 209 210
3 198 211 199
3 212 211 198
3 187 211 212
3 213 214 215
3 216 217 218
3 219 220 221
3 222 220 219
3 222 223 220
3 224 225 226
3 227 228 229
3 230 231 232
3 233 234 235
3 210 236 237
3 225 238 226
3 239 238 225
3 212 238 239
3 223 240 220
3 241 242 243
3 244 245 246
3 240 245 244
3 247 248 249
3 250 251 252
3 253 254 255
3 256 257 258
3 259 260 261
3 237 262 12
3 251 263 252
3 17 263 251
3 239 263 17
3 248 264 249
3 265 266 267
3 268 269 270
3 271 269 268
3 271 272 269
3 3 273 4
3 6 274 7
3 9 275 10
3 12 262 13
3 17 251 15
3 18 276 19
3 277 278 279
3 32 280 33
3 35 281 36
3 38 282 39
3 14 13 41
3 16 1 43
3 276 74 283
3 284 285 286
3 58 287 59
3 61 288 62
3 289 290 291
3 67 42 41
3 292 293 294
3 295 85 84
3 77 296 78
3 90 297 91
3 93 298 94
3 96 299 97
3 67 68 99
3 70 72 103
3 85 114 106
3 300 301 302
3 119 303 120
3 304 305 306
3 125 307 126
3 100 99 128
3 102 104 308
3 309 140 139
3 310 311 312
3 313 314 315
3 316 317 318
3 319 320 321
3 129 128 153
3 131 117 155
3 160 170 161
3 322 323 324
3 175 325 176
3 178 326 179
3 181 327 182
3 154 153 184
3 156 158 328
3 170 329 188
3 330 331 332
3 200 333 201
3 334 335 336
3 337 338 339
3 185 184 209
3 187 173 211
3 213 340 214
3 341 342 343
3 227 344 228
3 230 345 231
3 233 346 234
3 210 209 236
3 212 198 238
3 340 248 247
3 347 348 349
3 350 351 352
3 256 353 257
3 354 355 356
3 237 236 262
3 239 225 263
3 357 18 358
3 265 359 266
