ply
format ascii 1.0
comment Created by Blender 2.79 (sub 0) - www.blender.org, source file: 'untitled.blend'
element vertex 300
property float x
property float y
property float z
property float nx
property float ny
property float nz
property float s
property float t
element face 200
property list uchar uint vertex_indices
end_header
0.078217 0.493844 -1.000000 -0.097140 -0.613453 -0.783685 0.539109 0.000000
-0.226995 0.445503 1.000000 0.281961 -0.553423 0.783685 0.386502 -1.000000
-0.226995 0.445503 -1.000000 0.281961 -0.553423 -0.783685 0.386502 0.000000
-0.367616 2.321068 1.000000 -0.078458 0.996917 0.000000 0.316192 0.000000
0.000000 2.350000 -1.000000 -0.078458 0.996917 0.000000 0.500000 1.000000
-0.367616 2.321068 -1.000000 -0.078458 0.996917 0.000000 0.316192 1.000000
0.000000 2.350000 1.000000 0.941385 0.337335 0.000000 0.000000 0.675000
0.258117 1.629686 -1.000000 0.941385 0.337335 0.000000 1.000000 0.314843
0.000000 2.350000 -1.000000 0.941385 0.337335 0.000000 1.000000 0.675000
-0.749084 1.470161 1.000000 -0.382682 0.923880 0.000000 0.125458 0.000000
-0.509875 1.569244 -1.000000 -0.382682 0.923880 0.000000 0.245063 1.000000
-0.749084 1.470161 -1.000000 -0.382682 0.923880 0.000000 0.125458 1.000000
-0.509875 1.569244 1.000000 -0.982565 0.185919 0.000000 0.000000 0.284622
-0.367616 2.321068 -1.000000 -0.982565 0.185919 0.000000 1.000000 0.660534
-0.509875 1.569244 -1.000000 -0.982565 0.185919 0.000000 1.000000 0.284622
0.078217 0.493844 1.000000 0.000000 -0.000000 1.000000 0.523353 0.645632
-0.509875 1.569244 1.000000 0.000000 -0.000000 1.000000 0.347767 0.962760
-0.226995 0.445503 1.000000 0.000000 -0.000000 1.000000 0.432226 0.631376
0.258117 1.629686 1.000000 -0.000000 0.000000 1.000000 0.577066 0.980584
0.000000 2.350000 1.000000 -0.000000 0.000000 1.000000 0.500000 1.193000
-0.367616 2.321068 1.000000 -0.000000 0.000000 1.000000 0.390241 1.184469
-0.749084 1.470161 1.000000 0.000000 -0.000000 1.000000 0.276346 0.933541
-0.445503 0.226995 1.000000 0.553423 -0.281961 0.783685 0.277248 -1.000000
-0.445503 0.226995 -1.000000 0.553423 -0.281961 -0.783685 0.277248 0.000000
-1.661697 1.661704 1.000000 -0.649447 0.760407 0.000000 0.669151 0.000000
-1.381295 1.901190 -1.000000 -0.649447 0.760407 0.000000 0.809352 1.000000
-1.661697 1.661704 -1.000000 -0.649447 0.760407 0.000000 0.669151 1.000000
-1.381295 1.901190 1.000000 0.563315 0.826242 -0.000000 0.809352 0.000000
-0.749084 1.470161 -1.000000 0.563315 0.826242 -0.000000 1.125458 1.000000
-1.381295 1.901190 -1.000000 0.563315 0.826242 -0.000000 0.809352 1.000000
-1.470161 0.749084 1.000000 -0.852639 0.522500 0.000000 0.000000 0.874542
-1.334876 0.969848 -1.000000 -0.852639 0.522500 0.000000 1.000000 0.984924
-1.470161 0.749084 -1.000000 -0.852639 0.522500 0.000000 1.000000 0.874542
-1.334876 0.969848 1.000000 -0.904192 -0.427126 -0.000000 0.000000 0.984924
-1.661697 1.661704 -1.000000 -0.904192 -0.427126 -0.000000 1.000000 1.330852
-1.334876 0.969848 -1.000000 -0.904192 -0.427126 -0.000000 1.000000 0.984924
-1.334876 0.969848 1.000000 -0.000000 -0.000000 1.000000 0.101447 0.786002
-0.445503 0.226995 1.000000 -0.000000 -0.000000 1.000000 0.366986 0.566939
-1.381295 1.901190 1.000000 0.000000 0.000000 1.000000 0.087587 1.060649
-1.661697 1.661704 1.000000 0.000000 0.000000 1.000000 0.003868 0.990026
-1.470161 0.749084 1.000000 -0.000000 0.000000 1.000000 0.061055 0.720900
-0.445503 0.226995 -1.000000 0.553423 -0.281961 -0.783685 0.000000 0.613498
-0.493844 -0.078217 1.000000 0.613453 0.097140 0.783685 -1.000000 0.460891
-0.493844 -0.078217 -1.000000 0.613453 0.097140 -0.783685 0.000000 0.460891
-2.321066 0.367626 1.000000 -0.972370 0.233446 0.000000 0.000000 0.683813
-2.234982 0.726190 -1.000000 -0.972370 0.233446 0.000000 1.000000 0.863095
-2.321066 0.367626 -1.000000 -0.972370 0.233446 0.000000 1.000000 0.683813
-2.234982 0.726190 1.000000 -0.029921 0.999552 0.000000 0.382509 0.000000
-1.470161 0.749084 -1.000000 -0.029921 0.999552 0.000000 0.764920 1.000000
-2.234982 0.726190 -1.000000 -0.029921 0.999552 0.000000 0.382509 1.000000
-1.629686 -0.258117 1.000000 -0.996917 -0.078458 0.000000 0.000000 0.370942
-1.650000 0.000003 -1.000000 -0.996917 -0.078458 0.000000 1.000000 0.500002
-1.629686 -0.258117 -1.000000 -0.996917 -0.078458 0.000000 1.000000 0.370942
-1.650000 0.000003 1.000000 -0.480449 -0.877023 0.000000 0.675000 0.000000
-2.321066 0.367626 -1.000000 -0.480449 -0.877023 0.000000 0.339467 1.000000
-1.650000 0.000003 -1.000000 -0.480449 -0.877023 0.000000 0.675000 1.000000
-1.650000 0.000003 1.000000 -0.000000 0.000000 1.000000 0.007360 0.500001
-0.493844 -0.078217 1.000000 -0.000000 0.000000 1.000000 0.352553 0.476934
-2.234982 0.726190 1.000000 0.000000 0.000000 1.000000 -0.167298 0.714149
-2.321066 0.367626 1.000000 0.000000 0.000000 1.000000 -0.193000 0.608411
-1.629686 -0.258117 1.000000 -0.000000 0.000000 1.000000 0.013425 0.423883
-0.353554 -0.353553 1.000000 0.439192 0.439192 0.783685 -1.000000 0.323224
-0.353554 -0.353553 -1.000000 0.439192 0.439192 -0.783685 0.000000 0.323224
-2.093867 -1.066873 1.000000 -0.923880 -0.382683 0.000000 0.000000 0.966563
-2.234983 -0.726190 -1.000000 -0.923880 -0.382683 0.000000 1.000000 1.136905
-2.093867 -1.066873 -1.000000 -0.923880 -0.382683 0.000000 1.000000 0.966563
-2.234983 -0.726190 1.000000 -0.611729 0.791068 0.000000 0.382509 0.000000
-1.629686 -0.258117 -1.000000 -0.611729 0.791068 0.000000 0.685157 1.000000
-2.234983 -0.726190 -1.000000 -0.611729 0.791068 0.000000 0.382509 1.000000
-1.166726 -1.166726 1.000000 -0.760407 -0.649447 0.000000 0.000000 0.916637
-1.334880 -0.969843 -1.000000 -0.760407 -0.649447 0.000000 1.000000 1.015079
-1.166726 -1.166726 -1.000000 -0.760407 -0.649447 0.000000 1.000000 0.916637
-1.334880 -0.969843 1.000000 0.126810 -0.991927 -0.000000 0.832560 0.000000
-2.093867 -1.066873 -1.000000 0.126810 -0.991927 -0.000000 0.453066 1.000000
-1.334880 -0.969843 -1.000000 0.126810 -0.991927 -0.000000 0.832560 1.000000
-1.334880 -0.969843 1.000000 -0.000000 -0.000000 1.000000 0.101445 0.214000
-0.353554 -0.353553 1.000000 -0.000000 -0.000000 1.000000 0.394439 0.395740
-2.234983 -0.726190 1.000000 -0.000000 -0.000000 1.000000 -0.167298 0.285851
-2.093867 -1.066873 1.000000 -0.000000 -0.000000 1.000000 -0.125165 0.185386
-1.166726 -1.166726 1.000000 -0.000000 -0.000000 1.000000 0.151651 0.155940
-0.353554 -0.353553 -1.000000 0.439192 0.439192 -0.783685 0.323223 0.000000
-0.078218 -0.493844 1.000000 0.097140 0.613453 0.783685 0.460891 -1.000000
-0.078218 -0.493844 -1.000000 0.097140 0.613453 -0.783685 0.460891 0.000000
-1.066882 -2.093863 1.000000 -0.522499 -0.852640 0.000000 0.966559 0.000000
-1.381295 -1.901190 -1.000000 -0.522499 -0.852640 0.000000 0.809352 1.000000
-1.066882 -2.093863 -1.000000 -0.522499 -0.852640 0.000000 0.966559 1.000000
-1.381295 -1.901190 1.000000 -0.959877 0.280422 -0.000000 0.000000 0.549405
-1.166726 -1.166726 -1.000000 -0.959877 0.280422 -0.000000 1.000000 0.916637
-1.381295 -1.901190 -1.000000 -0.959877 0.280422 -0.000000 1.000000 0.549405
-0.258120 -1.629685 1.000000 -0.233447 -0.972370 0.000000 0.370940 0.000000
-0.509881 -1.569242 -1.000000 -0.233447 -0.972370 0.000000 0.245059 1.000000
-0.258120 -1.629685 -1.000000 -0.233447 -0.972370 0.000000 0.370940 1.000000
-0.509881 -1.569242 1.000000 0.685631 -0.727949 0.000000 0.245059 0.000000
-1.066882 -2.093863 -1.000000 0.685631 -0.727949 0.000000 -0.033441 1.000000
-0.509881 -1.569242 -1.000000 0.685631 -0.727949 0.000000 0.245059 1.000000
-0.509881 -1.569242 1.000000 -0.000000 -0.000000 1.000000 0.347765 0.037241
-0.078218 -0.493844 1.000000 -0.000000 -0.000000 1.000000 0.476646 0.354369
-1.381295 -1.901190 1.000000 0.000000 -0.000000 1.000000 0.087587 -0.060649
-1.066882 -2.093863 1.000000 0.000000 -0.000000 1.000000 0.181461 -0.117467
-0.258120 -1.629685 1.000000 -0.000000 -0.000000 1.000000 0.422933 0.019416
0.226994 -0.445504 1.000000 -0.281961 0.553423 0.783685 0.613497 -1.000000
0.226994 -0.445504 -1.000000 -0.281961 0.553423 -0.783685 0.613497 0.000000
0.367616 -2.321068 1.000000 0.078458 -0.996917 0.000000 0.683808 0.000000
0.000000 -2.350000 -1.000000 0.078458 -0.996917 0.000000 0.500000 1.000000
0.367616 -2.321068 -1.000000 0.078458 -0.996917 0.000000 0.683808 1.000000
0.000000 -2.350000 1.000000 -0.941383 -0.337338 0.000000 0.000000 0.325000
-0.258120 -1.629685 -1.000000 -0.941383 -0.337338 0.000000 1.000000 0.685157
0.000000 -2.350000 -1.000000 -0.941383 -0.337338 0.000000 1.000000 0.325000
0.749082 -1.470162 1.000000 0.382682 -0.923880 0.000000 0.874541 0.000000
0.509875 -1.569244 -1.000000 0.382682 -0.923880 0.000000 0.754938 1.000000
0.749082 -1.470162 -1.000000 0.382682 -0.923880 0.000000 0.874541 1.000000
0.509875 -1.569244 1.000000 0.982565 -0.185919 0.000000 0.000000 0.715378
0.367616 -2.321068 -1.000000 0.982565 -0.185919 0.000000 1.000000 0.339466
0.509875 -1.569244 -1.000000 0.982565 -0.185919 0.000000 1.000000 0.715378
0.509875 -1.569244 1.000000 0.000000 -0.000000 1.000000 0.652233 0.037240
0.226994 -0.445504 1.000000 0.000000 -0.000000 1.000000 0.567774 0.368624
0.000000 -2.350000 1.000000 0.000000 -0.000000 1.000000 0.500000 -0.193000
0.367616 -2.321068 1.000000 0.000000 -0.000000 1.000000 0.609759 -0.184468
0.749082 -1.470162 1.000000 0.000000 -0.000000 1.000000 0.723653 0.066459
0.445503 -0.226996 1.000000 -0.553423 0.281961 0.783685 0.722751 -1.000000
0.445503 -0.226996 -1.000000 -0.553423 0.281961 -0.783685 0.722751 0.000000
1.661697 -1.661704 1.000000 0.649448 -0.760406 0.000000 0.330849 0.000000
1.381295 -1.901190 -1.000000 0.649448 -0.760406 0.000000 0.190648 1.000000
1.661697 -1.661704 -1.000000 0.649448 -0.760406 0.000000 0.330849 1.000000
1.381295 -1.901190 1.000000 -0.563313 -0.826244 0.000000 0.190648 0.000000
0.749082 -1.470162 -1.000000 -0.563313 -0.826244 0.000000 -0.125459 1.000000
1.381295 -1.901190 -1.000000 -0.563313 -0.826244 0.000000 0.190648 1.000000
1.470159 -0.749087 1.000000 0.852639 -0.522500 0.000000 0.000000 0.125457
1.334876 -0.969848 -1.000000 0.852639 -0.522500 0.000000 1.000000 0.015076
1.470159 -0.749087 -1.000000 0.852639 -0.522500 0.000000 1.000000 0.125457
1.334876 -0.969848 1.000000 0.904192 0.427126 0.000000 0.000000 0.015076
1.661697 -1.661704 -1.000000 0.904192 0.427126 0.000000 1.000000 -0.330852
1.334876 -0.969848 -1.000000 0.904192 0.427126 0.000000 1.000000 0.015076
1.334876 -0.969848 1.000000 0.000000 -0.000000 1.000000 0.898553 0.213998
0.445503 -0.226996 1.000000 0.000000 -0.000000 1.000000 0.633014 0.433060
1.381295 -1.901190 1.000000 0.000000 0.000000 1.000000 0.912413 -0.060649
1.661697 -1.661704 1.000000 0.000000 0.000000 1.000000 0.996132 0.009974
1.470159 -0.749087 1.000000 0.000000 -0.000000 1.000000 0.938945 0.279099
0.445503 -0.226996 -1.000000 -0.553423 0.281961 -0.783685 0.000000 0.386502
0.493844 0.078216 1.000000 -0.613453 -0.097140 0.783685 -1.000000 0.539108
0.493844 0.078216 -1.000000 -0.613453 -0.097140 -0.783685 0.000000 0.539108
2.321066 -0.367625 1.000000 0.972370 -0.233446 0.000000 0.000000 0.316187
2.234982 -0.726190 -1.000000 0.972370 -0.233446 0.000000 1.000000 0.136905
2.321066 -0.367625 -1.000000 0.972370 -0.233446 0.000000 1.000000 0.316187
2.234982 -0.726190 1.000000 0.029924 -0.999552 0.000000 0.617491 0.000000
1.470159 -0.749087 -1.000000 0.029924 -0.999552 0.000000 0.235080 1.000000
2.234982 -0.726190 -1.000000 0.029924 -0.999552 0.000000 0.617491 1.000000
1.629686 0.258114 1.000000 0.996917 0.078458 0.000000 0.000000 0.629057
1.650000 -0.000003 -1.000000 0.996917 0.078458 0.000000 1.000000 0.499998
1.629686 0.258114 -1.000000 0.996917 0.078458 0.000000 1.000000 0.629057
1.650000 -0.000003 1.000000 0.480449 0.877023 0.000000 0.325000 0.000000
2.321066 -0.367625 -1.000000 0.480449 0.877023 0.000000 0.660533 1.000000
1.650000 -0.000003 -1.000000 0.480449 0.877023 0.000000 0.325000 1.000000
1.650000 -0.000003 1.000000 0.000000 0.000000 1.000000 0.992640 0.499999
0.493844 0.078216 1.000000 0.000000 0.000000 1.000000 0.647447 0.523066
2.234982 -0.726190 1.000000 0.000000 -0.000000 1.000000 1.167298 0.285851
2.321066 -0.367625 1.000000 0.000000 -0.000000 1.000000 1.193000 0.391590
1.629686 0.258114 1.000000 0.000000 0.000000 1.000000 0.986574 0.576116
0.353554 0.353553 1.000000 -0.439192 -0.439192 0.783685 -1.000000 0.676776
0.353554 0.353553 -1.000000 -0.439192 -0.439192 -0.783685 0.000000 0.676776
2.093867 1.066873 1.000000 0.923880 0.382683 0.000000 0.000000 0.033437
2.234983 0.726190 -1.000000 0.923880 0.382683 0.000000 1.000000 -0.136905
2.093867 1.066874 -1.000000 0.923880 0.382683 0.000000 1.000000 0.033437
2.234983 0.726190 1.000000 0.611731 -0.791066 0.000000 0.617491 0.000000
1.629686 0.258114 -1.000000 0.611731 -0.791066 0.000000 0.314843 1.000000
2.234983 0.726190 -1.000000 0.611731 -0.791066 0.000000 0.617491 1.000000
1.166728 1.166724 1.000000 0.760407 0.649447 0.000000 0.000000 0.083362
1.334880 0.969843 -1.000000 0.760407 0.649447 0.000000 1.000000 -0.015078
1.166728 1.166724 -1.000000 0.760407 0.649447 0.000000 1.000000 0.083362
1.334880 0.969843 1.000000 -0.126810 0.991927 0.000000 0.167440 0.000000
2.093867 1.066874 -1.000000 -0.126810 0.991927 0.000000 0.546934 1.000000
1.334880 0.969843 -1.000000 -0.126810 0.991927 0.000000 0.167440 1.000000
1.334880 0.969843 1.000000 -0.000000 0.000000 1.000000 0.898554 0.786000
0.353554 0.353553 1.000000 -0.000000 0.000000 1.000000 0.605560 0.604261
2.234983 0.726190 1.000000 0.000000 -0.000000 1.000000 1.167298 0.714149
2.093867 1.066873 1.000000 0.000000 -0.000000 1.000000 1.125165 0.814614
1.166728 1.166724 1.000000 0.000000 0.000000 1.000000 0.848349 0.844060
0.353554 0.353553 -1.000000 -0.439192 -0.439192 -0.783685 0.676777 0.000000
0.078217 0.493844 1.000000 -0.097140 -0.613453 0.783685 0.539109 -1.000000
1.066882 2.093863 1.000000 0.522498 0.852640 0.000000 0.033441 0.000000
1.381295 1.901190 -1.000000 0.522498 0.852640 0.000000 0.190648 1.000000
1.066882 2.093863 -1.000000 0.522498 0.852640 0.000000 0.033441 1.000000
1.381295 1.901190 1.000000 0.959878 -0.280419 -0.000000 0.000000 0.450595
1.166728 1.166724 -1.000000 0.959878 -0.280419 -0.000000 1.000000 0.083362
1.381295 1.901190 -1.000000 0.959878 -0.280419 -0.000000 1.000000 0.450595
0.258117 1.629686 1.000000 0.233447 0.972370 0.000000 0.629058 0.000000
0.509881 1.569242 -1.000000 0.233447 0.972370 0.000000 0.754941 1.000000
0.258117 1.629686 -1.000000 0.233447 0.972370 0.000000 0.629058 1.000000
0.509881 1.569242 1.000000 -0.685632 0.727949 0.000000 0.754941 0.000000
1.066882 2.093863 -1.000000 -0.685632 0.727949 0.000000 1.033441 1.000000
0.509881 1.569242 -1.000000 -0.685632 0.727949 0.000000 0.754941 1.000000
0.509881 1.569242 1.000000 -0.000000 -0.000000 1.000000 0.652235 0.962760
1.381295 1.901190 1.000000 -0.000000 -0.000000 1.000000 0.912413 1.060649
1.066882 2.093863 1.000000 -0.000000 -0.000000 1.000000 0.818538 1.117467
0.000000 2.350000 1.000000 -0.078458 0.996917 0.000000 0.500000 0.000000
0.258117 1.629686 1.000000 0.941385 0.337335 0.000000 0.000000 0.314843
-0.509875 1.569244 1.000000 -0.382682 0.923880 0.000000 0.245063 0.000000
-0.367616 2.321068 1.000000 -0.982565 0.185919 0.000000 0.000000 0.660534
-1.661697 1.661704 1.000000 -0.649447 0.760406 -0.000000 0.669151 0.000000
-1.381295 1.901190 1.000000 -0.649447 0.760406 -0.000000 0.809352 0.000000
-1.381295 1.901190 -1.000000 -0.649447 0.760406 -0.000000 0.809352 1.000000
-1.381295 1.901190 1.000000 0.563316 0.826242 0.000000 0.809352 0.000000
-0.749084 1.470161 1.000000 0.563316 0.826242 0.000000 1.125458 0.000000
-0.749084 1.470161 -1.000000 0.563316 0.826242 0.000000 1.125458 1.000000
-1.334876 0.969848 1.000000 -0.852639 0.522500 0.000000 0.000000 0.984924
-1.661697 1.661704 1.000000 -0.904192 -0.427126 0.000000 0.000000 1.330852
-0.445503 0.226995 1.000000 0.553423 -0.281961 0.783685 -1.000000 0.613498
-2.234982 0.726190 1.000000 -0.972370 0.233446 0.000000 0.000000 0.863095
-1.470161 0.749084 1.000000 -0.029921 0.999552 0.000000 0.764920 0.000000
-1.650000 0.000003 1.000000 -0.996917 -0.078458 0.000000 0.000000 0.500002
-2.321066 0.367626 1.000000 -0.480449 -0.877023 0.000000 0.339467 0.000000
-2.093867 -1.066873 1.000000 -0.923879 -0.382684 0.000000 0.000000 0.966563
-2.234983 -0.726190 1.000000 -0.923879 -0.382684 0.000000 0.000000 1.136905
-2.234983 -0.726190 -1.000000 -0.923879 -0.382684 0.000000 1.000000 1.136905
-1.629686 -0.258117 1.000000 -0.611729 0.791068 0.000000 0.685157 0.000000
-1.334880 -0.969843 1.000000 -0.760407 -0.649447 -0.000000 0.000000 1.015079
-1.334880 -0.969843 1.000000 0.126809 -0.991927 0.000000 0.832560 0.000000
-2.093867 -1.066873 1.000000 0.126809 -0.991927 0.000000 0.453066 0.000000
-2.093867 -1.066873 -1.000000 0.126809 -0.991927 0.000000 0.453066 1.000000
-0.353554 -0.353553 1.000000 0.439192 0.439192 0.783685 0.323223 -1.000000
-1.381295 -1.901190 1.000000 -0.522499 -0.852640 0.000000 0.809352 0.000000
-1.166726 -1.166726 1.000000 -0.959877 0.280422 -0.000000 0.000000 0.916637
-0.509881 -1.569242 1.000000 -0.233447 -0.972370 0.000000 0.245059 0.000000
-1.066882 -2.093863 1.000000 0.685631 -0.727949 0.000000 -0.033441 0.000000
0.000000 -2.350000 1.000000 0.078458 -0.996917 0.000000 0.500000 0.000000
-0.258120 -1.629685 1.000000 -0.941383 -0.337338 0.000000 0.000000 0.685157
0.509875 -1.569244 1.000000 0.382682 -0.923880 0.000000 0.754938 0.000000
0.367616 -2.321068 1.000000 0.982565 -0.185919 0.000000 0.000000 0.339466
1.381295 -1.901190 1.000000 0.649448 -0.760406 0.000000 0.190648 0.000000
0.749082 -1.470162 1.000000 -0.563313 -0.826244 0.000000 -0.125459 0.000000
1.334876 -0.969848 1.000000 0.852639 -0.522500 0.000000 0.000000 0.015076
1.661697 -1.661704 1.000000 0.904192 0.427126 -0.000000 0.000000 -0.330852
0.445503 -0.226996 1.000000 -0.553423 0.281961 0.783685 -1.000000 0.386502
2.234982 -0.726190 1.000000 0.972370 -0.233446 0.000000 0.000000 0.136905
1.470159 -0.749087 1.000000 0.029924 -0.999552 0.000000 0.235080 0.000000
1.650000 -0.000003 1.000000 0.996917 0.078458 0.000000 0.000000 0.499998
2.321066 -0.367625 1.000000 0.480449 0.877023 -0.000000 0.660533 0.000000
2.234983 0.726190 1.000000 0.923880 0.382683 -0.000000 0.000000 -0.136905
1.629686 0.258114 1.000000 0.611731 -0.791066 -0.000000 0.314843 0.000000
1.334880 0.969843 1.000000 0.760407 0.649447 -0.000000 0.000000 -0.015078
2.093867 1.066873 1.000000 -0.126810 0.991927 0.000000 0.546934 0.000000
0.353554 0.353553 1.000000 -0.439192 -0.439192 0.783685 0.676777 -1.000000
1.381295 1.901190 1.000000 0.522498 0.852640 0.000000 0.190648 0.000000
1.166728 1.166724 1.000000 0.959878 -0.280419 0.000000 0.000000 0.083362
0.258117 1.629686 1.000000 0.233446 0.972370 -0.000000 0.629058 0.000000
0.509881 1.569242 1.000000 0.233446 0.972370 -0.000000 0.754941 0.000000
0.509881 1.569242 -1.000000 0.233446 0.972370 -0.000000 0.754941 1.000000
1.066882 2.093863 1.000000 -0.685632 0.727949 0.000000 1.033441 0.000000
0.078217 0.493844 -1.000000 -0.000000 0.000000 -1.000000 0.523353 0.645632
-0.226995 0.445503 -1.000000 -0.000000 0.000000 -1.000000 0.432226 0.631376
-0.509875 1.569244 -1.000000 -0.000000 0.000000 -1.000000 0.347767 0.962760
0.258117 1.629686 -1.000000 -0.000000 0.000000 -1.000000 0.577066 0.980584
-0.367616 2.321068 -1.000000 -0.000000 0.000000 -1.000000 0.390241 1.184468
0.000000 2.350000 -1.000000 -0.000000 0.000000 -1.000000 0.500000 1.193000
-0.749084 1.470161 -1.000000 -0.000000 0.000000 -1.000000 0.276346 0.933541
-0.445503 0.226995 -1.000000 -0.000000 0.000000 -1.000000 0.366986 0.566939
-1.334876 0.969848 -1.000000 -0.000000 0.000000 -1.000000 0.101447 0.786002
-1.661697 1.661704 -1.000000 0.000000 -0.000000 -1.000000 0.003868 0.990026
-1.381295 1.901190 -1.000000 0.000000 -0.000000 -1.000000 0.087587 1.060649
-1.470161 0.749084 -1.000000 -0.000000 0.000000 -1.000000 0.061055 0.720900
-0.493844 -0.078217 -1.000000 -0.000000 0.000000 -1.000000 0.352553 0.476934
-1.650000 0.000003 -1.000000 -0.000000 0.000000 -1.000000 0.007360 0.500001
-2.321066 0.367626 -1.000000 0.000000 -0.000000 -1.000000 -0.193000 0.608410
-2.234982 0.726190 -1.000000 0.000000 -0.000000 -1.000000 -0.167298 0.714149
-1.629686 -0.258117 -1.000000 -0.000000 0.000000 -1.000000 0.013425 0.423883
-0.353554 -0.353553 -1.000000 -0.000000 -0.000000 -1.000000 0.394439 0.395740
-1.334880 -0.969843 -1.000000 -0.000000 -0.000000 -1.000000 0.101445 0.214000
-2.093867 -1.066873 -1.000000 0.000000 -0.000000 -1.000000 -0.125165 0.185386
-2.234983 -0.726190 -1.000000 0.000000 -0.000000 -1.000000 -0.167298 0.285851
-1.166726 -1.166726 -1.000000 0.000000 -0.000000 -1.000000 0.151651 0.155940
-0.078218 -0.493844 -1.000000 -0.000000 -0.000000 -1.000000 0.476646 0.354368
-0.509881 -1.569242 -1.000000 -0.000000 -0.000000 -1.000000 0.347765 0.037241
-1.166726 -1.166726 -1.000000 0.000001 0.000000 -1.000000 0.151651 0.155940
-1.066882 -2.093863 -1.000000 0.000001 0.000000 -1.000000 0.181461 -0.117467
-1.381295 -1.901190 -1.000000 0.000001 0.000000 -1.000000 0.087587 -0.060649
-1.066882 -2.093863 -1.000000 -0.000000 -0.000000 -1.000000 0.181461 -0.117467
-0.258120 -1.629685 -1.000000 -0.000000 -0.000000 -1.000000 0.422933 0.019416
0.226994 -0.445504 -1.000000 0.000000 -0.000000 -1.000000 0.567774 0.368624
0.509875 -1.569244 -1.000000 0.000000 -0.000000 -1.000000 0.652233 0.037240
0.367616 -2.321068 -1.000000 0.000000 -0.000000 -1.000000 0.609759 -0.184468
0.000000 -2.350000 -1.000000 0.000000 -0.000000 -1.000000 0.500000 -0.193000
0.749082 -1.470162 -1.000000 0.000000 -0.000000 -1.000000 0.723653 0.066458
0.445503 -0.226996 -1.000000 0.000000 -0.000000 -1.000000 0.633014 0.433060
1.334876 -0.969848 -1.000000 0.000000 -0.000000 -1.000000 0.898553 0.213998
1.661697 -1.661704 -1.000000 0.000000 0.000000 -1.000000 0.996132 0.009974
1.381295 -1.901190 -1.000000 0.000000 0.000000 -1.000000 0.912413 -0.060649
1.470159 -0.749087 -1.000000 0.000000 -0.000000 -1.000000 0.938945 0.279099
0.493844 0.078216 -1.000000 0.000000 -0.000000 -1.000000 0.647447 0.523066
1.650000 -0.000003 -1.000000 0.000000 -0.000000 -1.000000 0.992640 0.499999
2.321066 -0.367625 -1.000000 0.000000 -0.000000 -1.000000 1.193000 0.391589
2.234982 -0.726190 -1.000000 0.000000 -0.000000 -1.000000 1.167298 0.285851
1.629686 0.258114 -1.000000 0.000000 -0.000000 -1.000000 0.986574 0.576116
0.353554 0.353553 -1.000000 0.000000 -0.000000 -1.000000 0.605560 0.604261
1.334880 0.969843 -1.000000 0.000000 -0.000000 -1.000000 0.898554 0.786000
2.093867 1.066874 -1.000000 -0.000000 0.000000 -1.000000 1.125165 0.814614
2.234983 0.726190 -1.000000 -0.000000 0.000000 -1.000000 1.167298 0.714149
1.166728 1.166724 -1.000000 -0.000000 0.000000 -1.000000 0.848349 0.844060
0.509881 1.569242 -1.000000 0.000000 0.000000 -1.000000 0.652235 0.962760
1.066882 2.093863 -1.000000 -0.000000 0.000000 -1.000000 0.818538 1.117467
1.381295 1.901190 -1.000000 -0.000000 0.000000 -1.000000 0.912413 1.060649
3 0 1 2
3 3 4 5
3 6 7 8
3 9 10 11
3 12 13 14
3 15 16 17
3 18 19 20
3 16 18 20
3 17 16 21
3 2 22 23
3 24 25 26
3 27 28 29
3 30 31 32
3 33 34 35
3 17 36 37
3 21 38 39
3 36 21 39
3 37 36 40
3 41 42 43
3 44 45 46
3 47 48 49
3 50 51 52
3 53 54 55
3 37 56 57
3 40 58 59
3 56 40 59
3 57 56 60
3 43 61 62
3 63 64 65
3 66 67 68
3 69 70 71
3 72 73 74
3 57 75 76
3 60 77 78
3 75 60 78
3 76 75 79
3 80 81 82
3 83 84 85
3 86 87 88
3 89 90 91
3 92 93 94
3 76 95 96
3 79 97 98
3 95 79 98
3 96 95 99
3 82 100 101
3 102 103 104
3 105 106 107
3 108 109 110
3 111 112 113
3 96 114 115
3 99 116 117
3 114 99 117
3 115 114 118
3 101 119 120
3 121 122 123
3 124 125 126
3 127 128 129
3 130 131 132
3 115 133 134
3 118 135 136
3 133 118 136
3 134 133 137
3 138 139 140
3 141 142 143
3 144 145 146
3 147 148 149
3 150 151 152
3 134 153 154
3 137 155 156
3 153 137 156
3 154 153 157
3 140 158 159
3 160 161 162
3 163 164 165
3 166 167 168
3 169 170 171
3 154 172 173
3 157 174 175
3 172 157 175
3 173 172 176
3 177 178 0
3 179 180 181
3 182 183 184
3 185 186 187
3 188 189 190
3 173 191 15
3 176 192 193
3 191 176 193
3 15 191 18
3 0 178 1
3 3 194 4
3 6 195 7
3 9 196 10
3 12 197 13
3 15 18 16
3 2 1 22
3 198 199 200
3 201 202 203
3 30 204 31
3 33 205 34
3 17 21 36
3 41 206 42
3 44 207 45
3 47 208 48
3 50 209 51
3 53 210 54
3 37 40 56
3 43 42 61
3 211 212 213
3 66 214 67
3 69 215 70
3 216 217 218
3 57 60 75
3 80 219 81
3 83 220 84
3 86 221 87
3 89 222 90
3 92 223 93
3 76 79 95
3 82 81 100
3 102 224 103
3 105 225 106
3 108 226 109
3 111 227 112
3 96 99 114
3 101 100 119
3 121 228 122
3 124 229 125
3 127 230 128
3 130 231 131
3 115 118 133
3 138 232 139
3 141 233 142
3 144 234 145
3 147 235 148
3 150 236 151
3 134 137 153
3 140 139 158
3 160 237 161
3 163 238 164
3 166 239 167
3 169 240 170
3 154 157 172
3 177 241 178
3 179 242 180
3 182 243 183
3 244 245 246
3 188 247 189
3 173 176 191
3 248 249 250
3 251 252 253
3 250 252 251
3 249 254 250
3 249 255 256
3 254 257 258
3 256 257 254
3 255 259 256
3 255 260 261
3 259 262 263
3 261 262 259
3 260 264 261
3 260 265 266
3 264 267 268
3 266 267 264
3 265 269 266
3 265 270 271
3 272 273 274
3 271 275 269
3 270 276 271
3 270 277 278
3 276 279 280
3 278 279 276
3 277 281 278
3 277 282 283
3 281 284 285
3 283 284 281
3 282 286 283
3 282 287 288
3 286 289 290
3 288 289 286
3 287 291 288
3 287 292 293
3 291 294 295
3 293 294 291
3 292 296 293
3 292 248 297
3 296 298 299
3 297 298 296
3 248 251 297
3 248 250 251
3 249 256 254
3 255 261 259
3 260 266 264
3 265 271 269
3 270 278 276
3 277 283 281
3 282 288 286
3 287 293 291
3 292 297 296
