ply
format ascii 1.0
comment Created by Blender 2.79 (sub 0) - www.blender.org, source file: 'untitled.blend'
element vertex 22
property float x
property float y
property float z
element face 40
property list uchar uint vertex_indices
end_header
0.500000 -0.000000 0.250000
0.000000 -0.000000 0.250000
0.809017 -0.587786 0.250000
0.809017 0.587785 0.250000
0.154509 0.475528 0.250000
-0.309017 0.951057 0.250000
-0.404509 0.293893 0.250000
-1.000000 0.000000 0.250000
-0.404509 -0.293893 0.250000
-0.309017 -0.951057 0.250000
0.154509 -0.475528 0.250000
0.809017 -0.587786 -0.250000
0.500000 0.000000 -0.250000
0.809017 0.587785 -0.250000
0.154509 0.475528 -0.250000
-0.309017 0.951057 -0.250000
-0.404509 0.293893 -0.250000
-1.000000 0.000000 -0.250000
-0.404509 -0.293893 -0.250000
-0.309017 -0.951057 -0.250000
0.154509 -0.475528 -0.250000
0.000000 0.000000 -0.250000
3 0 1 2
3 1 0 3
3 1 3 4
3 1 4 5
3 1 5 6
3 1 6 7
3 1 7 8
3 1 8 9
3 1 9 10
3 1 10 2
3 0 11 12
3 12 3 0
3 13 4 3
3 14 5 4
3 15 6 5
3 16 7 6
3 17 8 7
3 18 9 8
3 19 10 9
3 20 2 10
3 21 12 11
3 12 21 13
3 13 21 14
3 14 21 15
3 15 21 16
3 16 21 17
3 17 21 18
3 18 21 19
3 19 21 20
3 20 21 11
3 0 2 11
3 12 13 3
3 13 14 4
3 14 15 5
3 15 16 6
3 16 17 7
3 17 18 8
3 18 19 9
3 19 20 10
3 20 11 2
