ply
format ascii 1.0
comment Created by Blender 2.79 (sub 0) - www.blender.org, source file: 'untitled.blend'
element vertex 192
property float x
property float y
property float z
property float s
property float t
property uchar red
property uchar green
property uchar blue
element face 380
property list uchar uint vertex_indices
end_header
0.401404 0.012530 -1.104505 0.362964 0.865811 0 0 255
-0.401404 0.012530 -1.104505 0.080757 0.747014 255 255 255
0.000000 0.196091 -1.043704 0.237172 0.904481 255 255 255
-0.038500 0.201308 -1.033902 0.226106 0.899903 255 255 255
-0.454347 0.011142 -1.096891 0.064064 0.736770 255 255 255
-0.703855 0.201308 -0.758303 0.061619 0.744517 255 255 255
0.470567 -0.463227 -0.470567 0.546917 0.458369 0 0 255
0.470567 -0.009538 -1.084404 0.392339 0.858594 0 0 255
1.084404 -0.009538 -0.470567 0.762696 0.822631 255 255 255
1.064838 0.012530 -0.497167 0.749120 0.838530 255 255 255
0.497167 0.012530 -1.064838 0.406617 0.871789 0 0 255
0.738010 0.196091 -0.738010 0.573582 0.950545 255 255 255
0.652015 -0.471754 -0.020706 0.723986 0.387155 0 0 255
0.475686 -0.471754 -0.446403 0.554802 0.448996 0 0 255
1.077712 -0.026794 -0.446403 0.766429 0.806249 255 255 255
0.665482 -0.463227 0.000000 0.733934 0.390010 0 0 255
1.099530 -0.009538 -0.434048 0.777210 0.817326 255 255 255
1.099530 -0.009538 0.434048 0.995816 0.638008 0 0 255
1.033902 0.201308 -0.038500 0.853748 0.852980 255 255 255
1.096891 0.011142 -0.454347 0.771170 0.833592 255 255 255
0.758303 0.201308 -0.703855 0.589316 0.949636 255 255 255
0.676958 0.408858 -0.280405 0.667356 0.975215 255 255 255
1.015546 0.218692 -0.030897 0.849210 0.859170 255 255 255
0.739947 0.218692 -0.696252 0.584778 0.955827 255 255 255
1.104505 0.012530 0.401404 0.989344 0.658787 0 0 255
1.104505 0.012530 -0.401404 0.787179 0.824619 255 255 255
1.043704 0.196091 0.000000 0.866888 0.843334 255 255 255
0.475686 -0.471754 0.446403 0.779630 0.264574 0 0 255
0.652015 -0.471754 0.020706 0.734415 0.378601 0 0 255
1.077712 -0.026794 0.446403 0.991258 0.621827 0 0 255
0.470567 -0.463227 0.470567 0.783916 0.263965 0 0 255
1.084404 -0.009538 0.470567 0.999695 0.628226 0 0 255
0.470567 -0.009538 1.084404 0.938494 0.410596 255 255 255
0.758303 0.201308 0.703855 0.943809 0.658854 255 255 255
1.096891 0.011142 0.454347 1.000000 0.645888 0 0 255
1.033902 0.201308 0.038500 0.873138 0.837074 255 255 255
0.676958 0.408858 0.280405 0.808580 0.859372 255 255 255
0.739947 0.218692 0.696252 0.935442 0.668185 255 255 255
1.015546 0.218692 0.030897 0.864771 0.846406 255 255 255
0.497167 0.012530 1.064838 0.942917 0.431874 255 255 255
1.064838 0.012530 0.497167 0.999516 0.633136 0 0 255
0.738010 0.196091 0.738010 0.945277 0.645652 255 255 255
0.020706 -0.471754 0.652015 0.671471 0.154776 0 0 255
0.446403 -0.471754 0.475686 0.776711 0.254192 0 0 255
0.446403 -0.026794 1.077712 0.928314 0.398002 255 255 255
0.000000 -0.463227 0.665482 0.667584 0.154069 0 0 255
0.434048 -0.009538 1.099530 0.929466 0.402067 255 255 255
-0.434048 -0.009538 1.099530 0.624308 0.273609 0 0 255
0.038500 0.201308 1.033902 0.773894 0.484163 255 255 255
0.454347 0.011142 1.096891 0.935936 0.418080 255 255 255
0.703855 0.201308 0.758303 0.938381 0.639550 255 255 255
0.280405 0.408858 0.676958 0.769043 0.718777 255 255 255
0.030897 0.218692 1.015546 0.766598 0.497307 255 255 255
0.696252 0.218692 0.739947 0.931086 0.652693 255 255 255
-0.401404 0.012530 1.104505 0.637035 0.290712 0 0 255
0.401404 0.012530 1.104505 0.919243 0.409509 255 255 255
-0.000000 0.196091 1.043704 0.762828 0.473298 255 255 255
-0.446403 -0.471754 0.475686 0.462867 0.122077 0 0 255
-0.020706 -0.471754 0.652015 0.656914 0.148648 0 0 255
-0.446403 -0.026794 1.077712 0.614470 0.265887 0 0 255
-0.703855 0.201308 0.758303 0.443535 0.431241 255 255 255
-0.454347 0.011142 1.096891 0.616507 0.283614 0 0 255
-0.038500 0.201308 1.033902 0.746826 0.472769 255 255 255
-0.280405 0.408858 0.676958 0.571903 0.635790 255 255 255
-0.696252 0.218692 0.739947 0.441585 0.446635 255 255 255
-0.030897 0.218692 1.015546 0.744876 0.488163 255 255 255
-0.470567 -0.463227 0.470567 0.453083 0.124698 0 0 255
-0.470567 -0.009538 1.084404 0.607661 0.271329 0 0 255
-1.084404 -0.009538 0.470567 0.237304 0.307292 255 255 255
-1.064838 0.012530 0.497167 0.250880 0.317993 255 255 255
-0.497167 0.012530 1.064838 0.593383 0.284735 0 0 255
-0.738010 0.196091 0.738010 0.426418 0.427234 255 255 255
-0.652015 -0.471754 0.020706 0.276014 0.185634 0 0 255
-0.475686 -0.471754 0.446403 0.445199 0.123793 0 0 255
-1.077712 -0.026794 0.446403 0.233571 0.302874 255 255 255
-0.665482 -0.463227 0.000000 0.266066 0.193058 0 0 255
-1.099530 -0.009538 0.434048 0.222790 0.312597 255 255 255
-1.099530 -0.009538 -0.434048 0.004184 0.491915 0 0 255
-1.033902 0.201308 0.038500 0.146252 0.531087 255 255 255
-1.096891 0.011142 0.454347 0.228830 0.321258 255 255 255
-0.758303 0.201308 0.703855 0.410684 0.434431 255 255 255
-0.676958 0.408858 0.280405 0.332644 0.659023 255 255 255
-1.015546 0.218692 0.030897 0.150790 0.545851 255 255 255
-0.739947 0.218692 0.696252 0.415221 0.449195 255 255 255
-1.104505 0.012530 -0.401404 0.010656 0.497736 0 0 255
-1.104505 0.012530 0.401404 0.212821 0.331904 255 255 255
-1.043704 0.196091 -0.000000 0.133111 0.534445 255 255 255
-0.475686 -0.471754 -0.446403 0.220370 0.308215 0 0 255
-0.652015 -0.471754 -0.020706 0.265586 0.194188 0 0 255
-1.077712 -0.026794 -0.446403 0.008742 0.487295 0 0 255
-0.758303 0.201308 -0.703855 0.056191 0.725213 255 255 255
-1.096891 0.011142 -0.454347 0.000000 0.508962 0 0 255
-1.033902 0.201308 -0.038500 0.126862 0.546992 255 255 255
-0.676958 0.408858 -0.280405 0.191419 0.774866 255 255 255
-0.739947 0.218692 -0.696252 0.064558 0.736836 255 255 255
-1.015546 0.218692 -0.030897 0.135229 0.558615 255 255 255
-0.470567 -0.463227 -0.470567 0.216084 0.319103 0 0 255
-1.084404 -0.009538 -0.470567 0.000305 0.501697 0 0 255
-0.470567 -0.009538 -1.084404 0.061506 0.719327 255 255 255
-0.497167 0.012530 -1.064838 0.057083 0.724650 255 255 255
-1.064838 0.012530 -0.497167 0.000484 0.523387 0 0 255
-0.738010 0.196091 -0.738010 0.054723 0.732127 255 255 255
0.446403 -0.471754 -0.475686 0.537134 0.450712 0 0 255
0.020706 -0.471754 -0.652015 0.343087 0.424142 0 0 255
0.446403 -0.026794 -1.077712 0.385530 0.843235 0 0 255
-0.020706 -0.471754 -0.652015 0.328529 0.418014 0 0 255
-0.446403 -0.471754 -0.475686 0.223290 0.318597 0 0 255
-0.446403 -0.026794 -1.077712 0.071686 0.711121 255 255 255
0.703855 0.201308 -0.758303 0.556465 0.952826 255 255 255
0.454347 0.011142 -1.096891 0.383493 0.871236 0 0 255
0.038500 0.201308 -1.033902 0.253174 0.911298 255 255 255
0.280405 0.408858 -0.676958 0.428096 0.998448 255 255 255
0.696252 0.218692 -0.739947 0.558415 0.958387 255 255 255
0.030897 0.218692 -1.015546 0.255124 0.916858 255 255 255
-0.280405 0.408858 -0.676958 0.230957 0.915461 255 255 255
-0.030897 0.218692 -1.015546 0.233401 0.907714 255 255 255
-0.696252 0.218692 -0.739947 0.068914 0.752328 255 255 255
0.024390 0.420000 0.024390 0.514716 0.822405 255 255 255
0.280167 0.420000 0.641890 0.760128 0.732701 255 255 255
0.641890 0.420000 0.280167 0.796193 0.860947 255 255 255
-0.000000 0.420000 0.034493 0.508686 0.816709 255 255 255
-0.255777 0.420000 0.651993 0.574274 0.651307 255 255 255
0.255777 0.420000 0.651993 0.754099 0.727005 255 255 255
-0.024390 0.420000 0.024390 0.497568 0.815187 255 255 255
-0.641890 0.420000 0.280167 0.344911 0.670976 255 255 255
-0.280167 0.420000 0.641890 0.563156 0.649784 255 255 255
-0.034493 0.420000 -0.000000 0.487875 0.818730 255 255 255
-0.651993 0.420000 -0.255777 0.206397 0.780188 255 255 255
-0.651993 0.420000 0.255777 0.335218 0.674520 255 255 255
0.034493 0.420000 0.000000 0.512125 0.828938 255 255 255
0.651993 0.420000 0.255777 0.793603 0.867480 255 255 255
0.651993 0.420000 -0.255777 0.664782 0.973149 255 255 255
0.000000 -0.463227 -0.665482 0.332417 0.428999 0 0 255
-0.434048 -0.009538 -1.099530 0.070534 0.727856 255 255 255
0.434048 -0.009538 -1.099530 0.375692 0.856314 0 0 255
0.024390 0.420000 -0.024390 0.502432 0.832482 255 255 255
0.641890 0.420000 -0.280167 0.655088 0.976692 255 255 255
0.280167 0.420000 -0.641890 0.436843 0.997884 255 255 255
0.255777 0.420000 -0.651993 0.425725 0.996362 255 255 255
-0.255777 0.420000 -0.651993 0.245901 0.920663 255 255 255
0.000000 0.420000 -0.034493 0.491314 0.830959 255 255 255
-0.719697 0.221958 0.719697 0.428244 0.449316 255 255 255
-0.300762 0.413536 0.656240 0.559530 0.639877 255 255 255
-0.656240 0.413536 0.300762 0.345053 0.660703 255 255 255
-1.017805 0.221958 -0.000000 0.142215 0.553867 255 255 255
-0.676702 0.413536 0.251361 0.325420 0.667880 255 255 255
-0.676702 0.413536 -0.251361 0.198823 0.771724 255 255 255
-0.719697 0.221958 -0.719697 0.065772 0.746644 255 255 255
-0.656240 0.413536 -0.300762 0.193576 0.784956 255 255 255
-0.300762 0.413536 -0.656240 0.229018 0.910988 255 255 255
0.719697 0.221958 -0.719697 0.571756 0.959641 255 255 255
0.300762 0.413536 -0.656240 0.440469 1.000000 255 255 255
0.656240 0.413536 -0.300762 0.654947 0.979174 255 255 255
0.000000 0.221958 -1.017805 0.243694 0.914721 255 255 255
-0.251361 0.413536 -0.676702 0.241231 0.922525 255 255 255
0.251361 0.413536 -0.676702 0.417951 0.996917 255 255 255
1.017805 0.221958 0.000000 0.857784 0.855091 255 255 255
0.676702 0.413536 -0.251361 0.674580 0.971997 255 255 255
0.676702 0.413536 0.251361 0.801176 0.868153 255 255 255
0.719697 0.221958 0.719697 0.934228 0.662314 255 255 255
0.656240 0.413536 0.300762 0.806424 0.854920 255 255 255
0.300762 0.413536 0.656240 0.770981 0.728889 255 255 255
-0.000000 0.221958 1.017805 0.756306 0.494237 255 255 255
0.251361 0.413536 0.676702 0.758769 0.717352 255 255 255
-0.251361 0.413536 0.676702 0.582049 0.642960 255 255 255
0.012817 -0.488246 0.632970 0.663902 0.147603 0 0 255
0.012817 -0.933206 0.030944 0.512298 0.003793 0 0 255
0.438514 -0.488246 0.456640 0.769141 0.247020 0 0 255
-0.438514 -0.488246 0.456640 0.460844 0.117240 0 0 255
-0.012817 -0.933206 0.030944 0.503287 0.000000 0 0 255
-0.012817 -0.488246 0.632970 0.654891 0.143810 0 0 255
-0.632970 -0.488246 0.012817 0.280723 0.180143 0 0 255
-0.030944 -0.933206 0.012817 0.492351 0.001062 0 0 255
-0.456640 -0.488246 0.438514 0.449907 0.118302 0 0 255
-0.456640 -0.488246 -0.438514 0.229052 0.299464 0 0 255
-0.030944 -0.933206 -0.012817 0.485895 0.006357 0 0 255
-0.632970 -0.488246 -0.012817 0.274267 0.185438 0 0 255
-0.012817 -0.488246 -0.632970 0.336099 0.405308 0 0 255
-0.012817 -0.933206 -0.030944 0.487703 0.012784 0 0 255
-0.438514 -0.488246 -0.456640 0.230859 0.305891 0 0 255
0.438514 -0.488246 -0.456640 0.539157 0.435671 0 0 255
0.012817 -0.933206 -0.030944 0.496714 0.016577 0 0 255
0.012817 -0.488246 -0.632970 0.345110 0.409101 0 0 255
-0.024390 0.420000 -0.024390 0.485284 0.825263 255 255 255
-0.280167 0.420000 -0.641890 0.239871 0.914967 255 255 255
-0.641890 0.420000 -0.280167 0.203806 0.786721 255 255 255
0.456640 -0.488246 0.438514 0.770949 0.253446 0 0 255
0.030944 -0.933206 0.012817 0.514106 0.010220 0 0 255
0.632970 -0.488246 0.012817 0.725733 0.367473 0 0 255
0.030944 -0.933206 -0.012817 0.507650 0.015515 0 0 255
0.632970 -0.488246 -0.012817 0.719278 0.372768 0 0 255
0.456640 -0.488246 -0.438514 0.550093 0.434609 0 0 255
3 0 1 2
3 3 4 5
3 6 7 8
3 9 10 11
3 12 13 14
3 15 16 17
3 18 19 20
3 21 22 23
3 24 25 26
3 27 28 29
3 30 31 32
3 33 34 35
3 36 37 38
3 39 40 41
3 42 43 44
3 45 46 47
3 48 49 50
3 51 52 53
3 54 55 56
3 57 58 59
3 60 61 62
3 63 64 65
3 66 67 68
3 69 70 71
3 72 73 74
3 75 76 77
3 78 79 80
3 81 82 83
3 84 85 86
3 87 88 89
3 90 91 92
3 93 94 95
3 96 97 98
3 99 100 101
3 102 103 104
3 105 106 107
3 108 109 110
3 111 112 113
3 114 115 116
3 117 118 119
3 120 121 122
3 123 124 125
3 126 127 128
3 129 130 131
3 132 133 134
3 135 136 137
3 138 139 140
3 141 142 143
3 144 145 146
3 147 148 149
3 150 151 152
3 153 154 155
3 156 157 158
3 159 160 161
3 162 163 164
3 165 166 167
3 168 169 170
3 171 172 173
3 174 175 176
3 177 178 179
3 180 181 182
3 183 184 185
3 186 187 188
3 166 172 178
3 120 129 140
3 182 105 103
3 134 109 7
3 153 113 2
3 138 137 111
3 102 6 13
3 8 19 16
3 150 11 112
3 131 157 21
3 12 15 28
3 17 34 31
3 26 22 156
3 130 119 36
3 43 167 186
3 46 32 49
3 41 37 159
3 51 118 122
3 58 170 165
3 67 47 61
3 162 56 52
3 63 164 121
3 173 57 73
3 68 79 76
3 141 83 71
3 81 124 128
3 88 176 72
3 97 77 91
3 144 86 82
3 185 93 127
3 87 96 106
3 133 98 4
3 101 94 147
3 139 114 184
3 183 127 126
3 66 74 73
3 45 44 46
3 75 74 76
3 30 29 31
3 151 112 111
3 132 104 103
3 180 189 181
3 185 149 148
3 165 169 166
3 60 70 61
3 149 116 147
3 174 178 175
3 69 80 79
3 158 38 156
3 1 3 2
3 163 52 51
3 0 110 109
3 90 100 91
3 69 67 70
3 137 152 151
3 155 113 153
3 131 135 129
3 96 107 106
3 145 82 81
3 6 104 7
3 123 121 120
3 99 97 100
3 48 55 49
3 78 85 79
3 161 53 159
3 33 40 34
3 99 5 4
3 190 187 189
3 121 163 122
3 30 44 43
3 157 22 21
3 143 83 141
3 168 172 169
3 55 47 46
3 85 77 76
3 39 31 40
3 127 145 128
3 6 14 13
3 15 14 16
3 142 64 63
3 45 59 58
3 39 50 49
3 107 132 105
3 117 130 129
3 152 23 150
3 108 10 109
3 115 154 153
3 75 89 88
3 9 20 19
3 128 123 126
3 130 157 131
3 54 62 61
3 177 181 178
3 119 161 160
3 9 7 10
3 125 143 142
3 164 65 162
3 186 166 187
3 84 92 91
3 148 94 93
3 171 175 172
3 66 59 67
3 15 29 28
3 133 0 134
3 18 25 19
3 154 138 155
3 96 89 97
3 139 183 140
3 135 138 140
3 24 35 34
3 122 117 120
3 160 37 36
3 25 17 16
3 146 95 144
3 62 64 60
3 80 82 78
3 92 94 90
3 5 115 3
3 110 112 108
3 20 22 18
3 35 37 33
3 50 52 48
3 103 180 182
3 12 191 13
3 28 186 188
3 42 167 43
3 58 168 170
3 72 173 73
3 88 174 176
3 105 179 106
3 190 189 191
3 178 181 189
3 189 187 166
3 166 169 172
3 172 175 178
3 178 189 166
3 140 183 126
3 126 123 120
3 120 117 129
3 129 135 140
3 140 126 120
3 132 103 105
3 182 177 105
3 134 0 109
3 109 10 7
3 7 104 134
3 2 3 115
3 115 153 2
3 113 110 2
3 151 111 137
3 155 138 111
3 13 191 180
3 180 102 13
3 8 9 19
3 19 25 16
3 16 14 8
3 108 112 11
3 150 23 11
3 20 11 23
3 21 152 136
3 136 131 21
3 28 188 190
3 190 12 28
3 31 29 17
3 17 24 34
3 34 40 31
3 156 38 26
3 35 26 38
3 18 22 26
3 160 36 119
3 158 130 36
3 186 27 43
3 30 43 27
3 46 44 32
3 32 39 49
3 49 55 46
3 159 53 41
3 50 41 53
3 33 37 41
3 122 163 51
3 51 161 118
3 165 42 58
3 45 58 42
3 54 61 47
3 67 59 47
3 61 70 67
3 48 52 56
3 162 65 56
3 62 56 65
3 121 125 63
3 142 63 125
3 66 73 57
3 173 168 57
3 68 69 79
3 79 85 76
3 76 74 68
3 71 60 64
3 64 141 71
3 83 80 71
3 128 145 81
3 81 143 124
3 171 72 176
3 75 88 72
3 84 91 77
3 97 89 77
3 91 100 97
3 78 82 86
3 144 95 86
3 92 86 95
3 146 127 93
3 185 148 93
3 106 179 174
3 174 87 106
3 4 1 133
3 133 107 98
3 98 99 4
3 147 116 101
3 5 101 116
3 90 94 101
3 149 184 114
3 139 154 114
3 183 185 127
3 66 68 74
3 45 42 44
3 75 72 74
3 30 27 29
3 151 150 112
3 132 134 104
3 180 191 189
3 185 184 149
3 165 170 169
3 60 71 70
3 149 114 116
3 174 179 178
3 69 71 80
3 158 36 38
3 1 4 3
3 163 162 52
3 0 2 110
3 90 101 100
3 69 68 67
3 137 136 152
3 155 111 113
3 131 136 135
3 96 98 107
3 145 144 82
3 6 102 104
3 123 125 121
3 99 98 97
3 48 56 55
3 78 86 85
3 161 51 53
3 33 41 40
3 99 101 5
3 190 188 187
3 121 164 163
3 30 32 44
3 157 156 22
3 143 81 83
3 168 173 172
3 55 54 47
3 85 84 77
3 39 32 31
3 127 146 145
3 6 8 14
3 15 12 14
3 142 141 64
3 45 47 59
3 39 41 50
3 107 133 132
3 117 119 130
3 152 21 23
3 108 11 10
3 115 114 154
3 75 77 89
3 9 11 20
3 128 124 123
3 130 158 157
3 54 56 62
3 177 182 181
3 119 118 161
3 9 8 7
3 125 124 143
3 164 63 65
3 186 167 166
3 84 86 92
3 148 147 94
3 171 176 175
3 66 57 59
3 15 17 29
3 133 1 0
3 18 26 25
3 154 139 138
3 96 87 89
3 139 184 183
3 135 137 138
3 24 26 35
3 122 118 117
3 160 159 37
3 25 24 17
3 146 93 95
3 62 65 64
3 80 83 82
3 92 95 94
3 5 116 115
3 110 113 112
3 20 23 22
3 35 38 37
3 50 53 52
3 103 102 180
3 12 190 191
3 28 27 186
3 42 165 167
3 58 57 168
3 72 171 173
3 88 87 174
3 105 177 179
