ply
format ascii 1.0
comment Created by Blender 2.79 (sub 0) - www.blender.org, source file: 'untitled.blend'
element vertex 517
property float x
property float y
property float z
property float nx
property float ny
property float nz
property float s
property float t
element face 380
property list uchar uint vertex_indices
end_header
0.401404 0.012530 -1.104505 0.075045 0.184942 -0.979858 0.092785 0.059669
-0.401404 0.012530 -1.104505 -0.075045 0.184942 -0.979858 0.966884 0.059669
0.000000 0.196091 -1.043704 0.000000 0.552934 -0.833186 0.966884 0.933768
-0.038500 0.201308 -1.033902 -0.161779 0.681051 -0.714103 0.067921 0.026529
-0.454347 0.011142 -1.096891 -0.366497 0.287729 -0.884793 0.973471 0.026529
-0.703855 0.201308 -0.758303 -0.390545 0.681051 -0.619343 0.973471 0.932079
0.470567 -0.463227 -0.470567 0.451735 -0.769280 -0.451735 0.034944 0.017472
0.470567 -0.009538 -1.084404 0.515152 -0.419996 -0.747124 0.980129 0.017472
1.084404 -0.009538 -0.470567 0.747124 -0.419996 -0.515152 0.980129 0.962657
1.064838 0.012530 -0.497167 0.745933 0.184942 -0.639790 0.092785 0.059669
0.497167 0.012530 -1.064838 0.639790 0.184942 -0.745933 0.966884 0.059669
0.738010 0.196091 -0.738010 0.589160 0.552934 -0.589160 0.966884 0.933768
0.652015 -0.471754 -0.020706 0.611927 -0.778771 -0.137974 0.045090 0.017179
0.475686 -0.471754 -0.446403 0.530259 -0.778771 -0.335124 0.972089 0.017179
1.077712 -0.026794 -0.446403 0.625172 -0.736259 -0.258950 0.972089 0.944178
0.665482 -0.463227 0.000000 0.638874 -0.769280 0.000000 0.034944 0.017472
1.099530 -0.009538 -0.434048 0.892544 -0.419996 -0.164006 0.980129 0.017472
1.099530 -0.009538 0.434048 0.892544 -0.419996 0.164006 0.980129 0.962657
1.033902 0.201308 -0.038500 0.714103 0.681051 -0.161779 0.067921 0.026529
1.096891 0.011142 -0.454347 0.884793 0.287729 -0.366497 0.973471 0.026529
0.758303 0.201308 -0.703855 0.619343 0.681051 -0.390545 0.973471 0.932079
0.676958 0.408858 -0.280405 0.469008 0.861538 -0.194281 0.053059 0.026529
1.015546 0.218692 -0.030897 0.616047 0.770562 -0.163427 0.958608 0.026529
0.739947 0.218692 -0.696252 0.551164 0.770562 -0.320017 0.958608 0.932079
1.104505 0.012530 0.401404 0.979858 0.184942 0.075045 0.092785 0.059669
1.104505 0.012530 -0.401404 0.979858 0.184942 -0.075045 0.966884 0.059669
1.043704 0.196091 0.000000 0.833186 0.552934 0.000000 0.966884 0.933768
0.475686 -0.471754 0.446403 0.530259 -0.778771 0.335124 0.045090 0.017179
0.652015 -0.471754 0.020706 0.611927 -0.778771 0.137974 0.972089 0.017179
1.077712 -0.026794 0.446403 0.625172 -0.736259 0.258950 0.972089 0.944178
0.470567 -0.463227 0.470567 0.451735 -0.769280 0.451735 0.034944 0.017472
1.084404 -0.009538 0.470567 0.747124 -0.419996 0.515152 0.980129 0.017472
0.470567 -0.009538 1.084404 0.515152 -0.419996 0.747124 0.980129 0.962657
0.758303 0.201308 0.703855 0.619343 0.681051 0.390545 0.067921 0.026529
1.096891 0.011142 0.454347 0.884793 0.287729 0.366497 0.973471 0.026529
1.033902 0.201308 0.038500 0.714103 0.681051 0.161779 0.973471 0.932079
0.676958 0.408858 0.280405 0.469008 0.861538 0.194281 0.053059 0.026529
0.739947 0.218692 0.696252 0.551164 0.770562 0.320017 0.958608 0.026529
1.015546 0.218692 0.030897 0.616047 0.770562 0.163427 0.958608 0.932079
0.497167 0.012530 1.064838 0.639790 0.184942 0.745933 0.092785 0.059669
1.064838 0.012530 0.497167 0.745933 0.184942 0.639790 0.966884 0.059669
0.738010 0.196091 0.738010 0.589160 0.552934 0.589160 0.966884 0.933768
0.020706 -0.471754 0.652015 0.137974 -0.778771 0.611927 0.045090 0.017179
0.446403 -0.471754 0.475686 0.335124 -0.778771 0.530259 0.972089 0.017179
0.446403 -0.026794 1.077712 0.258950 -0.736259 0.625172 0.972089 0.944178
0.000000 -0.463227 0.665482 0.000000 -0.769280 0.638874 0.034944 0.017472
0.434048 -0.009538 1.099530 0.164006 -0.419996 0.892544 0.980129 0.017472
-0.434048 -0.009538 1.099530 -0.164006 -0.419996 0.892544 0.980129 0.962657
0.038500 0.201308 1.033902 0.161779 0.681051 0.714103 0.067921 0.026529
0.454347 0.011142 1.096891 0.366497 0.287729 0.884793 0.973471 0.026529
0.703855 0.201308 0.758303 0.390545 0.681051 0.619343 0.973471 0.932079
0.280405 0.408858 0.676958 0.194281 0.861538 0.469008 0.053059 0.026529
0.030897 0.218692 1.015546 0.163427 0.770562 0.616047 0.958608 0.026529
0.696252 0.218692 0.739947 0.320017 0.770562 0.551164 0.958608 0.932079
-0.401404 0.012530 1.104505 -0.075045 0.184942 0.979858 0.092785 0.059669
0.401404 0.012530 1.104505 0.075045 0.184942 0.979858 0.966884 0.059669
-0.000000 0.196091 1.043704 0.000000 0.552934 0.833186 0.966884 0.933768
-0.446403 -0.471754 0.475686 -0.335124 -0.778771 0.530259 0.045090 0.017179
-0.020706 -0.471754 0.652015 -0.137974 -0.778771 0.611927 0.972089 0.017179
-0.446403 -0.026794 1.077712 -0.258950 -0.736259 0.625172 0.972089 0.944178
-0.703855 0.201308 0.758303 -0.390545 0.681051 0.619343 0.067921 0.026529
-0.454347 0.011142 1.096891 -0.366497 0.287729 0.884793 0.973471 0.026529
-0.038500 0.201308 1.033902 -0.161779 0.681051 0.714103 0.973471 0.932079
-0.280405 0.408858 0.676958 -0.194281 0.861538 0.469008 0.053059 0.026529
-0.696252 0.218692 0.739947 -0.320017 0.770562 0.551164 0.958608 0.026529
-0.030897 0.218692 1.015546 -0.163427 0.770562 0.616047 0.958608 0.932079
-0.470567 -0.463227 0.470567 -0.451735 -0.769280 0.451735 0.034944 0.017472
-0.470567 -0.009538 1.084404 -0.515152 -0.419996 0.747124 0.980129 0.017472
-1.084404 -0.009538 0.470567 -0.747124 -0.419996 0.515152 0.980129 0.962657
-1.064838 0.012530 0.497167 -0.745933 0.184942 0.639790 0.092785 0.059669
-0.497167 0.012530 1.064838 -0.639790 0.184942 0.745933 0.966884 0.059669
-0.738010 0.196091 0.738010 -0.589160 0.552934 0.589160 0.966884 0.933768
-0.652015 -0.471754 0.020706 -0.611927 -0.778771 0.137974 0.045090 0.017179
-0.475686 -0.471754 0.446403 -0.530259 -0.778771 0.335124 0.972089 0.017179
-1.077712 -0.026794 0.446403 -0.625172 -0.736259 0.258950 0.972089 0.944178
-0.665482 -0.463227 0.000000 -0.638874 -0.769280 0.000000 0.034944 0.017472
-1.099530 -0.009538 0.434048 -0.892544 -0.419996 0.164006 0.980129 0.017472
-1.099530 -0.009538 -0.434048 -0.892544 -0.419996 -0.164006 0.980129 0.962657
-1.033902 0.201308 0.038500 -0.714103 0.681051 0.161779 0.067921 0.026529
-1.096891 0.011142 0.454347 -0.884793 0.287729 0.366497 0.973471 0.026529
-0.758303 0.201308 0.703855 -0.619343 0.681051 0.390545 0.973471 0.932079
-0.676958 0.408858 0.280405 -0.469008 0.861538 0.194281 0.053059 0.026529
-1.015546 0.218692 0.030897 -0.616047 0.770562 0.163427 0.958608 0.026529
-0.739947 0.218692 0.696252 -0.551164 0.770562 0.320017 0.958608 0.932079
-1.104505 0.012530 -0.401404 -0.979858 0.184942 -0.075045 0.092785 0.059669
-1.104505 0.012530 0.401404 -0.979858 0.184942 0.075045 0.966884 0.059669
-1.043704 0.196091 -0.000000 -0.833186 0.552934 0.000000 0.966884 0.933768
-0.475686 -0.471754 -0.446403 -0.530259 -0.778771 -0.335124 0.045090 0.017179
-0.652015 -0.471754 -0.020706 -0.611927 -0.778771 -0.137974 0.972089 0.017179
-1.077712 -0.026794 -0.446403 -0.625172 -0.736259 -0.258950 0.972089 0.944178
-0.758303 0.201308 -0.703855 -0.619343 0.681051 -0.390545 0.067921 0.026529
-1.096891 0.011142 -0.454347 -0.884793 0.287729 -0.366497 0.973471 0.026529
-1.033902 0.201308 -0.038500 -0.714103 0.681051 -0.161779 0.973471 0.932079
-0.676958 0.408858 -0.280405 -0.469008 0.861538 -0.194281 0.053059 0.026529
-0.739947 0.218692 -0.696252 -0.551164 0.770562 -0.320017 0.958608 0.026529
-1.015546 0.218692 -0.030897 -0.616047 0.770562 -0.163427 0.958608 0.932079
-0.470567 -0.463227 -0.470567 -0.451735 -0.769280 -0.451735 0.034944 0.017472
-1.084404 -0.009538 -0.470567 -0.747124 -0.419996 -0.515152 0.980129 0.017472
-0.470567 -0.009538 -1.084404 -0.515152 -0.419996 -0.747124 0.980129 0.962657
-0.497167 0.012530 -1.064838 -0.639790 0.184942 -0.745933 0.092785 0.059669
-1.064838 0.012530 -0.497167 -0.745933 0.184942 -0.639790 0.966884 0.059669
-0.738010 0.196091 -0.738010 -0.589160 0.552934 -0.589160 0.966884 0.933768
0.446403 -0.471754 -0.475686 0.335124 -0.778771 -0.530259 0.045090 0.017179
0.020706 -0.471754 -0.652015 0.137974 -0.778771 -0.611927 0.972089 0.017179
0.446403 -0.026794 -1.077712 0.258950 -0.736259 -0.625172 0.972089 0.944178
-0.020706 -0.471754 -0.652015 -0.137974 -0.778771 -0.611927 0.045090 0.017179
-0.446403 -0.471754 -0.475686 -0.335124 -0.778771 -0.530259 0.972089 0.017179
-0.446403 -0.026794 -1.077712 -0.258950 -0.736259 -0.625172 0.972089 0.944178
0.703855 0.201308 -0.758303 0.390545 0.681051 -0.619343 0.067921 0.026529
0.454347 0.011142 -1.096891 0.366497 0.287729 -0.884793 0.973471 0.026529
0.038500 0.201308 -1.033902 0.161779 0.681051 -0.714103 0.973471 0.932079
0.280405 0.408858 -0.676958 0.194281 0.861538 -0.469008 0.053059 0.026529
0.696252 0.218692 -0.739947 0.320017 0.770562 -0.551164 0.958608 0.026529
0.030897 0.218692 -1.015546 0.163427 0.770562 -0.616047 0.958608 0.932079
-0.280405 0.408858 -0.676958 -0.194281 0.861538 -0.469008 0.053059 0.026529
-0.030897 0.218692 -1.015546 -0.163427 0.770562 -0.616047 0.958608 0.026529
-0.696252 0.218692 -0.739947 -0.320017 0.770562 -0.551164 0.958608 0.932079
0.024390 0.420000 0.024390 0.000000 1.000000 0.000000 0.051854 0.025927
0.280167 0.420000 0.641890 0.077609 0.986633 0.143223 0.980156 0.025927
0.641890 0.420000 0.280167 0.143223 0.986633 0.077609 0.980156 0.954229
-0.000000 0.420000 0.034493 0.000000 1.000000 0.000000 0.051854 0.025927
-0.255777 0.420000 0.651993 -0.046388 0.986633 0.156163 0.980156 0.025927
0.255777 0.420000 0.651993 0.046388 0.986633 0.156163 0.980156 0.954229
-0.024390 0.420000 0.024390 0.000000 1.000000 0.000000 0.051854 0.025927
-0.641890 0.420000 0.280167 -0.143223 0.986633 0.077609 0.980156 0.025927
-0.280167 0.420000 0.641890 -0.077609 0.986633 0.143223 0.980156 0.954229
-0.034493 0.420000 -0.000000 0.000000 1.000000 0.000000 0.051854 0.025927
-0.651993 0.420000 -0.255777 -0.156163 0.986633 -0.046388 0.980156 0.025927
-0.651993 0.420000 0.255777 -0.156163 0.986633 0.046388 0.980156 0.954229
0.034493 0.420000 0.000000 0.000000 1.000000 0.000000 0.051854 0.025927
0.651993 0.420000 0.255777 0.156163 0.986633 0.046388 0.980156 0.025927
0.651993 0.420000 -0.255777 0.156163 0.986633 -0.046388 0.980156 0.954229
0.000000 -0.463227 -0.665482 0.000000 -0.769280 -0.638874 0.034944 0.017472
-0.434048 -0.009538 -1.099530 -0.164006 -0.419996 -0.892544 0.980129 0.017472
0.434048 -0.009538 -1.099530 0.164006 -0.419996 -0.892544 0.980129 0.962657
0.024390 0.420000 -0.024390 0.000000 1.000000 0.000000 0.051854 0.025927
0.641890 0.420000 -0.280167 0.143223 0.986633 -0.077609 0.980156 0.025927
0.280167 0.420000 -0.641890 0.077609 0.986633 -0.143223 0.980156 0.954229
0.255777 0.420000 -0.651993 0.046388 0.986633 -0.156163 0.045771 0.019844
-0.255777 0.420000 -0.651993 -0.046388 0.986633 -0.156163 0.974073 0.019844
0.000000 0.420000 -0.034493 0.000000 1.000000 0.000000 0.974073 0.948146
-0.719697 0.221958 0.719697 -0.441176 0.781487 0.441176 0.056943 0.028472
-0.300762 0.413536 0.656240 -0.228462 0.912748 0.338633 0.969219 0.028472
-0.656240 0.413536 0.300762 -0.338633 0.912748 0.228462 0.969219 0.940748
-1.017805 0.221958 -0.000000 -0.623920 0.781487 0.000000 0.056943 0.028472
-0.676702 0.413536 0.251361 -0.401013 0.912748 0.077914 0.969219 0.028472
-0.676702 0.413536 -0.251361 -0.401013 0.912748 -0.077914 0.969219 0.940748
-0.719697 0.221958 -0.719697 -0.441176 0.781487 -0.441176 0.056943 0.028472
-0.656240 0.413536 -0.300762 -0.338633 0.912748 -0.228462 0.969219 0.028472
-0.300762 0.413536 -0.656240 -0.228462 0.912748 -0.338633 0.969219 0.940748
0.719697 0.221958 -0.719697 0.441176 0.781487 -0.441176 0.056943 0.028472
0.300762 0.413536 -0.656240 0.228462 0.912748 -0.338633 0.969219 0.028472
0.656240 0.413536 -0.300762 0.338633 0.912748 -0.228462 0.969219 0.940748
0.000000 0.221958 -1.017805 0.000000 0.781487 -0.623890 0.056943 0.028472
-0.251361 0.413536 -0.676702 -0.077914 0.912748 -0.401013 0.969219 0.028472
0.251361 0.413536 -0.676702 0.077914 0.912748 -0.401013 0.969219 0.940748
1.017805 0.221958 0.000000 0.623920 0.781487 0.000000 0.056943 0.028472
0.676702 0.413536 -0.251361 0.401013 0.912748 -0.077914 0.969219 0.028472
0.676702 0.413536 0.251361 0.401013 0.912748 0.077914 0.969219 0.940748
0.719697 0.221958 0.719697 0.441176 0.781487 0.441176 0.056943 0.028472
0.656240 0.413536 0.300762 0.338633 0.912748 0.228462 0.969219 0.028472
0.300762 0.413536 0.656240 0.228462 0.912748 0.338633 0.969219 0.940748
-0.000000 0.221958 1.017805 0.000000 0.781487 0.623890 0.056943 0.028472
0.251361 0.413536 0.676702 0.077914 0.912748 0.401013 0.969219 0.028472
-0.251361 0.413536 0.676702 -0.077914 0.912748 0.401013 0.969219 0.940748
0.012817 -0.488246 0.632970 0.108615 -0.785394 0.609363 0.045090 0.027911
0.012817 -0.933206 0.030944 0.140263 -0.930387 0.338633 0.972089 0.027911
0.438514 -0.488246 0.456640 0.354045 -0.785394 0.507675 0.972089 0.954910
-0.438514 -0.488246 0.456640 -0.354045 -0.785394 0.507675 0.045090 0.027911
-0.012817 -0.933206 0.030944 -0.140263 -0.930387 0.338633 0.972089 0.027911
-0.012817 -0.488246 0.632970 -0.108615 -0.785394 0.609363 0.972089 0.954910
-0.632970 -0.488246 0.012817 -0.609363 -0.785394 0.108615 0.045090 0.027911
-0.030944 -0.933206 0.012817 -0.338633 -0.930387 0.140263 0.972089 0.027911
-0.456640 -0.488246 0.438514 -0.507675 -0.785394 0.354045 0.972089 0.954910
-0.456640 -0.488246 -0.438514 -0.507675 -0.785394 -0.354045 0.045090 0.027911
-0.030944 -0.933206 -0.012817 -0.338633 -0.930387 -0.140263 0.972089 0.027911
-0.632970 -0.488246 -0.012817 -0.609363 -0.785394 -0.108615 0.972089 0.954910
-0.012817 -0.488246 -0.632970 -0.108615 -0.785394 -0.609363 0.045090 0.027911
-0.012817 -0.933206 -0.030944 -0.140263 -0.930387 -0.338633 0.972089 0.027911
-0.438514 -0.488246 -0.456640 -0.354045 -0.785394 -0.507675 0.972089 0.954910
0.438514 -0.488246 -0.456640 0.354045 -0.785394 -0.507675 0.045090 0.027911
0.012817 -0.933206 -0.030944 0.140263 -0.930387 -0.338633 0.972089 0.027911
0.012817 -0.488246 -0.632970 0.108615 -0.785394 -0.609363 0.972089 0.954910
-0.024390 0.420000 -0.024390 0.000000 1.000000 0.000000 0.051854 0.025927
-0.280167 0.420000 -0.641890 -0.077609 0.986633 -0.143223 0.980156 0.025927
-0.641890 0.420000 -0.280167 -0.143223 0.986633 -0.077609 0.980156 0.954229
0.456640 -0.488246 0.438514 0.507675 -0.785394 0.354045 0.045090 0.027911
0.030944 -0.933206 0.012817 0.338633 -0.930387 0.140263 0.972089 0.027911
0.632970 -0.488246 0.012817 0.609363 -0.785394 0.108615 0.972089 0.954910
0.012817 -0.933206 0.030944 0.140263 -0.930387 0.338633 0.993043 0.000000
-0.030944 -0.933206 0.012817 -0.338633 -0.930387 0.140263 1.000000 0.006957
-0.012817 -0.933206 -0.030944 -0.140263 -0.930387 -0.338633 1.000000 0.050535
-0.000000 0.420000 0.034493 0.000000 1.000000 0.000000 0.000000 0.000000
0.034493 0.420000 0.000000 0.000000 1.000000 0.000000 0.000000 0.000000
0.000000 0.420000 -0.034493 0.000000 1.000000 0.000000 0.044261 0.000000
0.012817 -0.488246 -0.632970 0.108615 -0.785394 -0.609363 0.963500 0.000000
-0.020706 -0.471754 -0.652015 -0.137974 -0.778771 -0.611927 1.000000 0.000000
0.454347 0.011142 -1.096891 0.366497 0.287729 -0.884793 1.000000 0.994694
0.470567 -0.009538 -1.084404 0.515152 -0.419996 -0.747124 0.983893 0.983893
0.000000 0.221958 -1.017805 0.000000 0.781487 -0.623890 0.010245 0.010245
0.030897 0.218692 -1.015546 0.163427 0.770562 -0.616047 0.000000 0.000000
0.000000 0.196091 -1.043704 0.000000 0.552934 -0.833186 0.012475 0.000000
0.255777 0.420000 -0.651993 0.046388 0.986633 -0.156163 0.001954 0.001954
0.280167 0.420000 -0.641890 0.077609 0.986633 -0.143223 0.001954 0.000000
0.446403 -0.471754 -0.475686 0.335124 -0.778771 -0.530259 1.000000 1.000000
0.470567 -0.463227 -0.470567 0.451735 -0.769280 -0.451735 1.000000 1.000000
0.475686 -0.471754 -0.446403 0.530259 -0.778771 -0.335124 0.963499 0.963499
1.096891 0.011142 -0.454347 0.884793 0.287729 -0.366497 1.000000 0.994694
1.099530 -0.009538 -0.434048 0.892544 -0.419996 -0.164006 0.983893 0.983893
0.719697 0.221958 -0.719697 0.441176 0.781487 -0.441176 0.959695 0.000000
0.738010 0.196091 -0.738010 0.589160 0.552934 -0.589160 1.000000 0.000000
0.651993 0.420000 -0.255777 0.156163 0.986633 -0.046388 1.000000 1.000000
0.676702 0.413536 -0.251361 0.401013 0.912748 -0.077914 1.000000 1.000000
0.676958 0.408858 -0.280405 0.469008 0.861538 -0.194281 0.979231 0.979231
0.652015 -0.471754 -0.020706 0.611927 -0.778771 -0.137974 1.000000 1.000000
0.665482 -0.463227 0.000000 0.638874 -0.769280 0.000000 1.000000 1.000000
0.652015 -0.471754 0.020706 0.611927 -0.778771 0.137974 0.963500 0.963500
1.099530 -0.009538 0.434048 0.892544 -0.419996 0.164006 1.000000 0.968830
1.096891 0.011142 0.454347 0.884793 0.287729 0.366497 1.000000 0.996485
1.084404 -0.009538 0.470567 0.747124 -0.419996 0.515152 0.968830 0.968830
1.043704 0.196091 0.000000 0.833186 0.552934 0.000000 1.000000 1.000000
1.015546 0.218692 -0.030897 0.616047 0.770562 -0.163427 0.991849 0.991849
1.017805 0.221958 0.000000 0.623920 0.781487 0.000000 0.959695 0.959695
0.651993 0.420000 0.255777 0.156163 0.986633 0.046388 0.001954 0.001954
0.641890 0.420000 0.280167 0.143223 0.986633 0.077609 0.001954 0.000000
0.446403 -0.471754 0.475686 0.335124 -0.778771 0.530259 0.000000 0.000000
0.438514 -0.488246 0.456640 0.354045 -0.785394 0.507675 0.000000 0.000000
0.456640 -0.488246 0.438514 0.507675 -0.785394 0.354045 0.036500 0.000000
0.470567 -0.009538 1.084404 0.515152 -0.419996 0.747124 0.983893 0.000000
0.454347 0.011142 1.096891 0.366497 0.287729 0.884793 1.000000 0.005306
0.738010 0.196091 0.738010 0.589160 0.552934 0.589160 1.000000 1.000000
0.739947 0.218692 0.696252 0.551164 0.770562 0.320017 0.991849 0.991849
0.719697 0.221958 0.719697 0.441176 0.781487 0.441176 0.959695 0.959695
0.280405 0.408858 0.676958 0.194281 0.861538 0.469008 0.979232 0.000000
0.280167 0.420000 0.641890 0.077609 0.986633 0.143223 1.000000 0.000000
0.255777 0.420000 0.651993 0.046388 0.986633 0.156163 1.000000 0.035849
-0.020706 -0.471754 0.652015 -0.137974 -0.778771 0.611927 0.000000 0.000000
-0.012817 -0.488246 0.632970 -0.108615 -0.785394 0.609363 0.000000 0.000000
0.012817 -0.488246 0.632970 0.108615 -0.785394 0.609363 0.036500 0.000000
-0.470567 -0.009538 1.084404 -0.515152 -0.419996 0.747124 0.960776 0.000000
-0.434048 -0.009538 1.099530 -0.164006 -0.419996 0.892544 1.000000 0.039224
-0.000000 0.221958 1.017805 0.000000 0.781487 0.623890 0.959695 0.000000
-0.000000 0.196091 1.043704 0.000000 0.552934 0.833186 1.000000 0.000000
-0.280405 0.408858 0.676958 -0.194281 0.861538 0.469008 1.000000 1.000000
-0.251361 0.413536 0.676702 -0.077914 0.912748 0.401013 1.000000 1.000000
-0.255777 0.420000 0.651993 -0.046388 0.986633 0.156163 0.972562 0.972562
-0.456640 -0.488246 0.438514 -0.507675 -0.785394 0.354045 0.963499 0.000000
-0.446403 -0.471754 0.475686 -0.335124 -0.778771 0.530259 1.000000 0.000000
-1.096891 0.011142 0.454347 -0.884793 0.287729 0.366497 1.000000 0.994694
-1.099530 -0.009538 0.434048 -0.892544 -0.419996 0.164006 0.983893 0.983893
-0.719697 0.221958 0.719697 -0.441176 0.781487 0.441176 0.010245 0.010245
-0.739947 0.218692 0.696252 -0.551164 0.770562 0.320017 0.000000 0.000000
-0.738010 0.196091 0.738010 -0.589160 0.552934 0.589160 0.012475 0.000000
-0.676958 0.408858 0.280405 -0.469008 0.861538 0.194281 0.979232 0.000000
-0.641890 0.420000 0.280167 -0.143223 0.986633 0.077609 1.000000 0.000000
-0.651993 0.420000 0.255777 -0.156163 0.986633 0.046388 1.000000 0.035849
-0.652015 -0.471754 -0.020706 -0.611927 -0.778771 -0.137974 0.000000 0.000000
-0.632970 -0.488246 -0.012817 -0.609363 -0.785394 -0.108615 0.000000 0.000000
-1.084404 -0.009538 -0.470567 -0.747124 -0.419996 -0.515152 0.960776 0.000000
-1.099530 -0.009538 -0.434048 -0.892544 -0.419996 -0.164006 1.000000 0.039224
-1.017805 0.221958 -0.000000 -0.623920 0.781487 0.000000 0.959695 0.000000
-1.043704 0.196091 -0.000000 -0.833186 0.552934 0.000000 1.000000 0.000000
-0.641890 0.420000 -0.280167 -0.143223 0.986633 -0.077609 0.972562 0.000000
-0.676958 0.408858 -0.280405 -0.469008 0.861538 -0.194281 1.000000 0.000000
-0.475686 -0.471754 -0.446403 -0.530259 -0.778771 -0.335124 1.000000 1.000000
-0.470567 -0.463227 -0.470567 -0.451735 -0.769280 -0.451735 1.000000 1.000000
-0.446403 -0.471754 -0.475686 -0.335124 -0.778771 -0.530259 0.963499 0.963499
-0.434048 -0.009538 -1.099530 -0.164006 -0.419996 -0.892544 0.972593 0.000000
-0.470567 -0.009538 -1.084404 -0.515152 -0.419996 -0.747124 1.000000 0.000000
-0.454347 0.011142 -1.096891 -0.366497 0.287729 -0.884793 1.000000 0.020768
-0.738010 0.196091 -0.738010 -0.589160 0.552934 -0.589160 1.000000 1.000000
-0.739947 0.218692 -0.696252 -0.551164 0.770562 -0.320017 0.991849 0.991849
-0.719697 0.221958 -0.719697 -0.441176 0.781487 -0.441176 0.959695 0.959695
-0.255777 0.420000 -0.651993 -0.046388 0.986633 -0.156163 0.972562 0.000000
-0.280405 0.408858 -0.676958 -0.194281 0.861538 -0.469008 1.000000 0.000000
-0.651993 0.420000 -0.255777 -0.156163 0.986633 -0.046388 0.972562 0.972562
-0.034493 0.420000 -0.000000 0.000000 1.000000 0.000000 0.044261 0.044261
-1.077712 -0.026794 0.446403 -0.625172 -0.736259 0.258950 0.949465 0.949465
-0.475686 -0.471754 0.446403 -0.530259 -0.778771 0.335124 0.022466 0.022466
0.446403 -0.026794 1.077712 0.258950 -0.736259 0.625172 0.949465 0.000000
-1.077712 -0.026794 0.446403 -0.625172 -0.736259 0.258950 0.949465 0.000000
1.077712 -0.026794 0.446403 0.625172 -0.736259 0.258950 0.949465 0.000000
0.696252 0.218692 -0.739947 0.320017 0.770562 -0.551164 0.073682 0.000000
0.280405 0.408858 -0.676958 0.194281 0.861538 -0.469008 0.979232 0.000000
0.446403 -0.026794 -1.077712 0.258950 -0.736259 -0.625172 0.949465 0.949465
0.020706 -0.471754 -0.652015 0.137974 -0.778771 -0.611927 0.022466 0.022466
0.030944 -0.933206 -0.012817 0.338633 -0.930387 -0.140263 0.949465 0.000000
-0.300762 0.413536 -0.656240 -0.228462 0.912748 -0.338633 1.000000 0.043862
-0.656240 0.413536 -0.300762 -0.338633 0.912748 -0.228462 1.000000 0.956138
-0.012817 -0.933206 0.030944 -0.140263 -0.930387 0.338633 0.949465 0.000000
-0.497167 0.012530 1.064838 -0.639790 0.184942 0.745933 0.886574 0.000000
-0.696252 0.218692 -0.739947 -0.320017 0.770562 -0.551164 0.073682 0.073682
-0.012817 -0.933206 -0.030944 -0.140263 -0.930387 -0.338633 0.949465 0.000000
-0.758303 0.201308 0.703855 -0.619343 0.681051 0.390545 0.926318 0.926318
-1.096891 0.011142 0.454347 -0.884793 0.287729 0.366497 0.020768 0.020768
1.015546 0.218692 0.030897 0.616047 0.770562 0.163427 0.073682 0.073682
-0.038500 0.201308 -1.033902 -0.161779 0.681051 -0.714103 1.000000 0.926318
0.030897 0.218692 1.015546 0.163427 0.770562 0.616047 0.073682 0.000000
0.038500 0.201308 -1.033902 0.161779 0.681051 -0.714103 0.926318 0.926318
0.454347 0.011142 -1.096891 0.366497 0.287729 -0.884793 0.020768 0.020768
-1.064838 0.012530 -0.497167 -0.745933 0.184942 -0.639790 0.886574 0.000000
-0.470567 -0.009538 1.084404 -0.515152 -0.419996 0.747124 0.972593 0.000000
0.656240 0.413536 -0.300762 0.338633 0.912748 -0.228462 1.000000 0.043862
0.300762 0.413536 -0.656240 0.228462 0.912748 -0.338633 1.000000 0.956138
0.030897 0.218692 -1.015546 0.163427 0.770562 -0.616047 0.073682 0.073682
0.024390 0.420000 -0.024390 0.000000 1.000000 0.000000 0.044261 0.044261
-0.446403 -0.026794 -1.077712 -0.258950 -0.736259 -0.625172 0.949465 0.949465
-0.446403 -0.471754 -0.475686 -0.335124 -0.778771 -0.530259 0.022466 0.022466
-1.015546 0.218692 0.030897 -0.616047 0.770562 0.163427 0.073682 0.000000
0.446403 -0.026794 -1.077712 0.258950 -0.736259 -0.625172 0.949465 0.000000
-0.000000 0.420000 0.034493 0.000000 1.000000 0.000000 0.044261 0.044261
-1.084404 -0.009538 -0.470567 -0.747124 -0.419996 -0.515152 0.972593 0.000000
0.401404 0.012530 1.104505 0.075045 0.184942 0.979858 0.886574 0.000000
-1.104505 0.012530 0.401404 -0.979858 0.184942 0.075045 0.886574 0.000000
0.696252 0.218692 0.739947 0.320017 0.770562 0.551164 0.073682 0.073682
1.064838 0.012530 0.497167 0.745933 0.184942 0.639790 0.886574 0.000000
-0.703855 0.201308 -0.758303 -0.390545 0.681051 -0.619343 0.926318 0.926318
-0.454347 0.011142 -1.096891 -0.366497 0.287729 -0.884793 0.020768 0.020768
0.632970 -0.488246 -0.012817 0.609363 -0.785394 -0.108615 0.045090 0.027911
0.030944 -0.933206 0.012817 0.338633 -0.930387 0.140263 0.949465 0.000000
0.030944 -0.933206 -0.012817 0.338633 -0.930387 -0.140263 0.972089 0.027911
0.251361 0.413536 0.676702 0.077914 0.912748 0.401013 1.000000 0.956138
0.446403 -0.026794 1.077712 0.258950 -0.736259 0.625172 0.949465 0.949465
0.446403 -0.471754 0.475686 0.335124 -0.778771 0.530259 0.022466 0.022466
1.015546 0.218692 -0.030897 0.616047 0.770562 -0.163427 0.073682 0.000000
0.676958 0.408858 -0.280405 0.469008 0.861538 -0.194281 0.979232 0.000000
-0.739947 0.218692 0.696252 -0.551164 0.770562 0.320017 0.073682 0.073682
-0.030944 -0.933206 0.012817 -0.338633 -0.930387 0.140263 0.949465 0.000000
-0.434048 -0.009538 1.099530 -0.164006 -0.419996 0.892544 0.027407 0.000000
0.434048 -0.009538 1.099530 0.164006 -0.419996 0.892544 0.972593 0.000000
-1.099530 -0.009538 -0.434048 -0.892544 -0.419996 -0.164006 0.027407 0.000000
-1.099530 -0.009538 0.434048 -0.892544 -0.419996 0.164006 0.972593 0.000000
1.084404 -0.009538 0.470567 0.747124 -0.419996 0.515152 0.972593 0.000000
-0.676702 0.413536 0.251361 -0.401013 0.912748 0.077914 1.000000 0.956138
1.077712 -0.026794 -0.446403 0.625172 -0.736259 -0.258950 0.949465 0.949465
0.475686 -0.471754 -0.446403 0.530259 -0.778771 -0.335124 0.022466 0.022466
1.077712 -0.026794 -0.446403 0.625172 -0.736259 -0.258950 0.949465 0.000000
-0.696252 0.218692 0.739947 -0.320017 0.770562 0.551164 0.073682 0.000000
-0.280405 0.408858 0.676958 -0.194281 0.861538 0.469008 0.979232 0.000000
-0.446403 -0.026794 1.077712 -0.258950 -0.736259 0.625172 0.949465 0.949465
-0.020706 -0.471754 0.652015 -0.137974 -0.778771 0.611927 0.022466 0.022466
0.703855 0.201308 0.758303 0.390545 0.681051 0.619343 0.926318 0.926318
0.454347 0.011142 1.096891 0.366497 0.287729 0.884793 0.020768 0.020768
0.000000 -0.463227 -0.665482 0.000000 -0.769280 -0.638874 0.023645 0.023645
0.651993 0.420000 0.255777 0.156163 0.986633 0.046388 0.972562 0.972562
0.034493 0.420000 0.000000 0.000000 1.000000 0.000000 0.044261 0.044261
0.739947 0.218692 -0.696252 0.551164 0.770562 -0.320017 0.073682 0.073682
0.497167 0.012530 -1.064838 0.639790 0.184942 -0.745933 0.886574 0.000000
-0.251361 0.413536 -0.676702 -0.077914 0.912748 -0.401013 0.047419 0.000000
0.000000 0.221958 -1.017805 0.000000 0.781487 -0.623890 0.959695 0.000000
-1.077712 -0.026794 -0.446403 -0.625172 -0.736259 -0.258950 0.949465 0.949465
-0.652015 -0.471754 -0.020706 -0.611927 -0.778771 -0.137974 0.022466 0.022466
0.758303 0.201308 -0.703855 0.619343 0.681051 -0.390545 0.926318 0.926318
1.096891 0.011142 -0.454347 0.884793 0.287729 -0.366497 0.020768 0.020768
-0.024390 0.420000 0.024390 0.000000 1.000000 0.000000 0.044261 0.044261
0.676702 0.413536 -0.251361 0.401013 0.912748 -0.077914 1.000000 0.956138
-0.038500 0.201308 1.033902 -0.161779 0.681051 0.714103 0.926318 0.926318
-0.454347 0.011142 1.096891 -0.366497 0.287729 0.884793 0.020768 0.020768
0.012817 -0.933206 -0.030944 0.140263 -0.930387 -0.338633 0.949465 0.000000
0.300762 0.413536 0.656240 0.228462 0.912748 0.338633 1.000000 0.043862
0.656240 0.413536 0.300762 0.338633 0.912748 0.228462 1.000000 0.956138
0.470567 -0.009538 -1.084404 0.515152 -0.419996 -0.747124 0.972593 0.000000
-0.656240 0.413536 0.300762 -0.338633 0.912748 0.228462 1.000000 0.043862
-0.300762 0.413536 0.656240 -0.228462 0.912748 0.338633 1.000000 0.956138
-0.030897 0.218692 1.015546 -0.163427 0.770562 0.616047 0.073682 0.073682
0.012817 -0.933206 0.030944 0.140263 -0.930387 0.338633 0.949465 0.000000
-1.033902 0.201308 -0.038500 -0.714103 0.681051 -0.161779 0.926318 0.926318
-1.096891 0.011142 -0.454347 -0.884793 0.287729 -0.366497 0.020768 0.020768
-0.739947 0.218692 -0.696252 -0.551164 0.770562 -0.320017 0.073682 0.000000
-0.676958 0.408858 -0.280405 -0.469008 0.861538 -0.194281 0.979232 0.000000
-0.030944 -0.933206 -0.012817 -0.338633 -0.930387 -0.140263 0.949465 0.000000
-0.446403 -0.026794 1.077712 -0.258950 -0.736259 0.625172 0.949465 0.000000
1.077712 -0.026794 0.446403 0.625172 -0.736259 0.258950 0.949465 0.949465
0.652015 -0.471754 0.020706 0.611927 -0.778771 0.137974 0.022466 0.022466
0.401404 0.012530 -1.104505 0.075045 0.184942 -0.979858 1.000000 0.937050
1.104505 0.012530 -0.401404 0.979858 0.184942 -0.075045 0.886574 0.000000
0.255777 0.420000 -0.651993 0.046388 0.986633 -0.156163 1.000000 0.964151
-1.077712 -0.026794 -0.446403 -0.625172 -0.736259 -0.258950 0.949465 0.000000
-0.024390 0.420000 -0.024390 0.000000 1.000000 0.000000 1.000000 0.955739
0.255777 0.420000 -0.651993 0.046388 0.986633 -0.156163 0.972562 0.972562
0.000000 0.420000 -0.034493 0.000000 1.000000 0.000000 0.044261 0.044261
1.033902 0.201308 0.038500 0.714103 0.681051 0.161779 0.926318 0.926318
1.096891 0.011142 0.454347 0.884793 0.287729 0.366497 0.020768 0.020768
0.024390 0.420000 0.024390 0.000000 1.000000 0.000000 0.044261 0.044261
0.739947 0.218692 0.696252 0.551164 0.770562 0.320017 0.073682 0.000000
0.676958 0.408858 0.280405 0.469008 0.861538 0.194281 0.979232 0.000000
1.099530 -0.009538 0.434048 0.892544 -0.419996 0.164006 0.027407 0.000000
1.099530 -0.009538 -0.434048 0.892544 -0.419996 -0.164006 0.972593 0.000000
-1.015546 0.218692 -0.030897 -0.616047 0.770562 -0.163427 0.073682 0.073682
-0.696252 0.218692 0.739947 -0.320017 0.770562 0.551164 0.047225 0.047225
-1.015546 0.218692 0.030897 -0.616047 0.770562 0.163427 0.047225 0.047225
-0.739947 0.218692 -0.696252 -0.551164 0.770562 -0.320017 0.047225 0.047225
-0.030897 0.218692 -1.015546 -0.163427 0.770562 -0.616047 0.047225 0.047225
0.696252 0.218692 -0.739947 0.320017 0.770562 -0.551164 0.047225 0.047225
1.015546 0.218692 -0.030897 0.616047 0.770562 -0.163427 0.047225 0.047225
0.739947 0.218692 0.696252 0.551164 0.770562 0.320017 0.047225 0.047225
0.030897 0.218692 1.015546 0.163427 0.770562 0.616047 0.047225 0.047225
0.438514 -0.488246 -0.456640 0.354045 -0.785394 -0.507675 0.036500 0.000000
0.456640 -0.488246 -0.438514 0.507675 -0.785394 -0.354045 0.963499 0.000000
0.632970 -0.488246 0.012817 0.609363 -0.785394 0.108615 0.963500 0.000000
0.438514 -0.488246 0.456640 0.354045 -0.785394 0.507675 0.963499 0.000000
-0.438514 -0.488246 0.456640 -0.354045 -0.785394 0.507675 0.036500 0.000000
-0.012817 -0.488246 0.632970 -0.108615 -0.785394 0.609363 0.963500 0.000000
-0.456640 -0.488246 -0.438514 -0.507675 -0.785394 -0.354045 0.036500 0.000000
-0.632970 -0.488246 -0.012817 -0.609363 -0.785394 -0.108615 0.963500 0.000000
-0.438514 -0.488246 -0.456640 -0.354045 -0.785394 -0.507675 0.963499 0.000000
0.456640 -0.488246 -0.438514 0.507675 -0.785394 -0.354045 0.972089 0.954910
0.030944 -0.933206 0.012817 0.338633 -0.930387 0.140263 0.967515 0.000000
-0.012817 -0.933206 0.030944 -0.140263 -0.930387 0.338633 1.000000 0.000000
-0.030944 -0.933206 -0.012817 -0.338633 -0.930387 -0.140263 1.000000 0.032485
-0.024390 0.420000 0.024390 0.000000 1.000000 0.000000 0.018333 0.018333
0.024390 0.420000 0.024390 0.000000 1.000000 0.000000 0.000000 0.000000
0.024390 0.420000 -0.024390 0.000000 1.000000 0.000000 0.018333 0.000000
0.000000 -0.463227 -0.665482 0.000000 -0.769280 -0.638874 1.000000 0.023645
-0.012817 -0.488246 -0.632970 -0.108615 -0.785394 -0.609363 1.000000 0.000000
0.497167 0.012530 -1.064838 0.639790 0.184942 -0.745933 1.000000 1.000000
0.038500 0.201308 -1.033902 0.161779 0.681051 -0.714103 0.000000 0.000000
0.300762 0.413536 -0.656240 0.228462 0.912748 -0.338633 0.047419 0.000000
0.251361 0.413536 -0.676702 0.077914 0.912748 -0.401013 0.047419 0.047419
0.438514 -0.488246 -0.456640 0.354045 -0.785394 -0.507675 1.000000 0.977534
1.064838 0.012530 -0.497167 0.745933 0.184942 -0.639790 1.000000 0.937050
1.104505 0.012530 -0.401404 0.979858 0.184942 -0.075045 1.000000 1.000000
0.703855 0.201308 -0.758303 0.390545 0.681051 -0.619343 1.000000 0.047225
0.739947 0.218692 -0.696252 0.551164 0.770562 -0.320017 0.991849 0.000000
0.758303 0.201308 -0.703855 0.619343 0.681051 -0.390545 1.000000 0.000000
0.641890 0.420000 -0.280167 0.143223 0.986633 -0.077609 1.000000 0.964151
0.632970 -0.488246 -0.012817 0.609363 -0.785394 -0.108615 1.000000 0.977534
1.104505 0.012530 0.401404 0.979858 0.184942 0.075045 1.000000 0.965589
1.064838 0.012530 0.497167 0.745933 0.184942 0.639790 0.965589 0.965589
1.033902 0.201308 0.038500 0.714103 0.681051 0.161779 1.000000 0.952775
1.033902 0.201308 -0.038500 0.714103 0.681051 -0.161779 1.000000 1.000000
0.656240 0.413536 0.300762 0.338633 0.912748 0.228462 0.047419 0.000000
0.676702 0.413536 0.251361 0.401013 0.912748 0.077914 0.047419 0.047419
0.470567 -0.463227 0.470567 0.451735 -0.769280 0.451735 0.023645 0.023645
0.497167 0.012530 1.064838 0.639790 0.184942 0.745933 1.000000 0.000000
0.401404 0.012530 1.104505 0.075045 0.184942 0.979858 1.000000 0.062950
0.703855 0.201308 0.758303 0.390545 0.681051 0.619343 1.000000 0.952775
0.758303 0.201308 0.703855 0.619343 0.681051 0.390545 1.000000 1.000000
0.300762 0.413536 0.656240 0.228462 0.912748 0.338633 1.000000 0.000000
0.000000 -0.463227 0.665482 0.000000 -0.769280 0.638874 0.023645 0.023645
-0.401404 0.012530 1.104505 -0.075045 0.184942 0.979858 1.000000 0.113426
-0.446403 -0.026794 1.077712 -0.258950 -0.736259 0.625172 0.990719 0.000000
0.038500 0.201308 1.033902 0.161779 0.681051 0.714103 1.000000 0.047225
-0.030897 0.218692 1.015546 -0.163427 0.770562 0.616047 0.991849 0.000000
-0.038500 0.201308 1.033902 -0.161779 0.681051 0.714103 1.000000 0.000000
-0.470567 -0.463227 0.470567 -0.451735 -0.769280 0.451735 1.000000 0.023645
-0.438514 -0.488246 0.456640 -0.354045 -0.785394 0.507675 1.000000 0.000000
-1.064838 0.012530 0.497167 -0.745933 0.184942 0.639790 1.000000 0.937050
-1.104505 0.012530 0.401404 -0.979858 0.184942 0.075045 1.000000 1.000000
-0.758303 0.201308 0.703855 -0.619343 0.681051 0.390545 0.000000 0.000000
-0.656240 0.413536 0.300762 -0.338633 0.912748 0.228462 1.000000 0.000000
-0.632970 -0.488246 0.012817 -0.609363 -0.785394 0.108615 0.036500 0.000000
-0.665482 -0.463227 0.000000 -0.638874 -0.769280 0.000000 0.023645 0.023645
-1.104505 0.012530 -0.401404 -0.979858 0.184942 -0.075045 1.000000 0.113426
-1.077712 -0.026794 -0.446403 -0.625172 -0.736259 -0.258950 0.990719 0.000000
-1.033902 0.201308 0.038500 -0.714103 0.681051 0.161779 1.000000 0.047225
-1.015546 0.218692 -0.030897 -0.616047 0.770562 -0.163427 0.991849 0.000000
-1.033902 0.201308 -0.038500 -0.714103 0.681051 -0.161779 1.000000 0.000000
-0.676702 0.413536 -0.251361 -0.401013 0.912748 -0.077914 1.000000 0.043862
-0.656240 0.413536 -0.300762 -0.338633 0.912748 -0.228462 1.000000 0.000000
-0.456640 -0.488246 -0.438514 -0.507675 -0.785394 -0.354045 1.000000 0.977534
-0.446403 -0.026794 -1.077712 -0.258950 -0.736259 -0.625172 0.986044 0.000000
-0.497167 0.012530 -1.064838 -0.639790 0.184942 -0.745933 1.000000 0.000000
-0.703855 0.201308 -0.758303 -0.390545 0.681051 -0.619343 1.000000 0.952775
-0.758303 0.201308 -0.703855 -0.619343 0.681051 -0.390545 1.000000 1.000000
-0.251361 0.413536 -0.676702 -0.077914 0.912748 -0.401013 1.000000 0.000000
0.020706 -0.471754 0.652015 0.137974 -0.778771 0.611927 0.022466 0.000000
-0.652015 -0.471754 0.020706 -0.611927 -0.778771 0.137974 0.022466 0.000000
0.475686 -0.471754 0.446403 0.530259 -0.778771 0.335124 0.022466 0.000000
0.456640 -0.488246 -0.438514 0.507675 -0.785394 -0.354045 0.022466 0.000000
-0.012817 -0.488246 0.632970 -0.108615 -0.785394 0.609363 0.022466 0.000000
-0.280405 0.408858 -0.676958 -0.194281 0.861538 -0.469008 0.979231 0.979231
-0.438514 -0.488246 -0.456640 -0.354045 -0.785394 -0.507675 0.022466 0.000000
0.676958 0.408858 0.280405 0.469008 0.861538 0.194281 0.979232 0.979232
-0.738010 0.196091 -0.738010 -0.589160 0.552934 -0.589160 0.012475 0.000000
-1.084404 -0.009538 0.470567 -0.747124 -0.419996 0.515152 0.027407 0.000000
0.280405 0.408858 -0.676958 0.194281 0.861538 -0.469008 0.979232 0.979232
0.641890 0.420000 -0.280167 0.143223 0.986633 -0.077609 0.972562 0.972562
0.446403 -0.471754 -0.475686 0.335124 -0.778771 -0.530259 0.022466 0.000000
-0.470567 -0.009538 -1.084404 -0.515152 -0.419996 -0.747124 0.027407 0.000000
-0.000000 0.196091 1.043704 0.000000 0.552934 0.833186 0.012475 0.000000
-1.043704 0.196091 -0.000000 -0.833186 0.552934 0.000000 0.012475 0.000000
0.280405 0.408858 0.676958 0.194281 0.861538 0.469008 0.979231 0.979231
0.738010 0.196091 0.738010 0.589160 0.552934 0.589160 0.012475 0.000000
0.632970 -0.488246 0.012817 0.609363 -0.785394 0.108615 0.022466 0.000000
-0.251361 0.413536 0.676702 -0.077914 0.912748 0.401013 1.000000 0.043862
-0.676958 0.408858 0.280405 -0.469008 0.861538 0.194281 0.979231 0.979231
-0.456640 -0.488246 0.438514 -0.507675 -0.785394 0.354045 0.022466 0.000000
0.470567 -0.009538 1.084404 0.515152 -0.419996 0.747124 0.027407 0.000000
0.652015 -0.471754 -0.020706 0.611927 -0.778771 -0.137974 0.022466 0.000000
-0.434048 -0.009538 -1.099530 -0.164006 -0.419996 -0.892544 0.968830 0.968830
0.738010 0.196091 -0.738010 0.589160 0.552934 -0.589160 0.012475 0.000000
-0.641890 0.420000 0.280167 -0.143223 0.986633 0.077609 0.972562 0.972562
0.676702 0.413536 0.251361 0.401013 0.912748 0.077914 1.000000 0.043862
0.012817 -0.488246 -0.632970 0.108615 -0.785394 -0.609363 0.022466 0.000000
1.084404 -0.009538 -0.470567 0.747124 -0.419996 -0.515152 0.027407 0.000000
-0.280405 0.408858 0.676958 -0.194281 0.861538 0.469008 0.979232 0.979232
0.438514 -0.488246 0.456640 0.354045 -0.785394 0.507675 0.022466 0.000000
-0.632970 -0.488246 -0.012817 -0.609363 -0.785394 -0.108615 0.022466 0.000000
-0.446403 -0.471754 0.475686 -0.335124 -0.778771 0.530259 0.022466 0.000000
-0.401404 0.012530 -1.104505 -0.075045 0.184942 -0.979858 1.000000 0.062950
1.043704 0.196091 0.000000 0.833186 0.552934 0.000000 0.012475 0.000000
-0.255777 0.420000 -0.651993 -0.046388 0.986633 -0.156163 1.000000 0.035849
-0.475686 -0.471754 -0.446403 -0.530259 -0.778771 -0.335124 0.022466 0.000000
-0.280167 0.420000 -0.641890 -0.077609 0.986633 -0.143223 1.000000 0.027438
0.280167 0.420000 0.641890 0.077609 0.986633 0.143223 0.972562 0.972562
-0.676958 0.408858 -0.280405 -0.469008 0.861538 -0.194281 0.979232 0.979232
-0.030897 0.218692 1.015546 -0.163427 0.770562 0.616047 0.952775 0.952775
-0.739947 0.218692 0.696252 -0.551164 0.770562 0.320017 0.952775 0.952775
-1.015546 0.218692 -0.030897 -0.616047 0.770562 -0.163427 0.952775 0.952775
-0.696252 0.218692 -0.739947 -0.320017 0.770562 -0.551164 0.952775 0.952775
0.030897 0.218692 -1.015546 0.163427 0.770562 -0.616047 0.952775 0.952775
0.739947 0.218692 -0.696252 0.551164 0.770562 -0.320017 0.952775 0.952775
1.015546 0.218692 0.030897 0.616047 0.770562 0.163427 0.952775 0.952775
0.696252 0.218692 0.739947 0.320017 0.770562 0.551164 0.952775 0.952775
0.632970 -0.488246 -0.012817 0.609363 -0.785394 -0.108615 0.036500 0.000000
-0.012817 -0.488246 -0.632970 -0.108615 -0.785394 -0.609363 0.036500 0.000000
3 0 1 2
3 3 4 5
3 6 7 8
3 9 10 11
3 12 13 14
3 15 16 17
3 18 19 20
3 21 22 23
3 24 25 26
3 27 28 29
3 30 31 32
3 33 34 35
3 36 37 38
3 39 40 41
3 42 43 44
3 45 46 47
3 48 49 50
3 51 52 53
3 54 55 56
3 57 58 59
3 60 61 62
3 63 64 65
3 66 67 68
3 69 70 71
3 72 73 74
3 75 76 77
3 78 79 80
3 81 82 83
3 84 85 86
3 87 88 89
3 90 91 92
3 93 94 95
3 96 97 98
3 99 100 101
3 102 103 104
3 105 106 107
3 108 109 110
3 111 112 113
3 114 115 116
3 117 118 119
3 120 121 122
3 123 124 125
3 126 127 128
3 129 130 131
3 132 133 134
3 135 136 137
3 138 139 140
3 141 142 143
3 144 145 146
3 147 148 149
3 150 151 152
3 153 154 155
3 156 157 158
3 159 160 161
3 162 163 164
3 165 166 167
3 168 169 170
3 171 172 173
3 174 175 176
3 177 178 179
3 180 181 182
3 183 184 185
3 186 187 188
3 189 190 191
3 192 193 194
3 195 196 103
3 134 197 198
3 199 200 201
3 202 203 111
3 204 205 206
3 8 207 208
3 209 210 112
3 211 212 213
3 214 215 216
3 217 218 219
3 220 221 222
3 223 224 36
3 225 226 227
3 46 228 229
3 230 231 232
3 233 234 235
3 236 237 238
3 239 240 61
3 241 242 52
3 243 244 245
3 246 247 73
3 68 248 249
3 250 251 252
3 253 254 255
3 256 257 72
3 258 259 91
3 260 261 82
3 262 263 127
3 264 265 266
3 267 268 269
3 270 271 272
3 273 274 184
3 183 275 276
3 66 277 278
3 45 279 46
3 75 280 76
3 30 281 31
3 151 282 283
3 132 284 285
3 180 286 181
3 185 287 288
3 165 289 166
3 60 290 61
3 149 291 147
3 174 292 175
3 69 293 294
3 158 295 156
3 1 296 2
3 163 297 233
3 0 298 299
3 90 300 91
3 69 301 70
3 137 302 303
3 155 304 153
3 131 305 129
3 96 306 307
3 145 308 253
3 6 309 7
3 123 245 310
3 99 311 100
3 48 312 49
3 78 313 79
3 161 314 159
3 33 315 34
3 99 316 317
3 318 319 320
3 121 321 122
3 30 322 323
3 157 324 325
3 143 326 141
3 168 327 169
3 55 328 329
3 85 330 331
3 39 332 40
3 127 333 128
3 6 334 335
3 15 336 16
3 142 337 338
3 45 339 340
3 39 341 342
3 107 343 105
3 117 344 345
3 152 346 150
3 108 347 109
3 115 348 349
3 75 350 351
3 9 352 353
3 128 354 126
3 130 355 131
3 54 356 357
3 177 358 178
3 119 359 360
3 9 361 10
3 125 362 363
3 164 364 162
3 186 365 187
3 84 366 367
3 148 368 369
3 171 370 172
3 66 371 67
3 15 372 373
3 133 374 134
3 18 375 19
3 154 376 155
3 96 377 97
3 139 378 140
3 135 379 380
3 24 381 382
3 122 383 120
3 160 384 385
3 25 386 387
3 146 388 144
3 62 389 60
3 80 390 78
3 92 391 90
3 5 392 3
3 110 393 108
3 20 394 18
3 35 395 33
3 50 396 48
3 103 397 195
3 12 398 13
3 28 227 399
3 42 400 43
3 58 401 402
3 72 246 73
3 88 403 404
3 105 405 106
3 318 320 406
3 191 181 286
3 286 407 189
3 189 408 190
3 190 409 191
3 191 286 189
3 194 183 276
3 276 410 192
3 192 411 193
3 193 412 194
3 194 276 192
3 413 103 196
3 195 414 196
3 134 374 197
3 197 415 198
3 198 284 134
3 201 3 392
3 392 199 201
3 200 416 201
3 417 111 203
3 418 202 111
3 206 406 419
3 419 204 206
3 8 420 207
3 207 421 208
3 208 334 8
3 422 112 210
3 209 423 210
3 424 210 423
3 213 152 425
3 425 211 213
3 216 188 426
3 426 214 216
3 219 29 217
3 217 427 218
3 218 428 219
3 222 38 220
3 429 220 38
3 430 221 220
3 431 36 224
3 432 223 36
3 227 27 225
3 433 225 27
3 46 279 228
3 228 434 229
3 229 435 46
3 232 53 230
3 436 230 53
3 437 231 230
3 235 163 233
3 233 438 234
3 238 42 236
3 439 236 42
3 440 61 240
3 239 441 240
3 61 290 239
3 442 52 242
3 241 443 242
3 444 242 443
3 245 125 243
3 363 243 125
3 445 73 247
3 246 446 247
3 68 447 248
3 248 448 249
3 249 277 68
3 252 60 389
3 389 250 252
3 251 449 252
3 255 145 253
3 253 450 254
3 451 72 257
3 452 256 72
3 453 91 259
3 258 454 259
3 91 300 258
3 455 82 261
3 260 456 261
3 457 261 456
3 458 127 263
3 262 459 263
3 266 179 460
3 460 264 266
3 269 1 267
3 267 461 268
3 268 462 269
3 272 116 270
3 463 270 116
3 464 271 270
3 287 184 274
3 273 465 274
3 183 185 275
3 66 68 277
3 45 466 279
3 75 467 280
3 30 468 281
3 151 150 282
3 132 134 284
3 180 469 286
3 185 184 287
3 165 470 289
3 60 252 290
3 149 471 291
3 174 472 292
3 69 71 293
3 158 473 295
3 1 269 296
3 163 162 297
3 0 2 298
3 90 474 300
3 69 475 301
3 137 136 302
3 155 476 304
3 131 477 305
3 96 98 306
3 145 144 308
3 6 478 309
3 123 125 245
3 99 479 311
3 48 480 312
3 78 481 313
3 161 482 314
3 33 483 315
3 99 101 316
3 318 484 319
3 121 485 321
3 30 32 322
3 157 156 324
3 143 486 326
3 168 487 327
3 55 54 328
3 85 84 330
3 39 488 332
3 127 458 333
3 6 8 334
3 15 489 336
3 142 141 337
3 45 47 339
3 39 41 341
3 107 490 343
3 117 119 344
3 152 213 346
3 108 491 347
3 115 114 348
3 75 77 350
3 9 11 352
3 128 492 354
3 130 493 355
3 54 56 356
3 177 494 358
3 119 118 359
3 9 495 361
3 125 124 362
3 164 496 364
3 186 497 365
3 84 86 366
3 148 147 368
3 171 498 370
3 66 499 371
3 15 17 372
3 133 500 374
3 18 501 375
3 154 502 376
3 96 503 377
3 139 504 378
3 135 137 379
3 24 26 381
3 122 505 383
3 160 159 384
3 25 24 386
3 146 506 388
3 62 507 389
3 80 508 390
3 92 509 391
3 5 510 392
3 110 511 393
3 20 512 394
3 35 513 395
3 50 514 396
3 103 102 397
3 12 515 398
3 28 27 227
3 42 238 400
3 58 57 401
3 72 451 246
3 88 87 403
3 105 516 405
