ply
format ascii 1.0
comment Created by Blender 2.79 (sub 0) - www.blender.org, source file: 'untitled.blend'
element vertex 81
property float x
property float y
property float z
property float nx
property float ny
property float nz
property float s
property float t
property uchar red
property uchar green
property uchar blue
element face 90
property list uchar uint vertex_indices
end_header
0.278428 0.275587 0.577978 -0.036836 0.868099 0.494980 0.500000 0.656250 125 175 234
0.544384 0.364307 0.442177 -0.052858 0.807337 0.587695 1.000000 0.875000 67 161 245
0.250162 0.376343 0.399167 -0.059297 0.779290 0.623798 0.500000 0.875000 125 175 234
0.186214 -0.223723 1.684584 -0.049776 0.859157 0.509262 1.000000 0.234375 40 95 145
-0.075082 -0.111600 1.475196 -0.034974 0.887478 0.459456 0.500000 0.484375 125 175 234
-0.183829 -0.203291 1.609344 -0.038942 0.875240 0.482070 0.500000 0.234375 125 175 234
-0.150970 -0.025687 1.266747 -0.018830 0.921934 0.386822 0.500000 0.734375 125 175 234
0.155721 0.044575 1.114225 -0.014527 0.932646 0.360393 1.000000 1.000000 40 95 145
-0.138501 0.056612 1.071215 -0.014893 0.931761 0.362682 0.500000 1.000000 126 176 235
0.276577 0.107847 0.942139 -0.010926 0.940977 0.338267 1.000000 0.234375 40 95 145
0.191568 0.179540 0.739960 -0.023988 0.908017 0.418226 0.500000 0.437500 125 175 234
-0.017645 0.119884 0.899129 -0.010926 0.940977 0.338267 0.500000 0.234375 125 175 234
-0.172720 -0.328068 1.873611 0.019929 0.910550 0.412854 0.796875 1.000000 125 175 234
-0.227830 -0.466301 2.202954 0.016938 0.928983 0.369701 0.375000 0.718750 40 95 145
-0.025474 -0.462922 2.185957 0.016327 0.930326 0.366344 0.687500 0.718750 125 175 234
0.504139 0.428630 0.379234 -0.125004 0.310831 0.942198 1.000000 1.000000 248 253 255
0.209917 0.440666 0.336224 -0.131291 0.233406 0.963469 0.500000 1.000000 248 253 255
0.504139 0.428630 0.379234 -0.125004 0.310831 0.942198 1.000000 0.000000 248 253 255
0.217420 1.922034 0.743596 -0.150060 -0.261422 0.953459 0.500000 0.125000 125 202 255
0.209917 0.440666 0.336224 -0.131291 0.233406 0.963469 0.500000 0.000000 248 253 255
-0.052377 -0.574156 2.488602 0.018860 0.913450 0.406446 0.632812 0.468750 125 175 234
-0.129512 -0.727550 2.784441 0.040040 0.774743 0.630970 0.203125 0.234375 40 95 145
0.072844 -0.724171 2.767444 0.044221 0.737846 0.673482 0.601562 0.234375 125 175 234
-0.101864 -0.779687 2.816181 0.078402 0.208136 0.974944 0.140625 0.156250 248 253 255
0.092164 -0.776447 2.799884 0.079836 0.163640 0.983276 0.570312 0.156250 248 253 255
0.088898 -1.531960 2.610790 0.085208 -0.242256 0.966460 0.570312 0.125000 155 188 255
-0.835785 -0.262175 1.621794 -0.121006 0.902951 0.412305 0.000000 1.000000 40 95 145
-0.900812 -0.432250 1.975548 -0.081454 0.923521 0.374706 0.351562 0.734375 125 175 234
-0.631119 -0.298729 1.764310 -0.105533 0.906400 0.409009 0.296875 1.000000 125 175 234
-0.984382 -0.567173 2.362815 0.023347 0.767144 0.641011 0.578125 0.437500 125 175 234
-0.806482 -0.593335 2.337930 0.262612 0.124851 0.956755 0.843750 0.359375 248 253 255
-0.831382 -0.556643 2.318101 0.092929 0.814295 0.572924 0.750000 0.437500 40 95 145
0.155721 0.044575 1.114225 -0.014527 0.932646 0.360393 1.000000 0.000000 40 95 145
-0.138501 0.056612 1.071215 -0.014893 0.931761 0.362682 0.500000 0.000000 126 176 235
0.143252 -0.037723 1.309757 -0.018830 0.921934 0.386822 1.000000 0.734375 40 95 145
-0.172720 -0.328068 1.873611 0.019929 0.910550 0.412854 0.796875 0.000000 125 175 234
0.119275 -0.271700 1.760394 -0.018891 0.871395 0.490188 1.000000 0.117188 40 95 145
0.485790 0.167503 0.782970 -0.028901 0.893582 0.447951 1.000000 0.437500 40 95 145
-1.125072 -0.558055 2.328817 -0.211371 0.789209 0.576525 0.359375 0.437500 125 175 234
-0.991376 -0.605483 2.389661 0.006104 0.154546 0.987945 0.625000 0.359375 248 253 255
-0.690477 -0.464011 2.098814 -0.095370 0.915342 0.391125 0.703125 0.734375 40 95 145
-1.206912 -0.535674 2.240806 -0.388989 0.806726 0.444777 0.171875 0.437500 125 175 234
-1.296606 -0.526519 2.079439 -0.877071 0.257668 0.405316 0.000000 0.359375 248 253 255
-1.236847 -0.567328 2.241455 -0.814234 0.249397 0.524186 0.187500 0.359375 248 253 255
-1.147516 -0.594875 2.349974 -0.497940 0.192175 0.845607 0.359375 0.359375 248 253 255
-0.994632 -1.358466 2.201200 0.011292 -0.242805 0.970000 0.593750 0.312500 155 188 255
-0.809738 -1.346318 2.149469 0.276162 -0.234474 0.932035 0.843750 0.312500 155 188 255
-1.240102 -1.320311 2.052994 -0.873470 -0.114628 0.473159 0.156250 0.312500 155 188 255
-1.150771 -1.347858 2.161513 -0.545732 -0.201209 0.813410 0.343750 0.312500 155 188 255
0.149979 -0.570776 2.471605 0.019074 0.912534 0.408551 1.000000 0.468750 40 95 145
0.275201 -0.720792 2.750448 0.046846 0.712821 0.699759 1.000000 0.234375 40 95 145
0.176882 -0.459542 2.168961 0.014985 0.931425 0.363567 1.000000 0.718750 40 95 145
0.114609 -0.389610 2.002583 0.021882 0.922575 0.385174 1.000000 0.859375 40 95 145
-0.426452 -0.335284 1.906826 -0.050569 0.918393 0.392407 0.593750 1.000000 40 95 145
-1.111148 -0.400489 1.852283 -0.081851 0.922422 0.377361 0.000000 0.734375 40 95 145
-1.276440 -0.493644 2.074082 -0.371136 0.844935 0.385113 0.000000 0.437500 40 95 145
-0.015794 0.287624 0.534968 -0.036836 0.868099 0.494980 0.000000 0.656250 40 95 145
-0.102655 0.191577 0.696950 -0.020264 0.918149 0.395672 0.000000 0.437500 40 95 145
-0.369304 -0.099563 1.432185 -0.041475 0.877773 0.477248 0.000000 0.484375 40 95 145
-0.445192 -0.013650 1.223737 -0.018830 0.921934 0.386822 0.000000 0.734375 40 95 145
-0.311868 0.131920 0.856119 -0.010926 0.940977 0.338267 -0.000000 0.234375 40 95 145
-0.432724 0.068649 1.028205 -0.015412 0.930540 0.365856 -0.000000 0.000000 40 95 145
-0.044061 0.388380 0.356157 -0.064608 0.754326 0.653249 0.000000 0.875000 67 161 245
-0.084306 0.452703 0.293214 -0.138737 0.120609 0.982940 0.000000 1.000000 248 253 255
-0.432724 0.068649 1.028205 -0.015412 0.930540 0.365856 0.000000 1.000000 40 95 145
-0.553872 -0.182860 1.534105 -0.069430 0.884701 0.460921 0.000000 0.234375 40 95 145
-0.631119 -0.298729 1.764310 -0.105533 0.906400 0.409009 0.296875 0.000000 125 175 234
-0.835785 -0.262175 1.621794 -0.121006 0.902951 0.412305 0.000000 0.000000 40 95 145
-0.426452 -0.335284 1.906826 -0.050569 0.918393 0.392407 0.593750 0.000000 40 95 145
0.282926 -1.528720 2.594492 0.085208 -0.242256 0.966460 1.000000 0.125000 155 188 255
0.286192 -0.773207 2.783587 0.080325 0.147191 0.985809 1.000000 0.156250 248 253 255
-0.076803 1.934070 0.700586 -0.150060 -0.261422 0.953459 0.000000 0.125000 125 202 255
-0.084306 0.452703 0.293214 -0.138737 0.120609 0.982940 0.000000 0.000000 248 253 255
0.572650 0.263550 0.620988 -0.036836 0.868099 0.494980 1.000000 0.656250 40 95 145
0.219140 -0.123637 1.518206 -0.030854 0.887539 0.459609 1.000000 0.484375 40 95 145
0.511642 1.909997 0.786606 -0.150060 -0.261422 0.953459 1.000000 0.125000 125 202 255
-0.254733 -0.577535 2.505598 0.018616 0.914731 0.403607 0.265625 0.468750 40 95 145
-0.105130 -1.535200 2.627087 0.085208 -0.242256 0.966460 0.140625 0.125000 155 188 255
0.081012 -0.320852 1.840397 0.036958 0.879940 0.473617 1.000000 0.000000 40 95 145
-1.299861 -1.279502 1.890977 -0.941557 -0.077914 0.327647 -0.015625 0.312500 155 188 255
0.081012 -0.320852 1.840397 0.036958 0.879940 0.473617 1.000000 1.000000 40 95 145
3 0 1 2
3 3 4 5
3 6 7 8
3 9 10 11
3 12 13 14
3 2 15 16
3 17 18 19
3 13 20 14
3 20 21 22
3 22 23 24
3 23 25 24
3 26 27 28
3 29 30 31
3 32 11 33
3 4 34 6
3 35 36 5
3 37 0 10
3 38 39 29
3 31 40 27
3 41 42 43
3 41 44 38
3 44 45 39
3 39 46 30
3 42 47 43
3 43 48 44
3 49 22 50
3 14 49 51
3 14 51 52
3 28 40 53
3 27 54 55
3 10 56 57
3 58 6 59
3 33 60 61
3 62 16 63
3 11 57 60
3 59 8 64
3 5 58 65
3 56 2 62
3 66 65 67
3 68 5 66
3 24 69 70
3 19 71 72
3 0 73 1
3 3 74 4
3 6 34 7
3 9 37 10
3 12 53 13
3 2 1 15
3 17 75 18
3 13 76 20
3 20 76 21
3 70 50 24
3 22 21 23
3 24 50 22
3 23 77 25
3 26 54 27
3 29 39 30
3 32 9 11
3 4 74 34
3 3 5 36
3 35 78 36
3 37 73 0
3 38 44 39
3 27 38 29
3 29 31 27
3 41 55 42
3 41 43 44
3 44 48 45
3 39 45 46
3 42 79 47
3 43 47 48
3 49 20 22
3 14 20 49
3 52 80 12
3 12 14 52
3 28 27 40
3 55 41 27
3 38 27 41
3 10 0 56
3 58 4 6
3 33 11 60
3 62 2 16
3 11 10 57
3 59 6 8
3 5 4 58
3 56 0 2
3 66 5 65
3 68 35 5
3 24 25 69
3 19 18 71
