ply
format ascii 1.0
comment Created by Blender 2.79 (sub 0) - www.blender.org, source file: 'untitled.blend'
element vertex 42
property float x
property float y
property float z
property uchar red
property uchar green
property uchar blue
element face 40
property list uchar uint vertex_indices
end_header
0.500000 -0.000000 0.250000 20 0 255
0.000000 -0.000000 0.250000 2 255 0
0.809017 -0.587786 0.250000 20 0 255
0.809017 0.587785 0.250000 20 0 255
0.154509 0.475528 0.250000 20 0 255
-0.309017 0.951057 0.250000 20 0 255
-0.404509 0.293893 0.250000 20 0 255
-1.000000 0.000000 0.250000 20 0 255
-0.404509 -0.293893 0.250000 20 0 255
-0.309017 -0.951057 0.250000 20 0 255
0.154509 -0.475528 0.250000 20 0 255
0.809017 0.587785 -0.250000 255 255 255
0.500000 -0.000000 0.250000 56 56 56
0.500000 0.000000 -0.250000 56 56 56
0.154509 0.475528 -0.250000 56 56 56
0.809017 0.587785 0.250000 255 255 255
-0.309017 0.951057 -0.250000 255 255 255
0.154509 0.475528 0.250000 56 56 56
-0.404509 0.293893 0.250000 56 56 56
-0.309017 0.951057 0.250000 255 255 255
-1.000000 0.000000 -0.250000 255 255 255
-0.404509 0.293893 -0.250000 56 56 56
-0.404509 -0.293893 0.250000 56 56 56
-1.000000 0.000000 0.250000 255 255 255
-0.309017 -0.951057 -0.250000 255 255 255
-0.404509 -0.293893 -0.250000 56 56 56
0.154509 -0.475528 -0.250000 56 56 56
-0.309017 -0.951057 0.250000 255 255 255
0.809017 -0.587786 0.250000 255 255 255
0.154509 -0.475528 0.250000 56 56 56
0.000000 0.000000 -0.250000 241 0 255
0.500000 0.000000 -0.250000 0 254 255
0.809017 -0.587786 -0.250000 0 254 255
0.809017 0.587785 -0.250000 0 254 255
0.154509 0.475528 -0.250000 0 254 255
-0.309017 0.951057 -0.250000 0 254 255
-0.404509 0.293893 -0.250000 0 254 255
-1.000000 0.000000 -0.250000 0 254 255
-0.404509 -0.293893 -0.250000 0 254 255
-0.309017 -0.951057 -0.250000 0 254 255
0.154509 -0.475528 -0.250000 0 254 255
0.809017 -0.587786 -0.250000 255 255 255
3 0 1 2
3 1 0 3
3 1 3 4
3 1 4 5
3 1 5 6
3 1 6 7
3 1 7 8
3 1 8 9
3 1 9 10
3 1 10 2
3 11 12 13
3 14 15 11
3 16 17 14
3 16 18 19
3 20 18 21
3 20 22 23
3 24 22 25
3 26 27 24
3 26 28 29
3 11 15 12
3 30 31 32
3 31 30 33
3 33 30 34
3 34 30 35
3 35 30 36
3 36 30 37
3 37 30 38
3 38 30 39
3 39 30 40
3 40 30 32
3 28 41 13
3 26 41 28
3 26 29 27
3 24 27 22
3 20 25 22
3 20 23 18
3 16 21 18
3 16 19 17
3 14 17 15
3 28 13 12
