ply
format ascii 1.0
comment Created by Blender 2.79 (sub 0) - www.blender.org, source file: 'untitled.blend'
element vertex 62
property float x
property float y
property float z
property float nx
property float ny
property float nz
property uchar red
property uchar green
property uchar blue
element face 40
property list uchar uint vertex_indices
end_header
0.500000 -0.000000 0.250000 0.000000 -0.000000 1.000000 20 0 255
0.000000 -0.000000 0.250000 0.000000 -0.000000 1.000000 2 255 0
0.809017 -0.587786 0.250000 0.000000 -0.000000 1.000000 20 0 255
0.809017 0.587785 0.250000 0.000000 -0.000000 1.000000 20 0 255
0.154509 0.475528 0.250000 0.000000 -0.000000 1.000000 20 0 255
-0.309017 0.951057 0.250000 -0.000000 -0.000000 1.000000 20 0 255
-0.404509 0.293893 0.250000 -0.000000 -0.000000 1.000000 20 0 255
-1.000000 0.000000 0.250000 -0.000000 0.000000 1.000000 20 0 255
-0.404509 -0.293893 0.250000 -0.000000 -0.000000 1.000000 20 0 255
-0.309017 -0.951057 0.250000 -0.000000 -0.000000 1.000000 20 0 255
0.154509 -0.475528 0.250000 -0.000000 -0.000000 1.000000 20 0 255
0.809017 0.587785 -0.250000 0.885131 -0.465341 -0.000000 255 255 255
0.500000 -0.000000 0.250000 0.885131 -0.465341 -0.000000 56 56 56
0.500000 0.000000 -0.250000 0.885131 -0.465341 -0.000000 56 56 56
0.154509 0.475528 -0.250000 -0.169045 0.985608 0.000000 56 56 56
0.809017 0.587785 0.250000 -0.169045 0.985608 0.000000 255 255 255
0.809017 0.587785 -0.250000 -0.169045 0.985608 0.000000 255 255 255
-0.309017 0.951057 -0.250000 0.716086 0.698012 -0.000000 255 255 255
0.154509 0.475528 0.250000 0.716086 0.698012 -0.000000 56 56 56
0.154509 0.475528 -0.250000 0.716086 0.698012 -0.000000 56 56 56
-0.309017 0.951057 -0.250000 -0.989607 0.143798 0.000000 255 255 255
-0.404509 0.293893 0.250000 -0.989607 0.143798 0.000000 56 56 56
-0.309017 0.951057 0.250000 -0.989607 0.143798 0.000000 255 255 255
-1.000000 0.000000 -0.250000 -0.442566 0.896736 0.000000 255 255 255
-0.404509 0.293893 0.250000 -0.442566 0.896736 0.000000 56 56 56
-0.404509 0.293893 -0.250000 -0.442566 0.896736 0.000000 56 56 56
-1.000000 0.000000 -0.250000 -0.442566 -0.896736 0.000000 255 255 255
-0.404509 -0.293893 0.250000 -0.442566 -0.896736 0.000000 56 56 56
-1.000000 0.000000 0.250000 -0.442566 -0.896736 0.000000 255 255 255
-0.309017 -0.951057 -0.250000 -0.989607 -0.143798 0.000000 255 255 255
-0.404509 -0.293893 0.250000 -0.989607 -0.143798 0.000000 56 56 56
-0.404509 -0.293893 -0.250000 -0.989607 -0.143798 0.000000 56 56 56
0.154509 -0.475528 -0.250000 0.716086 -0.698012 0.000000 56 56 56
-0.309017 -0.951057 0.250000 0.716086 -0.698012 0.000000 255 255 255
-0.309017 -0.951057 -0.250000 0.716086 -0.698012 0.000000 255 255 255
0.154509 -0.475528 -0.250000 -0.169046 -0.985608 0.000000 56 56 56
0.809017 -0.587786 0.250000 -0.169046 -0.985608 0.000000 255 255 255
0.154509 -0.475528 0.250000 -0.169046 -0.985608 0.000000 56 56 56
0.809017 0.587785 0.250000 0.885131 -0.465341 0.000000 255 255 255
0.000000 0.000000 -0.250000 0.000000 0.000000 -1.000000 241 0 255
0.500000 0.000000 -0.250000 0.000000 0.000000 -1.000000 0 254 255
0.809017 -0.587786 -0.250000 0.000000 0.000000 -1.000000 0 254 255
0.809017 0.587785 -0.250000 0.000000 0.000000 -1.000000 0 254 255
0.154509 0.475528 -0.250000 0.000000 0.000000 -1.000000 0 254 255
-0.309017 0.951057 -0.250000 -0.000000 0.000000 -1.000000 0 254 255
-0.404509 0.293893 -0.250000 -0.000000 0.000000 -1.000000 0 254 255
-1.000000 0.000000 -0.250000 0.000000 0.000000 -1.000000 0 254 255
-0.404509 -0.293893 -0.250000 0.000000 0.000000 -1.000000 0 254 255
-0.309017 -0.951057 -0.250000 -0.000000 0.000000 -1.000000 0 254 255
0.154509 -0.475528 -0.250000 -0.000000 0.000000 -1.000000 0 254 255
0.809017 -0.587786 0.250000 0.885132 0.465340 -0.000000 255 255 255
0.809017 -0.587786 -0.250000 0.885132 0.465340 -0.000000 255 255 255
0.500000 0.000000 -0.250000 0.885132 0.465340 -0.000000 56 56 56
0.809017 -0.587786 -0.250000 -0.169046 -0.985608 -0.000000 255 255 255
0.154509 -0.475528 0.250000 0.716086 -0.698012 0.000000 56 56 56
-0.309017 -0.951057 0.250000 -0.989607 -0.143798 -0.000000 255 255 255
-0.404509 -0.293893 -0.250000 -0.442566 -0.896736 -0.000000 56 56 56
-1.000000 0.000000 0.250000 -0.442566 0.896736 0.000000 255 255 255
-0.404509 0.293893 -0.250000 -0.989607 0.143798 0.000000 56 56 56
-0.309017 0.951057 0.250000 0.716086 0.698012 0.000000 255 255 255
0.154509 0.475528 0.250000 -0.169045 0.985608 0.000000 56 56 56
0.500000 -0.000000 0.250000 0.885132 0.465340 0.000000 56 56 56
3 0 1 2
3 1 0 3
3 1 3 4
3 1 4 5
3 1 5 6
3 1 6 7
3 1 7 8
3 1 8 9
3 1 9 10
3 1 10 2
3 11 12 13
3 14 15 16
3 17 18 19
3 20 21 22
3 23 24 25
3 26 27 28
3 29 30 31
3 32 33 34
3 35 36 37
3 11 38 12
3 39 40 41
3 40 39 42
3 42 39 43
3 43 39 44
3 44 39 45
3 45 39 46
3 46 39 47
3 47 39 48
3 48 39 49
3 49 39 41
3 50 51 52
3 35 53 36
3 32 54 33
3 29 55 30
3 26 56 27
3 23 57 24
3 20 58 21
3 17 59 18
3 14 60 15
3 50 52 61
