ply
format ascii 1.0
comment Created by Blender 2.79 (sub 0) - www.blender.org, source file: 'untitled.blend'
element vertex 386
property float x
property float y
property float z
property float nx
property float ny
property float nz
property float s
property float t
element face 768
property list uchar uint vertex_indices
end_header
-0.458716 0.268851 0.626099 -0.490036 0.491501 0.719871 0.253705 0.747349
-0.516963 0.325650 0.530673 -0.577349 0.577288 0.577380 0.211325 0.788675
-0.555153 0.234884 0.568864 -0.634510 0.441298 0.634480 0.183537 0.722634
0.219733 -0.563271 0.472418 0.491470 -0.719962 0.489975 0.747341 0.141900
0.276543 -0.467855 0.530673 0.577349 -0.577288 0.577380 0.788675 0.211325
0.185778 -0.506051 0.568865 0.441389 -0.634968 0.633992 0.722636 0.183534
-0.612383 0.268845 -0.204582 -0.719932 0.491531 -0.489975 0.141897 0.747344
-0.516963 0.325650 -0.262832 -0.577349 0.577288 -0.577380 0.211325 0.788675
-0.555153 0.234884 -0.301023 -0.634510 0.441298 -0.634480 0.183537 0.722634
-0.460153 0.421067 0.472418 -0.491470 0.719962 0.489975 0.252660 0.858100
-0.426198 0.363846 0.568865 -0.441389 0.634968 0.633992 0.277365 0.816466
0.371963 0.268845 0.472423 0.719932 0.491531 0.489975 0.858103 0.747344
0.276543 0.325650 0.530673 0.577349 0.577288 0.577380 0.788675 0.788675
0.314733 0.234884 0.568864 0.634510 0.441298 0.634480 0.816463 0.722634
0.218296 0.268851 -0.358257 0.490036 0.491501 -0.719871 0.746295 0.747348
0.276543 0.325650 -0.262832 0.577349 0.577288 -0.577380 0.788675 0.788675
0.314734 0.234884 -0.301023 0.634510 0.441298 -0.634480 0.816463 0.722634
0.261760 -0.071102 -0.437737 0.552751 0.000000 -0.833338 0.777919 0.500000
0.360101 -0.176453 -0.346391 0.699057 -0.150212 -0.699057 0.849472 0.423347
0.257082 -0.190283 -0.428204 0.544877 -0.171422 -0.820765 0.774516 0.413284
-0.254211 -0.071102 -0.539746 -0.194555 0.000000 -0.980865 0.402502 0.500000
-0.120210 -0.205100 -0.539728 0.000000 -0.194342 -0.980926 0.500000 0.402504
-0.252625 -0.204729 -0.526246 -0.192053 -0.193457 -0.962096 0.403655 0.402773
-0.225560 0.409212 -0.346381 -0.150090 0.699728 -0.698416 0.423348 0.849474
-0.120210 0.310903 -0.437791 0.000000 0.552690 -0.833369 0.500000 0.777945
-0.238040 0.307478 -0.427804 -0.169195 0.546892 -0.819910 0.414268 0.775453
0.451448 -0.071102 0.515891 0.833338 0.000000 0.552751 0.915936 0.500000
0.360101 -0.176453 0.614232 0.699057 -0.150212 0.699057 0.849472 0.423347
0.441915 -0.190283 0.511213 0.820765 -0.171422 0.544877 0.908999 0.413284
0.553456 -0.071102 -0.000080 0.980865 0.000000 -0.194555 0.990156 0.500000
0.553439 -0.205100 0.133921 0.980926 -0.194342 0.000000 0.990144 0.402504
0.539957 -0.204730 0.001506 0.962096 -0.193457 -0.192053 0.980334 0.402773
0.360095 0.409203 0.028571 0.699088 0.699088 -0.149937 0.849468 0.849467
0.451463 0.310877 0.133921 0.833338 0.552721 0.000000 0.915946 0.777926
0.441487 0.307452 0.016097 0.819910 0.546892 -0.169134 0.908688 0.775434
-0.120210 0.500517 0.515865 0.000000 0.833308 0.552782 0.500000 0.915908
-0.014860 0.409212 0.614222 0.150090 0.699728 0.698416 0.576652 0.849474
-0.001037 0.490994 0.511188 0.171361 0.820765 0.544908 0.586709 0.908979
-0.120210 0.602564 -0.000080 0.000000 0.980865 -0.194555 0.500000 0.990156
0.013787 0.602547 0.133921 0.194342 0.980926 0.000000 0.597496 0.990143
0.013417 0.589065 0.001506 0.193457 0.962096 -0.192053 0.597227 0.980334
-0.600515 0.409203 0.028571 -0.699088 0.699088 -0.149937 0.150532 0.849467
-0.502189 0.500570 0.133921 -0.552721 0.833338 0.000000 0.222074 0.915946
-0.498764 0.490595 0.016097 -0.546892 0.819910 -0.169134 0.224566 0.908688
-0.691868 -0.071102 -0.248049 -0.833338 0.000000 -0.552751 0.084064 0.500000
-0.600521 -0.176453 -0.346391 -0.699057 -0.150212 -0.699057 0.150528 0.423347
-0.682335 -0.190283 -0.243372 -0.820765 -0.171422 -0.544877 0.091001 0.413284
-0.793876 -0.071102 0.267921 -0.980865 0.000000 0.194555 0.009844 0.500000
-0.793859 -0.205100 0.133921 -0.980926 -0.194342 0.000000 0.009856 0.402504
-0.780377 -0.204729 0.266336 -0.962096 -0.193457 0.192053 0.019666 0.402774
-0.600515 0.409203 0.239270 -0.699088 0.699088 0.149937 0.150533 0.849468
-0.691883 0.310877 0.133921 -0.833338 0.552721 0.000000 0.084054 0.777926
-0.681907 0.307452 0.251744 -0.819910 0.546892 0.169134 0.091312 0.775434
-0.120210 -0.642722 0.515865 0.000000 -0.833308 0.552782 0.500000 0.084092
-0.225560 -0.551417 0.614222 -0.150090 -0.699728 0.698416 0.423348 0.150526
-0.239383 -0.633199 0.511188 -0.171361 -0.820765 0.544908 0.413291 0.091022
-0.120210 -0.744769 -0.000080 0.000000 -0.980865 -0.194555 0.500000 0.009844
-0.254207 -0.744751 0.133921 -0.194342 -0.980926 0.000000 0.402505 0.009856
-0.253837 -0.731269 0.001506 -0.193457 -0.962096 -0.192053 0.402774 0.019666
0.360095 -0.551407 0.028571 0.699088 -0.699088 -0.149937 0.849467 0.150533
0.261769 -0.642775 0.133921 0.552721 -0.833338 0.000000 0.777926 0.084054
0.258344 -0.632800 0.016097 0.546892 -0.819910 -0.169134 0.775434 0.091312
-0.502180 -0.071102 0.705579 -0.552751 0.000000 0.833338 0.222081 0.500000
-0.600521 -0.176453 0.614232 -0.699057 -0.150212 0.699057 0.150528 0.423347
-0.497502 -0.190283 0.696045 -0.544877 -0.171422 0.820765 0.225484 0.413285
0.013791 -0.071102 0.807587 0.194555 0.000000 0.980865 0.597498 0.500000
-0.120210 -0.205100 0.807570 0.000000 -0.194342 0.980926 0.500000 0.402504
0.012205 -0.204730 0.794088 0.192053 -0.193457 0.962096 0.596345 0.402774
-0.120210 0.310903 0.705632 0.000000 0.552690 0.833369 0.500000 0.777945
-0.002380 0.307478 0.695646 0.169195 0.546892 0.819910 0.585733 0.775453
0.012205 0.062525 0.794088 0.192053 0.193457 0.962096 0.596345 0.597226
-0.120210 0.191876 0.768807 0.000000 0.377544 0.925962 0.500000 0.691342
-0.120210 0.062895 0.807570 0.000000 0.194342 0.980926 0.500000 0.597496
0.241838 0.163355 0.669255 0.523331 0.337382 0.782464 0.763425 0.670590
0.139768 0.057422 0.756441 0.373302 0.185492 0.908963 0.689159 0.593514
0.257082 0.048079 0.696045 0.544877 0.171422 0.820765 0.774516 0.586716
0.185778 0.363846 0.568865 0.441389 0.634968 0.633992 0.722636 0.816467
0.111972 0.292986 0.669021 0.334910 0.526200 0.781610 0.668935 0.764909
0.218296 0.268851 0.626099 0.490036 0.491501 0.719871 0.746295 0.747349
-0.002380 -0.449682 0.695646 0.169195 -0.546892 0.819910 0.585733 0.224547
-0.120210 -0.334081 0.768807 0.000000 -0.377544 0.925962 0.500000 0.308658
-0.120210 -0.453108 0.705632 0.000000 -0.552690 0.833369 0.500000 0.222055
0.218296 -0.411056 0.626099 0.490036 -0.491501 0.719871 0.746295 0.252652
0.128140 -0.323765 0.722751 0.357128 -0.361766 0.861110 0.680698 0.316164
0.111972 -0.435191 0.669021 0.334910 -0.526200 0.781610 0.668935 0.235091
0.257082 -0.190283 0.696045 0.544877 -0.171422 0.820765 0.774516 0.413284
0.142768 -0.071102 0.768807 0.378063 0.000000 0.925748 0.691342 0.500000
0.139768 -0.199627 0.756441 0.373302 -0.185492 0.908963 0.689159 0.406486
-0.482258 -0.305560 0.669255 -0.523331 -0.337382 0.782464 0.236575 0.329410
-0.555153 -0.377089 0.568864 -0.634510 -0.441298 0.634480 0.183537 0.277366
-0.458716 -0.411056 0.626099 -0.490036 -0.491501 0.719871 0.253705 0.252652
-0.246483 -0.333137 0.756151 -0.182226 -0.375439 0.908719 0.408124 0.309345
-0.352392 -0.435191 0.669021 -0.334910 -0.526200 0.781610 0.331065 0.235091
-0.238040 -0.449682 0.695646 -0.169195 -0.546892 0.819910 0.414268 0.224547
-0.254211 -0.071102 0.807587 -0.194555 0.000000 0.980865 0.402502 0.500000
-0.380188 -0.199627 0.756441 -0.373302 -0.185492 0.908963 0.310841 0.406486
-0.252625 -0.204729 0.794088 -0.192053 -0.193457 0.962096 0.403656 0.402774
0.013417 -0.731269 0.001506 0.193457 -0.962096 -0.192053 0.597226 0.019666
0.142768 -0.705988 0.133921 0.377697 -0.925901 0.000000 0.691342 0.038060
0.013787 -0.744751 0.133921 0.194342 -0.980926 0.000000 0.597496 0.009856
0.114237 -0.606419 -0.228115 0.337291 -0.782495 -0.523362 0.670582 0.110506
0.008314 -0.693623 -0.126057 0.185492 -0.908902 -0.373424 0.593514 0.047057
-0.001037 -0.633199 -0.243347 0.171361 -0.820765 -0.544908 0.586709 0.091021
0.314739 -0.506052 -0.172070 0.634449 -0.634480 -0.441450 0.816467 0.183533
0.243866 -0.606185 -0.098251 0.526200 -0.781610 -0.334849 0.764900 0.110676
0.219733 -0.563271 -0.204577 0.491470 -0.719962 -0.489975 0.747341 0.141900
-0.498764 -0.632800 0.016097 -0.546892 -0.819910 -0.169134 0.224566 0.091312
-0.383188 -0.705988 0.133921 -0.377697 -0.925901 0.000000 0.308658 0.038060
-0.502189 -0.642775 0.133921 -0.552721 -0.833338 0.000000 0.222074 0.084054
-0.460153 -0.563272 -0.204577 -0.491470 -0.719962 -0.489975 0.252660 0.141900
-0.372873 -0.659933 -0.114429 -0.361827 -0.861080 -0.357189 0.316164 0.071570
-0.484286 -0.606185 -0.098251 -0.526200 -0.781610 -0.334849 0.235100 0.110676
-0.239383 -0.633199 -0.243347 -0.171361 -0.820765 -0.544908 0.413291 0.091021
-0.120210 -0.705988 -0.129058 0.000000 -0.925718 -0.378185 0.500000 0.038060
-0.248734 -0.693623 -0.126057 -0.185492 -0.908902 -0.373424 0.406486 0.047057
-0.354657 -0.606419 0.495956 -0.337291 -0.782495 0.523362 0.329418 0.110507
-0.426198 -0.506051 0.568865 -0.441389 -0.634968 0.633992 0.277365 0.183534
-0.460153 -0.563271 0.472418 -0.491470 -0.719962 0.489975 0.252660 0.141900
-0.382244 -0.693332 0.260194 -0.375561 -0.908689 0.182195 0.309345 0.047268
-0.484286 -0.606185 0.366093 -0.526200 -0.781610 0.334849 0.235100 0.110676
-0.498764 -0.632800 0.251744 -0.546892 -0.819910 0.169134 0.224566 0.091312
-0.120210 -0.744769 0.267921 0.000000 -0.980865 0.194555 0.500000 0.009844
-0.248734 -0.693623 0.393899 -0.185492 -0.908902 0.373424 0.406486 0.047057
-0.253837 -0.731269 0.266336 -0.193457 -0.962096 0.192053 0.402774 0.019666
-0.780377 0.062525 0.266336 -0.962096 0.193457 0.192053 0.019666 0.597226
-0.755096 0.191876 0.133921 -0.925901 0.377697 0.000000 0.038060 0.691342
-0.793859 0.062895 0.133921 -0.980926 0.194342 0.000000 0.009856 0.597496
-0.655544 0.163355 0.495969 -0.782464 0.337382 0.523331 0.110494 0.670590
-0.742730 0.057422 0.393899 -0.908963 0.185492 0.373302 0.047057 0.593514
-0.682335 0.048079 0.511213 -0.820765 0.171422 0.544877 0.091001 0.586716
-0.555159 0.363847 0.439911 -0.634449 0.634480 0.441450 0.183533 0.816467
-0.655293 0.292974 0.366093 -0.781610 0.526231 0.334819 0.110676 0.764900
-0.612383 0.268845 0.472423 -0.719932 0.491531 0.489975 0.141897 0.747344
-0.681907 -0.449656 0.251744 -0.819910 -0.546892 0.169134 0.091312 0.224566
-0.755096 -0.334081 0.133921 -0.925901 -0.377697 0.000000 0.038060 0.308658
-0.691883 -0.453082 0.133921 -0.833338 -0.552721 0.000000 0.084054 0.222074
-0.612383 -0.411050 0.472423 -0.719932 -0.491531 0.489975 0.141897 0.252656
-0.709041 -0.323765 0.382271 -0.861110 -0.361827 0.357128 0.071570 0.316164
-0.655293 -0.435179 0.366093 -0.781610 -0.526231 0.334819 0.110676 0.235100
-0.682335 -0.190283 0.511213 -0.820765 -0.171422 0.544877 0.091001 0.413285
-0.755096 -0.071102 0.396899 -0.925748 0.000000 0.378063 0.038060 0.500000
-0.742730 -0.199627 0.393899 -0.908963 -0.185492 0.373302 0.047057 0.406486
-0.655544 -0.305560 -0.228127 -0.782464 -0.337382 -0.523331 0.110494 0.329410
-0.555153 -0.377089 -0.301023 -0.634510 -0.441298 -0.634480 0.183537 0.277366
-0.612383 -0.411050 -0.204581 -0.719932 -0.491531 -0.489975 0.141897 0.252656
-0.742440 -0.333137 0.007647 -0.908689 -0.375561 -0.182195 0.047269 0.309345
-0.655293 -0.435179 -0.098251 -0.781610 -0.526231 -0.334819 0.110676 0.235100
-0.681907 -0.449656 0.016097 -0.819910 -0.546892 -0.169134 0.091312 0.224566
-0.793876 -0.071102 -0.000080 -0.980865 0.000000 -0.194555 0.009844 0.500000
-0.742730 -0.199627 -0.126057 -0.908963 -0.185492 -0.373302 0.047057 0.406486
-0.780377 -0.204729 0.001506 -0.962096 -0.193457 -0.192053 0.019666 0.402773
-0.253837 0.589065 0.001506 -0.193457 0.962096 -0.192053 0.402774 0.980334
-0.383188 0.563784 0.133921 -0.377697 0.925901 0.000000 0.308658 0.961940
-0.254207 0.602547 0.133921 -0.194342 0.980926 0.000000 0.402505 0.990144
-0.354657 0.464214 -0.228115 -0.337291 0.782495 -0.523362 0.329418 0.889493
-0.248734 0.551418 -0.126057 -0.185492 0.908902 -0.373424 0.406486 0.952943
-0.239383 0.490994 -0.243347 -0.171361 0.820765 -0.544908 0.413291 0.908978
-0.555159 0.363847 -0.172070 -0.634449 0.634480 -0.441450 0.183533 0.816467
-0.484286 0.463981 -0.098251 -0.526200 0.781610 -0.334849 0.235100 0.889324
-0.460153 0.421067 -0.204576 -0.491470 0.719962 -0.489975 0.252660 0.858100
0.258344 0.490595 0.016097 0.546892 0.819910 -0.169134 0.775434 0.908688
0.142768 0.563783 0.133921 0.377697 0.925901 0.000000 0.691342 0.961940
0.261770 0.500570 0.133921 0.552721 0.833338 0.000000 0.777926 0.915946
0.219733 0.421067 -0.204577 0.491470 0.719962 -0.489975 0.747341 0.858100
0.132453 0.517728 -0.114429 0.361827 0.861080 -0.357189 0.683836 0.928430
0.243866 0.463980 -0.098251 0.526200 0.781610 -0.334849 0.764900 0.889324
-0.001037 0.490994 -0.243347 0.171361 0.820765 -0.544908 0.586709 0.908978
-0.120210 0.563784 -0.129058 0.000000 0.925718 -0.378185 0.500000 0.961940
0.008314 0.551418 -0.126057 0.185492 0.908902 -0.373424 0.593514 0.952943
0.114237 0.464214 0.495956 0.337291 0.782495 0.523362 0.670582 0.889493
0.219733 0.421067 0.472418 0.491470 0.719962 0.489975 0.747341 0.858100
0.141824 0.551128 0.260194 0.375561 0.908689 0.182195 0.690655 0.952731
0.243866 0.463980 0.366093 0.526200 0.781610 0.334849 0.764900 0.889324
0.258344 0.490595 0.251744 0.546892 0.819910 0.169134 0.775434 0.908688
-0.120210 0.602564 0.267921 0.000000 0.980865 0.194555 0.500000 0.990156
0.008314 0.551418 0.393899 0.185492 0.908902 0.373424 0.593514 0.952943
0.013417 0.589065 0.266336 0.193457 0.962096 0.192053 0.597227 0.980334
0.539957 0.062525 0.001506 0.962096 0.193457 -0.192053 0.980334 0.597226
0.514676 0.191876 0.133921 0.925901 0.377697 0.000000 0.961940 0.691342
0.553439 0.062895 0.133921 0.980926 0.194342 0.000000 0.990144 0.597496
0.415124 0.163355 -0.228127 0.782464 0.337382 -0.523331 0.889507 0.670590
0.502310 0.057422 -0.126057 0.908963 0.185492 -0.373302 0.952943 0.593514
0.441915 0.048079 -0.243372 0.820765 0.171422 -0.544877 0.908999 0.586715
0.314739 0.363847 -0.172070 0.634449 0.634480 -0.441450 0.816467 0.816467
0.414873 0.292974 -0.098251 0.781610 0.526231 -0.334819 0.889324 0.764900
0.371963 0.268845 -0.204582 0.719932 0.491531 -0.489975 0.858103 0.747344
0.441487 -0.449657 0.016097 0.819910 -0.546892 -0.169134 0.908688 0.224566
0.514676 -0.334081 0.133921 0.925901 -0.377697 0.000000 0.961940 0.308658
0.451463 -0.453082 0.133921 0.833338 -0.552721 0.000000 0.915946 0.222074
0.371963 -0.411050 -0.204582 0.719932 -0.491531 -0.489975 0.858103 0.252656
0.468621 -0.323765 -0.114429 0.861110 -0.361827 -0.357128 0.928430 0.316164
0.414873 -0.435179 -0.098251 0.781610 -0.526231 -0.334819 0.889324 0.235100
0.441915 -0.190283 -0.243372 0.820765 -0.171422 -0.544877 0.908999 0.413284
0.514676 -0.071102 -0.129058 0.925748 0.000000 -0.378063 0.961940 0.500000
0.502310 -0.199627 -0.126057 0.908963 -0.185492 -0.373302 0.952943 0.406486
0.415124 -0.305560 0.495969 0.782464 -0.337382 0.523331 0.889507 0.329410
0.314733 -0.377089 0.568864 0.634510 -0.441298 0.634480 0.816463 0.277366
0.371963 -0.411050 0.472423 0.719932 -0.491531 0.489975 0.858103 0.252656
0.502020 -0.333137 0.260194 0.908689 -0.375561 0.182195 0.952731 0.309345
0.414873 -0.435179 0.366093 0.781610 -0.526231 0.334819 0.889324 0.235100
0.441487 -0.449657 0.251744 0.819910 -0.546892 0.169134 0.908688 0.224566
0.553456 -0.071102 0.267921 0.980865 0.000000 0.194555 0.990156 0.500000
0.502310 -0.199627 0.393899 0.908963 -0.185492 0.373302 0.952943 0.406486
0.539957 -0.204730 0.266336 0.962096 -0.193457 0.192053 0.980334 0.402773
-0.252625 0.062525 -0.526246 -0.192053 0.193457 -0.962096 0.403655 0.597226
-0.120210 0.191876 -0.500965 0.000000 0.377544 -0.925962 0.500000 0.691342
-0.120210 0.062895 -0.539728 0.000000 0.194342 -0.980926 0.500000 0.597495
-0.482258 0.163355 -0.401413 -0.523331 0.337382 -0.782464 0.236575 0.670590
-0.380188 0.057422 -0.488600 -0.373302 0.185492 -0.908963 0.310841 0.593514
-0.497502 0.048079 -0.428204 -0.544877 0.171422 -0.820765 0.225484 0.586715
-0.426198 0.363846 -0.301023 -0.441389 0.634968 -0.633992 0.277365 0.816466
-0.352392 0.292986 -0.401180 -0.334910 0.526200 -0.781610 0.331065 0.764909
-0.458716 0.268851 -0.358257 -0.490036 0.491501 -0.719871 0.253705 0.747349
-0.238040 -0.449682 -0.427804 -0.169195 -0.546892 -0.819910 0.414268 0.224547
-0.120210 -0.334081 -0.500965 0.000000 -0.377544 -0.925962 0.500000 0.308658
-0.120210 -0.453108 -0.437791 0.000000 -0.552690 -0.833369 0.500000 0.222055
-0.458716 -0.411056 -0.358257 -0.490036 -0.491501 -0.719871 0.253705 0.252651
-0.368560 -0.323765 -0.454910 -0.357128 -0.361766 -0.861110 0.319302 0.316164
-0.352392 -0.435191 -0.401180 -0.334910 -0.526200 -0.781610 0.331065 0.235091
-0.497502 -0.190283 -0.428204 -0.544877 -0.171422 -0.820765 0.225484 0.413284
-0.383188 -0.071102 -0.500965 -0.378063 0.000000 -0.925748 0.308658 0.500000
-0.380188 -0.199627 -0.488600 -0.373302 -0.185492 -0.908963 0.310841 0.406486
0.241838 -0.305560 -0.401413 0.523331 -0.337382 -0.782464 0.763425 0.329410
0.314734 -0.377089 -0.301023 0.634510 -0.441298 -0.634480 0.816463 0.277366
0.218296 -0.411056 -0.358257 0.490036 -0.491501 -0.719871 0.746295 0.252651
0.006063 -0.333137 -0.488309 0.182226 -0.375439 -0.908719 0.591876 0.309345
0.111972 -0.435191 -0.401180 0.334941 -0.526200 -0.781610 0.668935 0.235091
-0.002380 -0.449682 -0.427804 0.169195 -0.546892 -0.819910 0.585733 0.224547
0.013791 -0.071102 -0.539746 0.194555 0.000000 -0.980865 0.597498 0.500000
0.139768 -0.199627 -0.488600 0.373302 -0.185492 -0.908963 0.689159 0.406486
0.012205 -0.204730 -0.526246 0.192053 -0.193457 -0.962096 0.596345 0.402773
0.257082 0.048079 -0.428204 0.544877 0.171422 -0.820765 0.774516 0.586715
0.342882 0.137053 -0.329172 0.674551 0.299875 -0.674551 0.836944 0.651453
0.360101 0.034248 -0.346391 0.699057 0.150212 -0.699057 0.849472 0.576653
0.012205 0.062525 -0.526246 0.192053 0.193457 -0.962096 0.596345 0.597226
0.128140 0.181560 -0.454910 0.357128 0.361766 -0.861110 0.680698 0.683836
0.139768 0.057422 -0.488600 0.373302 0.185492 -0.908963 0.689159 0.593514
-0.002380 0.307478 -0.427804 0.169195 0.546892 -0.819910 0.585733 0.775453
0.087945 0.391990 -0.329172 0.299783 0.675405 -0.673727 0.651453 0.836944
0.111972 0.292986 -0.401180 0.334910 0.526200 -0.781610 0.668935 0.764909
0.441915 0.048079 0.511213 0.820765 0.171422 0.544877 0.908999 0.586715
0.342882 0.137053 0.597013 0.674551 0.299875 0.674551 0.836944 0.651453
0.360101 0.034248 0.614232 0.699057 0.150212 0.699057 0.849472 0.576653
0.539957 0.062525 0.266336 0.962096 0.193457 0.192053 0.980334 0.597226
0.468621 0.181560 0.382271 0.861110 0.361827 0.357128 0.928430 0.683836
0.502310 0.057422 0.393899 0.908963 0.185492 0.373302 0.952943 0.593514
0.441487 0.307452 0.251744 0.819910 0.546892 0.169134 0.908688 0.775434
0.342882 0.391990 0.342076 0.674581 0.674581 0.299722 0.836944 0.836944
0.414873 0.292974 0.366093 0.781610 0.526231 0.334819 0.889324 0.764900
-0.239383 0.490994 0.511188 -0.171361 0.820765 0.544908 0.413291 0.908979
-0.328365 0.391990 0.597013 -0.299783 0.675405 0.673727 0.348547 0.836944
-0.225560 0.409212 0.614222 -0.150090 0.699728 0.698416 0.423348 0.849474
-0.253837 0.589065 0.266336 -0.193457 0.962096 0.192053 0.402774 0.980334
-0.372872 0.517728 0.382271 -0.361827 0.861080 0.357189 0.316164 0.928430
-0.248734 0.551418 0.393899 -0.185492 0.908902 0.373424 0.406486 0.952943
-0.498764 0.490595 0.251744 -0.546892 0.819910 0.169134 0.224566 0.908688
-0.583302 0.391990 0.342076 -0.674581 0.674581 0.299722 0.163056 0.836944
-0.484286 0.463981 0.366093 -0.526200 0.781610 0.334849 0.235100 0.889324
-0.682335 0.048079 -0.243372 -0.820765 0.171422 -0.544877 0.091001 0.586715
-0.583302 0.137053 -0.329172 -0.674551 0.299875 -0.674551 0.163056 0.651453
-0.600521 0.034248 -0.346391 -0.699057 0.150212 -0.699057 0.150528 0.576653
-0.780377 0.062525 0.001506 -0.962096 0.193457 -0.192053 0.019666 0.597226
-0.709041 0.181560 -0.114429 -0.861110 0.361827 -0.357128 0.071570 0.683836
-0.742730 0.057422 -0.126057 -0.908963 0.185492 -0.373302 0.047057 0.593514
-0.681907 0.307452 0.016097 -0.819910 0.546892 -0.169134 0.091312 0.775434
-0.583302 0.391990 -0.074235 -0.674581 0.674581 -0.299722 0.163056 0.836944
-0.655293 0.292974 -0.098251 -0.781610 0.526231 -0.334819 0.110676 0.764900
-0.001037 -0.633199 0.511188 0.171361 -0.820765 0.544908 0.586709 0.091022
0.087945 -0.534195 0.597013 0.299783 -0.675405 0.673727 0.651453 0.163056
-0.014860 -0.551417 0.614222 0.150090 -0.699728 0.698416 0.576652 0.150526
0.013417 -0.731269 0.266336 0.193457 -0.962096 0.192053 0.597226 0.019666
0.132452 -0.659933 0.382271 0.361827 -0.861080 0.357189 0.683836 0.071570
0.008314 -0.693623 0.393899 0.185492 -0.908902 0.373424 0.593514 0.047057
0.258344 -0.632800 0.251744 0.546892 -0.819910 0.169134 0.775434 0.091312
0.342882 -0.534195 0.342076 0.674581 -0.674581 0.299722 0.836944 0.163056
0.243866 -0.606185 0.366093 0.526200 -0.781610 0.334849 0.764900 0.110676
-0.497502 0.048079 0.696045 -0.544877 0.171422 0.820765 0.225484 0.586716
-0.583302 0.137053 0.597013 -0.674551 0.299875 0.674551 0.163056 0.651453
-0.600521 0.034248 0.614232 -0.699057 0.150212 0.699057 0.150528 0.576653
-0.252625 0.062525 0.794088 -0.192053 0.193457 0.962096 0.403656 0.597226
-0.368560 0.181560 0.722751 -0.357128 0.361766 0.861110 0.319302 0.683836
-0.380188 0.057422 0.756441 -0.373302 0.185492 0.908963 0.310841 0.593514
-0.238040 0.307477 0.695646 -0.169195 0.546892 0.819910 0.414268 0.775453
-0.352392 0.292986 0.669021 -0.334910 0.526200 0.781610 0.331065 0.764909
-0.246483 0.190932 0.756151 -0.182226 0.375439 0.908719 0.408124 0.690655
-0.383188 -0.071102 0.768807 -0.378063 0.000000 0.925748 0.308658 0.500000
-0.120210 -0.071102 0.821116 0.000000 0.000000 1.000000 0.500000 0.500000
-0.606131 -0.071102 0.619841 -0.707083 0.000000 0.707083 0.146447 0.500000
-0.482258 0.163355 0.669255 -0.523331 0.337382 0.782464 0.236576 0.670590
0.141824 -0.693332 0.260194 0.375561 -0.908689 0.182195 0.690655 0.047268
0.360095 -0.551407 0.239270 0.699088 -0.699088 0.149937 0.849468 0.150532
-0.120210 -0.705988 0.396899 0.000000 -0.925718 0.378185 0.500000 0.038060
-0.120210 -0.758298 0.133921 0.000000 -1.000000 0.000000 0.500000 0.000000
-0.120210 -0.557023 0.619841 0.000000 -0.707389 0.706809 0.500000 0.146447
0.114237 -0.606419 0.495956 0.337291 -0.782495 0.523362 0.670582 0.110507
-0.742440 0.190932 0.007647 -0.908689 0.375561 -0.182195 0.047269 0.690655
-0.755096 -0.071102 -0.129058 -0.925748 0.000000 -0.378063 0.038060 0.500000
-0.807406 -0.071102 0.133921 -1.000000 0.000000 0.000000 0.000000 0.500000
-0.606131 -0.071102 -0.352000 -0.707083 0.000000 -0.707083 0.146447 0.500000
-0.655544 0.163355 -0.228127 -0.782464 0.337382 -0.523331 0.110494 0.670590
-0.382244 0.551128 0.260194 -0.375561 0.908689 0.182195 0.309345 0.952731
-0.120210 0.563784 0.396899 0.000000 0.925718 0.378185 0.500000 0.961940
-0.120210 0.616093 0.133921 0.000000 1.000000 0.000000 0.500000 1.000000
-0.120210 0.414818 0.619842 0.000000 0.707389 0.706809 0.500000 0.853553
-0.354657 0.464214 0.495956 -0.337291 0.782495 0.523362 0.329418 0.889493
0.502020 0.190932 0.260194 0.908689 0.375561 0.182195 0.952731 0.690655
0.360095 0.409202 0.239270 0.699088 0.699088 0.149937 0.849468 0.849467
0.514676 -0.071102 0.396899 0.925748 0.000000 0.378063 0.961940 0.500000
0.566986 -0.071102 0.133921 1.000000 0.000000 0.000000 1.000000 0.500000
0.365711 -0.071102 0.619841 0.707083 0.000000 0.707083 0.853553 0.500000
0.415124 0.163355 0.495969 0.782464 0.337382 0.523331 0.889507 0.670590
0.006063 0.190932 -0.488309 0.182226 0.375439 -0.908719 0.591876 0.690655
-0.014860 0.409212 -0.346381 0.150090 0.699728 -0.698416 0.576652 0.849474
0.142768 -0.071102 -0.500965 0.378063 0.000000 -0.925748 0.691342 0.500000
-0.120210 -0.071102 -0.553275 0.000000 0.000000 -1.000000 0.500000 0.500000
0.365711 -0.071102 -0.352000 0.707083 0.000000 -0.707083 0.853554 0.500000
0.241838 0.163355 -0.401413 0.523331 0.337382 -0.782464 0.763425 0.670590
0.128140 -0.323765 -0.454910 0.357128 -0.361766 -0.861110 0.680698 0.316164
0.087945 -0.534195 -0.329172 0.299783 -0.675405 -0.673727 0.651453 0.163056
-0.014860 -0.551417 -0.346381 0.150090 -0.699728 -0.698416 0.576652 0.150525
-0.120210 -0.557023 -0.352000 0.000000 -0.707389 -0.706809 0.500000 0.146447
0.276543 -0.467855 -0.262832 0.577349 -0.577288 -0.577380 0.788675 0.211325
0.185778 -0.506051 -0.301023 0.441389 -0.634968 -0.633992 0.722636 0.183534
-0.482258 -0.305560 -0.401413 -0.523331 -0.337382 -0.782464 0.236575 0.329410
-0.583302 -0.279258 -0.329172 -0.674551 -0.299875 -0.674551 0.163056 0.348547
-0.502180 -0.071102 -0.437737 -0.552751 0.000000 -0.833308 0.222081 0.500000
-0.426198 -0.506051 -0.301023 -0.441389 -0.634968 -0.633992 0.277365 0.183533
-0.328365 -0.534195 -0.329172 -0.299783 -0.675405 -0.673727 0.348547 0.163056
-0.516963 -0.467855 -0.262832 -0.577349 -0.577288 -0.577380 0.211325 0.211325
-0.225560 -0.551417 -0.346381 -0.150090 -0.699728 -0.698416 0.423348 0.150525
-0.246484 -0.333137 -0.488309 -0.182226 -0.375439 -0.908719 0.408124 0.309345
-0.368560 0.181560 -0.454910 -0.357128 0.361766 -0.861110 0.319302 0.683836
0.468621 -0.323765 0.382271 0.861110 -0.361827 0.357128 0.928430 0.316164
0.365711 -0.557023 0.133921 0.707083 -0.707083 0.000000 0.853553 0.146447
0.314739 -0.506052 0.439911 0.634449 -0.634480 0.441450 0.816467 0.183533
0.415124 -0.305560 -0.228127 0.782464 -0.337382 -0.523331 0.889507 0.329410
0.342882 -0.279258 -0.329172 0.674551 -0.299875 -0.674551 0.836944 0.348547
0.451448 -0.071102 -0.248049 0.833338 0.000000 -0.552751 0.915936 0.500000
0.342882 -0.534195 -0.074235 0.674581 -0.674581 -0.299722 0.836944 0.163056
0.502020 -0.333137 0.007647 0.908689 -0.375561 -0.182195 0.952731 0.309345
0.468621 0.181560 -0.114429 0.861110 0.361827 -0.357128 0.928430 0.683836
0.132452 0.517728 0.382271 0.361827 0.861080 0.357189 0.683836 0.928430
0.365711 0.414818 0.133921 0.707083 0.707083 0.000000 0.853554 0.853553
0.314739 0.363847 0.439911 0.634449 0.634480 0.441450 0.816467 0.816467
0.114237 0.464214 -0.228115 0.337291 0.782495 -0.523362 0.670582 0.889493
-0.120210 0.500517 -0.248023 0.000000 0.833308 -0.552782 0.500000 0.915907
0.342882 0.391990 -0.074235 0.674581 0.674581 -0.299722 0.836944 0.836944
0.185778 0.363846 -0.301023 0.441389 0.634968 -0.633992 0.722636 0.816466
0.141824 0.551128 0.007647 0.375561 0.908689 -0.182195 0.690655 0.952731
-0.372872 0.517728 -0.114429 -0.361827 0.861080 -0.357189 0.316164 0.928430
-0.328365 0.391990 -0.329172 -0.299783 0.675405 -0.673727 0.348547 0.836944
-0.120210 0.414818 -0.352000 0.000000 0.707389 -0.706809 0.500000 0.853553
-0.709041 -0.323765 -0.114429 -0.861110 -0.361827 -0.357128 0.071570 0.316164
-0.583302 -0.534195 -0.074235 -0.674581 -0.674581 -0.299722 0.163056 0.163056
-0.600515 -0.551407 0.028571 -0.699088 -0.699088 -0.149937 0.150532 0.150532
-0.606131 -0.557023 0.133921 -0.707083 -0.707083 0.000000 0.146447 0.146447
-0.555159 -0.506052 -0.172070 -0.634449 -0.634480 -0.441450 0.183533 0.183533
-0.655544 -0.305560 0.495969 -0.782464 -0.337382 0.523331 0.110494 0.329410
-0.583302 -0.279258 0.597013 -0.674551 -0.299875 0.674551 0.163056 0.348547
-0.691868 -0.071102 0.515891 -0.833308 0.000000 0.552751 0.084064 0.500000
-0.555159 -0.506052 0.439911 -0.634449 -0.634480 0.441450 0.183533 0.183533
-0.583302 -0.534195 0.342076 -0.674581 -0.674581 0.299722 0.163056 0.163056
-0.516963 -0.467855 0.530673 -0.577349 -0.577288 0.577380 0.211325 0.211325
-0.600515 -0.551407 0.239270 -0.699088 -0.699088 0.149937 0.150533 0.150533
-0.742440 -0.333137 0.260194 -0.908689 -0.375561 0.182195 0.047269 0.309345
-0.709041 0.181560 0.382271 -0.861110 0.361827 0.357128 0.071570 0.683836
-0.372872 -0.659933 0.382271 -0.361827 -0.861080 0.357189 0.316164 0.071570
-0.354657 -0.606419 -0.228115 -0.337291 -0.782495 -0.523362 0.329418 0.110507
-0.120210 -0.642722 -0.248023 0.000000 -0.833308 -0.552782 0.500000 0.084092
-0.382244 -0.693332 0.007647 -0.375561 -0.908689 -0.182195 0.309345 0.047268
0.132452 -0.659933 -0.114429 0.361827 -0.861080 -0.357189 0.683836 0.071570
-0.368560 -0.323765 0.722751 -0.357128 -0.361766 0.861110 0.319302 0.316164
-0.328365 -0.534195 0.597013 -0.299783 -0.675405 0.673727 0.348547 0.163056
0.241838 -0.305560 0.669255 0.523331 -0.337382 0.782464 0.763425 0.329410
0.342882 -0.279258 0.597013 0.674551 -0.299875 0.674551 0.836944 0.348547
0.261760 -0.071102 0.705579 0.552751 0.000000 0.833338 0.777919 0.500000
0.006063 -0.333137 0.756151 0.182226 -0.375439 0.908719 0.591876 0.309345
0.128140 0.181560 0.722751 0.357128 0.361766 0.861110 0.680698 0.683836
0.006064 0.190932 0.756151 0.182226 0.375439 0.908719 0.591876 0.690655
0.087945 0.391990 0.597013 0.299783 0.675405 0.673727 0.651453 0.836944
0.141824 -0.693333 0.007647 0.375561 -0.908689 -0.182195 0.690655 0.047268
-0.742440 0.190932 0.260194 -0.908689 0.375561 0.182195 0.047269 0.690655
-0.382245 0.551128 0.007647 -0.375561 0.908689 -0.182195 0.309345 0.952731
0.502020 0.190932 0.007647 0.908689 0.375561 -0.182195 0.952731 0.690655
-0.246484 0.190932 -0.488309 -0.182226 0.375439 -0.908719 0.408124 0.690655
-0.606131 0.414818 0.133921 -0.707083 0.707083 0.000000 0.146447 0.853553
3 0 1 2
3 3 4 5
3 6 7 8
3 9 1 10
3 11 12 13
3 14 15 16
3 17 18 19
3 20 21 22
3 23 24 25
3 26 27 28
3 29 30 31
3 32 33 34
3 35 36 37
3 38 39 40
3 41 42 43
3 44 45 46
3 47 48 49
3 50 51 52
3 53 54 55
3 56 57 58
3 59 60 61
3 62 63 64
3 65 66 67
3 36 68 69
3 70 71 72
3 73 74 75
3 76 77 78
3 79 80 81
3 82 83 84
3 85 86 87
3 88 89 90
3 91 92 93
3 94 95 96
3 97 98 99
3 100 101 102
3 103 104 105
3 106 107 108
3 109 110 111
3 112 113 114
3 115 116 117
3 118 119 120
3 121 122 123
3 124 125 126
3 127 128 129
3 130 131 132
3 133 134 135
3 136 137 138
3 139 140 141
3 142 143 144
3 145 146 147
3 148 149 150
3 151 152 153
3 154 155 156
3 157 158 159
3 160 161 162
3 163 164 165
3 166 167 168
3 169 76 170
3 171 172 173
3 174 175 176
3 177 178 179
3 180 181 182
3 183 184 185
3 186 187 188
3 189 190 191
3 192 193 194
3 195 196 197
3 198 199 200
3 201 202 203
3 204 205 206
3 207 208 209
3 210 211 212
3 213 214 215
3 216 217 218
3 219 220 221
3 222 223 224
3 225 226 227
3 228 229 230
3 231 232 233
3 234 235 236
3 237 238 239
3 240 241 242
3 243 244 245
3 246 247 248
3 249 250 251
3 252 253 254
3 255 256 257
3 258 259 260
3 261 262 263
3 264 265 266
3 267 268 269
3 270 271 272
3 273 274 275
3 276 277 278
3 279 280 281
3 282 250 283
3 284 283 280
3 71 282 284
3 68 251 282
3 94 281 285
3 72 94 286
3 71 279 72
3 62 278 287
3 285 276 62
3 281 288 276
3 289 275 271
3 98 273 289
3 60 290 273
3 121 272 291
3 99 121 292
3 98 270 99
3 53 269 293
3 291 267 53
3 272 294 267
3 295 266 262
3 125 264 295
3 51 41 264
3 148 263 296
3 126 148 297
3 125 261 126
3 44 260 298
3 296 258 44
3 263 299 258
3 300 257 253
3 152 255 300
3 42 50 255
3 174 254 301
3 153 174 302
3 152 252 153
3 35 251 303
3 301 249 35
3 254 304 249
3 305 248 244
3 178 246 305
3 33 306 246
3 201 245 307
3 179 201 308
3 178 243 179
3 26 242 309
3 307 240 26
3 245 310 240
3 311 239 235
3 205 237 311
3 24 312 237
3 228 236 313
3 206 228 314
3 205 234 206
3 17 233 315
3 313 231 17
3 236 316 231
3 230 317 225
3 214 230 225
3 21 228 230
3 227 318 319
3 215 319 320
3 214 227 215
3 224 321 322
3 226 322 318
3 317 224 226
3 323 221 217
3 324 219 323
3 45 325 219
3 326 218 327
3 328 216 326
3 143 323 216
3 329 215 320
3 327 213 329
3 218 330 213
3 212 331 207
3 8 207 259
3 7 212 8
3 209 220 325
3 260 325 298
3 259 209 260
3 20 206 314
3 208 20 220
3 331 204 208
3 203 332 198
3 187 203 198
3 30 201 203
3 200 274 290
3 188 290 333
3 187 200 188
3 197 4 334
3 199 334 274
3 332 197 199
3 335 194 190
3 336 192 335
3 18 337 192
3 103 191 338
3 321 189 103
3 223 335 189
3 59 188 333
3 338 186 59
3 191 339 186
3 185 340 180
3 16 180 232
3 15 185 16
3 182 193 337
3 233 337 315
3 232 182 233
3 29 179 308
3 181 29 193
3 340 177 181
3 176 341 171
3 161 176 171
3 39 174 176
3 173 247 306
3 162 306 342
3 161 173 162
3 170 12 343
3 172 343 247
3 341 170 172
3 344 168 164
3 238 166 344
3 312 345 166
3 183 165 346
3 15 163 183
3 347 344 163
3 32 162 342
3 346 160 32
3 165 348 160
3 159 349 154
3 210 154 350
3 7 159 210
3 156 167 345
3 23 345 351
3 350 156 23
3 38 153 302
3 155 38 167
3 349 151 155
3 150 352 145
3 134 150 145
3 48 148 150
3 147 353 354
3 135 354 355
3 134 147 135
3 144 328 356
3 146 356 353
3 352 144 146
3 357 141 137
3 358 139 357
3 63 359 139
3 360 138 361
3 362 136 360
3 89 357 136
3 363 135 355
3 361 133 363
3 138 364 133
3 132 365 127
3 2 127 277
3 1 132 2
3 129 140 359
3 278 359 287
3 277 129 278
3 47 126 297
3 128 47 140
3 365 124 128
3 123 366 118
3 107 123 118
3 57 121 123
3 120 361 363
3 108 363 355
3 107 120 108
3 117 362 360
3 119 360 361
3 366 117 119
3 367 114 110
3 327 112 367
3 329 368 112
3 356 111 353
3 328 109 356
3 326 367 109
3 354 108 355
3 353 106 354
3 111 369 106
3 105 370 100
3 322 100 318
3 321 105 322
3 102 113 368
3 319 368 320
3 318 102 319
3 56 99 292
3 101 56 113
3 370 97 101
3 96 371 91
3 80 96 91
3 66 94 96
3 93 372 54
3 81 54 293
3 80 93 81
3 90 362 116
3 92 116 372
3 371 90 92
3 373 87 83
3 374 85 373
3 27 375 85
3 5 84 268
3 4 82 5
3 196 373 82
3 269 81 293
3 268 79 269
3 84 376 79
3 78 377 73
3 13 73 241
3 12 78 13
3 75 86 375
3 242 375 309
3 241 75 242
3 65 72 286
3 74 65 86
3 377 70 74
3 69 71 378
3 77 378 377
3 379 69 77
3 67 80 376
3 83 67 376
3 87 65 67
3 64 358 88
3 95 88 371
3 285 64 95
3 61 98 380
3 104 380 370
3 338 61 104
3 58 107 369
3 110 58 369
3 114 56 58
3 55 372 115
3 122 115 366
3 291 55 122
3 52 125 381
3 131 381 365
3 256 52 131
3 49 134 364
3 137 49 364
3 141 47 49
3 46 324 142
3 149 142 352
3 296 46 149
3 43 152 382
3 158 382 349
3 265 43 158
3 40 161 348
3 164 40 348
3 168 38 40
3 37 379 169
3 175 169 341
3 301 37 175
3 34 178 383
3 184 383 340
3 346 34 184
3 31 187 339
3 190 31 339
3 194 29 31
3 28 374 195
3 202 195 332
3 307 28 202
3 25 205 384
3 211 384 331
3 350 25 211
3 22 214 330
3 217 22 330
3 221 20 22
3 19 336 222
3 229 222 317
3 313 19 229
3 316 16 232
3 235 14 316
3 239 347 14
3 310 13 241
3 244 11 310
3 248 343 11
3 304 10 250
3 253 9 304
3 257 130 9
3 299 8 259
3 262 6 299
3 266 157 6
3 294 5 268
3 271 3 294
3 275 334 3
3 288 2 277
3 280 0 288
3 283 10 0
3 0 10 1
3 3 334 4
3 6 157 7
3 9 130 1
3 11 343 12
3 14 347 15
3 17 315 18
3 20 314 21
3 23 351 24
3 26 309 27
3 29 308 30
3 32 342 33
3 35 303 36
3 38 302 39
3 41 385 42
3 44 298 45
3 47 297 48
3 50 385 51
3 53 293 54
3 56 292 57
3 59 333 60
3 62 287 63
3 65 286 66
3 36 303 68
3 70 378 71
3 73 377 74
3 76 379 77
3 79 376 80
3 82 373 83
3 85 375 86
3 88 358 89
3 91 371 92
3 94 285 95
3 97 380 98
3 100 370 101
3 103 338 104
3 106 369 107
3 109 367 110
3 112 368 113
3 115 372 116
3 118 366 119
3 121 291 122
3 124 381 125
3 127 365 128
3 130 256 131
3 133 364 134
3 136 357 137
3 139 359 140
3 142 324 143
3 145 352 146
3 148 296 149
3 151 382 152
3 154 349 155
3 157 265 158
3 160 348 161
3 163 344 164
3 166 345 167
3 169 379 76
3 171 341 172
3 174 301 175
3 177 383 178
3 180 340 181
3 183 346 184
3 186 339 187
3 189 335 190
3 192 337 193
3 195 374 196
3 198 332 199
3 201 307 202
3 204 384 205
3 207 331 208
3 210 350 211
3 213 330 214
3 216 323 217
3 219 325 220
3 222 336 223
3 225 317 226
3 228 313 229
3 231 316 232
3 234 311 235
3 237 312 238
3 240 310 241
3 243 305 244
3 246 306 247
3 249 304 250
3 252 300 253
3 255 50 256
3 258 299 259
3 261 295 262
3 264 41 265
3 267 294 268
3 270 289 271
3 273 290 274
3 276 288 277
3 279 284 280
3 282 251 250
3 284 282 283
3 71 68 282
3 68 303 251
3 94 279 281
3 72 279 94
3 71 284 279
3 62 276 278
3 285 281 276
3 281 280 288
3 289 273 275
3 98 60 273
3 60 333 290
3 121 270 272
3 99 270 121
3 98 289 270
3 53 267 269
3 291 272 267
3 272 271 294
3 295 264 266
3 125 51 264
3 51 385 41
3 148 261 263
3 126 261 148
3 125 295 261
3 44 258 260
3 296 263 258
3 263 262 299
3 300 255 257
3 152 42 255
3 42 385 50
3 174 252 254
3 153 252 174
3 152 300 252
3 35 249 251
3 301 254 249
3 254 253 304
3 305 246 248
3 178 33 246
3 33 342 306
3 201 243 245
3 179 243 201
3 178 305 243
3 26 240 242
3 307 245 240
3 245 244 310
3 311 237 239
3 205 24 237
3 24 351 312
3 228 234 236
3 206 234 228
3 205 311 234
3 17 231 233
3 313 236 231
3 236 235 316
3 230 229 317
3 214 21 230
3 21 314 228
3 227 226 318
3 215 227 319
3 214 225 227
3 224 223 321
3 226 224 322
3 317 222 224
3 323 219 221
3 324 45 219
3 45 298 325
3 326 216 218
3 328 143 216
3 143 324 323
3 329 213 215
3 327 218 213
3 218 217 330
3 212 211 331
3 8 212 207
3 7 210 212
3 209 208 220
3 260 209 325
3 259 207 209
3 20 204 206
3 208 204 20
3 331 384 204
3 203 202 332
3 187 30 203
3 30 308 201
3 200 199 274
3 188 200 290
3 187 198 200
3 197 196 4
3 199 197 334
3 332 195 197
3 335 192 194
3 336 18 192
3 18 315 337
3 103 189 191
3 321 223 189
3 223 336 335
3 59 186 188
3 338 191 186
3 191 190 339
3 185 184 340
3 16 185 180
3 15 183 185
3 182 181 193
3 233 182 337
3 232 180 182
3 29 177 179
3 181 177 29
3 340 383 177
3 176 175 341
3 161 39 176
3 39 302 174
3 173 172 247
3 162 173 306
3 161 171 173
3 170 76 12
3 172 170 343
3 341 169 170
3 344 166 168
3 238 312 166
3 312 351 345
3 183 163 165
3 15 347 163
3 347 238 344
3 32 160 162
3 346 165 160
3 165 164 348
3 159 158 349
3 210 159 154
3 7 157 159
3 156 155 167
3 23 156 345
3 350 154 156
3 38 151 153
3 155 151 38
3 349 382 151
3 150 149 352
3 134 48 150
3 48 297 148
3 147 146 353
3 135 147 354
3 134 145 147
3 144 143 328
3 146 144 356
3 352 142 144
3 357 139 141
3 358 63 139
3 63 287 359
3 360 136 138
3 362 89 136
3 89 358 357
3 363 133 135
3 361 138 133
3 138 137 364
3 132 131 365
3 2 132 127
3 1 130 132
3 129 128 140
3 278 129 359
3 277 127 129
3 47 124 126
3 128 124 47
3 365 381 124
3 123 122 366
3 107 57 123
3 57 292 121
3 120 119 361
3 108 120 363
3 107 118 120
3 117 116 362
3 119 117 360
3 366 115 117
3 367 112 114
3 327 329 112
3 329 320 368
3 356 109 111
3 328 326 109
3 326 327 367
3 354 106 108
3 353 111 106
3 111 110 369
3 105 104 370
3 322 105 100
3 321 103 105
3 102 101 113
3 319 102 368
3 318 100 102
3 56 97 99
3 101 97 56
3 370 380 97
3 96 95 371
3 80 66 96
3 66 286 94
3 93 92 372
3 81 93 54
3 80 91 93
3 90 89 362
3 92 90 116
3 371 88 90
3 373 85 87
3 374 27 85
3 27 309 375
3 5 82 84
3 4 196 82
3 196 374 373
3 269 79 81
3 268 84 79
3 84 83 376
3 78 77 377
3 13 78 73
3 12 76 78
3 75 74 86
3 242 75 375
3 241 73 75
3 65 70 72
3 74 70 65
3 377 378 70
3 69 68 71
3 77 69 378
3 379 36 69
3 67 66 80
3 83 87 67
3 87 86 65
3 64 63 358
3 95 64 88
3 285 62 64
3 61 60 98
3 104 61 380
3 338 59 61
3 58 57 107
3 110 114 58
3 114 113 56
3 55 54 372
3 122 55 115
3 291 53 55
3 52 51 125
3 131 52 381
3 256 50 52
3 49 48 134
3 137 141 49
3 141 140 47
3 46 45 324
3 149 46 142
3 296 44 46
3 43 42 152
3 158 43 382
3 265 41 43
3 40 39 161
3 164 168 40
3 168 167 38
3 37 36 379
3 175 37 169
3 301 35 37
3 34 33 178
3 184 34 383
3 346 32 34
3 31 30 187
3 190 194 31
3 194 193 29
3 28 27 374
3 202 28 195
3 307 26 28
3 25 24 205
3 211 25 384
3 350 23 25
3 22 21 214
3 217 221 22
3 221 220 20
3 19 18 336
3 229 19 222
3 313 17 19
3 316 14 16
3 235 239 14
3 239 238 347
3 310 11 13
3 244 248 11
3 248 247 343
3 304 9 10
3 253 257 9
3 257 256 130
3 299 6 8
3 262 266 6
3 266 265 157
3 294 3 5
3 271 275 3
3 275 274 334
3 288 0 2
3 280 283 0
3 283 250 10
