ply
format ascii 1.0
comment Created by Blender 2.79 (sub 0) - www.blender.org, source file: 'Animations.blend'
element vertex 185
property float x
property float y
property float z
property float nx
property float ny
property float nz
property float s
property float t
property uchar red
property uchar green
property uchar blue
element face 336
property list uchar uint vertex_indices
end_header
0.000000 0.827734 -0.204018 0.000000 0.966826 -0.255379 1.000000 0.923077 255 255 255
-0.000000 0.852506 0.000001 0.000000 1.000000 0.000000 1.483816 1.000000 255 255 255
0.088520 0.827734 -0.183814 0.110813 0.966826 -0.230110 0.928571 0.923077 255 255 255
0.000000 -0.302303 -0.797107 0.000000 -0.349040 -0.937071 1.000000 0.384615 255 255 255
0.304412 -0.484278 -0.632118 0.359386 -0.560198 -0.746300 0.928571 0.307692 255 255 255
0.000000 -0.484278 -0.701599 0.000000 -0.560198 -0.828333 1.000000 0.307692 255 255 255
0.171896 0.754856 -0.356945 0.207373 0.878353 -0.430647 0.928571 0.846154 255 255 255
0.000000 0.754856 -0.396179 0.000000 0.878353 -0.477981 1.000000 0.846154 255 255 255
0.000000 -0.638110 -0.565316 0.000000 -0.740074 -0.672506 1.000000 0.230769 255 255 255
0.245282 -0.638110 -0.509332 0.291787 -0.740074 -0.605914 0.928571 0.230769 255 255 255
0.245282 0.638110 -0.509332 0.291787 0.740074 -0.605914 0.928571 0.769231 255 255 255
0.000000 0.638110 -0.565316 0.000000 0.740074 -0.672506 1.000000 0.769231 255 255 255
0.171896 -0.754856 -0.356945 0.207373 -0.878353 -0.430647 0.928571 0.153846 255 255 255
0.000000 -0.754856 -0.396179 0.000000 -0.878353 -0.477981 1.000000 0.153846 255 255 255
0.304412 0.484278 -0.632118 0.359386 0.560198 -0.746300 0.928571 0.692308 255 255 255
0.000000 0.484278 -0.701599 0.000000 0.560198 -0.828333 1.000000 0.692308 255 255 255
0.000000 -0.827734 -0.204018 0.000000 -0.966826 -0.255379 1.000000 0.076923 255 255 255
0.088520 -0.827734 -0.183814 0.110813 -0.966826 -0.230110 0.928571 0.076923 255 255 255
0.345852 0.302303 -0.718168 0.406568 0.349040 -0.844295 0.928571 0.615385 255 255 255
0.000000 0.302303 -0.797107 0.000000 0.349040 -0.937071 1.000000 0.615385 255 255 255
0.000000 -0.852506 0.000000 0.000000 -1.000000 0.000000 0.467071 0.000000 255 255 255
0.367192 0.102758 -0.762481 0.430799 0.118534 -0.894589 0.928571 0.538462 255 255 255
0.000000 0.102758 -0.846290 0.000000 0.118534 -0.992920 1.000000 0.538462 255 255 255
0.000000 -0.102758 -0.846290 0.000000 -0.118534 -0.992920 1.000000 0.461538 255 255 255
0.345852 -0.302303 -0.718168 0.406568 -0.349040 -0.844295 0.928571 0.384615 255 255 255
0.441982 0.638110 -0.352469 0.525773 0.740074 -0.419294 0.857143 0.769231 255 255 255
0.309746 -0.754856 -0.247014 0.373699 -0.878353 -0.298013 0.857143 0.153846 255 255 255
0.548532 0.484278 -0.437439 0.647633 0.560198 -0.516465 0.857143 0.692308 255 255 255
0.159508 -0.827734 -0.127203 0.199683 -0.966826 -0.159215 0.857143 0.076923 255 255 255
0.623203 0.302303 -0.496988 0.732627 0.349040 -0.584246 0.857143 0.615385 255 255 255
0.661656 0.102758 -0.527653 0.776299 0.118534 -0.619068 0.857143 0.538462 255 255 255
0.661656 -0.102758 -0.527653 0.776299 -0.118534 -0.619068 0.857143 0.461538 255 255 255
0.623203 -0.302303 -0.496988 0.732627 -0.349040 -0.584246 0.857143 0.384615 255 255 255
-0.000000 0.852506 0.000001 0.000000 1.000000 0.000000 0.483816 1.000000 255 255 255
0.159508 0.827734 -0.127203 0.199683 0.966826 -0.159215 0.857143 0.923077 255 255 255
0.548532 -0.484278 -0.437439 0.647633 -0.560198 -0.516465 0.857143 0.307692 255 255 255
0.309746 0.754856 -0.247014 0.373699 0.878353 -0.298013 0.857143 0.846154 255 255 255
0.441982 -0.638110 -0.352469 0.525773 -0.740074 -0.419294 0.857143 0.230769 255 255 255
0.198903 -0.827734 -0.045398 0.249001 -0.966826 -0.056825 0.785714 0.076923 255 255 255
0.825072 0.102758 -0.188317 0.968047 0.118534 -0.220923 0.785714 0.538462 255 255 255
0.825072 -0.102758 -0.188317 0.968047 -0.118534 -0.220923 0.785714 0.461538 255 255 255
0.777122 -0.302303 -0.177373 0.913602 -0.349040 -0.208502 0.785714 0.384615 255 255 255
0.198903 0.827734 -0.045398 0.249001 0.966826 -0.056825 0.785714 0.923077 255 255 255
0.684008 -0.484278 -0.156120 0.807581 -0.560167 -0.184301 0.785714 0.307692 255 255 255
0.386246 0.754856 -0.088158 0.465987 0.878353 -0.106357 0.785714 0.846154 255 255 255
0.551142 -0.638110 -0.125794 0.655660 -0.740074 -0.149632 0.785714 0.230769 255 255 255
0.551143 0.638110 -0.125794 0.655660 0.740074 -0.149632 0.785714 0.769231 255 255 255
0.386246 -0.754856 -0.088158 0.465987 -0.878353 -0.106357 0.785714 0.153846 255 255 255
0.684008 0.484278 -0.156120 0.807581 0.560198 -0.184301 0.785714 0.692308 255 255 255
0.777122 0.302303 -0.177373 0.913602 0.349040 -0.208502 0.785714 0.615385 255 255 255
0.825072 -0.102758 0.188318 0.968047 -0.118534 0.220923 0.714286 0.461538 255 255 255
0.777122 -0.302303 0.177373 0.913602 -0.349040 0.208502 0.714286 0.384615 255 255 255
0.198903 0.827734 0.045399 0.249001 0.966826 0.056825 0.714286 0.923077 255 255 255
0.684008 -0.484278 0.156121 0.807581 -0.560167 0.184301 0.714286 0.307692 255 255 255
0.386246 0.754856 0.088159 0.465987 0.878353 0.106357 0.714286 0.846154 255 255 255
0.551142 -0.638110 0.125795 0.655660 -0.740074 0.149632 0.714286 0.230769 255 255 255
0.551142 0.638110 0.125795 0.655660 0.740074 0.149632 0.714286 0.769231 255 255 255
0.386246 -0.754856 0.088159 0.465987 -0.878353 0.106357 0.714286 0.153846 255 255 255
0.684008 0.484278 0.156121 0.807581 0.560198 0.184301 0.714286 0.692308 255 255 255
0.198903 -0.827734 0.045399 0.249001 -0.966826 0.056825 0.714285 0.076923 255 255 255
0.777122 0.302303 0.177373 0.913602 0.349040 0.208502 0.714286 0.615385 255 255 255
0.825072 0.102758 0.188318 0.968047 0.118534 0.220923 0.714286 0.538462 255 255 255
0.441982 -0.638110 0.352469 0.525773 -0.740074 0.419294 0.642857 0.230769 255 255 255
0.309745 -0.754856 0.247014 0.373699 -0.878353 0.298013 0.642857 0.153846 255 255 255
0.548532 0.484278 0.437440 0.647633 0.560198 0.516465 0.642857 0.692308 255 255 255
0.159508 -0.827734 0.127203 0.199683 -0.966826 0.159215 0.642857 0.076923 255 255 255
0.623203 0.302303 0.496988 0.732719 0.349223 0.584033 0.642857 0.615385 255 255 255
0.661656 0.102758 0.527654 0.776666 0.118534 0.618610 0.642857 0.538462 255 255 255
0.623203 -0.302303 0.496988 0.732719 -0.349223 0.584033 0.642857 0.384615 255 255 255
0.159508 0.827734 0.127204 0.199683 0.966826 0.159215 0.642857 0.923077 255 255 255
0.548532 -0.484278 0.437440 0.647633 -0.560198 0.516465 0.642857 0.307692 255 255 255
0.309746 0.754856 0.247014 0.373699 0.878353 0.298013 0.642857 0.846154 255 255 255
0.441982 0.638110 0.352469 0.525773 0.740074 0.419294 0.642857 0.769231 255 255 255
0.367388 0.102813 0.762890 0.431135 0.119419 0.894345 0.571429 0.538462 255 255 255
0.367388 -0.102813 0.762890 0.431135 -0.119419 0.894345 0.571429 0.461538 255 255 255
0.345852 -0.302303 0.718169 0.406415 -0.350108 0.843928 0.571428 0.384615 255 255 255
0.088520 0.827734 0.183814 0.110813 0.966826 0.230110 0.571429 0.923077 255 255 255
0.304412 -0.484278 0.632119 0.359386 -0.560167 0.746300 0.571428 0.307692 255 255 255
0.171896 0.754856 0.356946 0.207373 0.878353 0.430647 0.571429 0.846154 255 255 255
0.245281 -0.638110 0.509333 0.291787 -0.740074 0.605914 0.571428 0.230769 255 255 255
0.245281 0.638110 0.509333 0.291787 0.740074 0.605914 0.571429 0.769231 255 255 255
0.171896 -0.754856 0.356946 0.207373 -0.878353 0.430647 0.571428 0.153846 255 255 255
0.304412 0.484278 0.632119 0.359386 0.560198 0.746300 0.571429 0.692308 255 255 255
0.088520 -0.827734 0.183814 0.110813 -0.966826 0.230110 0.571428 0.076923 255 255 255
0.345852 0.302303 0.718169 0.406415 0.350108 0.843928 0.571428 0.615385 255 255 255
-0.000000 0.827734 0.204019 0.000000 0.966826 0.255379 0.500000 0.923077 255 255 255
-0.000000 -0.484278 0.701599 0.000000 -0.560167 0.828333 0.500000 0.307692 255 255 255
-0.000000 0.754856 0.396180 0.000000 0.878353 0.477981 0.500000 0.846154 255 255 255
-0.000000 -0.638110 0.565316 0.000000 -0.740074 0.672506 0.500000 0.230769 255 255 255
-0.000000 0.638110 0.565316 0.000000 0.740074 0.672506 0.500000 0.769231 255 255 255
-0.000000 -0.754856 0.396180 0.000000 -0.878353 0.477981 0.500000 0.153846 255 255 255
-0.000000 0.484278 0.701599 0.000000 0.560167 0.828333 0.500000 0.692308 255 255 255
-0.000000 -0.827734 0.204018 0.000000 -0.966826 0.255379 0.500000 0.076923 255 255 255
-0.000000 0.302303 0.797107 0.000000 0.350108 0.936674 0.500000 0.615385 255 255 255
-0.000000 0.102813 0.846744 0.000000 0.119572 0.992798 0.500000 0.538462 255 255 255
-0.000000 -0.102813 0.846744 0.000000 -0.119572 0.992798 0.500000 0.461538 255 255 255
-0.000000 -0.302303 0.797107 0.000000 -0.350108 0.936674 0.500000 0.384615 255 255 255
-0.245282 -0.638110 0.509333 -0.291787 -0.740074 0.605914 0.428571 0.230769 255 255 255
-0.171896 -0.754856 0.356946 -0.207373 -0.878353 0.430647 0.428571 0.153846 255 255 255
-0.245282 0.638110 0.509333 -0.291787 0.740074 0.605914 0.428571 0.769231 255 255 255
-0.304412 0.484278 0.632119 -0.359386 0.560167 0.746300 0.428571 0.692308 255 255 255
-0.088520 -0.827734 0.183814 -0.110813 -0.966826 0.230110 0.428571 0.076923 255 255 255
-0.345852 0.302303 0.718169 -0.406415 0.350108 0.843928 0.428571 0.615385 255 255 255
-0.367388 0.102813 0.762890 -0.430769 0.119572 0.894498 0.428571 0.538462 255 255 255
-0.345852 -0.302303 0.718169 -0.406415 -0.350108 0.843928 0.428571 0.384615 255 255 255
-0.088520 0.827734 0.183814 -0.110813 0.966826 0.230110 0.428572 0.923077 255 255 255
-0.304413 -0.484278 0.632119 -0.359386 -0.560167 0.746300 0.428571 0.307693 255 255 255
-0.171896 0.754856 0.356946 -0.207373 0.878353 0.430647 0.428571 0.846154 255 255 255
-0.662011 -0.102813 0.527936 -0.776208 -0.119572 0.619007 0.357143 0.461538 255 255 255
-0.623203 -0.302303 0.496988 -0.732322 -0.350108 0.584002 0.357143 0.384615 255 255 255
-0.159508 0.827734 0.127204 -0.199683 0.966826 0.159215 0.357143 0.923077 255 255 255
-0.548532 -0.484278 0.437440 -0.647633 -0.560167 0.516465 0.357143 0.307692 255 255 255
-0.309746 0.754856 0.247014 -0.373699 0.878353 0.298013 0.357143 0.846154 255 255 255
-0.441982 -0.638110 0.352469 -0.525773 -0.740074 0.419294 0.357143 0.230769 255 255 255
-0.441982 0.638110 0.352469 -0.525773 0.740074 0.419294 0.357143 0.769231 255 255 255
-0.309746 -0.754856 0.247014 -0.373699 -0.878353 0.298013 0.357143 0.153846 255 255 255
-0.548532 0.484278 0.437440 -0.647633 0.560167 0.516465 0.357143 0.692308 255 255 255
-0.159508 -0.827734 0.127203 -0.199683 -0.966826 0.159215 0.357143 0.076923 255 255 255
-0.623203 0.302303 0.496988 -0.732322 0.350108 0.584002 0.357143 0.615385 255 255 255
-0.662011 0.102813 0.527936 -0.776208 0.119572 0.619007 0.357143 0.538462 255 255 255
-0.777122 -0.302303 0.177373 -0.913205 -0.350108 0.208411 0.285714 0.384615 255 255 255
-0.684008 -0.484278 0.156120 -0.807581 -0.560167 0.184301 0.285714 0.307692 255 255 255
-0.386246 0.754856 0.088158 -0.465987 0.878353 0.106357 0.285714 0.846154 255 255 255
-0.551143 -0.638110 0.125795 -0.655660 -0.740074 0.149632 0.285714 0.230769 255 255 255
-0.551143 0.638110 0.125795 -0.655660 0.740074 0.149632 0.285714 0.769231 255 255 255
-0.386246 -0.754856 0.088158 -0.465987 -0.878353 0.106357 0.285714 0.153846 255 255 255
-0.684008 0.484278 0.156120 -0.807581 0.560167 0.184301 0.285714 0.692308 255 255 255
-0.198903 -0.827734 0.045399 -0.249001 -0.966826 0.056825 0.285715 0.076923 255 255 255
-0.777122 0.302303 0.177373 -0.913205 0.350108 0.208411 0.285714 0.615385 255 255 255
-0.825514 0.102813 0.188418 -0.967925 0.119572 0.220893 0.285714 0.538462 255 255 255
-0.825514 -0.102813 0.188418 -0.967925 -0.119572 0.220893 0.285714 0.461538 255 255 255
-0.198903 0.827734 0.045399 -0.249001 0.966826 0.056825 0.285714 0.923077 255 255 255
-0.551143 0.638110 -0.125795 -0.655660 0.740074 -0.149632 0.214286 0.769231 255 255 255
-0.684008 0.484278 -0.156120 -0.807581 0.560167 -0.184301 0.214286 0.692308 255 255 255
-0.386246 -0.754856 -0.088158 -0.465987 -0.878353 -0.106357 0.214286 0.153846 255 255 255
-0.198903 -0.827734 -0.045398 -0.249001 -0.966826 -0.056825 0.214286 0.076923 255 255 255
-0.777122 0.302303 -0.177373 -0.913205 0.350108 -0.208411 0.214286 0.615385 255 255 255
-0.825514 0.102813 -0.188418 -0.967925 0.119572 -0.220923 0.214286 0.538462 255 255 255
-0.825514 -0.102813 -0.188418 -0.967925 -0.119572 -0.220923 0.214286 0.461538 255 255 255
-0.777122 -0.302303 -0.177373 -0.913205 -0.350108 -0.208411 0.214286 0.384615 255 255 255
-0.198903 0.827734 -0.045398 -0.249001 0.966826 -0.056825 0.214286 0.923077 255 255 255
-0.684008 -0.484278 -0.156120 -0.807581 -0.560167 -0.184301 0.214286 0.307692 255 255 255
-0.386246 0.754856 -0.088158 -0.465987 0.878353 -0.106357 0.214286 0.846154 255 255 255
-0.551143 -0.638110 -0.125795 -0.655660 -0.740074 -0.149632 0.214286 0.230769 255 255 255
-0.662011 -0.102813 -0.527936 -0.775842 -0.119572 -0.619465 0.142857 0.461538 255 255 255
-0.623203 -0.302303 -0.496988 -0.732231 -0.349956 -0.584216 0.142857 0.384615 255 255 255
-0.159508 0.827734 -0.127203 -0.199683 0.966826 -0.159215 0.142857 0.923077 255 255 255
-0.548532 -0.484278 -0.437440 -0.647633 -0.560167 -0.516465 0.142857 0.307692 255 255 255
-0.309745 0.754856 -0.247014 -0.373699 0.878353 -0.298013 0.142857 0.846154 255 255 255
-0.441982 -0.638110 -0.352469 -0.525773 -0.740074 -0.419294 0.142857 0.230769 255 255 255
-0.441982 0.638110 -0.352469 -0.525773 0.740074 -0.419294 0.142857 0.769231 255 255 255
-0.309745 -0.754856 -0.247014 -0.373699 -0.878353 -0.298013 0.142857 0.153846 255 255 255
-0.548532 0.484278 -0.437440 -0.647633 0.560167 -0.516465 0.142857 0.692308 255 255 255
-0.159508 -0.827734 -0.127203 -0.199683 -0.966826 -0.159215 0.142857 0.076923 255 255 255
-0.623203 0.302303 -0.496988 -0.732231 0.349956 -0.584216 0.142857 0.615385 255 255 255
-0.662011 0.102813 -0.527936 -0.775842 0.119572 -0.619465 0.142857 0.538462 255 255 255
-0.088520 0.827734 -0.183814 -0.110813 0.966826 -0.230110 0.071429 0.923077 255 255 255
-0.171896 0.754856 -0.356945 -0.207373 0.878353 -0.430647 0.071429 0.846154 255 255 255
-0.245281 -0.638110 -0.509332 -0.291787 -0.740074 -0.605914 0.071429 0.230769 255 255 255
-0.245281 0.638110 -0.509332 -0.291787 0.740074 -0.605914 0.071429 0.769231 255 255 255
-0.171896 -0.754856 -0.356945 -0.207373 -0.878353 -0.430647 0.071429 0.153846 255 255 255
-0.304412 0.484278 -0.632119 -0.359386 0.560167 -0.746300 0.071429 0.692308 255 255 255
-0.088520 -0.827734 -0.183814 -0.110813 -0.966826 -0.230110 0.071429 0.076923 255 255 255
-0.345851 0.302303 -0.718168 -0.406568 0.349040 -0.844295 0.071429 0.615385 255 255 255
-0.367191 0.102758 -0.762481 -0.430433 0.118686 -0.894742 0.071429 0.538462 255 255 255
-0.367191 -0.102758 -0.762481 -0.430433 -0.118686 -0.894742 0.071429 0.461538 255 255 255
-0.345851 -0.302303 -0.718168 -0.406568 -0.349040 -0.844295 0.071429 0.384615 255 255 255
-0.304412 -0.484278 -0.632119 -0.359386 -0.560167 -0.746300 0.071429 0.307692 255 255 255
0.000000 -0.827734 -0.204018 0.000000 -0.966826 -0.255379 0.000000 0.076923 255 255 255
0.000000 0.302303 -0.797107 0.000000 0.349040 -0.937071 0.000000 0.615385 255 255 255
0.000000 0.102758 -0.846290 0.000000 0.118534 -0.992920 0.000000 0.538462 255 255 255
0.000000 -0.102758 -0.846290 0.000000 -0.118534 -0.992920 0.000000 0.461538 255 255 255
0.000000 -0.302303 -0.797107 0.000000 -0.349040 -0.937071 0.000000 0.384615 255 255 255
-0.088520 0.827734 -0.183814 -0.110813 0.966826 -0.230110 1.071429 0.923077 255 255 255
0.000000 -0.484278 -0.701599 0.000000 -0.560198 -0.828333 0.000000 0.307692 255 255 255
-0.171896 0.754856 -0.356945 -0.207373 0.878353 -0.430647 1.071429 0.846154 255 255 255
0.000000 -0.638110 -0.565316 0.000000 -0.740074 -0.672506 0.000000 0.230769 255 255 255
0.000000 0.754856 -0.396179 0.000000 0.878353 -0.477981 0.000000 0.846154 255 255 255
0.000000 0.638110 -0.565316 0.000000 0.740074 -0.672506 0.000000 0.769231 255 255 255
0.000000 -0.754856 -0.396179 0.000000 -0.878353 -0.477981 0.000000 0.153846 255 255 255
0.000000 0.484278 -0.701599 0.000000 0.560198 -0.828333 0.000000 0.692308 255 255 255
0.367192 -0.102758 -0.762481 0.430799 -0.118534 -0.894589 0.928571 0.461538 255 255 255
0.661656 -0.102758 0.527654 0.776666 -0.118534 0.618610 0.642857 0.461538 255 255 255
-0.367388 -0.102813 0.762890 -0.430769 -0.119572 0.894498 0.428571 0.461539 255 255 255
-0.367388 -0.102813 0.762890 -0.430769 -0.119572 0.894498 0.428571 0.461538 255 255 255
3 0 1 2
3 3 4 5
3 0 6 7
3 8 4 9
3 7 10 11
3 8 12 13
3 11 14 15
3 16 12 17
3 15 18 19
3 20 16 17
3 19 21 22
3 23 24 3
3 6 25 10
3 9 26 12
3 10 27 14
3 12 28 17
3 14 29 18
3 20 17 28
3 18 30 21
3 24 31 32
3 2 33 34
3 4 32 35
3 6 34 36
3 4 37 9
3 20 28 38
3 29 39 30
3 32 40 41
3 34 33 42
3 35 41 43
3 34 44 36
3 35 45 37
3 36 46 25
3 26 45 47
3 25 48 27
3 26 38 28
3 27 49 29
3 41 50 51
3 42 33 52
3 43 51 53
3 42 54 44
3 43 55 45
3 44 56 46
3 45 57 47
3 46 58 48
3 38 57 59
3 49 58 60
3 20 38 59
3 49 61 39
3 57 62 63
3 56 64 58
3 59 63 65
3 60 64 66
3 20 59 65
3 60 67 61
3 50 68 51
3 52 33 69
3 51 70 53
3 52 71 54
3 53 62 55
3 54 72 56
3 66 73 67
3 68 74 75
3 69 33 76
3 68 77 70
3 69 78 71
3 70 79 62
3 72 78 80
3 62 81 63
3 72 82 64
3 63 83 65
3 66 82 84
3 20 65 83
3 76 33 85
3 75 86 77
3 76 87 78
3 77 88 79
3 80 87 89
3 81 88 90
3 82 89 91
3 83 90 92
3 84 91 93
3 20 83 92
3 84 94 73
3 75 95 96
3 90 97 98
3 91 99 100
3 90 101 92
3 91 102 93
3 20 92 101
3 93 103 94
3 95 104 96
3 85 33 105
3 86 104 106
3 87 105 107
3 86 97 88
3 87 99 89
3 104 108 109
3 105 33 110
3 106 109 111
3 105 112 107
3 106 113 97
3 99 112 114
3 97 115 98
3 100 114 116
3 98 117 101
3 100 118 102
3 20 101 117
3 102 119 103
3 111 120 121
3 110 122 112
3 111 123 113
3 114 122 124
3 115 123 125
3 114 126 116
3 115 127 117
3 116 128 118
3 20 117 127
3 118 129 119
3 109 130 120
3 110 33 131
3 126 132 133
3 127 134 135
3 126 136 128
3 20 127 135
3 128 137 129
3 120 138 139
3 131 33 140
3 121 139 141
3 122 140 142
3 121 143 123
3 122 132 124
3 125 143 134
3 139 144 145
3 140 33 146
3 141 145 147
3 140 148 142
3 141 149 143
3 142 150 132
3 134 149 151
3 132 152 133
3 134 153 135
3 133 154 136
3 20 135 153
3 136 155 137
3 148 156 157
3 147 158 149
3 148 159 150
3 151 158 160
3 152 159 161
3 151 162 153
3 152 163 154
3 20 153 162
3 154 164 155
3 145 165 166
3 146 33 156
3 147 166 167
3 160 168 162
3 161 169 163
3 20 162 168
3 163 170 164
3 166 171 172
3 173 1 0
3 166 174 167
3 173 7 175
3 167 176 158
3 159 177 178
3 158 179 160
3 161 178 180
3 22 181 23
3 21 31 181
3 30 40 31
3 39 50 40
3 61 182 50
3 67 74 182
3 73 95 74
3 94 183 95
3 103 108 183
3 119 130 108
3 129 138 130
3 137 144 138
3 155 165 144
3 164 171 165
3 3 24 4
3 0 2 6
3 8 5 4
3 7 6 10
3 8 9 12
3 11 10 14
3 16 13 12
3 15 14 18
3 19 18 21
3 23 181 24
3 6 36 25
3 9 37 26
3 10 25 27
3 12 26 28
3 14 27 29
3 18 29 30
3 24 181 31
3 4 24 32
3 6 2 34
3 4 35 37
3 29 49 39
3 32 31 40
3 35 32 41
3 34 42 44
3 35 43 45
3 36 44 46
3 26 37 45
3 25 46 48
3 26 47 38
3 27 48 49
3 41 40 50
3 43 41 51
3 42 52 54
3 43 53 55
3 44 54 56
3 45 55 57
3 46 56 58
3 38 47 57
3 49 48 58
3 49 60 61
3 57 55 62
3 56 72 64
3 59 57 63
3 60 58 64
3 60 66 67
3 50 182 68
3 51 68 70
3 52 69 71
3 53 70 62
3 54 71 72
3 66 84 73
3 68 182 74
3 68 75 77
3 69 76 78
3 70 77 79
3 72 71 78
3 62 79 81
3 72 80 82
3 63 81 83
3 66 64 82
3 75 96 86
3 76 85 87
3 77 86 88
3 80 78 87
3 81 79 88
3 82 80 89
3 83 81 90
3 84 82 91
3 84 93 94
3 75 74 95
3 90 88 97
3 91 89 99
3 90 98 101
3 91 100 102
3 93 102 103
3 95 184 104
3 86 96 104
3 87 85 105
3 86 106 97
3 87 107 99
3 104 184 108
3 106 104 109
3 105 110 112
3 106 111 113
3 99 107 112
3 97 113 115
3 100 99 114
3 98 115 117
3 100 116 118
3 102 118 119
3 111 109 120
3 110 131 122
3 111 121 123
3 114 112 122
3 115 113 123
3 114 124 126
3 115 125 127
3 116 126 128
3 118 128 129
3 109 108 130
3 126 124 132
3 127 125 134
3 126 133 136
3 128 136 137
3 120 130 138
3 121 120 139
3 122 131 140
3 121 141 143
3 122 142 132
3 125 123 143
3 139 138 144
3 141 139 145
3 140 146 148
3 141 147 149
3 142 148 150
3 134 143 149
3 132 150 152
3 134 151 153
3 133 152 154
3 136 154 155
3 148 146 156
3 147 167 158
3 148 157 159
3 151 149 158
3 152 150 159
3 151 160 162
3 152 161 163
3 154 163 164
3 145 144 165
3 147 145 166
3 160 179 168
3 161 180 169
3 163 169 170
3 166 165 171
3 166 172 174
3 173 0 7
3 167 174 176
3 159 157 177
3 158 176 179
3 161 159 178
3 22 21 181
3 21 30 31
3 30 39 40
3 39 61 50
3 61 67 182
3 67 73 74
3 73 94 95
3 94 103 183
3 103 119 108
3 119 129 130
3 129 137 138
3 137 155 144
3 155 164 165
3 164 170 171
