ply
format ascii 1.0
comment Created by Blender 2.79 (sub 0) - www.blender.org, source file: 'Animations.blend'
element vertex 170
property float x
property float y
property float z
property float nx
property float ny
property float nz
property float s
property float t
element face 336
property list uchar uint vertex_indices
end_header
0.000000 0.204018 0.827734 0.000000 0.255379 0.966826 0.500134 0.886062
-0.000000 -0.000001 0.852506 0.000000 0.000000 1.000000 0.500134 0.897616
0.088520 0.183814 0.827734 0.110813 0.230110 0.966826 0.553763 0.886062
0.000000 0.797107 -0.302303 0.000000 0.937071 -0.349040 0.500134 0.359003
0.304412 0.632118 -0.484278 0.359386 0.746300 -0.560198 0.684561 0.274128
0.000000 0.701599 -0.484278 0.000000 0.828333 -0.560198 0.500134 0.274128
0.171896 0.356945 0.754856 0.207373 0.430647 0.878353 0.604276 0.852072
0.000000 0.396179 0.754856 0.000000 0.477981 0.878353 0.500134 0.852072
0.000000 0.565316 -0.638110 0.000000 0.672506 -0.740074 0.500134 0.202380
0.245282 0.509332 -0.638110 0.291787 0.605914 -0.740074 0.648737 0.202380
0.245282 0.509332 0.638110 0.291787 0.605914 0.740074 0.648737 0.797620
0.000000 0.565316 0.638110 0.000000 0.672506 0.740074 0.500134 0.797620
0.171896 0.356945 -0.754856 0.207373 0.430647 -0.878353 0.604276 0.147928
0.000000 0.396179 -0.754856 0.000000 0.477981 -0.878353 0.500134 0.147928
0.304412 0.632118 0.484278 0.359386 0.746300 0.560198 0.684561 0.725872
0.000000 0.701599 0.484278 0.000000 0.828333 0.560198 0.500134 0.725872
0.000000 0.204018 -0.827734 0.000000 0.255379 -0.966826 0.500134 0.113938
0.088520 0.183814 -0.827734 0.110813 0.230110 -0.966826 0.553763 0.113938
0.345852 0.718168 0.302303 0.406568 0.844295 0.349040 0.709667 0.640997
0.000000 0.797107 0.302303 0.000000 0.937071 0.349040 0.500134 0.640997
0.000000 -0.000000 -0.852506 0.000000 0.000000 -0.999969 0.500134 0.102384
0.367192 0.762481 0.102758 0.430799 0.894589 0.118534 0.722595 0.547927
0.000000 0.846290 0.102758 0.000000 0.992920 0.118534 0.500134 0.547927
0.000000 0.846290 -0.102758 0.000000 0.992920 -0.118534 0.500134 0.452073
0.345852 0.718168 -0.302303 0.406568 0.844295 -0.349040 0.709667 0.359003
0.441982 0.352469 0.638110 0.525773 0.419294 0.740074 0.767907 0.797620
0.309746 0.247014 -0.754856 0.373699 0.298013 -0.878353 0.687792 0.147928
0.548532 0.437439 0.484278 0.647633 0.516465 0.560198 0.832460 0.725872
0.159508 0.127203 -0.827734 0.199683 0.159215 -0.966826 0.596771 0.113938
0.623203 0.496988 0.302303 0.732627 0.584246 0.349040 0.877699 0.640997
0.661656 0.527653 0.102758 0.776299 0.619068 0.118534 0.900995 0.547927
0.661656 0.527653 -0.102758 0.776299 0.619068 -0.118534 0.900995 0.452073
0.623203 0.496988 -0.302303 0.732627 0.584246 -0.349040 0.877699 0.359003
0.159508 0.127203 0.827734 0.199683 0.159215 0.966826 0.596771 0.886062
0.548532 0.437439 -0.484278 0.647633 0.516465 -0.560167 0.832460 0.274128
0.309746 0.247014 0.754856 0.373699 0.298013 0.878353 0.687792 0.852072
0.441982 0.352469 -0.638110 0.525773 0.419294 -0.740074 0.767907 0.202380
0.198903 0.045398 -0.827734 0.249001 0.056825 -0.966826 0.620638 0.113938
0.825072 0.188317 0.102758 0.968047 0.220923 0.118534 1.000000 0.547927
0.825072 0.188317 -0.102758 0.968047 0.220923 -0.118534 1.000000 0.452073
0.777122 0.177373 -0.302303 0.913602 0.208502 -0.349040 0.970950 0.359003
0.198903 0.045398 0.827734 0.249001 0.056825 0.966826 0.620638 0.886062
0.684008 0.156120 -0.484278 0.807581 0.184301 -0.560167 0.914537 0.274128
0.386246 0.088158 0.754856 0.465987 0.106357 0.878353 0.734140 0.852072
0.551142 0.125794 -0.638110 0.655660 0.149632 -0.740074 0.834041 0.202380
0.551143 0.125794 0.638110 0.655660 0.149632 0.740074 0.834041 0.797620
0.386246 0.088158 -0.754856 0.465987 0.106357 -0.878353 0.734139 0.147928
0.684008 0.156120 0.484278 0.807581 0.184301 0.560167 0.914537 0.725872
0.777122 0.177373 0.302303 0.913602 0.208502 0.349040 0.970950 0.640997
0.825072 -0.188318 -0.102758 0.968047 -0.220923 -0.118534 1.000000 0.452073
0.777122 -0.177373 -0.302303 0.913602 -0.208502 -0.349040 0.970950 0.359003
0.198903 -0.045399 0.827734 0.249001 -0.056825 0.966826 0.620638 0.886062
0.684008 -0.156121 -0.484278 0.807581 -0.184301 -0.560167 0.914537 0.274128
0.386246 -0.088159 0.754856 0.465987 -0.106357 0.878353 0.734140 0.852072
0.551142 -0.125795 -0.638110 0.655660 -0.149632 -0.740074 0.834041 0.202380
0.551142 -0.125795 0.638110 0.655660 -0.149632 0.740074 0.834041 0.797620
0.386246 -0.088158 -0.754856 0.465987 -0.106357 -0.878353 0.734139 0.147928
0.684008 -0.156121 0.484278 0.807581 -0.184301 0.560167 0.914537 0.725872
0.198903 -0.045399 -0.827734 0.249001 -0.056825 -0.966826 0.620638 0.113938
0.777122 -0.177373 0.302303 0.913602 -0.208502 0.349040 0.970950 0.640997
0.825072 -0.188318 0.102758 0.968047 -0.220923 0.118534 1.000000 0.547927
0.441982 -0.352469 -0.638110 0.525773 -0.419294 -0.740074 0.767907 0.202380
0.309745 -0.247014 -0.754856 0.373699 -0.298013 -0.878353 0.687792 0.147928
0.548532 -0.437440 0.484278 0.647633 -0.516465 0.560198 0.832459 0.725872
0.159508 -0.127203 -0.827734 0.199683 -0.159215 -0.966826 0.596771 0.113938
0.623203 -0.496988 0.302303 0.732719 -0.584033 0.349223 0.877699 0.640997
0.661656 -0.527654 0.102758 0.776666 -0.618610 0.118534 0.900995 0.547927
0.623203 -0.496988 -0.302303 0.732719 -0.584033 -0.349223 0.877699 0.359003
0.159508 -0.127204 0.827734 0.199683 -0.159215 0.966826 0.596771 0.886062
0.548532 -0.437440 -0.484278 0.647633 -0.516465 -0.560167 0.832460 0.274128
0.309746 -0.247014 0.754856 0.373699 -0.298013 0.878353 0.687792 0.852072
0.441982 -0.352469 0.638110 0.525773 -0.419294 0.740074 0.767907 0.797620
0.367388 -0.762890 0.102813 0.431135 -0.894345 0.119419 0.722714 0.547953
0.367388 -0.762890 -0.102813 0.431135 -0.894345 -0.119419 0.722714 0.452047
0.345852 -0.718169 -0.302303 0.406415 -0.843928 -0.350108 0.709666 0.359003
0.088520 -0.183814 0.827734 0.110813 -0.230110 0.966826 0.553763 0.886062
0.304412 -0.632119 -0.484278 0.359386 -0.746300 -0.560198 0.684561 0.274128
0.171896 -0.356946 0.754856 0.207373 -0.430647 0.878353 0.604276 0.852072
0.245281 -0.509333 -0.638110 0.291787 -0.605914 -0.740074 0.648737 0.202380
0.245281 -0.509333 0.638110 0.291787 -0.605914 0.740074 0.648737 0.797620
0.171896 -0.356946 -0.754856 0.207373 -0.430647 -0.878353 0.604276 0.147928
0.304412 -0.632119 0.484278 0.359386 -0.746300 0.560167 0.684561 0.725872
0.088520 -0.183814 -0.827734 0.110813 -0.230110 -0.966826 0.553763 0.113938
0.345852 -0.718169 0.302303 0.406415 -0.843928 0.350108 0.709666 0.640997
-0.000000 -0.204019 0.827734 0.000000 -0.255379 0.966826 0.500134 0.886062
-0.000000 -0.701599 -0.484278 0.000000 -0.828333 -0.560167 0.500134 0.274128
-0.000000 -0.396180 0.754856 0.000000 -0.477981 0.878353 0.500134 0.852072
-0.000000 -0.565316 -0.638110 0.000000 -0.672506 -0.740074 0.500134 0.202380
-0.000000 -0.565316 0.638110 0.000000 -0.672506 0.740074 0.500134 0.797620
-0.000000 -0.396180 -0.754856 0.000000 -0.477981 -0.878353 0.500134 0.147928
-0.000000 -0.701599 0.484278 0.000000 -0.828333 0.560167 0.500134 0.725872
-0.000000 -0.204018 -0.827734 0.000000 -0.255379 -0.966826 0.500134 0.113938
-0.000000 -0.797107 0.302303 0.000000 -0.936674 0.350108 0.500134 0.640997
-0.000000 -0.846744 0.102813 0.000000 -0.992798 0.119572 0.500134 0.547953
-0.000000 -0.846744 -0.102813 0.000000 -0.992798 -0.119572 0.500134 0.452047
-0.000000 -0.797107 -0.302303 0.000000 -0.936674 -0.350108 0.500134 0.359003
-0.245282 -0.509333 -0.638110 -0.291787 -0.605914 -0.740074 0.351531 0.202380
-0.171896 -0.356945 -0.754856 -0.207373 -0.430647 -0.878353 0.395992 0.147928
-0.245282 -0.509333 0.638110 -0.291787 -0.605914 0.740074 0.351531 0.797620
-0.304412 -0.632119 0.484278 -0.359386 -0.746300 0.560167 0.315707 0.725872
-0.088520 -0.183814 -0.827734 -0.110813 -0.230110 -0.966826 0.446504 0.113938
-0.345852 -0.718169 0.302303 -0.406415 -0.843928 0.350108 0.290601 0.640997
-0.367388 -0.762890 0.102813 -0.430769 -0.894498 0.119572 0.277554 0.547953
-0.345852 -0.718169 -0.302303 -0.406415 -0.843928 -0.350108 0.290601 0.359003
-0.088520 -0.183814 0.827734 -0.110813 -0.230110 0.966826 0.446504 0.886062
-0.304413 -0.632119 -0.484278 -0.359386 -0.746300 -0.560167 0.315707 0.274128
-0.171896 -0.356946 0.754856 -0.207373 -0.430647 0.878353 0.395992 0.852072
-0.662011 -0.527936 -0.102813 -0.776208 -0.619007 -0.119572 0.099058 0.452047
-0.623203 -0.496988 -0.302303 -0.732322 -0.584002 -0.350108 0.122569 0.359003
-0.159508 -0.127204 0.827734 -0.199683 -0.159215 0.966826 0.403497 0.886062
-0.548532 -0.437440 -0.484278 -0.647633 -0.516465 -0.560167 0.167808 0.274128
-0.309746 -0.247014 0.754856 -0.373699 -0.298013 0.878353 0.312476 0.852072
-0.441982 -0.352469 -0.638110 -0.525773 -0.419294 -0.740074 0.232361 0.202380
-0.441982 -0.352469 0.638110 -0.525773 -0.419294 0.740074 0.232361 0.797620
-0.309746 -0.247014 -0.754856 -0.373699 -0.298013 -0.878353 0.312476 0.147928
-0.548532 -0.437440 0.484278 -0.647633 -0.516465 0.560167 0.167808 0.725872
-0.159508 -0.127203 -0.827734 -0.199683 -0.159215 -0.966826 0.403497 0.113938
-0.623203 -0.496988 0.302303 -0.732322 -0.584002 0.350108 0.122569 0.640997
-0.662011 -0.527936 0.102813 -0.776208 -0.619007 0.119572 0.099058 0.547953
-0.777122 -0.177373 -0.302303 -0.913205 -0.208411 -0.350108 0.029318 0.359003
-0.684008 -0.156120 -0.484278 -0.807581 -0.184301 -0.560167 0.085731 0.274128
-0.386246 -0.088158 0.754856 -0.465987 -0.106357 0.878353 0.266128 0.852072
-0.551143 -0.125795 -0.638110 -0.655660 -0.149632 -0.740074 0.166227 0.202380
-0.551143 -0.125795 0.638110 -0.655660 -0.149632 0.740074 0.166227 0.797620
-0.386246 -0.088158 -0.754856 -0.465987 -0.106357 -0.878353 0.266128 0.147928
-0.684008 -0.156120 0.484278 -0.807581 -0.184301 0.560167 0.085731 0.725872
-0.198903 -0.045398 -0.827734 -0.249001 -0.056825 -0.966826 0.379630 0.113938
-0.777122 -0.177373 0.302303 -0.913205 -0.208411 0.350108 0.029318 0.640997
-0.825514 -0.188418 0.102813 -0.967925 -0.220893 0.119572 0.000000 0.547953
-0.825514 -0.188418 -0.102813 -0.967925 -0.220893 -0.119572 0.000000 0.452047
-0.198903 -0.045399 0.827734 -0.249001 -0.056825 0.966826 0.379630 0.886062
-0.551143 0.125795 0.638110 -0.655660 0.149632 0.740074 0.166227 0.797620
-0.684008 0.156120 0.484278 -0.807581 0.184301 0.560167 0.085731 0.725872
-0.386246 0.088158 -0.754856 -0.465987 0.106357 -0.878353 0.266128 0.147928
-0.198903 0.045398 -0.827734 -0.249001 0.056825 -0.966826 0.379630 0.113938
-0.777122 0.177373 0.302303 -0.913205 0.208411 0.350108 0.029318 0.640997
-0.825514 0.188418 0.102813 -0.967925 0.220923 0.119572 0.000000 0.547953
-0.825514 0.188418 -0.102813 -0.967925 0.220923 -0.119572 0.000000 0.452047
-0.777122 0.177373 -0.302303 -0.913205 0.208411 -0.350108 0.029318 0.359003
-0.198903 0.045398 0.827734 -0.249001 0.056825 0.966826 0.379630 0.886062
-0.684008 0.156120 -0.484278 -0.807581 0.184301 -0.560167 0.085731 0.274128
-0.386246 0.088158 0.754856 -0.465987 0.106357 0.878353 0.266128 0.852072
-0.551143 0.125795 -0.638110 -0.655660 0.149632 -0.740074 0.166227 0.202380
-0.662011 0.527936 -0.102813 -0.775842 0.619465 -0.119572 0.099058 0.452047
-0.623203 0.496988 -0.302303 -0.732231 0.584216 -0.349956 0.122569 0.359003
-0.159508 0.127203 0.827734 -0.199683 0.159215 0.966826 0.403497 0.886062
-0.548532 0.437440 -0.484278 -0.647633 0.516465 -0.560167 0.167808 0.274128
-0.309745 0.247014 0.754856 -0.373699 0.298013 0.878353 0.312476 0.852072
-0.441982 0.352469 -0.638110 -0.525773 0.419294 -0.740074 0.232361 0.202380
-0.441982 0.352469 0.638110 -0.525773 0.419294 0.740074 0.232361 0.797620
-0.309745 0.247014 -0.754856 -0.373699 0.298013 -0.878353 0.312476 0.147928
-0.548532 0.437440 0.484278 -0.647633 0.516465 0.560167 0.167808 0.725872
-0.159508 0.127203 -0.827734 -0.199683 0.159215 -0.966826 0.403497 0.113938
-0.623203 0.496988 0.302303 -0.732231 0.584216 0.349956 0.122569 0.640997
-0.662011 0.527936 0.102813 -0.775842 0.619465 0.119572 0.099058 0.547953
-0.088520 0.183814 0.827734 -0.110813 0.230110 0.966826 0.446504 0.886062
-0.171896 0.356945 0.754856 -0.207373 0.430647 0.878353 0.395992 0.852072
-0.245281 0.509332 -0.638110 -0.291787 0.605914 -0.740074 0.351531 0.202380
-0.245281 0.509332 0.638110 -0.291787 0.605914 0.740074 0.351531 0.797620
-0.171896 0.356945 -0.754856 -0.207373 0.430647 -0.878353 0.395992 0.147928
-0.304412 0.632119 0.484278 -0.359386 0.746300 0.560167 0.315707 0.725872
-0.088520 0.183814 -0.827734 -0.110813 0.230110 -0.966826 0.446504 0.113938
-0.345851 0.718168 0.302303 -0.406568 0.844295 0.349040 0.290602 0.640997
-0.367191 0.762481 0.102758 -0.430433 0.894742 0.118686 0.277673 0.547927
-0.367191 0.762481 -0.102758 -0.430433 0.894742 -0.118686 0.277673 0.452073
-0.345851 0.718168 -0.302303 -0.406568 0.844295 -0.349040 0.290602 0.359003
-0.304412 0.632119 -0.484278 -0.359386 0.746300 -0.560167 0.315707 0.274128
0.367192 0.762481 -0.102758 0.430799 0.894589 -0.118534 0.722595 0.452073
0.661656 -0.527654 -0.102758 0.776666 -0.618610 -0.118534 0.900995 0.452073
-0.367388 -0.762890 -0.102813 -0.430769 -0.894498 -0.119572 0.277554 0.452047
3 0 1 2
3 3 4 5
3 0 6 7
3 8 4 9
3 7 10 11
3 8 12 13
3 11 14 15
3 16 12 17
3 15 18 19
3 20 16 17
3 19 21 22
3 23 24 3
3 6 25 10
3 9 26 12
3 10 27 14
3 12 28 17
3 14 29 18
3 20 17 28
3 18 30 21
3 24 31 32
3 2 1 33
3 4 32 34
3 6 33 35
3 4 36 9
3 20 28 37
3 29 38 30
3 32 39 40
3 33 1 41
3 34 40 42
3 33 43 35
3 34 44 36
3 35 45 25
3 26 44 46
3 25 47 27
3 26 37 28
3 27 48 29
3 40 49 50
3 41 1 51
3 42 50 52
3 41 53 43
3 42 54 44
3 43 55 45
3 44 56 46
3 45 57 47
3 37 56 58
3 48 57 59
3 20 37 58
3 48 60 38
3 56 61 62
3 55 63 57
3 58 62 64
3 59 63 65
3 20 58 64
3 59 66 60
3 49 67 50
3 51 1 68
3 50 69 52
3 51 70 53
3 52 61 54
3 53 71 55
3 65 72 66
3 67 73 74
3 68 1 75
3 67 76 69
3 68 77 70
3 69 78 61
3 71 77 79
3 61 80 62
3 71 81 63
3 62 82 64
3 65 81 83
3 20 64 82
3 75 1 84
3 74 85 76
3 75 86 77
3 76 87 78
3 79 86 88
3 80 87 89
3 81 88 90
3 82 89 91
3 83 90 92
3 20 82 91
3 83 93 72
3 74 94 95
3 89 96 97
3 90 98 99
3 89 100 91
3 90 101 92
3 20 91 100
3 92 102 93
3 94 103 95
3 84 1 104
3 85 103 105
3 86 104 106
3 85 96 87
3 86 98 88
3 103 107 108
3 104 1 109
3 105 108 110
3 104 111 106
3 105 112 96
3 98 111 113
3 96 114 97
3 99 113 115
3 97 116 100
3 99 117 101
3 20 100 116
3 101 118 102
3 110 119 120
3 109 121 111
3 110 122 112
3 113 121 123
3 114 122 124
3 113 125 115
3 114 126 116
3 115 127 117
3 20 116 126
3 117 128 118
3 108 129 119
3 109 1 130
3 125 131 132
3 126 133 134
3 125 135 127
3 20 126 134
3 127 136 128
3 119 137 138
3 130 1 139
3 120 138 140
3 121 139 141
3 120 142 122
3 121 131 123
3 124 142 133
3 138 143 144
3 139 1 145
3 140 144 146
3 139 147 141
3 140 148 142
3 141 149 131
3 133 148 150
3 131 151 132
3 133 152 134
3 132 153 135
3 20 134 152
3 135 154 136
3 147 155 156
3 146 157 148
3 147 158 149
3 150 157 159
3 151 158 160
3 150 161 152
3 151 162 153
3 20 152 161
3 153 163 154
3 144 164 165
3 145 1 155
3 146 165 166
3 159 16 161
3 160 19 162
3 20 161 16
3 162 22 163
3 165 23 3
3 155 1 0
3 165 5 166
3 155 7 156
3 166 8 157
3 158 7 11
3 157 13 159
3 160 11 15
3 22 167 23
3 21 31 167
3 30 39 31
3 38 49 39
3 60 168 49
3 66 73 168
3 72 94 73
3 93 169 94
3 102 107 169
3 118 129 107
3 128 137 129
3 136 143 137
3 154 164 143
3 163 23 164
3 3 24 4
3 0 2 6
3 8 5 4
3 7 6 10
3 8 9 12
3 11 10 14
3 16 13 12
3 15 14 18
3 19 18 21
3 23 167 24
3 6 35 25
3 9 36 26
3 10 25 27
3 12 26 28
3 14 27 29
3 18 29 30
3 24 167 31
3 4 24 32
3 6 2 33
3 4 34 36
3 29 48 38
3 32 31 39
3 34 32 40
3 33 41 43
3 34 42 44
3 35 43 45
3 26 36 44
3 25 45 47
3 26 46 37
3 27 47 48
3 40 39 49
3 42 40 50
3 41 51 53
3 42 52 54
3 43 53 55
3 44 54 56
3 45 55 57
3 37 46 56
3 48 47 57
3 48 59 60
3 56 54 61
3 55 71 63
3 58 56 62
3 59 57 63
3 59 65 66
3 49 168 67
3 50 67 69
3 51 68 70
3 52 69 61
3 53 70 71
3 65 83 72
3 67 168 73
3 67 74 76
3 68 75 77
3 69 76 78
3 71 70 77
3 61 78 80
3 71 79 81
3 62 80 82
3 65 63 81
3 74 95 85
3 75 84 86
3 76 85 87
3 79 77 86
3 80 78 87
3 81 79 88
3 82 80 89
3 83 81 90
3 83 92 93
3 74 73 94
3 89 87 96
3 90 88 98
3 89 97 100
3 90 99 101
3 92 101 102
3 94 169 103
3 85 95 103
3 86 84 104
3 85 105 96
3 86 106 98
3 103 169 107
3 105 103 108
3 104 109 111
3 105 110 112
3 98 106 111
3 96 112 114
3 99 98 113
3 97 114 116
3 99 115 117
3 101 117 118
3 110 108 119
3 109 130 121
3 110 120 122
3 113 111 121
3 114 112 122
3 113 123 125
3 114 124 126
3 115 125 127
3 117 127 128
3 108 107 129
3 125 123 131
3 126 124 133
3 125 132 135
3 127 135 136
3 119 129 137
3 120 119 138
3 121 130 139
3 120 140 142
3 121 141 131
3 124 122 142
3 138 137 143
3 140 138 144
3 139 145 147
3 140 146 148
3 141 147 149
3 133 142 148
3 131 149 151
3 133 150 152
3 132 151 153
3 135 153 154
3 147 145 155
3 146 166 157
3 147 156 158
3 150 148 157
3 151 149 158
3 150 159 161
3 151 160 162
3 153 162 163
3 144 143 164
3 146 144 165
3 159 13 16
3 160 15 19
3 162 19 22
3 165 164 23
3 165 3 5
3 155 0 7
3 166 5 8
3 158 156 7
3 157 8 13
3 160 158 11
3 22 21 167
3 21 30 31
3 30 38 39
3 38 60 49
3 60 66 168
3 66 72 73
3 72 93 94
3 93 102 169
3 102 118 107
3 118 128 129
3 128 136 137
3 136 154 143
3 154 163 164
3 163 22 23
