ply
format ascii 1.0
comment Created by Blender 2.79 (sub 0) - www.blender.org, source file: 'Animations.blend'
element vertex 152
property float x
property float y
property float z
property float nx
property float ny
property float nz
property uchar red
property uchar green
property uchar blue
element face 64
property list uchar uint vertex_indices
end_header
0.249261 0.228094 0.249261 0.239061 0.780869 0.577143 168 10 255
-0.000000 0.228094 0.352508 0.239061 0.780869 0.577143 165 4 255
0.249261 -0.032446 0.601769 0.239061 0.780869 0.577143 255 1 178
0.249261 0.228094 0.249261 0.510937 0.691293 0.510937 168 10 255
0.249261 -0.032446 0.601769 0.510937 0.691293 0.510937 255 1 178
0.601769 -0.032446 0.249261 0.510937 0.691293 0.510937 255 1 178
0.601769 -0.032446 0.249261 0.671242 -0.314433 0.671242 255 1 178
0.249261 -0.032446 0.601769 0.671242 -0.314433 0.671242 255 1 178
0.398817 -0.146432 0.398817 0.671242 -0.314433 0.671242 255 14 35
0.249261 -0.032446 0.601769 0.251999 -0.752577 0.608379 255 1 178
0.149556 -0.260418 0.361061 0.251999 -0.752577 0.608379 189 15 232
0.398817 -0.146432 0.398817 0.251999 -0.752577 0.608379 255 14 35
0.398817 -0.146432 0.398817 0.346266 -0.871895 0.346265 255 14 35
0.149556 -0.260418 0.361061 0.346266 -0.871895 0.346265 189 15 232
0.361061 -0.260418 0.149556 0.346266 -0.871895 0.346265 185 12 255
0.352508 0.228094 -0.000000 0.577143 0.780869 0.239060 165 3 255
0.249261 0.228094 0.249261 0.577143 0.780869 0.239060 168 10 255
0.601769 -0.032446 0.249261 0.577143 0.780869 0.239060 255 1 178
0.352508 0.228094 -0.000000 0.722574 0.691293 0.000000 165 3 255
0.601769 -0.032446 0.249261 0.722574 0.691293 0.000000 255 1 178
0.601769 -0.032445 -0.249261 0.722574 0.691293 0.000000 247 1 185
0.601769 -0.032445 -0.249261 0.949280 -0.314433 -0.000000 255 1 178
0.601769 -0.032446 0.249261 0.949280 -0.314433 -0.000000 255 1 178
0.564013 -0.146432 -0.000000 0.949280 -0.314433 -0.000000 255 48 66
0.601769 -0.032446 0.249261 0.608379 -0.752577 0.251998 255 1 178
0.361061 -0.260418 0.149556 0.608379 -0.752577 0.251998 185 12 255
0.564013 -0.146432 -0.000000 0.608379 -0.752577 0.251998 255 48 66
0.564013 -0.146432 -0.000000 0.489693 -0.871895 -0.000000 255 48 66
0.361061 -0.260418 0.149556 0.489693 -0.871895 -0.000000 185 12 255
0.361061 -0.260418 -0.149557 0.489693 -0.871895 -0.000000 188 19 255
0.249261 0.228094 -0.249261 0.577143 0.780869 -0.239060 173 26 255
0.352508 0.228094 -0.000000 0.577143 0.780869 -0.239060 165 3 255
0.601769 -0.032445 -0.249261 0.577143 0.780869 -0.239060 255 1 178
0.249261 0.228094 -0.249261 0.510937 0.691293 -0.510937 173 26 255
0.601769 -0.032445 -0.249261 0.510937 0.691293 -0.510937 255 1 178
0.249261 -0.032445 -0.601769 0.510937 0.691293 -0.510937 255 1 178
0.249261 -0.032445 -0.601769 0.671242 -0.314434 -0.671242 255 1 178
0.601769 -0.032445 -0.249261 0.671242 -0.314434 -0.671242 255 1 178
0.398817 -0.146432 -0.398817 0.671242 -0.314434 -0.671242 255 9 30
0.601769 -0.032445 -0.249261 0.608379 -0.752577 -0.251999 255 1 178
0.361061 -0.260418 -0.149557 0.608379 -0.752577 -0.251999 188 19 255
0.398817 -0.146432 -0.398817 0.608379 -0.752577 -0.251999 255 9 30
0.398817 -0.146432 -0.398817 0.346266 -0.871894 -0.346266 255 9 30
0.361061 -0.260418 -0.149557 0.346266 -0.871894 -0.346266 188 19 255
0.149556 -0.260418 -0.361061 0.346266 -0.871894 -0.346266 187 21 255
-0.000000 0.228095 -0.352508 0.239060 0.780869 -0.577143 168 14 255
0.249261 0.228094 -0.249261 0.239060 0.780869 -0.577143 173 26 255
0.249261 -0.032445 -0.601769 0.239060 0.780869 -0.577143 255 1 178
-0.000000 0.228095 -0.352508 0.000000 0.691293 -0.722574 168 14 255
0.249261 -0.032445 -0.601769 0.000000 0.691293 -0.722574 255 1 178
-0.249261 -0.032445 -0.601769 0.000000 0.691293 -0.722574 255 1 178
-0.249261 -0.032445 -0.601769 -0.000000 -0.314433 -0.949280 255 1 178
0.249261 -0.032445 -0.601769 -0.000000 -0.314433 -0.949280 255 1 178
-0.000000 -0.146432 -0.564013 -0.000000 -0.314433 -0.949280 255 10 30
0.249261 -0.032445 -0.601769 0.251999 -0.752577 -0.608379 255 1 178
0.149556 -0.260418 -0.361061 0.251999 -0.752577 -0.608379 187 21 255
-0.000000 -0.146432 -0.564013 0.251999 -0.752577 -0.608379 255 10 30
-0.000000 -0.146432 -0.564013 0.000000 -0.871895 -0.489694 255 10 30
0.149556 -0.260418 -0.361061 0.000000 -0.871895 -0.489694 187 21 255
-0.149556 -0.260418 -0.361061 0.000000 -0.871895 -0.489694 184 6 255
-0.249261 0.228094 -0.249261 -0.239060 0.780869 -0.577143 182 51 255
-0.000000 0.228095 -0.352508 -0.239060 0.780869 -0.577143 168 14 255
-0.249261 -0.032445 -0.601769 -0.239060 0.780869 -0.577143 255 1 178
-0.249261 0.228094 -0.249261 -0.510937 0.691293 -0.510937 182 51 255
-0.249261 -0.032445 -0.601769 -0.510937 0.691293 -0.510937 255 1 178
-0.601769 -0.032445 -0.249261 -0.510937 0.691293 -0.510937 255 1 178
-0.601769 -0.032445 -0.249261 -0.671242 -0.314434 -0.671242 255 1 178
-0.249261 -0.032445 -0.601769 -0.671242 -0.314434 -0.671242 255 1 178
-0.398817 -0.146432 -0.398817 -0.671242 -0.314434 -0.671242 255 24 44
-0.249261 -0.032445 -0.601769 -0.251999 -0.752577 -0.608379 255 1 178
-0.149556 -0.260418 -0.361061 -0.251999 -0.752577 -0.608379 184 6 255
-0.398817 -0.146432 -0.398817 -0.251999 -0.752577 -0.608379 255 24 44
-0.398817 -0.146432 -0.398817 -0.346266 -0.871894 -0.346266 255 24 44
-0.149556 -0.260418 -0.361061 -0.346266 -0.871894 -0.346266 184 6 255
-0.361061 -0.260418 -0.149557 -0.346266 -0.871894 -0.346266 185 10 255
-0.352508 0.228094 -0.000000 -0.577143 0.780869 -0.239060 165 2 255
-0.249261 0.228094 -0.249261 -0.577143 0.780869 -0.239060 182 51 255
-0.601769 -0.032445 -0.249261 -0.577143 0.780869 -0.239060 255 1 178
-0.352508 0.228094 -0.000000 -0.722574 0.691293 0.000000 165 2 255
-0.601769 -0.032445 -0.249261 -0.722574 0.691293 0.000000 255 1 178
-0.601769 -0.032446 0.249261 -0.722574 0.691293 0.000000 255 1 178
-0.601769 -0.032446 0.249261 -0.949280 -0.314433 -0.000000 255 1 178
-0.601769 -0.032445 -0.249261 -0.949280 -0.314433 -0.000000 255 1 178
-0.564013 -0.146432 -0.000000 -0.949280 -0.314433 -0.000000 255 48 65
-0.601769 -0.032445 -0.249261 -0.608379 -0.752577 -0.251999 255 1 178
-0.361061 -0.260418 -0.149557 -0.608379 -0.752577 -0.251999 185 10 255
-0.564013 -0.146432 -0.000000 -0.608379 -0.752577 -0.251999 255 48 65
-0.564013 -0.146432 -0.000000 -0.489693 -0.871895 -0.000000 255 48 65
-0.361061 -0.260418 -0.149557 -0.489693 -0.871895 -0.000000 185 10 255
-0.361061 -0.260418 0.149556 -0.489693 -0.871895 -0.000000 180 15 239
-0.249261 0.228094 0.249261 -0.577143 0.780869 0.239060 168 10 255
-0.352508 0.228094 -0.000000 -0.577143 0.780869 0.239060 165 2 255
-0.601769 -0.032446 0.249261 -0.577143 0.780869 0.239060 255 1 178
-0.249261 0.228094 0.249261 -0.510937 0.691293 0.510937 168 10 255
-0.601769 -0.032446 0.249261 -0.510937 0.691293 0.510937 255 1 178
-0.249261 -0.032446 0.601769 -0.510937 0.691293 0.510937 255 1 178
-0.249261 -0.032446 0.601769 -0.671242 -0.314433 0.671242 255 1 178
-0.601769 -0.032446 0.249261 -0.671242 -0.314433 0.671242 255 1 178
-0.398817 -0.146432 0.398817 -0.671242 -0.314433 0.671242 255 26 45
-0.601769 -0.032446 0.249261 -0.608379 -0.752577 0.251999 255 1 178
-0.361061 -0.260418 0.149556 -0.608379 -0.752577 0.251999 180 15 239
-0.398817 -0.146432 0.398817 -0.608379 -0.752577 0.251999 255 26 45
-0.398817 -0.146432 0.398817 -0.346266 -0.871895 0.346265 255 26 45
-0.361061 -0.260418 0.149556 -0.346266 -0.871895 0.346265 180 15 239
-0.149556 -0.260418 0.361061 -0.346266 -0.871895 0.346265 182 5 254
-0.000000 0.228094 0.352508 -0.239061 0.780869 0.577143 165 4 255
-0.249261 0.228094 0.249261 -0.239061 0.780869 0.577143 168 10 255
-0.249261 -0.032446 0.601769 -0.239061 0.780869 0.577143 255 1 178
-0.000000 0.228094 0.352508 0.000000 0.691293 0.722575 165 4 255
-0.249261 -0.032446 0.601769 0.000000 0.691293 0.722575 255 1 178
0.249261 -0.032446 0.601769 0.000000 0.691293 0.722575 255 1 178
0.249261 -0.032446 0.601769 0.000000 -0.314433 0.949280 255 1 178
-0.249261 -0.032446 0.601769 0.000000 -0.314433 0.949280 255 1 178
-0.000000 -0.146432 0.564013 0.000000 -0.314433 0.949280 255 18 37
-0.249261 -0.032446 0.601769 -0.251999 -0.752577 0.608379 255 1 178
-0.149556 -0.260418 0.361061 -0.251999 -0.752577 0.608379 182 5 254
-0.000000 -0.146432 0.564013 -0.251999 -0.752577 0.608379 255 18 37
-0.000000 -0.146432 0.564013 0.000000 -0.871895 0.489693 255 18 37
-0.149556 -0.260418 0.361061 0.000000 -0.871895 0.489693 182 5 254
0.149556 -0.260418 0.361061 0.000000 -0.871895 0.489693 189 15 232
0.149556 -0.260418 0.361061 0.000000 -1.000000 -0.000001 189 15 232
-0.149556 -0.260418 0.361061 0.000000 -1.000000 -0.000001 182 5 254
-0.000000 -0.260418 -0.000000 0.000000 -1.000000 -0.000001 190 38 255
0.361061 -0.260418 0.149556 -0.000000 -1.000000 -0.000001 185 12 255
-0.000000 -0.260418 -0.000000 -0.000000 -1.000000 -0.000000 190 38 255
0.361061 -0.260418 -0.149557 -0.000000 -1.000000 -0.000000 188 19 255
0.361061 -0.260418 0.149556 -0.000000 -1.000000 -0.000000 185 12 255
0.149556 -0.260418 -0.361061 -0.000000 -1.000000 0.000000 187 21 255
-0.149556 -0.260418 -0.361061 0.000000 -1.000000 0.000000 184 6 255
-0.361061 -0.260418 -0.149557 0.000000 -1.000000 0.000000 185 10 255
-0.361061 -0.260418 0.149556 0.000000 -1.000000 -0.000000 180 15 239
-0.361061 -0.260418 0.149556 0.000000 -1.000000 -0.000001 180 15 239
-0.000000 0.488634 0.000000 0.239061 0.780869 0.577143 66 1 255
-0.000000 -0.146432 0.564013 0.251999 -0.752577 0.608379 255 18 37
-0.000000 0.488634 0.000000 0.577143 0.780869 0.239060 66 1 255
0.601769 -0.032446 0.249261 0.608379 -0.752577 0.251999 255 1 178
0.398817 -0.146432 0.398817 0.608379 -0.752577 0.251999 255 14 35
0.361061 -0.260418 0.149556 0.608379 -0.752577 0.251999 185 12 255
-0.000000 0.488634 0.000000 0.577143 0.780869 -0.239060 66 1 255
0.564013 -0.146432 -0.000000 0.608379 -0.752577 -0.251999 255 48 66
-0.000000 0.488634 0.000000 0.239060 0.780869 -0.577143 66 1 255
0.398817 -0.146432 -0.398817 0.251999 -0.752577 -0.608379 255 9 30
-0.000000 0.488634 0.000000 -0.239060 0.780869 -0.577143 66 1 255
-0.000000 -0.146432 -0.564013 -0.251999 -0.752577 -0.608379 255 10 30
-0.000000 0.488634 0.000000 -0.577143 0.780869 -0.239060 66 1 255
-0.398817 -0.146432 -0.398817 -0.608379 -0.752577 -0.251999 255 24 44
-0.000000 0.488634 0.000000 -0.577143 0.780869 0.239060 66 1 255
-0.601769 -0.032446 0.249261 -0.608379 -0.752577 0.251998 255 1 178
-0.564013 -0.146432 -0.000000 -0.608379 -0.752577 0.251998 255 48 65
-0.361061 -0.260418 0.149556 -0.608379 -0.752577 0.251998 180 15 239
-0.000000 0.488634 0.000000 -0.239061 0.780869 0.577143 66 1 255
-0.398817 -0.146432 0.398817 -0.251999 -0.752577 0.608379 255 26 45
3 0 1 2
3 3 4 5
3 6 7 8
3 9 10 11
3 12 13 14
3 15 16 17
3 18 19 20
3 21 22 23
3 24 25 26
3 27 28 29
3 30 31 32
3 33 34 35
3 36 37 38
3 39 40 41
3 42 43 44
3 45 46 47
3 48 49 50
3 51 52 53
3 54 55 56
3 57 58 59
3 60 61 62
3 63 64 65
3 66 67 68
3 69 70 71
3 72 73 74
3 75 76 77
3 78 79 80
3 81 82 83
3 84 85 86
3 87 88 89
3 90 91 92
3 93 94 95
3 96 97 98
3 99 100 101
3 102 103 104
3 105 106 107
3 108 109 110
3 111 112 113
3 114 115 116
3 117 118 119
3 120 121 122
3 122 123 120
3 124 125 126
3 124 127 125
3 124 128 127
3 124 129 128
3 124 130 129
3 122 121 131
3 0 132 1
3 9 133 10
3 15 134 16
3 135 136 137
3 30 138 31
3 39 139 40
3 45 140 46
3 54 141 55
3 60 142 61
3 69 143 70
3 75 144 76
3 84 145 85
3 90 146 91
3 147 148 149
3 105 150 106
3 114 151 115
