ply
format ascii 1.0
comment Created by Blender 2.79 (sub 0) - www.blender.org, source file: 'Animations.blend'
element vertex 4
property float x
property float y
property float z
property float nx
property float ny
property float nz
element face 2
property list uchar uint vertex_indices
end_header
3.931957 0.000000 -11.301064 0.000000 1.000000 0.000000
-3.931957 0.000000 -14.446630 0.000000 1.000000 0.000000
-3.931957 0.000000 -11.301064 0.000000 1.000000 0.000000
3.931957 0.000000 -14.446630 -0.000000 1.000000 0.000000
3 0 1 2
3 0 3 1
