ply
format ascii 1.0
comment Created by Blender 2.79 (sub 0) - www.blender.org, source file: 'Animations.blend'
element vertex 332
property float x
property float y
property float z
property float nx
property float ny
property float nz
property float s
property float t
property uchar red
property uchar green
property uchar blue
element face 190
property list uchar uint vertex_indices
end_header
0.000000 -3.000000 -4.000000 -0.000000 1.000000 0.000000 2.341311 0.057327 125 125 125
-4.000000 -3.000000 -8.000000 -0.000000 1.000000 0.000000 1.147990 -0.045331 124 124 124
-4.000000 -3.000000 -4.000000 -0.000000 1.000000 0.000000 1.795980 -0.590663 124 124 124
0.000000 -3.000000 -12.000000 -0.000000 1.000000 0.000000 1.045330 1.147990 254 254 254
-4.000000 -3.000000 -16.000000 -0.000000 1.000000 0.000000 -0.147991 1.045331 255 255 255
-4.000000 -3.000000 -12.000000 -0.000000 1.000000 0.000000 0.499999 0.500000 254 254 254
7.000000 -3.000000 -23.000000 -0.000000 1.000000 0.000000 0.217687 3.781632 204 204 204
4.000000 -3.000000 -24.000000 -0.000000 1.000000 0.000000 -0.353308 3.431972 255 255 255
4.000000 -3.000000 -20.000000 -0.000000 1.000000 0.000000 0.294681 2.886642 255 255 255
0.000000 -3.000000 -16.000000 0.000000 1.000000 0.000000 0.397340 1.693321 255 255 255
0.000000 -3.000000 -24.000000 -0.000000 1.000000 0.000000 -0.898639 2.783982 255 255 255
0.000000 -3.000000 -20.000000 -0.000000 1.000000 0.000000 -0.250650 2.238652 255 255 255
4.000000 -3.000000 -16.000000 0.000000 1.000000 0.000000 0.942672 2.341311 202 202 202
4.000000 -3.000000 -20.000000 0.000000 1.000000 0.000000 0.294681 2.886642 202 202 202
8.000000 -2.000000 -16.000000 0.000000 0.970143 -0.242536 1.488002 2.989300 202 202 202
4.000000 -3.000000 -20.000000 0.000000 0.970143 -0.242536 0.294681 2.886642 255 255 255
4.000000 -2.000000 -16.000000 0.000000 0.970143 -0.242536 0.942672 2.341311 254 254 254
-4.000000 -3.000000 -20.000000 -0.000000 1.000000 0.000000 -0.795981 1.590662 255 255 255
0.000000 -3.000000 -8.000000 0.000000 1.000000 0.000000 1.693320 0.602659 125 125 125
4.000000 -3.000000 -12.000000 -0.000000 1.000000 0.000000 1.590661 1.795980 254 254 254
4.000000 -3.000000 -8.000000 -0.000000 1.000000 0.000000 2.238652 1.250649 225 225 225
0.000000 -3.000000 -8.000000 -0.000000 1.000000 0.000000 1.693320 0.602659 254 254 254
-3.000000 -3.000000 -23.000000 -0.000000 1.000000 0.000000 -1.145640 2.161657 255 255 255
-4.000000 -3.000000 -8.000000 -0.000000 1.000000 0.000000 1.147990 -0.045331 254 254 254
4.000000 -3.000000 -4.000000 -0.000000 1.000000 0.000000 2.886642 0.705318 131 131 131
-4.000000 -3.000000 0.000000 0.213663 0.976433 0.030445 2.443969 -1.135993 254 254 254
-8.000000 -2.000000 -4.000000 0.213663 0.976433 0.030445 1.250649 -1.238652 254 254 254
-8.000000 -2.124720 0.000000 0.213663 0.976433 0.030445 1.898639 -1.783983 255 255 255
0.000000 -3.000000 0.000000 -0.000000 1.000000 0.000000 2.989300 -0.488003 202 202 202
-4.000000 -3.000000 -4.000000 -0.000000 1.000000 0.000000 1.795980 -0.590663 254 254 254
-4.000000 -3.000000 0.000000 -0.000000 1.000000 0.000000 2.443969 -1.135993 204 204 204
-8.000000 -2.124720 0.000000 0.242425 0.969699 0.030235 1.898639 -1.783983 255 255 255
-12.000000 -1.000000 -4.000000 0.242425 0.969699 0.030235 0.705319 -1.886642 255 255 255
-12.000000 -1.124720 0.000000 0.242425 0.969699 0.030235 1.353308 -2.431972 255 255 255
8.000000 -3.000000 -20.000000 0.000000 0.970143 -0.242536 0.840012 3.534632 202 202 202
4.000000 -3.000000 -8.000000 0.000000 1.000000 0.000000 2.238652 1.250649 180 180 180
-4.000000 -3.000000 0.000000 0.242536 0.970143 -0.000000 2.443969 -1.135993 254 254 254
-4.000000 -3.000000 -4.000000 0.242536 0.970143 -0.000000 1.795980 -0.590663 254 253 254
-8.000000 -2.000000 -4.000000 0.242536 0.970143 -0.000000 1.250649 -1.238652 254 254 254
0.000000 -3.000000 -4.000000 0.000000 1.000000 0.000000 2.341311 0.057327 254 254 254
-12.000000 -1.000000 -4.000000 -0.000000 0.999784 0.020782 0.705319 -1.886642 255 255 255
-16.000000 -1.000000 -4.000000 -0.000000 0.999784 0.020782 0.159988 -2.534632 255 255 255
-15.000000 -1.062360 -1.000000 -0.000000 0.999784 0.020782 0.782313 -2.781632 255 255 255
-8.000000 -2.000000 -4.000000 0.242425 0.969699 0.030235 1.250649 -1.238652 254 254 254
-4.089385 0.000000 -4.000000 -0.000000 1.000000 0.000000 1.783794 -0.605142 254 254 254
-8.000000 0.000000 -8.000000 -0.000000 1.000000 0.000000 0.602659 -0.693321 254 253 254
-8.000000 0.000000 -4.000000 -0.000000 1.000000 0.000000 1.250649 -1.238652 254 254 254
-4.089385 0.000000 -8.000000 0.000000 1.000000 0.000000 1.135804 -0.059811 255 255 255
-8.000000 0.000000 -4.000000 -0.242536 0.970143 0.000000 1.250649 -1.238652 254 254 254
-12.000000 -1.000000 -8.000000 -0.242536 0.970143 0.000000 0.057328 -1.341310 255 254 255
-12.000000 -1.000000 -4.000000 -0.242536 0.970143 0.000000 0.705319 -1.886642 255 255 255
-8.000000 0.000000 -8.000000 -0.242536 0.970143 0.000000 0.602659 -0.693321 254 253 254
-12.000000 -1.000000 -4.000000 -0.000000 1.000000 0.000000 0.705319 -1.886642 255 255 255
-12.000000 -1.000000 -8.000000 -0.000000 1.000000 0.000000 0.057328 -1.341310 255 254 255
-15.000000 -1.000000 -7.000000 -0.000000 1.000000 0.000000 -0.189672 -1.963636 255 255 255
3.000000 -3.000000 -1.000000 0.000000 1.000000 -0.000000 3.236301 0.134322 202 202 202
4.000000 -3.000000 -4.000000 0.000000 1.000000 -0.000000 2.886642 0.705318 202 202 202
8.000000 0.000000 -8.000000 0.000000 0.970142 -0.242536 2.783982 1.898639 202 202 202
4.000000 -1.000000 -12.000000 0.000000 0.970142 -0.242536 1.590661 1.795980 254 254 254
4.089385 0.000000 -8.000000 0.000000 0.970142 -0.242536 2.250837 1.265128 254 254 254
8.000000 0.000000 -8.000000 0.000000 0.970143 -0.242536 2.783982 1.898639 202 202 202
8.000000 -1.000000 -12.000000 0.000000 0.970143 -0.242536 2.135992 2.443970 211 211 211
4.000000 -1.000000 -12.000000 0.000000 0.970143 -0.242536 1.590661 1.795980 254 254 254
4.089385 0.000000 -8.000000 0.000000 1.000000 0.000000 2.250837 1.265128 255 255 255
4.089385 0.000000 -4.000000 0.000000 1.000000 0.000000 2.898828 0.719797 202 202 202
7.044693 0.000000 -5.000000 0.000000 1.000000 0.000000 3.139735 1.334883 204 204 204
-12.000000 -1.124720 0.000000 0.010388 0.999460 0.031163 1.353308 -2.431972 255 255 255
-12.000000 -1.000000 -4.000000 0.010388 0.999460 0.031163 0.705319 -1.886642 255 255 255
-15.000000 -1.062360 -1.000000 0.010388 0.999460 0.031163 0.782313 -2.781632 255 255 255
-16.000000 -1.000000 -4.000000 0.000000 1.000000 -0.000000 0.159988 -2.534632 255 255 255
8.000000 -3.000000 -20.000000 -0.000000 1.000000 0.000000 0.840012 3.534632 202 202 202
8.000000 0.000000 -8.000000 -0.000000 1.000000 0.000000 2.783982 1.898639 202 202 202
0.000000 -3.000000 -24.000000 0.316228 -0.000000 0.948683 0.265782 0.708136 255 255 255
-3.000000 -2.272051 -23.000000 0.316228 -0.000000 0.948683 0.264828 0.707818 255 255 255
-3.000000 -3.000000 -23.000000 0.316228 -0.000000 0.948683 0.264828 0.707818 255 255 255
-12.000000 -1.000000 -8.000000 0.316228 -0.000000 0.948683 0.261968 0.703050 255 254 255
-15.000000 -0.272051 -7.000000 0.316228 -0.000000 0.948683 0.261014 0.702732 255 255 255
-15.000000 -1.000000 -7.000000 0.316228 -0.000000 0.948683 0.261014 0.702732 255 255 255
0.000000 -3.000000 0.000000 -0.316228 0.000000 -0.948683 0.265782 0.700507 195 169 195
3.000000 -2.272051 -1.000000 -0.316228 0.000000 -0.948683 0.266736 0.700825 198 172 198
3.000000 -3.000000 -1.000000 -0.316228 0.000000 -0.948683 0.266736 0.700825 198 172 198
-4.000000 -3.000000 -20.000000 1.000000 -0.000000 0.000000 0.264511 0.706865 255 255 255
-4.000000 -2.272051 -16.000000 1.000000 -0.000000 0.000000 0.264511 0.705593 255 255 255
-4.000000 -3.000000 -16.000000 1.000000 -0.000000 0.000000 0.264511 0.705593 255 255 255
4.089385 0.000000 -8.000000 0.999750 0.000000 -0.022341 0.267082 0.703050 189 189 189
4.000000 -0.272051 -12.000000 0.999750 0.000000 -0.022341 0.267053 0.704322 205 177 205
4.089385 0.727949 -8.000000 0.999750 0.000000 -0.022341 0.267082 0.703050 189 189 189
-8.000000 -2.000000 -4.000000 0.000000 0.000000 1.000000 0.263239 0.701779 208 180 208
-4.000000 -2.272051 -4.000000 0.000000 0.000000 1.000000 0.264511 0.701779 209 181 209
-8.000000 -1.272051 -4.000000 0.000000 0.000000 1.000000 0.263239 0.701779 208 180 208
-3.000000 -3.000000 -23.000000 0.948683 -0.000000 0.316228 0.264828 0.707818 255 255 255
-4.000000 -2.272051 -20.000000 0.948683 -0.000000 0.316228 0.264511 0.706865 255 255 255
-4.000000 -3.000000 -20.000000 0.948683 -0.000000 0.316228 0.264511 0.706865 255 255 255
-8.000000 0.000000 -8.000000 0.000000 0.000000 1.000000 0.263239 0.703050 211 211 211
-12.000000 -0.272051 -8.000000 0.000000 0.000000 1.000000 0.261968 0.703050 255 254 255
-12.000000 -1.000000 -8.000000 0.000000 0.000000 1.000000 0.261968 0.703050 255 254 255
7.000000 -3.000000 -23.000000 -0.316228 0.000000 0.948683 0.268007 0.707818 255 255 255
4.000000 -2.272051 -24.000000 -0.316228 0.000000 0.948683 0.267053 0.708136 255 255 255
4.000000 -3.000000 -24.000000 -0.316228 0.000000 0.948683 0.267053 0.708136 255 255 255
8.000000 -3.000000 -20.000000 -0.948683 0.000000 0.316228 0.268325 0.706865 255 255 255
7.000000 -2.272051 -23.000000 -0.948683 0.000000 0.316228 0.268007 0.707818 255 255 255
7.000000 -3.000000 -23.000000 -0.948683 0.000000 0.316228 0.268007 0.707818 255 255 255
4.000000 -3.000000 -24.000000 -0.000000 0.000000 1.000000 0.267053 0.708136 255 255 255
0.000000 -2.272051 -24.000000 -0.000000 0.000000 1.000000 0.265782 0.708136 255 255 255
0.000000 -3.000000 -24.000000 -0.000000 0.000000 1.000000 0.265782 0.708136 255 255 255
4.000000 -3.000000 -8.000000 -1.000000 0.000000 0.000000 0.267053 0.703050 114 98 114
4.000000 -2.272051 -12.000000 -1.000000 0.000000 0.000000 0.267053 0.704322 177 153 177
4.000000 -3.000000 -12.000000 -1.000000 0.000000 0.000000 0.267053 0.704322 177 153 177
-15.000000 -1.000000 -7.000000 0.948683 -0.000000 0.316228 0.261014 0.702732 255 255 255
-16.000000 -0.272051 -4.000000 0.948683 -0.000000 0.316228 0.260696 0.701779 255 255 255
-16.000000 -1.000000 -4.000000 0.948683 -0.000000 0.316228 0.260696 0.701779 255 255 255
4.000000 -3.000000 -16.000000 -1.000000 0.000000 0.000000 0.267053 0.705593 255 255 255
4.000000 -2.272051 -20.000000 -1.000000 0.000000 0.000000 0.267053 0.706865 255 255 255
4.000000 -3.000000 -20.000000 -1.000000 0.000000 0.000000 0.267053 0.706865 255 255 255
8.000000 -1.000000 -12.000000 -1.000000 0.000000 0.000000 0.268325 0.704322 231 230 231
8.000000 -1.272051 -16.000000 -1.000000 0.000000 0.000000 0.268325 0.705593 255 255 255
8.000000 -2.000000 -16.000000 -1.000000 0.000000 0.000000 0.268325 0.705593 255 255 255
8.000000 -2.272051 -20.000000 -1.000000 0.000000 0.000000 0.268325 0.706865 255 255 255
8.000000 -3.000000 -20.000000 -1.000000 0.000000 0.000000 0.268325 0.706865 255 255 255
-12.000000 -1.000000 -4.000000 0.000000 0.000000 1.000000 0.261968 0.701779 255 255 255
-12.000000 -0.272051 -4.000000 0.000000 0.000000 1.000000 0.261968 0.701779 255 255 255
-4.000000 -2.272051 -12.000000 1.000000 -0.000000 0.000000 0.264511 0.704322 209 181 209
-4.000000 -3.000000 -12.000000 1.000000 -0.000000 0.000000 0.264511 0.704322 209 181 209
4.000000 -1.000000 -12.000000 1.000000 0.000000 -0.000000 0.267053 0.704322 205 177 205
4.000000 -1.272051 -16.000000 1.000000 0.000000 -0.000000 0.267053 0.705593 208 180 208
4.000000 -0.272051 -12.000000 1.000000 0.000000 -0.000000 0.267053 0.704322 205 177 205
-4.000000 -2.272051 -8.000000 1.000000 -0.000000 0.000000 0.264511 0.703050 127 110 127
-4.000000 -3.000000 -8.000000 1.000000 -0.000000 0.000000 0.264511 0.703050 127 110 127
4.000000 -3.000000 -12.000000 -1.000000 0.000000 0.000000 0.267053 0.704322 255 255 255
4.000000 -2.272051 -16.000000 -1.000000 0.000000 0.000000 0.267053 0.705593 255 255 255
-4.089385 0.000000 -8.000000 -0.000000 0.000000 1.000000 0.264482 0.703050 255 255 255
-8.000000 0.727949 -8.000000 -0.000000 0.000000 1.000000 0.263239 0.703050 244 244 244
-8.000000 0.000000 -8.000000 -0.000000 0.000000 1.000000 0.263239 0.703050 244 244 244
7.044693 0.000000 -5.000000 -0.952856 0.000000 -0.303423 0.268021 0.702097 233 233 233
8.000000 0.727949 -8.000000 -0.952856 0.000000 -0.303423 0.268325 0.703050 255 255 255
8.000000 0.000000 -8.000000 -0.952856 0.000000 -0.303423 0.268325 0.703050 255 255 255
-8.000000 -2.124720 0.000000 0.000000 0.000000 -1.000000 0.263239 0.700507 255 255 255
-4.000000 -2.272051 0.000000 0.000000 0.000000 -1.000000 0.264511 0.700507 197 171 197
-4.000000 -3.000000 0.000000 0.000000 0.000000 -1.000000 0.264511 0.700507 197 171 197
-12.000000 -1.124720 0.000000 0.000000 0.000000 -1.000000 0.261968 0.700507 255 255 255
-8.000000 -1.396771 0.000000 0.000000 0.000000 -1.000000 0.263239 0.700507 255 255 255
4.000000 -3.000000 -4.000000 -1.000000 0.000000 0.000000 0.267053 0.701779 146 127 146
4.000000 -2.272051 -8.000000 -1.000000 0.000000 0.000000 0.267053 0.703050 114 98 114
8.000000 0.000000 -8.000000 -1.000000 0.000000 0.000000 0.268325 0.703050 255 255 255
8.000000 -0.272051 -12.000000 -1.000000 0.000000 0.000000 0.268325 0.704322 252 250 252
8.000000 -1.000000 -12.000000 -1.000000 0.000000 0.000000 0.268325 0.704322 252 250 252
0.000000 -2.272051 0.000000 -0.000000 0.000000 -1.000000 0.265782 0.700507 195 169 195
0.000000 -3.000000 0.000000 -0.000000 0.000000 -1.000000 0.265782 0.700507 195 169 195
3.000000 -3.000000 -1.000000 -0.948683 0.000000 -0.316228 0.266736 0.700825 198 172 198
4.000000 -2.272051 -4.000000 -0.948683 0.000000 -0.316228 0.267053 0.701779 200 174 200
4.000000 -3.000000 -4.000000 -0.948683 0.000000 -0.316228 0.267053 0.701779 200 174 200
-15.000000 -1.062360 -1.000000 0.316228 0.000000 -0.948683 0.261014 0.700825 255 255 255
-12.000000 -0.396771 0.000000 0.316228 0.000000 -0.948683 0.261968 0.700507 255 255 255
-12.000000 -1.124720 0.000000 0.316228 0.000000 -0.948683 0.261968 0.700507 255 255 255
4.000000 -2.000000 -16.000000 1.000000 0.000000 -0.000000 0.267053 0.705593 208 180 208
4.000000 -2.272051 -20.000000 1.000000 0.000000 -0.000000 0.267053 0.706865 255 255 255
-8.000000 0.000000 -4.000000 -0.000000 0.000000 -1.000000 0.263239 0.701779 234 203 234
-4.089385 0.727949 -4.000000 -0.000000 0.000000 -1.000000 0.264482 0.701779 238 210 238
-4.089385 0.000000 -4.000000 -0.000000 0.000000 -1.000000 0.264482 0.701779 238 210 238
-16.000000 -1.000000 -4.000000 0.948683 0.000000 -0.316228 0.260696 0.701779 255 255 255
-15.000000 -0.334411 -1.000000 0.948683 0.000000 -0.316228 0.261014 0.700825 255 255 255
-15.000000 -1.062360 -1.000000 0.948683 0.000000 -0.316228 0.261014 0.700825 255 255 255
-12.000000 -0.272051 -4.000000 0.000000 -0.000000 -1.000000 0.261968 0.701779 255 255 255
-8.000000 0.727949 -4.000000 0.000000 -0.000000 -1.000000 0.263239 0.701779 234 203 234
4.089385 0.000000 -4.000000 -0.320522 0.000000 -0.947241 0.267082 0.701779 211 211 211
7.044693 0.727949 -5.000000 -0.320522 0.000000 -0.947241 0.268021 0.702097 233 233 233
7.044693 0.000000 -5.000000 -0.320522 0.000000 -0.947241 0.268021 0.702097 233 233 233
-4.000000 -3.000000 -8.000000 1.000000 -0.000000 0.000000 0.264511 0.703050 121 104 121
-4.000000 -2.272051 -4.000000 1.000000 -0.000000 0.000000 0.264511 0.701779 146 127 146
-4.000000 -3.000000 -4.000000 1.000000 -0.000000 0.000000 0.264511 0.701779 146 127 146
-3.000000 -2.272051 -23.000000 -0.316228 0.000000 -0.948683 0.264828 0.707818 255 255 255
0.000000 -3.000000 -24.000000 -0.316228 0.000000 -0.948683 0.265782 0.708136 255 255 255
-3.000000 -3.000000 -23.000000 -0.316228 0.000000 -0.948683 0.264828 0.707818 255 255 255
-15.000000 -0.272051 -7.000000 -0.316228 0.000000 -0.948683 0.261014 0.702732 255 255 255
-12.000000 -1.000000 -8.000000 -0.316228 0.000000 -0.948683 0.261968 0.703050 255 254 255
-15.000000 -1.000000 -7.000000 -0.316228 0.000000 -0.948683 0.261014 0.702732 255 255 255
3.000000 -2.272051 -1.000000 0.316228 0.000000 0.948683 0.266736 0.700825 252 251 252
0.000000 -3.000000 0.000000 0.316228 0.000000 0.948683 0.265782 0.700507 202 202 202
3.000000 -3.000000 -1.000000 0.316228 0.000000 0.948683 0.266736 0.700825 202 202 202
-4.000000 -2.272051 -16.000000 -1.000000 0.000000 0.000000 0.264511 0.705593 255 255 255
-4.000000 -3.000000 -20.000000 -1.000000 0.000000 0.000000 0.264511 0.706865 255 255 255
-4.000000 -3.000000 -16.000000 -1.000000 0.000000 0.000000 0.264511 0.705593 255 255 255
4.089385 0.000000 -8.000000 -0.999750 0.000000 0.022341 0.267082 0.703050 189 189 189
4.000000 -0.272051 -12.000000 -0.999750 0.000000 0.022341 0.267053 0.704322 205 177 205
4.000000 -1.000000 -12.000000 -0.999750 0.000000 0.022341 0.267053 0.704322 205 177 205
-8.000000 -2.000000 -4.000000 0.000000 0.000000 -1.000000 0.263239 0.701779 208 180 208
-4.000000 -2.272051 -4.000000 0.000000 0.000000 -1.000000 0.264511 0.701779 209 181 209
-4.000000 -3.000000 -4.000000 0.000000 0.000000 -1.000000 0.264511 0.701779 209 181 209
-4.000000 -2.272051 -20.000000 -0.948683 0.000000 -0.316228 0.264511 0.706865 255 255 255
-3.000000 -3.000000 -23.000000 -0.948683 0.000000 -0.316228 0.264828 0.707818 255 255 255
-4.000000 -3.000000 -20.000000 -0.948683 0.000000 -0.316228 0.264511 0.706865 255 255 255
-12.000000 -0.272051 -8.000000 -0.000000 0.000000 -1.000000 0.261968 0.703050 255 254 255
-8.000000 0.000000 -8.000000 -0.000000 0.000000 -1.000000 0.263239 0.703050 254 253 254
-12.000000 -1.000000 -8.000000 -0.000000 0.000000 -1.000000 0.261968 0.703050 255 254 255
4.000000 -2.272051 -24.000000 0.316228 0.000000 -0.948683 0.267053 0.708136 255 255 255
7.000000 -3.000000 -23.000000 0.316228 0.000000 -0.948683 0.268007 0.707818 204 204 204
4.000000 -3.000000 -24.000000 0.316228 0.000000 -0.948683 0.267053 0.708136 255 255 255
7.000000 -2.272051 -23.000000 0.948683 0.000000 -0.316228 0.268007 0.707818 240 240 240
8.000000 -3.000000 -20.000000 0.948683 0.000000 -0.316228 0.268325 0.706865 202 202 202
7.000000 -3.000000 -23.000000 0.948683 0.000000 -0.316228 0.268007 0.707818 204 204 204
0.000000 -2.272051 -24.000000 0.000000 0.000000 -1.000000 0.265782 0.708136 255 255 255
4.000000 -3.000000 -24.000000 0.000000 0.000000 -1.000000 0.267053 0.708136 255 255 255
0.000000 -3.000000 -24.000000 0.000000 0.000000 -1.000000 0.265782 0.708136 255 255 255
4.000000 -2.272051 -12.000000 1.000000 -0.000000 0.000000 0.267053 0.704322 254 254 254
4.000000 -3.000000 -8.000000 1.000000 -0.000000 0.000000 0.267053 0.703050 225 225 225
4.000000 -3.000000 -12.000000 1.000000 -0.000000 0.000000 0.267053 0.704322 254 254 254
-16.000000 -0.272051 -4.000000 -0.948683 0.000000 -0.316228 0.260696 0.701779 255 255 255
-15.000000 -1.000000 -7.000000 -0.948683 0.000000 -0.316228 0.261014 0.702732 255 255 255
-16.000000 -1.000000 -4.000000 -0.948683 0.000000 -0.316228 0.260696 0.701779 255 255 255
4.000000 -2.272051 -20.000000 1.000000 -0.000000 0.000000 0.267053 0.706865 255 255 255
4.000000 -3.000000 -16.000000 1.000000 -0.000000 0.000000 0.267053 0.705593 202 202 202
4.000000 -3.000000 -20.000000 1.000000 -0.000000 0.000000 0.267053 0.706865 202 202 202
8.000000 -1.272051 -16.000000 1.000000 -0.000000 0.000000 0.268325 0.705593 254 254 254
8.000000 -1.000000 -12.000000 1.000000 -0.000000 0.000000 0.268325 0.704322 211 211 211
8.000000 -2.000000 -16.000000 1.000000 -0.000000 0.000000 0.268325 0.705593 202 202 202
8.000000 -2.272051 -20.000000 1.000000 -0.000000 0.000000 0.268325 0.706865 240 240 240
8.000000 -3.000000 -20.000000 1.000000 -0.000000 0.000000 0.268325 0.706865 202 202 202
-12.000000 -1.000000 -4.000000 0.000000 0.000000 -1.000000 0.261968 0.701779 255 255 255
-8.000000 -1.272051 -4.000000 0.000000 0.000000 -1.000000 0.263239 0.701779 208 180 208
-4.000000 -2.272051 -12.000000 -1.000000 0.000000 0.000000 0.264511 0.704322 254 254 254
-4.000000 -3.000000 -12.000000 -1.000000 0.000000 0.000000 0.264511 0.704322 254 254 254
4.000000 -1.000000 -12.000000 -1.000000 0.000000 0.000000 0.267053 0.704322 205 177 205
4.000000 -1.272051 -16.000000 -1.000000 0.000000 0.000000 0.267053 0.705593 208 180 208
4.000000 -2.000000 -16.000000 -1.000000 0.000000 0.000000 0.267053 0.705593 208 180 208
-4.000000 -2.272051 -8.000000 -1.000000 0.000000 0.000000 0.264511 0.703050 254 254 254
-4.000000 -3.000000 -8.000000 -1.000000 0.000000 0.000000 0.264511 0.703050 254 254 254
4.000000 -2.272051 -16.000000 1.000000 -0.000000 0.000000 0.267053 0.705593 228 228 228
-8.000000 0.727949 -8.000000 0.000000 0.000000 -1.000000 0.263239 0.703050 254 253 254
-4.089385 0.000000 -8.000000 0.000000 0.000000 -1.000000 0.264482 0.703050 255 255 255
8.000000 0.727949 -8.000000 0.952856 0.000000 0.303423 0.268325 0.703050 206 206 206
7.044693 0.000000 -5.000000 0.952856 0.000000 0.303423 0.268021 0.702097 204 204 204
8.000000 0.000000 -8.000000 0.952856 0.000000 0.303423 0.268325 0.703050 202 202 202
-4.000000 -2.272051 0.000000 -0.000000 -0.000000 1.000000 0.264511 0.700507 254 254 254
-8.000000 -2.124720 0.000000 -0.000000 -0.000000 1.000000 0.263239 0.700507 255 255 255
-4.000000 -3.000000 0.000000 -0.000000 -0.000000 1.000000 0.264511 0.700507 254 254 254
-8.000000 -1.396771 0.000000 -0.000000 -0.000000 1.000000 0.263239 0.700507 255 255 255
-12.000000 -1.124720 0.000000 -0.000000 -0.000000 1.000000 0.261968 0.700507 255 255 255
4.000000 -2.272051 -8.000000 1.000000 -0.000000 0.000000 0.267053 0.703050 233 233 233
4.000000 -3.000000 -4.000000 1.000000 -0.000000 0.000000 0.267053 0.701779 202 202 202
8.000000 -0.272051 -12.000000 1.000000 -0.000000 0.000000 0.268325 0.704322 254 254 254
8.000000 0.000000 -8.000000 1.000000 -0.000000 0.000000 0.268325 0.703050 202 202 202
0.000000 -2.272051 0.000000 0.000000 -0.000000 1.000000 0.265782 0.700507 254 254 254
-4.000000 -3.000000 0.000000 0.000000 -0.000000 1.000000 0.264511 0.700507 204 204 204
0.000000 -3.000000 0.000000 0.000000 -0.000000 1.000000 0.265782 0.700507 202 202 202
4.000000 -2.272051 -4.000000 0.948683 0.000000 0.316228 0.267053 0.701779 254 254 254
3.000000 -3.000000 -1.000000 0.948683 0.000000 0.316228 0.266736 0.700825 202 202 202
4.000000 -3.000000 -4.000000 0.948683 0.000000 0.316228 0.267053 0.701779 202 202 202
-12.000000 -0.396771 0.000000 -0.316228 0.000000 0.948683 0.261968 0.700507 255 255 255
-15.000000 -1.062360 -1.000000 -0.316228 0.000000 0.948683 0.261014 0.700825 255 255 255
-12.000000 -1.124720 0.000000 -0.316228 0.000000 0.948683 0.261968 0.700507 255 255 255
4.000000 -2.272051 -20.000000 -1.000000 0.000000 0.000000 0.267053 0.706865 255 255 255
4.000000 -3.000000 -20.000000 -1.000000 0.000000 0.000000 0.267053 0.706865 255 255 255
-4.089385 0.727949 -4.000000 0.000000 -0.000000 1.000000 0.264482 0.701779 254 254 254
-8.000000 0.000000 -4.000000 0.000000 -0.000000 1.000000 0.263239 0.701779 254 254 254
-4.089385 0.000000 -4.000000 0.000000 -0.000000 1.000000 0.264482 0.701779 254 254 254
-15.000000 -0.334411 -1.000000 -0.948683 0.000000 0.316228 0.261014 0.700825 255 255 255
-16.000000 -1.000000 -4.000000 -0.948683 0.000000 0.316228 0.260696 0.701779 255 255 255
-15.000000 -1.062360 -1.000000 -0.948683 0.000000 0.316228 0.261014 0.700825 255 255 255
-8.000000 0.000000 -4.000000 0.000000 0.000000 1.000000 0.263239 0.701779 234 203 234
-12.000000 -0.272051 -4.000000 0.000000 0.000000 1.000000 0.261968 0.701779 255 255 255
-12.000000 -1.000000 -4.000000 0.000000 0.000000 1.000000 0.261968 0.701779 255 255 255
7.044693 0.727949 -5.000000 0.320522 0.000000 0.947241 0.268021 0.702097 242 242 242
4.089385 0.000000 -4.000000 0.320522 0.000000 0.947241 0.267082 0.701779 202 202 202
7.044693 0.000000 -5.000000 0.320522 0.000000 0.947241 0.268021 0.702097 204 204 204
-4.000000 -2.272051 -4.000000 -1.000000 0.000000 0.000000 0.264511 0.701779 221 214 221
-4.000000 -3.000000 -4.000000 -1.000000 0.000000 0.000000 0.264511 0.701779 251 250 251
0.000000 -2.272051 -24.000000 0.316228 0.000000 0.948683 0.265782 0.708136 255 255 255
-12.000000 -0.272051 -8.000000 0.316228 0.000000 0.948683 0.261968 0.703050 255 254 255
0.000000 -2.272051 0.000000 -0.316228 -0.000000 -0.948683 0.265782 0.700507 195 169 195
-4.000000 -2.272051 -20.000000 1.000000 0.000000 0.000000 0.264511 0.706865 255 255 255
4.089385 0.000000 -8.000000 0.999750 0.000000 -0.022341 0.267082 0.703050 254 254 254
4.000000 -1.000000 -12.000000 0.999750 0.000000 -0.022341 0.267053 0.704322 254 254 254
4.000000 -0.272051 -12.000000 0.999750 0.000000 -0.022341 0.267053 0.704322 254 254 254
-8.000000 -2.000000 -4.000000 0.000000 0.000000 1.000000 0.263239 0.701779 254 254 254
-4.000000 -3.000000 -4.000000 0.000000 0.000000 1.000000 0.264511 0.701779 253 252 253
-4.000000 -2.272051 -4.000000 0.000000 0.000000 1.000000 0.264511 0.701779 240 231 240
-3.000000 -2.272051 -23.000000 0.948683 0.000000 0.316228 0.264828 0.707818 255 255 255
-8.000000 0.727949 -8.000000 -0.000000 0.000000 1.000000 0.263239 0.703050 211 211 211
7.000000 -2.272051 -23.000000 -0.316228 0.000000 0.948683 0.268007 0.707818 255 255 255
8.000000 -2.272051 -20.000000 -0.948683 0.000000 0.316228 0.268325 0.706865 255 255 255
4.000000 -2.272051 -24.000000 -0.000000 0.000000 1.000000 0.267053 0.708136 255 255 255
-15.000000 -0.272051 -7.000000 0.948683 0.000000 0.316228 0.261014 0.702732 255 255 255
8.000000 -0.272051 -12.000000 -1.000000 0.000000 0.000000 0.268325 0.704322 231 230 231
-8.000000 -1.272051 -4.000000 0.000000 0.000000 1.000000 0.263239 0.701779 254 254 254
4.000000 -1.000000 -12.000000 1.000000 0.000000 -0.000000 0.267053 0.704322 254 254 254
4.000000 -2.000000 -16.000000 1.000000 0.000000 -0.000000 0.267053 0.705593 254 254 254
4.000000 -1.272051 -16.000000 1.000000 0.000000 -0.000000 0.267053 0.705593 254 254 254
4.000000 -2.272051 -12.000000 -1.000000 0.000000 0.000000 0.267053 0.704322 255 255 255
-4.089385 0.727949 -8.000000 -0.000000 0.000000 1.000000 0.264482 0.703050 255 255 255
7.044693 0.727949 -5.000000 -0.952856 -0.000000 -0.303423 0.268021 0.702097 233 233 233
-12.000000 -0.396771 0.000000 -0.000000 -0.000000 -1.000000 0.261968 0.700507 255 255 255
4.000000 -2.272051 -4.000000 -1.000000 0.000000 0.000000 0.267053 0.701779 146 127 146
8.000000 0.727949 -8.000000 -1.000000 0.000000 0.000000 0.268325 0.703050 255 255 255
3.000000 -2.272051 -1.000000 -0.948683 -0.000000 -0.316228 0.266736 0.700825 198 172 198
-15.000000 -0.334411 -1.000000 0.316228 0.000000 -0.948683 0.261014 0.700825 255 255 255
4.000000 -3.000000 -20.000000 1.000000 0.000000 -0.000000 0.267053 0.706865 255 255 255
-16.000000 -0.272051 -4.000000 0.948683 0.000000 -0.316228 0.260696 0.701779 255 255 255
-8.000000 0.000000 -4.000000 0.000000 0.000000 -1.000000 0.263239 0.701779 254 254 254
-12.000000 -1.000000 -4.000000 0.000000 0.000000 -1.000000 0.261968 0.701779 255 255 255
4.089385 0.727949 -4.000000 -0.320522 -0.000000 -0.947241 0.267082 0.701779 211 211 211
-4.000000 -2.272051 -8.000000 1.000000 0.000000 0.000000 0.264511 0.703050 121 104 121
0.000000 -2.272051 -24.000000 -0.316228 0.000000 -0.948683 0.265782 0.708136 255 255 255
-12.000000 -0.272051 -8.000000 -0.316228 0.000000 -0.948683 0.261968 0.703050 255 254 255
0.000000 -2.272051 0.000000 0.316228 -0.000000 0.948683 0.265782 0.700507 254 254 254
-4.000000 -2.272051 -20.000000 -1.000000 0.000000 0.000000 0.264511 0.706865 255 255 255
4.089385 0.000000 -8.000000 -0.999750 0.000000 0.022341 0.267082 0.703050 254 254 254
4.089385 0.727949 -8.000000 -0.999750 0.000000 0.022341 0.267082 0.703050 254 254 254
4.000000 -0.272051 -12.000000 -0.999750 0.000000 0.022341 0.267053 0.704322 254 254 254
-8.000000 -2.000000 -4.000000 -0.000000 -0.000000 -1.000000 0.263239 0.701779 254 254 254
-8.000000 -1.272051 -4.000000 -0.000000 -0.000000 -1.000000 0.263239 0.701779 254 254 254
-4.000000 -2.272051 -4.000000 -0.000000 -0.000000 -1.000000 0.264511 0.701779 240 231 240
-3.000000 -2.272051 -23.000000 -0.948683 0.000000 -0.316228 0.264828 0.707818 255 255 255
7.000000 -2.272051 -23.000000 0.316228 0.000000 -0.948683 0.268007 0.707818 240 240 240
8.000000 -2.272051 -20.000000 0.948683 0.000000 -0.316228 0.268325 0.706865 240 240 240
4.000000 -2.272051 -24.000000 0.000000 0.000000 -1.000000 0.267053 0.708136 255 255 255
4.000000 -2.272051 -8.000000 1.000000 -0.000000 0.000000 0.267053 0.703050 234 234 234
-15.000000 -0.272051 -7.000000 -0.948683 0.000000 -0.316228 0.261014 0.702732 255 255 255
-12.000000 -0.272051 -4.000000 -0.000000 -0.000000 -1.000000 0.261968 0.701779 255 255 255
4.000000 -1.000000 -12.000000 -1.000000 0.000000 0.000000 0.267053 0.704322 254 254 254
4.000000 -0.272051 -12.000000 -1.000000 0.000000 0.000000 0.267053 0.704322 254 254 254
4.000000 -1.272051 -16.000000 -1.000000 0.000000 0.000000 0.267053 0.705593 254 254 254
-4.089385 0.727949 -8.000000 0.000000 0.000000 -1.000000 0.264482 0.703050 255 255 255
7.044693 0.727949 -5.000000 0.952856 -0.000000 0.303423 0.268021 0.702097 242 242 242
-12.000000 -0.396771 0.000000 -0.000000 0.000000 1.000000 0.261968 0.700507 255 255 255
4.000000 -2.272051 -4.000000 1.000000 -0.000000 0.000000 0.267053 0.701779 202 202 202
8.000000 0.727949 -8.000000 1.000000 -0.000000 0.000000 0.268325 0.703050 251 251 251
3.000000 -2.272051 -1.000000 0.948683 -0.000000 0.316228 0.266736 0.700825 252 251 252
-15.000000 -0.334411 -1.000000 -0.316228 0.000000 0.948683 0.261014 0.700825 255 255 255
4.000000 -2.000000 -16.000000 -1.000000 0.000000 0.000000 0.267053 0.705593 254 254 254
-8.000000 0.727949 -4.000000 0.000000 0.000000 1.000000 0.263239 0.701779 254 254 254
-16.000000 -0.272051 -4.000000 -0.948683 0.000000 0.316228 0.260696 0.701779 255 255 255
4.089385 0.727949 -4.000000 0.320522 -0.000000 0.947241 0.267082 0.701779 228 228 228
3 0 1 2
3 3 4 5
3 6 7 8
3 3 9 4
3 8 10 11
3 12 13 11
3 14 15 16
3 9 17 4
3 0 18 1
3 19 9 3
3 20 3 21
3 11 10 22
3 21 5 23
3 24 18 0
3 25 26 27
3 28 29 30
3 31 32 33
3 8 7 10
3 12 11 9
3 14 34 15
3 9 11 17
3 20 19 3
3 21 3 5
3 24 35 18
3 36 37 38
3 28 39 29
3 40 41 42
3 31 43 32
3 19 12 9
3 44 45 46
3 44 47 45
3 48 49 50
3 48 51 49
3 52 53 54
3 55 56 39
3 57 58 59
3 60 61 62
3 61 16 62
3 61 14 16
3 63 64 65
3 17 11 22
3 66 67 68
3 69 52 54
3 70 6 8
3 71 63 65
3 28 55 39
3 72 73 74
3 75 76 77
3 78 79 80
3 81 82 83
3 84 85 86
3 87 88 89
3 90 91 92
3 93 94 95
3 96 97 98
3 99 100 101
3 102 103 104
3 105 106 107
3 108 109 110
3 111 112 113
3 114 115 116
3 116 117 118
3 119 89 120
3 83 121 122
3 123 124 125
3 122 126 127
3 128 129 111
3 130 131 132
3 133 134 135
3 136 137 138
3 139 140 136
3 141 142 105
3 143 144 145
3 138 146 147
3 148 149 150
3 151 152 153
3 154 155 124
3 156 157 158
3 159 160 161
3 156 162 163
3 164 165 166
3 167 168 169
3 170 171 172
3 173 174 175
3 176 177 178
3 179 180 181
3 182 183 184
3 185 186 187
3 188 189 190
3 191 192 193
3 194 195 196
3 197 198 199
3 200 201 202
3 203 204 205
3 206 207 208
3 209 210 211
3 212 213 214
3 215 214 216
3 217 218 185
3 219 181 220
3 221 222 223
3 224 220 225
3 226 205 210
3 227 228 192
3 229 230 231
3 232 233 234
3 235 236 233
3 237 238 204
3 239 240 213
3 241 242 243
3 244 245 246
3 247 248 249
3 223 250 251
3 252 253 254
3 255 256 257
3 258 259 260
3 261 262 263
3 264 225 265
3 72 266 73
3 75 267 76
3 78 268 79
3 81 269 82
3 270 271 272
3 273 274 275
3 90 276 91
3 93 277 94
3 96 278 97
3 99 279 100
3 102 280 103
3 105 142 106
3 108 281 109
3 111 129 112
3 114 282 115
3 116 115 117
3 119 273 283
3 83 82 121
3 284 285 286
3 122 121 126
3 128 287 129
3 130 288 131
3 133 289 134
3 136 140 137
3 139 290 140
3 141 291 142
3 143 292 144
3 138 137 146
3 148 293 149
3 151 294 152
3 285 295 155
3 156 163 157
3 159 296 160
3 297 298 162
3 164 299 165
3 167 300 168
3 170 301 171
3 173 302 174
3 176 303 177
3 179 304 180
3 305 306 307
3 308 309 310
3 188 311 189
3 191 227 192
3 194 312 195
3 197 313 198
3 200 314 201
3 203 315 204
3 206 316 207
3 209 226 210
3 212 239 213
3 215 212 214
3 217 317 309
3 219 179 181
3 318 319 320
3 224 219 220
3 226 203 205
3 227 321 228
3 229 322 230
3 232 235 233
3 235 323 236
3 237 324 238
3 239 325 240
3 241 232 242
3 244 326 245
3 247 327 248
3 328 320 250
3 252 329 253
3 255 330 256
3 253 329 259
3 261 331 262
3 264 224 225
