ply
format ascii 1.0
comment Created by Blender 2.79 (sub 0) - www.blender.org, source file: 'Animations.blend'
element vertex 24
property float x
property float y
property float z
property float nx
property float ny
property float nz
property float s
property float t
property uchar red
property uchar green
property uchar blue
element face 12
property list uchar uint vertex_indices
end_header
-0.500000 0.040000 1.500000 -1.000000 0.000000 -0.000000 1.000000 0.000000 143 142 144
-0.500000 -0.040000 -1.500000 -1.000000 0.000000 -0.000000 0.000000 0.000000 146 145 147
-0.500000 -0.040000 1.500000 -1.000000 0.000000 -0.000000 1.000000 0.000000 143 142 144
-0.500000 0.040000 -1.500000 -0.000000 0.000000 -1.000000 0.000000 0.000000 147 146 148
0.500000 -0.040000 -1.500000 -0.000000 0.000000 -1.000000 0.000000 1.000000 143 142 144
-0.500000 -0.040000 -1.500000 -0.000000 0.000000 -1.000000 0.000000 0.000000 146 145 147
0.500000 0.040000 -1.500000 1.000000 -0.000000 0.000000 0.000000 1.000000 143 142 144
0.500000 -0.040000 1.500000 1.000000 -0.000000 0.000000 1.000000 1.000000 141 140 142
0.500000 -0.040000 -1.500000 1.000000 -0.000000 0.000000 0.000000 1.000000 143 142 144
0.500000 0.040000 1.500000 0.000000 0.000000 1.000000 1.000000 1.000000 143 142 144
-0.500000 -0.040000 1.500000 0.000000 0.000000 1.000000 1.000000 0.000000 143 142 144
0.500000 -0.040000 1.500000 0.000000 0.000000 1.000000 1.000000 1.000000 143 142 144
0.500000 -0.040000 -1.500000 0.000000 -1.000000 0.000000 0.000000 1.000000 143 142 144
-0.500000 -0.040000 1.500000 0.000000 -1.000000 0.000000 1.000000 0.000000 143 142 144
-0.500000 -0.040000 -1.500000 0.000000 -1.000000 0.000000 0.000000 0.000000 146 145 147
-0.500000 0.040000 -1.500000 0.000000 1.000000 -0.000000 0.000000 0.000000 252 249 254
0.500000 0.040000 1.500000 0.000000 1.000000 -0.000000 1.000000 1.000000 251 249 254
0.500000 0.040000 -1.500000 0.000000 1.000000 -0.000000 0.000000 1.000000 251 249 254
-0.500000 0.040000 -1.500000 -1.000000 0.000000 -0.000000 0.000000 0.000000 147 146 148
0.500000 0.040000 -1.500000 -0.000000 0.000000 -1.000000 0.000000 1.000000 143 142 144
0.500000 0.040000 1.500000 1.000000 -0.000000 0.000000 1.000000 1.000000 141 140 142
-0.500000 0.040000 1.500000 0.000000 -0.000000 1.000000 1.000000 0.000000 143 142 144
0.500000 -0.040000 1.500000 0.000000 -1.000000 0.000000 1.000000 1.000000 143 142 144
-0.500000 0.040000 1.500000 0.000000 1.000000 0.000000 1.000000 0.000000 244 243 247
3 0 1 2
3 3 4 5
3 6 7 8
3 9 10 11
3 12 13 14
3 15 16 17
3 0 18 1
3 3 19 4
3 6 20 7
3 9 21 10
3 12 22 13
3 15 23 16
